G04 #@! TF.GenerationSoftware,KiCad,Pcbnew,(5.1.5)-3*
G04 #@! TF.CreationDate,2021-12-10T20:52:45-03:00*
G04 #@! TF.ProjectId,server,73657276-6572-42e6-9b69-6361645f7063,rev?*
G04 #@! TF.SameCoordinates,Original*
G04 #@! TF.FileFunction,Copper,L2,Bot*
G04 #@! TF.FilePolarity,Positive*
%FSLAX46Y46*%
G04 Gerber Fmt 4.6, Leading zero omitted, Abs format (unit mm)*
G04 Created by KiCad (PCBNEW (5.1.5)-3) date 2021-12-10 20:52:45*
%MOMM*%
%LPD*%
G04 APERTURE LIST*
%ADD10C,2.100000*%
%ADD11C,1.750000*%
%ADD12R,3.500000X3.500000*%
%ADD13C,0.100000*%
%ADD14C,1.700000*%
%ADD15C,3.500000*%
%ADD16R,1.700000X1.700000*%
%ADD17C,1.905000*%
%ADD18C,1.665000*%
%ADD19C,1.800000*%
%ADD20R,1.800000X1.800000*%
%ADD21C,1.270000*%
%ADD22C,0.800000*%
%ADD23C,0.812800*%
%ADD24C,0.812800*%
%ADD25C,0.508000*%
%ADD26C,0.254000*%
G04 APERTURE END LIST*
D10*
X40924800Y-84108760D03*
D11*
X39674800Y-86598760D03*
X35174800Y-86598760D03*
D10*
X33914800Y-84108760D03*
D12*
X38963600Y-35260000D03*
G04 #@! TA.AperFunction,ComponentPad*
D13*
G36*
X35224365Y-30514213D02*
G01*
X35309304Y-30526813D01*
X35392599Y-30547677D01*
X35473448Y-30576605D01*
X35551072Y-30613319D01*
X35624724Y-30657464D01*
X35693694Y-30708616D01*
X35757318Y-30766282D01*
X35814984Y-30829906D01*
X35866136Y-30898876D01*
X35910281Y-30972528D01*
X35946995Y-31050152D01*
X35975923Y-31131001D01*
X35996787Y-31214296D01*
X36009387Y-31299235D01*
X36013600Y-31385000D01*
X36013600Y-33135000D01*
X36009387Y-33220765D01*
X35996787Y-33305704D01*
X35975923Y-33388999D01*
X35946995Y-33469848D01*
X35910281Y-33547472D01*
X35866136Y-33621124D01*
X35814984Y-33690094D01*
X35757318Y-33753718D01*
X35693694Y-33811384D01*
X35624724Y-33862536D01*
X35551072Y-33906681D01*
X35473448Y-33943395D01*
X35392599Y-33972323D01*
X35309304Y-33993187D01*
X35224365Y-34005787D01*
X35138600Y-34010000D01*
X33388600Y-34010000D01*
X33302835Y-34005787D01*
X33217896Y-33993187D01*
X33134601Y-33972323D01*
X33053752Y-33943395D01*
X32976128Y-33906681D01*
X32902476Y-33862536D01*
X32833506Y-33811384D01*
X32769882Y-33753718D01*
X32712216Y-33690094D01*
X32661064Y-33621124D01*
X32616919Y-33547472D01*
X32580205Y-33469848D01*
X32551277Y-33388999D01*
X32530413Y-33305704D01*
X32517813Y-33220765D01*
X32513600Y-33135000D01*
X32513600Y-31385000D01*
X32517813Y-31299235D01*
X32530413Y-31214296D01*
X32551277Y-31131001D01*
X32580205Y-31050152D01*
X32616919Y-30972528D01*
X32661064Y-30898876D01*
X32712216Y-30829906D01*
X32769882Y-30766282D01*
X32833506Y-30708616D01*
X32902476Y-30657464D01*
X32976128Y-30613319D01*
X33053752Y-30576605D01*
X33134601Y-30547677D01*
X33217896Y-30526813D01*
X33302835Y-30514213D01*
X33388600Y-30510000D01*
X35138600Y-30510000D01*
X35224365Y-30514213D01*
G37*
G04 #@! TD.AperFunction*
G04 #@! TA.AperFunction,ComponentPad*
G36*
X40037113Y-27763611D02*
G01*
X40109918Y-27774411D01*
X40181314Y-27792295D01*
X40250613Y-27817090D01*
X40317148Y-27848559D01*
X40380278Y-27886398D01*
X40439395Y-27930242D01*
X40493930Y-27979670D01*
X40543358Y-28034205D01*
X40587202Y-28093322D01*
X40625041Y-28156452D01*
X40656510Y-28222987D01*
X40681305Y-28292286D01*
X40699189Y-28363682D01*
X40709989Y-28436487D01*
X40713600Y-28510000D01*
X40713600Y-30010000D01*
X40709989Y-30083513D01*
X40699189Y-30156318D01*
X40681305Y-30227714D01*
X40656510Y-30297013D01*
X40625041Y-30363548D01*
X40587202Y-30426678D01*
X40543358Y-30485795D01*
X40493930Y-30540330D01*
X40439395Y-30589758D01*
X40380278Y-30633602D01*
X40317148Y-30671441D01*
X40250613Y-30702910D01*
X40181314Y-30727705D01*
X40109918Y-30745589D01*
X40037113Y-30756389D01*
X39963600Y-30760000D01*
X37963600Y-30760000D01*
X37890087Y-30756389D01*
X37817282Y-30745589D01*
X37745886Y-30727705D01*
X37676587Y-30702910D01*
X37610052Y-30671441D01*
X37546922Y-30633602D01*
X37487805Y-30589758D01*
X37433270Y-30540330D01*
X37383842Y-30485795D01*
X37339998Y-30426678D01*
X37302159Y-30363548D01*
X37270690Y-30297013D01*
X37245895Y-30227714D01*
X37228011Y-30156318D01*
X37217211Y-30083513D01*
X37213600Y-30010000D01*
X37213600Y-28510000D01*
X37217211Y-28436487D01*
X37228011Y-28363682D01*
X37245895Y-28292286D01*
X37270690Y-28222987D01*
X37302159Y-28156452D01*
X37339998Y-28093322D01*
X37383842Y-28034205D01*
X37433270Y-27979670D01*
X37487805Y-27930242D01*
X37546922Y-27886398D01*
X37610052Y-27848559D01*
X37676587Y-27817090D01*
X37745886Y-27792295D01*
X37817282Y-27774411D01*
X37890087Y-27763611D01*
X37963600Y-27760000D01*
X39963600Y-27760000D01*
X40037113Y-27763611D01*
G37*
G04 #@! TD.AperFunction*
D14*
X55500000Y-34770000D03*
D15*
X48230000Y-32060000D03*
D14*
X53000000Y-34770000D03*
D16*
X53000000Y-36770000D03*
D14*
X55500000Y-36770000D03*
D15*
X60270000Y-32060000D03*
D17*
X68910200Y-53000000D03*
X71450200Y-53000000D03*
X73990200Y-53000000D03*
X76530200Y-53000000D03*
X79070200Y-53000000D03*
X81610200Y-53000000D03*
X84150200Y-53000000D03*
X86690200Y-53000000D03*
X89230200Y-53000000D03*
D18*
X68910200Y-27600000D03*
X71450200Y-27600000D03*
X73990200Y-27600000D03*
X76530200Y-27600000D03*
X79070200Y-27600000D03*
D19*
X45229780Y-82595720D03*
D20*
X45229780Y-80055720D03*
D19*
X57647840Y-82595720D03*
D20*
X57647840Y-80055720D03*
D19*
X51374040Y-82595720D03*
D20*
X51374040Y-80055720D03*
D21*
X71244460Y-63220600D03*
X64119760Y-47139860D03*
X44919900Y-51823620D03*
D22*
X41910000Y-79629000D03*
X38100000Y-79629000D03*
X34290000Y-79629000D03*
X30480000Y-79629000D03*
X30480000Y-83185000D03*
X45339000Y-74803000D03*
X50673000Y-74041000D03*
X54483000Y-74041000D03*
X57531000Y-72136000D03*
X57531000Y-68453000D03*
X48133000Y-60706000D03*
X35687000Y-41910000D03*
X29845000Y-32766000D03*
X51689000Y-29083000D03*
X57150000Y-29083000D03*
X68580000Y-36830000D03*
X78740000Y-36830000D03*
X95377000Y-36703000D03*
X95250000Y-41910000D03*
X95250000Y-47117000D03*
X87630000Y-41910000D03*
X69596000Y-41910000D03*
X71120000Y-46990000D03*
X78740000Y-47117000D03*
X87757000Y-46863000D03*
X87630000Y-30226000D03*
X88900000Y-86741000D03*
X88900000Y-83058000D03*
X94107000Y-86360000D03*
X96012000Y-83058000D03*
X95504000Y-66167000D03*
X44958000Y-57150000D03*
X54991000Y-49403000D03*
X29845000Y-56388000D03*
X45974000Y-38481000D03*
X64262000Y-29210000D03*
X62230000Y-38227000D03*
X64389000Y-65024000D03*
X90170000Y-64897000D03*
X37465000Y-83566000D03*
X48387000Y-84836000D03*
X33782000Y-68961000D03*
X73685400Y-57048400D03*
X80340200Y-57175400D03*
X92811600Y-57124600D03*
X82880200Y-59055000D03*
D21*
X34975800Y-63652400D03*
X34975800Y-47447200D03*
X40721280Y-40406320D03*
D23*
X35577780Y-66997580D03*
X35577780Y-73626980D03*
D22*
X40490140Y-58740040D03*
X48912780Y-55664100D03*
D21*
X40487600Y-63489840D03*
X40487600Y-63489840D03*
X62857380Y-71150480D03*
X62852300Y-75186540D03*
X63560960Y-55443120D03*
X62852300Y-85003640D03*
D23*
X75138280Y-61465460D03*
X75138280Y-81158080D03*
D22*
X68341240Y-64820800D03*
X68325000Y-73178400D03*
X68353940Y-75788520D03*
X68348860Y-86659720D03*
X76530200Y-77132180D03*
D23*
X79067660Y-73179940D03*
X80921860Y-71170800D03*
X82654140Y-69166740D03*
X73299320Y-69154040D03*
X73299320Y-62788800D03*
D22*
X86690200Y-60020200D03*
D23*
X88198960Y-74566780D03*
D22*
X45857160Y-42768520D03*
X39784020Y-74145140D03*
X66238120Y-62710060D03*
X66235580Y-56799480D03*
X61295280Y-78262480D03*
X61295280Y-65664080D03*
X57668160Y-75615800D03*
X59974480Y-79517240D03*
X59977020Y-66403220D03*
D24*
X71244460Y-63220600D02*
X71244460Y-56959500D01*
X71450200Y-56753760D02*
X71450200Y-53000000D01*
X71244460Y-56959500D02*
X71450200Y-56753760D01*
X64119760Y-47139860D02*
X49603660Y-47139860D01*
X49603660Y-47139860D02*
X44919900Y-51823620D01*
X34975800Y-63652400D02*
X34975800Y-47447200D01*
X40721280Y-40406320D02*
X65407540Y-40406320D01*
X68910200Y-43908980D02*
X68910200Y-53000000D01*
X65407540Y-40406320D02*
X68910200Y-43908980D01*
D25*
X35577780Y-66997580D02*
X35577780Y-73626980D01*
X41055825Y-58740040D02*
X41063445Y-58732420D01*
X40490140Y-58740040D02*
X41055825Y-58740040D01*
X41063445Y-58732420D02*
X45844460Y-58732420D01*
X45844460Y-58732420D02*
X48912780Y-55664100D01*
D24*
X40487600Y-63489840D02*
X62865000Y-63489840D01*
X62865000Y-63489840D02*
X62857380Y-63497460D01*
X62857380Y-63497460D02*
X62857380Y-71150480D01*
X62857380Y-71150480D02*
X62857380Y-75181460D01*
X62857380Y-75181460D02*
X62852300Y-75186540D01*
X62865000Y-63489840D02*
X62865000Y-56139080D01*
X62865000Y-56139080D02*
X63560960Y-55443120D01*
X62852300Y-75186540D02*
X62852300Y-85003640D01*
D25*
X75138280Y-61465460D02*
X75138280Y-81158080D01*
X68341240Y-65386485D02*
X68326000Y-65401725D01*
X68341240Y-64820800D02*
X68341240Y-65386485D01*
X68326000Y-73177400D02*
X68325000Y-73178400D01*
X68326000Y-65401725D02*
X68326000Y-73177400D01*
X68353940Y-86654640D02*
X68348860Y-86659720D01*
X68353940Y-75788520D02*
X68353940Y-86654640D01*
X76530200Y-77132180D02*
X76530200Y-53000000D01*
X79070200Y-53000000D02*
X79070200Y-73177400D01*
X79070200Y-73177400D02*
X79067660Y-73179940D01*
X81610200Y-54177332D02*
X81597500Y-54190032D01*
X81610200Y-53000000D02*
X81610200Y-54177332D01*
X81597500Y-54190032D02*
X81597500Y-61231780D01*
X81597500Y-61231780D02*
X80921860Y-61907420D01*
X80921860Y-61907420D02*
X80921860Y-71170800D01*
X84150200Y-53000000D02*
X84150200Y-62158880D01*
X84150200Y-62158880D02*
X82654140Y-63654940D01*
X82654140Y-63654940D02*
X82654140Y-69166740D01*
X73299320Y-62788800D02*
X73299320Y-69154040D01*
X86690200Y-53000000D02*
X86690200Y-60020200D01*
X88198960Y-74566780D02*
X88198960Y-56682640D01*
X89230200Y-55651400D02*
X89230200Y-53000000D01*
X88198960Y-56682640D02*
X89230200Y-55651400D01*
X39784020Y-73579455D02*
X39789100Y-73574375D01*
X39784020Y-74145140D02*
X39784020Y-73579455D01*
X39789100Y-73574375D02*
X39789100Y-69474080D01*
X39789100Y-69474080D02*
X38054280Y-67739260D01*
X38054280Y-67739260D02*
X38054280Y-44389040D01*
X45857160Y-42768520D02*
X39679880Y-42763440D01*
X38054280Y-44389040D02*
X39679880Y-42763440D01*
X66238120Y-62710060D02*
X66238120Y-56802020D01*
X66238120Y-56802020D02*
X66235580Y-56799480D01*
X61295280Y-78262480D02*
X61295280Y-77696795D01*
X61295280Y-77696795D02*
X61295280Y-65664080D01*
X57668160Y-80035400D02*
X57647840Y-80055720D01*
X57668160Y-75615800D02*
X57668160Y-80035400D01*
X59977020Y-79514700D02*
X59974480Y-79517240D01*
X59977020Y-66403220D02*
X59977020Y-79514700D01*
D26*
G36*
X67450248Y-27157128D02*
G01*
X67391900Y-27450461D01*
X67391900Y-27749539D01*
X67450248Y-28042872D01*
X67564700Y-28319185D01*
X67730860Y-28567860D01*
X67942340Y-28779340D01*
X68191015Y-28945500D01*
X68467328Y-29059952D01*
X68760661Y-29118300D01*
X69059739Y-29118300D01*
X69353072Y-29059952D01*
X69629385Y-28945500D01*
X69878060Y-28779340D01*
X70089540Y-28567860D01*
X70180200Y-28432178D01*
X70270860Y-28567860D01*
X70482340Y-28779340D01*
X70731015Y-28945500D01*
X71007328Y-29059952D01*
X71300661Y-29118300D01*
X71599739Y-29118300D01*
X71893072Y-29059952D01*
X72169385Y-28945500D01*
X72418060Y-28779340D01*
X72629540Y-28567860D01*
X72720200Y-28432178D01*
X72810860Y-28567860D01*
X73022340Y-28779340D01*
X73271015Y-28945500D01*
X73547328Y-29059952D01*
X73840661Y-29118300D01*
X74139739Y-29118300D01*
X74433072Y-29059952D01*
X74709385Y-28945500D01*
X74958060Y-28779340D01*
X75169540Y-28567860D01*
X75260200Y-28432178D01*
X75350860Y-28567860D01*
X75562340Y-28779340D01*
X75811015Y-28945500D01*
X76087328Y-29059952D01*
X76380661Y-29118300D01*
X76679739Y-29118300D01*
X76973072Y-29059952D01*
X77249385Y-28945500D01*
X77498060Y-28779340D01*
X77709540Y-28567860D01*
X77800200Y-28432178D01*
X77890860Y-28567860D01*
X78102340Y-28779340D01*
X78351015Y-28945500D01*
X78627328Y-29059952D01*
X78920661Y-29118300D01*
X79219739Y-29118300D01*
X79513072Y-29059952D01*
X79789385Y-28945500D01*
X80038060Y-28779340D01*
X80249540Y-28567860D01*
X80415700Y-28319185D01*
X80530152Y-28042872D01*
X80588500Y-27749539D01*
X80588500Y-27450461D01*
X80530152Y-27157128D01*
X80433588Y-26924000D01*
X94984812Y-26924000D01*
X94902178Y-27006634D01*
X94662969Y-27364636D01*
X94498199Y-27762426D01*
X94414200Y-28184718D01*
X94414200Y-28615282D01*
X94498199Y-29037574D01*
X94662969Y-29435364D01*
X94902178Y-29793366D01*
X95206634Y-30097822D01*
X95564636Y-30337031D01*
X95962426Y-30501801D01*
X96384718Y-30585800D01*
X96815282Y-30585800D01*
X97237574Y-30501801D01*
X97635364Y-30337031D01*
X97993366Y-30097822D01*
X98044000Y-30047188D01*
X98044000Y-84952812D01*
X97993366Y-84902178D01*
X97635364Y-84662969D01*
X97237574Y-84498199D01*
X96815282Y-84414200D01*
X96384718Y-84414200D01*
X95962426Y-84498199D01*
X95564636Y-84662969D01*
X95206634Y-84902178D01*
X94902178Y-85206634D01*
X94662969Y-85564636D01*
X94498199Y-85962426D01*
X94414200Y-86384718D01*
X94414200Y-86815282D01*
X94498199Y-87237574D01*
X94662969Y-87635364D01*
X94902178Y-87993366D01*
X94919812Y-88011000D01*
X87376000Y-88011000D01*
X87376000Y-82169000D01*
X87373560Y-82144224D01*
X87366333Y-82120399D01*
X87354597Y-82098443D01*
X87338803Y-82079197D01*
X87319557Y-82063403D01*
X87297601Y-82051667D01*
X87273776Y-82044440D01*
X87249000Y-82042000D01*
X75781308Y-82042000D01*
X75834517Y-82006447D01*
X75986647Y-81854317D01*
X76106175Y-81675431D01*
X76188508Y-81476663D01*
X76230480Y-81265652D01*
X76230480Y-81050508D01*
X76188508Y-80839497D01*
X76106175Y-80640729D01*
X76078080Y-80598682D01*
X76078080Y-78120168D01*
X76213484Y-78176254D01*
X76423258Y-78217980D01*
X76637142Y-78217980D01*
X76846916Y-78176254D01*
X77044519Y-78094404D01*
X77222357Y-77975576D01*
X77373596Y-77824337D01*
X77492424Y-77646499D01*
X77574274Y-77448896D01*
X77616000Y-77239122D01*
X77616000Y-77025238D01*
X77574274Y-76815464D01*
X77492424Y-76617861D01*
X77470000Y-76584301D01*
X77470000Y-54342413D01*
X77574555Y-54272551D01*
X77800200Y-54046906D01*
X78025845Y-54272551D01*
X78130400Y-54342413D01*
X78130401Y-72616739D01*
X78099765Y-72662589D01*
X78017432Y-72861357D01*
X77975460Y-73072368D01*
X77975460Y-73287512D01*
X78017432Y-73498523D01*
X78099765Y-73697291D01*
X78219293Y-73876177D01*
X78371423Y-74028307D01*
X78550309Y-74147835D01*
X78749077Y-74230168D01*
X78960088Y-74272140D01*
X79175232Y-74272140D01*
X79386243Y-74230168D01*
X79585011Y-74147835D01*
X79763897Y-74028307D01*
X79916027Y-73876177D01*
X80035555Y-73697291D01*
X80117888Y-73498523D01*
X80159860Y-73287512D01*
X80159860Y-73072368D01*
X80117888Y-72861357D01*
X80035555Y-72662589D01*
X80010000Y-72624343D01*
X80010000Y-71772013D01*
X80073493Y-71867037D01*
X80225623Y-72019167D01*
X80404509Y-72138695D01*
X80603277Y-72221028D01*
X80814288Y-72263000D01*
X81029432Y-72263000D01*
X81240443Y-72221028D01*
X81439211Y-72138695D01*
X81618097Y-72019167D01*
X81770227Y-71867037D01*
X81889755Y-71688151D01*
X81972088Y-71489383D01*
X82014060Y-71278372D01*
X82014060Y-71063228D01*
X81972088Y-70852217D01*
X81889755Y-70653449D01*
X81861660Y-70611402D01*
X81861660Y-69918864D01*
X81957903Y-70015107D01*
X82136789Y-70134635D01*
X82335557Y-70216968D01*
X82546568Y-70258940D01*
X82761712Y-70258940D01*
X82972723Y-70216968D01*
X83171491Y-70134635D01*
X83350377Y-70015107D01*
X83502507Y-69862977D01*
X83622035Y-69684091D01*
X83704368Y-69485323D01*
X83746340Y-69274312D01*
X83746340Y-69059168D01*
X83704368Y-68848157D01*
X83622035Y-68649389D01*
X83593940Y-68607342D01*
X83593940Y-64044216D01*
X84782096Y-62856062D01*
X84817954Y-62826634D01*
X84935396Y-62683531D01*
X85022663Y-62520266D01*
X85076402Y-62343113D01*
X85090000Y-62205047D01*
X85090000Y-62205038D01*
X85094546Y-62158881D01*
X85090000Y-62112724D01*
X85090000Y-54342413D01*
X85194555Y-54272551D01*
X85420200Y-54046906D01*
X85645845Y-54272551D01*
X85750400Y-54342413D01*
X85750401Y-59472320D01*
X85727976Y-59505881D01*
X85646126Y-59703484D01*
X85604400Y-59913258D01*
X85604400Y-60127142D01*
X85646126Y-60336916D01*
X85727976Y-60534519D01*
X85846804Y-60712357D01*
X85998043Y-60863596D01*
X86175881Y-60982424D01*
X86373484Y-61064274D01*
X86583258Y-61106000D01*
X86797142Y-61106000D01*
X87006916Y-61064274D01*
X87204519Y-60982424D01*
X87259161Y-60945913D01*
X87259160Y-74007382D01*
X87231065Y-74049429D01*
X87148732Y-74248197D01*
X87106760Y-74459208D01*
X87106760Y-74674352D01*
X87148732Y-74885363D01*
X87231065Y-75084131D01*
X87350593Y-75263017D01*
X87502723Y-75415147D01*
X87681609Y-75534675D01*
X87880377Y-75617008D01*
X88091388Y-75658980D01*
X88306532Y-75658980D01*
X88517543Y-75617008D01*
X88716311Y-75534675D01*
X88895197Y-75415147D01*
X89047327Y-75263017D01*
X89166855Y-75084131D01*
X89249188Y-74885363D01*
X89291160Y-74674352D01*
X89291160Y-74459208D01*
X89249188Y-74248197D01*
X89166855Y-74049429D01*
X89138760Y-74007382D01*
X89138760Y-57071917D01*
X89862095Y-56348583D01*
X89897954Y-56319154D01*
X89927384Y-56283294D01*
X90015396Y-56176052D01*
X90102663Y-56012786D01*
X90127910Y-55929557D01*
X90156402Y-55835633D01*
X90170000Y-55697567D01*
X90170000Y-55697565D01*
X90174547Y-55651400D01*
X90170000Y-55605235D01*
X90170000Y-54342413D01*
X90274555Y-54272551D01*
X90502751Y-54044355D01*
X90682043Y-53776026D01*
X90805541Y-53477874D01*
X90868500Y-53161358D01*
X90868500Y-52838642D01*
X90805541Y-52522126D01*
X90682043Y-52223974D01*
X90502751Y-51955645D01*
X90274555Y-51727449D01*
X90006226Y-51548157D01*
X89708074Y-51424659D01*
X89391558Y-51361700D01*
X89068842Y-51361700D01*
X88752326Y-51424659D01*
X88454174Y-51548157D01*
X88185845Y-51727449D01*
X87960200Y-51953094D01*
X87734555Y-51727449D01*
X87466226Y-51548157D01*
X87168074Y-51424659D01*
X86851558Y-51361700D01*
X86528842Y-51361700D01*
X86212326Y-51424659D01*
X85914174Y-51548157D01*
X85645845Y-51727449D01*
X85420200Y-51953094D01*
X85194555Y-51727449D01*
X84926226Y-51548157D01*
X84628074Y-51424659D01*
X84311558Y-51361700D01*
X83988842Y-51361700D01*
X83672326Y-51424659D01*
X83374174Y-51548157D01*
X83105845Y-51727449D01*
X82880200Y-51953094D01*
X82654555Y-51727449D01*
X82386226Y-51548157D01*
X82088074Y-51424659D01*
X81771558Y-51361700D01*
X81448842Y-51361700D01*
X81132326Y-51424659D01*
X80834174Y-51548157D01*
X80565845Y-51727449D01*
X80340200Y-51953094D01*
X80114555Y-51727449D01*
X79846226Y-51548157D01*
X79548074Y-51424659D01*
X79231558Y-51361700D01*
X78908842Y-51361700D01*
X78592326Y-51424659D01*
X78294174Y-51548157D01*
X78025845Y-51727449D01*
X77800200Y-51953094D01*
X77574555Y-51727449D01*
X77306226Y-51548157D01*
X77008074Y-51424659D01*
X76691558Y-51361700D01*
X76368842Y-51361700D01*
X76052326Y-51424659D01*
X75754174Y-51548157D01*
X75485845Y-51727449D01*
X75260200Y-51953094D01*
X75034555Y-51727449D01*
X74766226Y-51548157D01*
X74468074Y-51424659D01*
X74151558Y-51361700D01*
X73828842Y-51361700D01*
X73512326Y-51424659D01*
X73214174Y-51548157D01*
X72945845Y-51727449D01*
X72717649Y-51955645D01*
X72620021Y-52101756D01*
X72551735Y-52078070D01*
X71629805Y-53000000D01*
X72551735Y-53921930D01*
X72620021Y-53898244D01*
X72717649Y-54044355D01*
X72945845Y-54272551D01*
X73214174Y-54451843D01*
X73512326Y-54575341D01*
X73828842Y-54638300D01*
X74151558Y-54638300D01*
X74468074Y-54575341D01*
X74766226Y-54451843D01*
X75034555Y-54272551D01*
X75260200Y-54046906D01*
X75485845Y-54272551D01*
X75590401Y-54342413D01*
X75590401Y-60470546D01*
X75456863Y-60415232D01*
X75245852Y-60373260D01*
X75030708Y-60373260D01*
X74819697Y-60415232D01*
X74620929Y-60497565D01*
X74442043Y-60617093D01*
X74289913Y-60769223D01*
X74170385Y-60948109D01*
X74088052Y-61146877D01*
X74046080Y-61357888D01*
X74046080Y-61573032D01*
X74088052Y-61784043D01*
X74170385Y-61982811D01*
X74198480Y-62024858D01*
X74198480Y-62168580D01*
X74147687Y-62092563D01*
X73995557Y-61940433D01*
X73816671Y-61820905D01*
X73617903Y-61738572D01*
X73406892Y-61696600D01*
X73191748Y-61696600D01*
X72980737Y-61738572D01*
X72781969Y-61820905D01*
X72603083Y-61940433D01*
X72450953Y-62092563D01*
X72331425Y-62271449D01*
X72249092Y-62470217D01*
X72207120Y-62681228D01*
X72207120Y-62896372D01*
X72249092Y-63107383D01*
X72331425Y-63306151D01*
X72359520Y-63348198D01*
X72359521Y-68594641D01*
X72331425Y-68636689D01*
X72249092Y-68835457D01*
X72207120Y-69046468D01*
X72207120Y-69261612D01*
X72249092Y-69472623D01*
X72331425Y-69671391D01*
X72450953Y-69850277D01*
X72603083Y-70002407D01*
X72781969Y-70121935D01*
X72980737Y-70204268D01*
X73191748Y-70246240D01*
X73406892Y-70246240D01*
X73617903Y-70204268D01*
X73816671Y-70121935D01*
X73995557Y-70002407D01*
X74147687Y-69850277D01*
X74198480Y-69774259D01*
X74198481Y-80598680D01*
X74170385Y-80640729D01*
X74088052Y-80839497D01*
X74046080Y-81050508D01*
X74046080Y-81265652D01*
X74088052Y-81476663D01*
X74170385Y-81675431D01*
X74289913Y-81854317D01*
X74442043Y-82006447D01*
X74495252Y-82042000D01*
X69293740Y-82042000D01*
X69293740Y-76336399D01*
X69316164Y-76302839D01*
X69398014Y-76105236D01*
X69439740Y-75895462D01*
X69439740Y-75681578D01*
X69398014Y-75471804D01*
X69316164Y-75274201D01*
X69197336Y-75096363D01*
X69046097Y-74945124D01*
X68868259Y-74826296D01*
X68670656Y-74744446D01*
X68460882Y-74702720D01*
X68246998Y-74702720D01*
X68037224Y-74744446D01*
X67839621Y-74826296D01*
X67661783Y-74945124D01*
X67510544Y-75096363D01*
X67391716Y-75274201D01*
X67309866Y-75471804D01*
X67268140Y-75681578D01*
X67268140Y-75895462D01*
X67309866Y-76105236D01*
X67391716Y-76302839D01*
X67414140Y-76336399D01*
X67414141Y-86104237D01*
X67386636Y-86145401D01*
X67304786Y-86343004D01*
X67263060Y-86552778D01*
X67263060Y-86766662D01*
X67304786Y-86976436D01*
X67386636Y-87174039D01*
X67505464Y-87351877D01*
X67656703Y-87503116D01*
X67834541Y-87621944D01*
X68032144Y-87703794D01*
X68241918Y-87745520D01*
X68455802Y-87745520D01*
X68665576Y-87703794D01*
X68863179Y-87621944D01*
X68961000Y-87556582D01*
X68961000Y-88011000D01*
X40210467Y-88011000D01*
X40317274Y-87973332D01*
X40460775Y-87896628D01*
X40541435Y-87645000D01*
X39674800Y-86778365D01*
X38808165Y-87645000D01*
X38888825Y-87896628D01*
X39127818Y-88011000D01*
X35843918Y-88011000D01*
X35914116Y-87981923D01*
X36169752Y-87811112D01*
X36387152Y-87593712D01*
X36557963Y-87338076D01*
X36675619Y-87054029D01*
X36735600Y-86752485D01*
X36735600Y-86666303D01*
X38158996Y-86666303D01*
X38201299Y-86960723D01*
X38300228Y-87241234D01*
X38376932Y-87384735D01*
X38628560Y-87465395D01*
X39495195Y-86598760D01*
X38628560Y-85732125D01*
X38376932Y-85812785D01*
X38248533Y-86081089D01*
X38174945Y-86369286D01*
X38158996Y-86666303D01*
X36735600Y-86666303D01*
X36735600Y-86445035D01*
X36675619Y-86143491D01*
X36557963Y-85859444D01*
X36387152Y-85603808D01*
X36335864Y-85552520D01*
X38808165Y-85552520D01*
X39674800Y-86419155D01*
X39688943Y-86405013D01*
X39868548Y-86584618D01*
X39854405Y-86598760D01*
X40721040Y-87465395D01*
X40972668Y-87384735D01*
X41101067Y-87116431D01*
X41174655Y-86828234D01*
X41190604Y-86531217D01*
X41148301Y-86236797D01*
X41049372Y-85956286D01*
X40989652Y-85844560D01*
X41095761Y-85844560D01*
X41431114Y-85777854D01*
X41747010Y-85647006D01*
X42031308Y-85457044D01*
X42273084Y-85215268D01*
X42463046Y-84930970D01*
X42593894Y-84615074D01*
X42660600Y-84279721D01*
X42660600Y-83937799D01*
X42593894Y-83602446D01*
X42463046Y-83286550D01*
X42273084Y-83002252D01*
X42031308Y-82760476D01*
X41747010Y-82570514D01*
X41431114Y-82439666D01*
X41430441Y-82439532D01*
X43643980Y-82439532D01*
X43643980Y-82751908D01*
X43704921Y-83058281D01*
X43824462Y-83346878D01*
X43998009Y-83606609D01*
X44218891Y-83827491D01*
X44478622Y-84001038D01*
X44767219Y-84120579D01*
X45073592Y-84181520D01*
X45385968Y-84181520D01*
X45692341Y-84120579D01*
X45980938Y-84001038D01*
X46240669Y-83827491D01*
X46461551Y-83606609D01*
X46635098Y-83346878D01*
X46754639Y-83058281D01*
X46815580Y-82751908D01*
X46815580Y-82439532D01*
X46754639Y-82133159D01*
X46635098Y-81844562D01*
X46461551Y-81584831D01*
X46405228Y-81528508D01*
X46484274Y-81486257D01*
X46580965Y-81406905D01*
X46660317Y-81310214D01*
X46719282Y-81199900D01*
X46755592Y-81080202D01*
X46767852Y-80955720D01*
X46764780Y-80341470D01*
X46606030Y-80182720D01*
X45356780Y-80182720D01*
X45356780Y-80202720D01*
X45102780Y-80202720D01*
X45102780Y-80182720D01*
X43853530Y-80182720D01*
X43694780Y-80341470D01*
X43691708Y-80955720D01*
X43703968Y-81080202D01*
X43740278Y-81199900D01*
X43799243Y-81310214D01*
X43878595Y-81406905D01*
X43975286Y-81486257D01*
X44054332Y-81528508D01*
X43998009Y-81584831D01*
X43824462Y-81844562D01*
X43704921Y-82133159D01*
X43643980Y-82439532D01*
X41430441Y-82439532D01*
X41095761Y-82372960D01*
X40753839Y-82372960D01*
X40418486Y-82439666D01*
X40102590Y-82570514D01*
X39818292Y-82760476D01*
X39576516Y-83002252D01*
X39386554Y-83286550D01*
X39255706Y-83602446D01*
X39189000Y-83937799D01*
X39189000Y-84279721D01*
X39255706Y-84615074D01*
X39386554Y-84930970D01*
X39498545Y-85098576D01*
X39312837Y-85125259D01*
X39032326Y-85224188D01*
X38888825Y-85300892D01*
X38808165Y-85552520D01*
X36335864Y-85552520D01*
X36169752Y-85386408D01*
X35914116Y-85215597D01*
X35630069Y-85097941D01*
X35375336Y-85047271D01*
X35453046Y-84930970D01*
X35583894Y-84615074D01*
X35650600Y-84279721D01*
X35650600Y-83937799D01*
X35583894Y-83602446D01*
X35453046Y-83286550D01*
X35263084Y-83002252D01*
X35021308Y-82760476D01*
X34737010Y-82570514D01*
X34421114Y-82439666D01*
X34085761Y-82372960D01*
X33743839Y-82372960D01*
X33408486Y-82439666D01*
X33092590Y-82570514D01*
X32808292Y-82760476D01*
X32566516Y-83002252D01*
X32376554Y-83286550D01*
X32245706Y-83602446D01*
X32179000Y-83937799D01*
X32179000Y-84279721D01*
X32245706Y-84615074D01*
X32376554Y-84930970D01*
X32566516Y-85215268D01*
X32808292Y-85457044D01*
X33092590Y-85647006D01*
X33408486Y-85777854D01*
X33743839Y-85844560D01*
X33801582Y-85844560D01*
X33791637Y-85859444D01*
X33673981Y-86143491D01*
X33614000Y-86445035D01*
X33614000Y-86752485D01*
X33673981Y-87054029D01*
X33791637Y-87338076D01*
X33962448Y-87593712D01*
X34179848Y-87811112D01*
X34435484Y-87981923D01*
X34505682Y-88011000D01*
X30080188Y-88011000D01*
X30097822Y-87993366D01*
X30337031Y-87635364D01*
X30501801Y-87237574D01*
X30585800Y-86815282D01*
X30585800Y-86384718D01*
X30501801Y-85962426D01*
X30337031Y-85564636D01*
X30097822Y-85206634D01*
X29793366Y-84902178D01*
X29435364Y-84662969D01*
X29037574Y-84498199D01*
X28615282Y-84414200D01*
X28184718Y-84414200D01*
X27762426Y-84498199D01*
X27364636Y-84662969D01*
X27044249Y-84877044D01*
X27032405Y-79155720D01*
X43691708Y-79155720D01*
X43694780Y-79769970D01*
X43853530Y-79928720D01*
X45102780Y-79928720D01*
X45102780Y-78679470D01*
X45356780Y-78679470D01*
X45356780Y-79928720D01*
X46606030Y-79928720D01*
X46764780Y-79769970D01*
X46767852Y-79155720D01*
X49784922Y-79155720D01*
X49784922Y-80955720D01*
X49798163Y-81090160D01*
X49837378Y-81219434D01*
X49901059Y-81338573D01*
X49986760Y-81443000D01*
X50091187Y-81528701D01*
X50161054Y-81566046D01*
X50142269Y-81584831D01*
X49968722Y-81844562D01*
X49849181Y-82133159D01*
X49788240Y-82439532D01*
X49788240Y-82751908D01*
X49849181Y-83058281D01*
X49968722Y-83346878D01*
X50142269Y-83606609D01*
X50363151Y-83827491D01*
X50622882Y-84001038D01*
X50911479Y-84120579D01*
X51217852Y-84181520D01*
X51530228Y-84181520D01*
X51836601Y-84120579D01*
X52125198Y-84001038D01*
X52384929Y-83827491D01*
X52605811Y-83606609D01*
X52779358Y-83346878D01*
X52898899Y-83058281D01*
X52959840Y-82751908D01*
X52959840Y-82439532D01*
X52898899Y-82133159D01*
X52779358Y-81844562D01*
X52605811Y-81584831D01*
X52587026Y-81566046D01*
X52656893Y-81528701D01*
X52761320Y-81443000D01*
X52847021Y-81338573D01*
X52910702Y-81219434D01*
X52949917Y-81090160D01*
X52963158Y-80955720D01*
X52963158Y-79155720D01*
X52949917Y-79021280D01*
X52910702Y-78892006D01*
X52847021Y-78772867D01*
X52761320Y-78668440D01*
X52656893Y-78582739D01*
X52537754Y-78519058D01*
X52408480Y-78479843D01*
X52274040Y-78466602D01*
X50474040Y-78466602D01*
X50339600Y-78479843D01*
X50210326Y-78519058D01*
X50091187Y-78582739D01*
X49986760Y-78668440D01*
X49901059Y-78772867D01*
X49837378Y-78892006D01*
X49798163Y-79021280D01*
X49784922Y-79155720D01*
X46767852Y-79155720D01*
X46755592Y-79031238D01*
X46719282Y-78911540D01*
X46660317Y-78801226D01*
X46580965Y-78704535D01*
X46484274Y-78625183D01*
X46373960Y-78566218D01*
X46254262Y-78529908D01*
X46129780Y-78517648D01*
X45515530Y-78520720D01*
X45356780Y-78679470D01*
X45102780Y-78679470D01*
X44944030Y-78520720D01*
X44329780Y-78517648D01*
X44205298Y-78529908D01*
X44085600Y-78566218D01*
X43975286Y-78625183D01*
X43878595Y-78704535D01*
X43799243Y-78801226D01*
X43740278Y-78911540D01*
X43703968Y-79031238D01*
X43691708Y-79155720D01*
X27032405Y-79155720D01*
X27007010Y-66890008D01*
X34485580Y-66890008D01*
X34485580Y-67105152D01*
X34527552Y-67316163D01*
X34609885Y-67514931D01*
X34637980Y-67556978D01*
X34637981Y-73067581D01*
X34609885Y-73109629D01*
X34527552Y-73308397D01*
X34485580Y-73519408D01*
X34485580Y-73734552D01*
X34527552Y-73945563D01*
X34609885Y-74144331D01*
X34729413Y-74323217D01*
X34881543Y-74475347D01*
X35060429Y-74594875D01*
X35259197Y-74677208D01*
X35470208Y-74719180D01*
X35685352Y-74719180D01*
X35896363Y-74677208D01*
X36095131Y-74594875D01*
X36274017Y-74475347D01*
X36426147Y-74323217D01*
X36545675Y-74144331D01*
X36628008Y-73945563D01*
X36669980Y-73734552D01*
X36669980Y-73519408D01*
X36628008Y-73308397D01*
X36545675Y-73109629D01*
X36517580Y-73067582D01*
X36517580Y-67556978D01*
X36545675Y-67514931D01*
X36628008Y-67316163D01*
X36669980Y-67105152D01*
X36669980Y-66890008D01*
X36628008Y-66678997D01*
X36545675Y-66480229D01*
X36426147Y-66301343D01*
X36274017Y-66149213D01*
X36095131Y-66029685D01*
X35896363Y-65947352D01*
X35685352Y-65905380D01*
X35470208Y-65905380D01*
X35259197Y-65947352D01*
X35060429Y-66029685D01*
X34881543Y-66149213D01*
X34729413Y-66301343D01*
X34609885Y-66480229D01*
X34527552Y-66678997D01*
X34485580Y-66890008D01*
X27007010Y-66890008D01*
X26966486Y-47317113D01*
X33655000Y-47317113D01*
X33655000Y-47577287D01*
X33705757Y-47832463D01*
X33805322Y-48072834D01*
X33883601Y-48189987D01*
X33883600Y-62909615D01*
X33805322Y-63026766D01*
X33705757Y-63267137D01*
X33655000Y-63522313D01*
X33655000Y-63782487D01*
X33705757Y-64037663D01*
X33805322Y-64278034D01*
X33949867Y-64494361D01*
X34133839Y-64678333D01*
X34350166Y-64822878D01*
X34590537Y-64922443D01*
X34845713Y-64973200D01*
X35105887Y-64973200D01*
X35361063Y-64922443D01*
X35601434Y-64822878D01*
X35817761Y-64678333D01*
X36001733Y-64494361D01*
X36146278Y-64278034D01*
X36245843Y-64037663D01*
X36296600Y-63782487D01*
X36296600Y-63522313D01*
X36245843Y-63267137D01*
X36146278Y-63026766D01*
X36068000Y-62909615D01*
X36068000Y-48189985D01*
X36146278Y-48072834D01*
X36245843Y-47832463D01*
X36296600Y-47577287D01*
X36296600Y-47317113D01*
X36245843Y-47061937D01*
X36146278Y-46821566D01*
X36001733Y-46605239D01*
X35817761Y-46421267D01*
X35601434Y-46276722D01*
X35361063Y-46177157D01*
X35105887Y-46126400D01*
X34845713Y-46126400D01*
X34590537Y-46177157D01*
X34350166Y-46276722D01*
X34133839Y-46421267D01*
X33949867Y-46605239D01*
X33805322Y-46821566D01*
X33705757Y-47061937D01*
X33655000Y-47317113D01*
X26966486Y-47317113D01*
X26960424Y-44389040D01*
X37109934Y-44389040D01*
X37114481Y-44435207D01*
X37114480Y-67693103D01*
X37109934Y-67739260D01*
X37114480Y-67785417D01*
X37114480Y-67785426D01*
X37128078Y-67923492D01*
X37181817Y-68100645D01*
X37269084Y-68263911D01*
X37386526Y-68407014D01*
X37422395Y-68436451D01*
X38849301Y-69863358D01*
X38849300Y-73481708D01*
X38844220Y-73533288D01*
X38844220Y-73533298D01*
X38839674Y-73579455D01*
X38841786Y-73600903D01*
X38821796Y-73630821D01*
X38739946Y-73828424D01*
X38698220Y-74038198D01*
X38698220Y-74252082D01*
X38739946Y-74461856D01*
X38821796Y-74659459D01*
X38940624Y-74837297D01*
X39091863Y-74988536D01*
X39269701Y-75107364D01*
X39467304Y-75189214D01*
X39677078Y-75230940D01*
X39890962Y-75230940D01*
X40100736Y-75189214D01*
X40298339Y-75107364D01*
X40476177Y-74988536D01*
X40627416Y-74837297D01*
X40746244Y-74659459D01*
X40828094Y-74461856D01*
X40869820Y-74252082D01*
X40869820Y-74038198D01*
X40828094Y-73828424D01*
X40746244Y-73630821D01*
X40730245Y-73606877D01*
X40733446Y-73574376D01*
X40728900Y-73528219D01*
X40728900Y-69520237D01*
X40733446Y-69474080D01*
X40728900Y-69427923D01*
X40728900Y-69427913D01*
X40715302Y-69289847D01*
X40661563Y-69112694D01*
X40632953Y-69059168D01*
X40574296Y-68949428D01*
X40524928Y-68889274D01*
X40456854Y-68806326D01*
X40420990Y-68776893D01*
X38994080Y-67349984D01*
X38994080Y-63359753D01*
X39166800Y-63359753D01*
X39166800Y-63619927D01*
X39217557Y-63875103D01*
X39317122Y-64115474D01*
X39461667Y-64331801D01*
X39645639Y-64515773D01*
X39861966Y-64660318D01*
X40102337Y-64759883D01*
X40357513Y-64810640D01*
X40617687Y-64810640D01*
X40872863Y-64759883D01*
X41113234Y-64660318D01*
X41230385Y-64582040D01*
X61169435Y-64582040D01*
X60978564Y-64620006D01*
X60780961Y-64701856D01*
X60603123Y-64820684D01*
X60451884Y-64971923D01*
X60333056Y-65149761D01*
X60251206Y-65347364D01*
X60250570Y-65350560D01*
X60083962Y-65317420D01*
X59870078Y-65317420D01*
X59660304Y-65359146D01*
X59462701Y-65440996D01*
X59284863Y-65559824D01*
X59133624Y-65711063D01*
X59014796Y-65888901D01*
X58932946Y-66086504D01*
X58891220Y-66296278D01*
X58891220Y-66510162D01*
X58932946Y-66719936D01*
X59014796Y-66917539D01*
X59037220Y-66951099D01*
X59037221Y-78671000D01*
X59035120Y-78668440D01*
X58930693Y-78582739D01*
X58811554Y-78519058D01*
X58682280Y-78479843D01*
X58607960Y-78472523D01*
X58607960Y-76163679D01*
X58630384Y-76130119D01*
X58712234Y-75932516D01*
X58753960Y-75722742D01*
X58753960Y-75508858D01*
X58712234Y-75299084D01*
X58630384Y-75101481D01*
X58511556Y-74923643D01*
X58360317Y-74772404D01*
X58182479Y-74653576D01*
X57984876Y-74571726D01*
X57775102Y-74530000D01*
X57561218Y-74530000D01*
X57351444Y-74571726D01*
X57153841Y-74653576D01*
X56976003Y-74772404D01*
X56824764Y-74923643D01*
X56705936Y-75101481D01*
X56624086Y-75299084D01*
X56582360Y-75508858D01*
X56582360Y-75722742D01*
X56624086Y-75932516D01*
X56705936Y-76130119D01*
X56728360Y-76163679D01*
X56728361Y-78468521D01*
X56613400Y-78479843D01*
X56484126Y-78519058D01*
X56364987Y-78582739D01*
X56260560Y-78668440D01*
X56174859Y-78772867D01*
X56111178Y-78892006D01*
X56071963Y-79021280D01*
X56058722Y-79155720D01*
X56058722Y-80955720D01*
X56071963Y-81090160D01*
X56111178Y-81219434D01*
X56174859Y-81338573D01*
X56260560Y-81443000D01*
X56364987Y-81528701D01*
X56434854Y-81566046D01*
X56416069Y-81584831D01*
X56242522Y-81844562D01*
X56122981Y-82133159D01*
X56062040Y-82439532D01*
X56062040Y-82751908D01*
X56122981Y-83058281D01*
X56242522Y-83346878D01*
X56416069Y-83606609D01*
X56636951Y-83827491D01*
X56896682Y-84001038D01*
X57185279Y-84120579D01*
X57491652Y-84181520D01*
X57804028Y-84181520D01*
X58110401Y-84120579D01*
X58398998Y-84001038D01*
X58658729Y-83827491D01*
X58879611Y-83606609D01*
X59053158Y-83346878D01*
X59172699Y-83058281D01*
X59233640Y-82751908D01*
X59233640Y-82439532D01*
X59172699Y-82133159D01*
X59053158Y-81844562D01*
X58879611Y-81584831D01*
X58860826Y-81566046D01*
X58930693Y-81528701D01*
X59035120Y-81443000D01*
X59120821Y-81338573D01*
X59184502Y-81219434D01*
X59223717Y-81090160D01*
X59236958Y-80955720D01*
X59236958Y-80315271D01*
X59282323Y-80360636D01*
X59460161Y-80479464D01*
X59657764Y-80561314D01*
X59867538Y-80603040D01*
X60081422Y-80603040D01*
X60291196Y-80561314D01*
X60488799Y-80479464D01*
X60666637Y-80360636D01*
X60817876Y-80209397D01*
X60936704Y-80031559D01*
X61018554Y-79833956D01*
X61060280Y-79624182D01*
X61060280Y-79410298D01*
X61042161Y-79319204D01*
X61188338Y-79348280D01*
X61402222Y-79348280D01*
X61611996Y-79306554D01*
X61760100Y-79245207D01*
X61760101Y-84260853D01*
X61681822Y-84378006D01*
X61582257Y-84618377D01*
X61531500Y-84873553D01*
X61531500Y-85133727D01*
X61582257Y-85388903D01*
X61681822Y-85629274D01*
X61826367Y-85845601D01*
X62010339Y-86029573D01*
X62226666Y-86174118D01*
X62467037Y-86273683D01*
X62722213Y-86324440D01*
X62982387Y-86324440D01*
X63237563Y-86273683D01*
X63477934Y-86174118D01*
X63694261Y-86029573D01*
X63878233Y-85845601D01*
X64022778Y-85629274D01*
X64122343Y-85388903D01*
X64173100Y-85133727D01*
X64173100Y-84873553D01*
X64122343Y-84618377D01*
X64022778Y-84378006D01*
X63944500Y-84260855D01*
X63944500Y-75929325D01*
X64022778Y-75812174D01*
X64122343Y-75571803D01*
X64173100Y-75316627D01*
X64173100Y-75056453D01*
X64122343Y-74801277D01*
X64022778Y-74560906D01*
X63949580Y-74451357D01*
X63949580Y-73071458D01*
X67239200Y-73071458D01*
X67239200Y-73285342D01*
X67280926Y-73495116D01*
X67362776Y-73692719D01*
X67481604Y-73870557D01*
X67632843Y-74021796D01*
X67810681Y-74140624D01*
X68008284Y-74222474D01*
X68218058Y-74264200D01*
X68431942Y-74264200D01*
X68641716Y-74222474D01*
X68839319Y-74140624D01*
X69017157Y-74021796D01*
X69168396Y-73870557D01*
X69287224Y-73692719D01*
X69369074Y-73495116D01*
X69410800Y-73285342D01*
X69410800Y-73071458D01*
X69369074Y-72861684D01*
X69287224Y-72664081D01*
X69265800Y-72632018D01*
X69265800Y-65576131D01*
X69267442Y-65570718D01*
X69281040Y-65432652D01*
X69281040Y-65432650D01*
X69285587Y-65386485D01*
X69283474Y-65365036D01*
X69303464Y-65335119D01*
X69385314Y-65137516D01*
X69427040Y-64927742D01*
X69427040Y-64713858D01*
X69385314Y-64504084D01*
X69303464Y-64306481D01*
X69184636Y-64128643D01*
X69033397Y-63977404D01*
X68855559Y-63858576D01*
X68657956Y-63776726D01*
X68448182Y-63735000D01*
X68234298Y-63735000D01*
X68024524Y-63776726D01*
X67826921Y-63858576D01*
X67649083Y-63977404D01*
X67497844Y-64128643D01*
X67379016Y-64306481D01*
X67297166Y-64504084D01*
X67255440Y-64713858D01*
X67255440Y-64927742D01*
X67297166Y-65137516D01*
X67379016Y-65335119D01*
X67387032Y-65347115D01*
X67386200Y-65355559D01*
X67386200Y-65355568D01*
X67381654Y-65401725D01*
X67386200Y-65447882D01*
X67386201Y-72629023D01*
X67362776Y-72664081D01*
X67280926Y-72861684D01*
X67239200Y-73071458D01*
X63949580Y-73071458D01*
X63949580Y-71893265D01*
X64027858Y-71776114D01*
X64127423Y-71535743D01*
X64178180Y-71280567D01*
X64178180Y-71020393D01*
X64127423Y-70765217D01*
X64027858Y-70524846D01*
X63949580Y-70407695D01*
X63949580Y-63620856D01*
X63962484Y-63489840D01*
X63957200Y-63436191D01*
X63957200Y-56708616D01*
X63996015Y-56692538D01*
X65149780Y-56692538D01*
X65149780Y-56906422D01*
X65191506Y-57116196D01*
X65273356Y-57313799D01*
X65298321Y-57351161D01*
X65298320Y-62162181D01*
X65275896Y-62195741D01*
X65194046Y-62393344D01*
X65152320Y-62603118D01*
X65152320Y-62817002D01*
X65194046Y-63026776D01*
X65275896Y-63224379D01*
X65394724Y-63402217D01*
X65545963Y-63553456D01*
X65723801Y-63672284D01*
X65921404Y-63754134D01*
X66131178Y-63795860D01*
X66345062Y-63795860D01*
X66554836Y-63754134D01*
X66752439Y-63672284D01*
X66930277Y-63553456D01*
X67081516Y-63402217D01*
X67200344Y-63224379D01*
X67282194Y-63026776D01*
X67323920Y-62817002D01*
X67323920Y-62603118D01*
X67282194Y-62393344D01*
X67200344Y-62195741D01*
X67177920Y-62162181D01*
X67177920Y-57343557D01*
X67197804Y-57313799D01*
X67279654Y-57116196D01*
X67321380Y-56906422D01*
X67321380Y-56692538D01*
X67279654Y-56482764D01*
X67197804Y-56285161D01*
X67078976Y-56107323D01*
X66927737Y-55956084D01*
X66749899Y-55837256D01*
X66552296Y-55755406D01*
X66342522Y-55713680D01*
X66128638Y-55713680D01*
X65918864Y-55755406D01*
X65721261Y-55837256D01*
X65543423Y-55956084D01*
X65392184Y-56107323D01*
X65273356Y-56285161D01*
X65191506Y-56482764D01*
X65149780Y-56692538D01*
X63996015Y-56692538D01*
X64186594Y-56613598D01*
X64402921Y-56469053D01*
X64586893Y-56285081D01*
X64731438Y-56068754D01*
X64831003Y-55828383D01*
X64881760Y-55573207D01*
X64881760Y-55313033D01*
X64831003Y-55057857D01*
X64731438Y-54817486D01*
X64586893Y-54601159D01*
X64402921Y-54417187D01*
X64186594Y-54272642D01*
X63946223Y-54173077D01*
X63691047Y-54122320D01*
X63430873Y-54122320D01*
X63175697Y-54173077D01*
X62935326Y-54272642D01*
X62718999Y-54417187D01*
X62535027Y-54601159D01*
X62390482Y-54817486D01*
X62290917Y-55057857D01*
X62263430Y-55196047D01*
X62130632Y-55328845D01*
X62088963Y-55363042D01*
X62054766Y-55404711D01*
X62054763Y-55404714D01*
X62016510Y-55451326D01*
X61952476Y-55529351D01*
X61937613Y-55557158D01*
X61851057Y-55719092D01*
X61788604Y-55924971D01*
X61767517Y-56139080D01*
X61772801Y-56192731D01*
X61772800Y-62397640D01*
X41230385Y-62397640D01*
X41113234Y-62319362D01*
X40872863Y-62219797D01*
X40617687Y-62169040D01*
X40357513Y-62169040D01*
X40102337Y-62219797D01*
X39861966Y-62319362D01*
X39645639Y-62463907D01*
X39461667Y-62647879D01*
X39317122Y-62864206D01*
X39217557Y-63104577D01*
X39166800Y-63359753D01*
X38994080Y-63359753D01*
X38994080Y-58633098D01*
X39404340Y-58633098D01*
X39404340Y-58846982D01*
X39446066Y-59056756D01*
X39527916Y-59254359D01*
X39646744Y-59432197D01*
X39797983Y-59583436D01*
X39975821Y-59702264D01*
X40173424Y-59784114D01*
X40383198Y-59825840D01*
X40597082Y-59825840D01*
X40806856Y-59784114D01*
X41004459Y-59702264D01*
X41034377Y-59682274D01*
X41055825Y-59684386D01*
X41101982Y-59679840D01*
X41101992Y-59679840D01*
X41179361Y-59672220D01*
X45798303Y-59672220D01*
X45844460Y-59676766D01*
X45890617Y-59672220D01*
X45890627Y-59672220D01*
X46028693Y-59658622D01*
X46205846Y-59604883D01*
X46369111Y-59517616D01*
X46512214Y-59400174D01*
X46541651Y-59364305D01*
X49189910Y-56716048D01*
X49229496Y-56708174D01*
X49427099Y-56626324D01*
X49604937Y-56507496D01*
X49756176Y-56356257D01*
X49875004Y-56178419D01*
X49956854Y-55980816D01*
X49998580Y-55771042D01*
X49998580Y-55557158D01*
X49956854Y-55347384D01*
X49875004Y-55149781D01*
X49756176Y-54971943D01*
X49604937Y-54820704D01*
X49427099Y-54701876D01*
X49229496Y-54620026D01*
X49019722Y-54578300D01*
X48805838Y-54578300D01*
X48596064Y-54620026D01*
X48398461Y-54701876D01*
X48220623Y-54820704D01*
X48069384Y-54971943D01*
X47950556Y-55149781D01*
X47868706Y-55347384D01*
X47860832Y-55386970D01*
X45455184Y-57792620D01*
X41109601Y-57792620D01*
X41063444Y-57788074D01*
X41025416Y-57791819D01*
X41004459Y-57777816D01*
X40806856Y-57695966D01*
X40597082Y-57654240D01*
X40383198Y-57654240D01*
X40173424Y-57695966D01*
X39975821Y-57777816D01*
X39797983Y-57896644D01*
X39646744Y-58047883D01*
X39527916Y-58225721D01*
X39446066Y-58423324D01*
X39404340Y-58633098D01*
X38994080Y-58633098D01*
X38994080Y-44778316D01*
X40068838Y-43703559D01*
X45308606Y-43707869D01*
X45342841Y-43730744D01*
X45540444Y-43812594D01*
X45750218Y-43854320D01*
X45964102Y-43854320D01*
X46173876Y-43812594D01*
X46371479Y-43730744D01*
X46549317Y-43611916D01*
X46700556Y-43460677D01*
X46819384Y-43282839D01*
X46901234Y-43085236D01*
X46942960Y-42875462D01*
X46942960Y-42661578D01*
X46901234Y-42451804D01*
X46819384Y-42254201D01*
X46700556Y-42076363D01*
X46549317Y-41925124D01*
X46371479Y-41806296D01*
X46173876Y-41724446D01*
X45964102Y-41682720D01*
X45750218Y-41682720D01*
X45540444Y-41724446D01*
X45342841Y-41806296D01*
X45309954Y-41828270D01*
X39726440Y-41823679D01*
X39679880Y-41819093D01*
X39587504Y-41828191D01*
X39496409Y-41837087D01*
X39496037Y-41837200D01*
X39495647Y-41837238D01*
X39406717Y-41864215D01*
X39319212Y-41890681D01*
X39318872Y-41890862D01*
X39318494Y-41890977D01*
X39236314Y-41934903D01*
X39155875Y-41977813D01*
X39155576Y-41978058D01*
X39155228Y-41978244D01*
X39082976Y-42037540D01*
X39012676Y-42095138D01*
X38982978Y-42131264D01*
X37422390Y-43691854D01*
X37386527Y-43721286D01*
X37357097Y-43757147D01*
X37269084Y-43864389D01*
X37181818Y-44027654D01*
X37128079Y-44204807D01*
X37109934Y-44389040D01*
X26960424Y-44389040D01*
X26951909Y-40276233D01*
X39400480Y-40276233D01*
X39400480Y-40536407D01*
X39451237Y-40791583D01*
X39550802Y-41031954D01*
X39695347Y-41248281D01*
X39879319Y-41432253D01*
X40095646Y-41576798D01*
X40336017Y-41676363D01*
X40591193Y-41727120D01*
X40851367Y-41727120D01*
X41106543Y-41676363D01*
X41346914Y-41576798D01*
X41464065Y-41498520D01*
X64955137Y-41498520D01*
X67818000Y-44361384D01*
X67818001Y-51775293D01*
X67637649Y-51955645D01*
X67458357Y-52223974D01*
X67334859Y-52522126D01*
X67271900Y-52838642D01*
X67271900Y-53161358D01*
X67334859Y-53477874D01*
X67458357Y-53776026D01*
X67637649Y-54044355D01*
X67865845Y-54272551D01*
X68134174Y-54451843D01*
X68432326Y-54575341D01*
X68748842Y-54638300D01*
X69071558Y-54638300D01*
X69388074Y-54575341D01*
X69686226Y-54451843D01*
X69954555Y-54272551D01*
X70125571Y-54101535D01*
X70528270Y-54101535D01*
X70618298Y-54361081D01*
X70899816Y-54497224D01*
X71202486Y-54575829D01*
X71514674Y-54593877D01*
X71824385Y-54550672D01*
X72119716Y-54447877D01*
X72282102Y-54361081D01*
X72372130Y-54101535D01*
X71450200Y-53179605D01*
X70528270Y-54101535D01*
X70125571Y-54101535D01*
X70182751Y-54044355D01*
X70280379Y-53898244D01*
X70348665Y-53921930D01*
X71270595Y-53000000D01*
X70348665Y-52078070D01*
X70280379Y-52101756D01*
X70182751Y-51955645D01*
X70125571Y-51898465D01*
X70528270Y-51898465D01*
X71450200Y-52820395D01*
X72372130Y-51898465D01*
X72282102Y-51638919D01*
X72000584Y-51502776D01*
X71697914Y-51424171D01*
X71385726Y-51406123D01*
X71076015Y-51449328D01*
X70780684Y-51552123D01*
X70618298Y-51638919D01*
X70528270Y-51898465D01*
X70125571Y-51898465D01*
X70002400Y-51775294D01*
X70002400Y-43962618D01*
X70007683Y-43908979D01*
X70002400Y-43855340D01*
X70002400Y-43855331D01*
X69986596Y-43694871D01*
X69924143Y-43488991D01*
X69822725Y-43299251D01*
X69686238Y-43132942D01*
X69644569Y-43098745D01*
X66217780Y-39671957D01*
X66183578Y-39630282D01*
X66017269Y-39493795D01*
X65827529Y-39392377D01*
X65621649Y-39329924D01*
X65461189Y-39314120D01*
X65461181Y-39314120D01*
X65407540Y-39308837D01*
X65353899Y-39314120D01*
X41464065Y-39314120D01*
X41346914Y-39235842D01*
X41106543Y-39136277D01*
X40851367Y-39085520D01*
X40591193Y-39085520D01*
X40336017Y-39136277D01*
X40095646Y-39235842D01*
X39879319Y-39380387D01*
X39695347Y-39564359D01*
X39550802Y-39780686D01*
X39451237Y-40021057D01*
X39400480Y-40276233D01*
X26951909Y-40276233D01*
X26938935Y-34010000D01*
X31875528Y-34010000D01*
X31887788Y-34134482D01*
X31924098Y-34254180D01*
X31983063Y-34364494D01*
X32062415Y-34461185D01*
X32159106Y-34540537D01*
X32269420Y-34599502D01*
X32389118Y-34635812D01*
X32513600Y-34648072D01*
X33977850Y-34645000D01*
X34136600Y-34486250D01*
X34136600Y-32387000D01*
X34390600Y-32387000D01*
X34390600Y-34486250D01*
X34549350Y-34645000D01*
X36013600Y-34648072D01*
X36138082Y-34635812D01*
X36257780Y-34599502D01*
X36368094Y-34540537D01*
X36464785Y-34461185D01*
X36524482Y-34388444D01*
X36524482Y-37010000D01*
X36537723Y-37144440D01*
X36576938Y-37273714D01*
X36640619Y-37392853D01*
X36726320Y-37497280D01*
X36830747Y-37582981D01*
X36949886Y-37646662D01*
X37079160Y-37685877D01*
X37213600Y-37699118D01*
X40713600Y-37699118D01*
X40848040Y-37685877D01*
X40977314Y-37646662D01*
X41096453Y-37582981D01*
X41200880Y-37497280D01*
X41286581Y-37392853D01*
X41350262Y-37273714D01*
X41389477Y-37144440D01*
X41402718Y-37010000D01*
X41402718Y-35920000D01*
X51460882Y-35920000D01*
X51460882Y-37620000D01*
X51474123Y-37754440D01*
X51513338Y-37883714D01*
X51577019Y-38002853D01*
X51662720Y-38107280D01*
X51767147Y-38192981D01*
X51886286Y-38256662D01*
X52015560Y-38295877D01*
X52150000Y-38309118D01*
X53850000Y-38309118D01*
X53984440Y-38295877D01*
X54113714Y-38256662D01*
X54232853Y-38192981D01*
X54337280Y-38107280D01*
X54422981Y-38002853D01*
X54471023Y-37912972D01*
X54520985Y-37962934D01*
X54772526Y-38131008D01*
X55052024Y-38246780D01*
X55348737Y-38305800D01*
X55651263Y-38305800D01*
X55947976Y-38246780D01*
X56227474Y-38131008D01*
X56479015Y-37962934D01*
X56692934Y-37749015D01*
X56861008Y-37497474D01*
X56976780Y-37217976D01*
X57035800Y-36921263D01*
X57035800Y-36618737D01*
X56976780Y-36322024D01*
X56861008Y-36042526D01*
X56692934Y-35790985D01*
X56671949Y-35770000D01*
X56692934Y-35749015D01*
X56861008Y-35497474D01*
X56976780Y-35217976D01*
X57035800Y-34921263D01*
X57035800Y-34618737D01*
X56976780Y-34322024D01*
X56861008Y-34042526D01*
X56692934Y-33790985D01*
X56631558Y-33729609D01*
X58779997Y-33729609D01*
X58966073Y-34070766D01*
X59383409Y-34286513D01*
X59834815Y-34416696D01*
X60302946Y-34456313D01*
X60769811Y-34403842D01*
X61217468Y-34261297D01*
X61573927Y-34070766D01*
X61760003Y-33729609D01*
X60270000Y-32239605D01*
X58779997Y-33729609D01*
X56631558Y-33729609D01*
X56479015Y-33577066D01*
X56227474Y-33408992D01*
X55947976Y-33293220D01*
X55651263Y-33234200D01*
X55348737Y-33234200D01*
X55052024Y-33293220D01*
X54772526Y-33408992D01*
X54520985Y-33577066D01*
X54307066Y-33790985D01*
X54187018Y-33970649D01*
X54028397Y-33921208D01*
X53179605Y-34770000D01*
X53193748Y-34784143D01*
X53014143Y-34963748D01*
X53000000Y-34949605D01*
X52985858Y-34963748D01*
X52806253Y-34784143D01*
X52820395Y-34770000D01*
X51971603Y-33921208D01*
X51722528Y-33998843D01*
X51596629Y-34262883D01*
X51524661Y-34546411D01*
X51509389Y-34838531D01*
X51551401Y-35128019D01*
X51649081Y-35403747D01*
X51664004Y-35431666D01*
X51662720Y-35432720D01*
X51577019Y-35537147D01*
X51513338Y-35656286D01*
X51474123Y-35785560D01*
X51460882Y-35920000D01*
X41402718Y-35920000D01*
X41402718Y-33729609D01*
X46739997Y-33729609D01*
X46926073Y-34070766D01*
X47343409Y-34286513D01*
X47794815Y-34416696D01*
X48262946Y-34456313D01*
X48729811Y-34403842D01*
X49177468Y-34261297D01*
X49533927Y-34070766D01*
X49713461Y-33741603D01*
X52151208Y-33741603D01*
X53000000Y-34590395D01*
X53848792Y-33741603D01*
X53771157Y-33492528D01*
X53507117Y-33366629D01*
X53223589Y-33294661D01*
X52931469Y-33279389D01*
X52641981Y-33321401D01*
X52366253Y-33419081D01*
X52228843Y-33492528D01*
X52151208Y-33741603D01*
X49713461Y-33741603D01*
X49720003Y-33729609D01*
X48230000Y-32239605D01*
X46739997Y-33729609D01*
X41402718Y-33729609D01*
X41402718Y-33510000D01*
X41389477Y-33375560D01*
X41350262Y-33246286D01*
X41286581Y-33127147D01*
X41200880Y-33022720D01*
X41096453Y-32937019D01*
X40977314Y-32873338D01*
X40848040Y-32834123D01*
X40713600Y-32820882D01*
X37213600Y-32820882D01*
X37079160Y-32834123D01*
X36949886Y-32873338D01*
X36830747Y-32937019D01*
X36726320Y-33022720D01*
X36649796Y-33115964D01*
X36648600Y-32545750D01*
X36489850Y-32387000D01*
X34390600Y-32387000D01*
X34136600Y-32387000D01*
X32037350Y-32387000D01*
X31878600Y-32545750D01*
X31875528Y-34010000D01*
X26938935Y-34010000D01*
X26930677Y-30021865D01*
X27006634Y-30097822D01*
X27364636Y-30337031D01*
X27762426Y-30501801D01*
X28184718Y-30585800D01*
X28615282Y-30585800D01*
X28996354Y-30510000D01*
X31875528Y-30510000D01*
X31878600Y-31974250D01*
X32037350Y-32133000D01*
X34136600Y-32133000D01*
X34136600Y-30033750D01*
X34390600Y-30033750D01*
X34390600Y-32133000D01*
X36489850Y-32133000D01*
X36529904Y-32092946D01*
X45833687Y-32092946D01*
X45886158Y-32559811D01*
X46028703Y-33007468D01*
X46219234Y-33363927D01*
X46560391Y-33550003D01*
X48050395Y-32060000D01*
X48409605Y-32060000D01*
X49899609Y-33550003D01*
X50240766Y-33363927D01*
X50456513Y-32946591D01*
X50586696Y-32495185D01*
X50620736Y-32092946D01*
X57873687Y-32092946D01*
X57926158Y-32559811D01*
X58068703Y-33007468D01*
X58259234Y-33363927D01*
X58600391Y-33550003D01*
X60090395Y-32060000D01*
X60449605Y-32060000D01*
X61939609Y-33550003D01*
X62280766Y-33363927D01*
X62496513Y-32946591D01*
X62626696Y-32495185D01*
X62666313Y-32027054D01*
X62613842Y-31560189D01*
X62471297Y-31112532D01*
X62280766Y-30756073D01*
X61939609Y-30569997D01*
X60449605Y-32060000D01*
X60090395Y-32060000D01*
X58600391Y-30569997D01*
X58259234Y-30756073D01*
X58043487Y-31173409D01*
X57913304Y-31624815D01*
X57873687Y-32092946D01*
X50620736Y-32092946D01*
X50626313Y-32027054D01*
X50573842Y-31560189D01*
X50431297Y-31112532D01*
X50240766Y-30756073D01*
X49899609Y-30569997D01*
X48409605Y-32060000D01*
X48050395Y-32060000D01*
X46560391Y-30569997D01*
X46219234Y-30756073D01*
X46003487Y-31173409D01*
X45873304Y-31624815D01*
X45833687Y-32092946D01*
X36529904Y-32092946D01*
X36648600Y-31974250D01*
X36650531Y-31053633D01*
X36683063Y-31114494D01*
X36762415Y-31211185D01*
X36859106Y-31290537D01*
X36969420Y-31349502D01*
X37089118Y-31385812D01*
X37213600Y-31398072D01*
X38677850Y-31395000D01*
X38836600Y-31236250D01*
X38836600Y-29387000D01*
X39090600Y-29387000D01*
X39090600Y-31236250D01*
X39249350Y-31395000D01*
X40713600Y-31398072D01*
X40838082Y-31385812D01*
X40957780Y-31349502D01*
X41068094Y-31290537D01*
X41164785Y-31211185D01*
X41244137Y-31114494D01*
X41303102Y-31004180D01*
X41339412Y-30884482D01*
X41351672Y-30760000D01*
X41350737Y-30390391D01*
X46739997Y-30390391D01*
X48230000Y-31880395D01*
X49720003Y-30390391D01*
X58779997Y-30390391D01*
X60270000Y-31880395D01*
X61760003Y-30390391D01*
X61573927Y-30049234D01*
X61156591Y-29833487D01*
X60705185Y-29703304D01*
X60237054Y-29663687D01*
X59770189Y-29716158D01*
X59322532Y-29858703D01*
X58966073Y-30049234D01*
X58779997Y-30390391D01*
X49720003Y-30390391D01*
X49533927Y-30049234D01*
X49116591Y-29833487D01*
X48665185Y-29703304D01*
X48197054Y-29663687D01*
X47730189Y-29716158D01*
X47282532Y-29858703D01*
X46926073Y-30049234D01*
X46739997Y-30390391D01*
X41350737Y-30390391D01*
X41348600Y-29545750D01*
X41189850Y-29387000D01*
X39090600Y-29387000D01*
X38836600Y-29387000D01*
X36737350Y-29387000D01*
X36578600Y-29545750D01*
X36576902Y-30216805D01*
X36544137Y-30155506D01*
X36464785Y-30058815D01*
X36368094Y-29979463D01*
X36257780Y-29920498D01*
X36138082Y-29884188D01*
X36013600Y-29871928D01*
X34549350Y-29875000D01*
X34390600Y-30033750D01*
X34136600Y-30033750D01*
X33977850Y-29875000D01*
X32513600Y-29871928D01*
X32389118Y-29884188D01*
X32269420Y-29920498D01*
X32159106Y-29979463D01*
X32062415Y-30058815D01*
X31983063Y-30155506D01*
X31924098Y-30265820D01*
X31887788Y-30385518D01*
X31875528Y-30510000D01*
X28996354Y-30510000D01*
X29037574Y-30501801D01*
X29435364Y-30337031D01*
X29793366Y-30097822D01*
X30097822Y-29793366D01*
X30337031Y-29435364D01*
X30501801Y-29037574D01*
X30585800Y-28615282D01*
X30585800Y-28184718D01*
X30501801Y-27762426D01*
X30500797Y-27760000D01*
X36575528Y-27760000D01*
X36578600Y-28974250D01*
X36737350Y-29133000D01*
X38836600Y-29133000D01*
X38836600Y-27283750D01*
X39090600Y-27283750D01*
X39090600Y-29133000D01*
X41189850Y-29133000D01*
X41348600Y-28974250D01*
X41351672Y-27760000D01*
X41339412Y-27635518D01*
X41303102Y-27515820D01*
X41244137Y-27405506D01*
X41164785Y-27308815D01*
X41068094Y-27229463D01*
X40957780Y-27170498D01*
X40838082Y-27134188D01*
X40713600Y-27121928D01*
X39249350Y-27125000D01*
X39090600Y-27283750D01*
X38836600Y-27283750D01*
X38677850Y-27125000D01*
X37213600Y-27121928D01*
X37089118Y-27134188D01*
X36969420Y-27170498D01*
X36859106Y-27229463D01*
X36762415Y-27308815D01*
X36683063Y-27405506D01*
X36624098Y-27515820D01*
X36587788Y-27635518D01*
X36575528Y-27760000D01*
X30500797Y-27760000D01*
X30337031Y-27364636D01*
X30097822Y-27006634D01*
X30015188Y-26924000D01*
X67546812Y-26924000D01*
X67450248Y-27157128D01*
G37*
X67450248Y-27157128D02*
X67391900Y-27450461D01*
X67391900Y-27749539D01*
X67450248Y-28042872D01*
X67564700Y-28319185D01*
X67730860Y-28567860D01*
X67942340Y-28779340D01*
X68191015Y-28945500D01*
X68467328Y-29059952D01*
X68760661Y-29118300D01*
X69059739Y-29118300D01*
X69353072Y-29059952D01*
X69629385Y-28945500D01*
X69878060Y-28779340D01*
X70089540Y-28567860D01*
X70180200Y-28432178D01*
X70270860Y-28567860D01*
X70482340Y-28779340D01*
X70731015Y-28945500D01*
X71007328Y-29059952D01*
X71300661Y-29118300D01*
X71599739Y-29118300D01*
X71893072Y-29059952D01*
X72169385Y-28945500D01*
X72418060Y-28779340D01*
X72629540Y-28567860D01*
X72720200Y-28432178D01*
X72810860Y-28567860D01*
X73022340Y-28779340D01*
X73271015Y-28945500D01*
X73547328Y-29059952D01*
X73840661Y-29118300D01*
X74139739Y-29118300D01*
X74433072Y-29059952D01*
X74709385Y-28945500D01*
X74958060Y-28779340D01*
X75169540Y-28567860D01*
X75260200Y-28432178D01*
X75350860Y-28567860D01*
X75562340Y-28779340D01*
X75811015Y-28945500D01*
X76087328Y-29059952D01*
X76380661Y-29118300D01*
X76679739Y-29118300D01*
X76973072Y-29059952D01*
X77249385Y-28945500D01*
X77498060Y-28779340D01*
X77709540Y-28567860D01*
X77800200Y-28432178D01*
X77890860Y-28567860D01*
X78102340Y-28779340D01*
X78351015Y-28945500D01*
X78627328Y-29059952D01*
X78920661Y-29118300D01*
X79219739Y-29118300D01*
X79513072Y-29059952D01*
X79789385Y-28945500D01*
X80038060Y-28779340D01*
X80249540Y-28567860D01*
X80415700Y-28319185D01*
X80530152Y-28042872D01*
X80588500Y-27749539D01*
X80588500Y-27450461D01*
X80530152Y-27157128D01*
X80433588Y-26924000D01*
X94984812Y-26924000D01*
X94902178Y-27006634D01*
X94662969Y-27364636D01*
X94498199Y-27762426D01*
X94414200Y-28184718D01*
X94414200Y-28615282D01*
X94498199Y-29037574D01*
X94662969Y-29435364D01*
X94902178Y-29793366D01*
X95206634Y-30097822D01*
X95564636Y-30337031D01*
X95962426Y-30501801D01*
X96384718Y-30585800D01*
X96815282Y-30585800D01*
X97237574Y-30501801D01*
X97635364Y-30337031D01*
X97993366Y-30097822D01*
X98044000Y-30047188D01*
X98044000Y-84952812D01*
X97993366Y-84902178D01*
X97635364Y-84662969D01*
X97237574Y-84498199D01*
X96815282Y-84414200D01*
X96384718Y-84414200D01*
X95962426Y-84498199D01*
X95564636Y-84662969D01*
X95206634Y-84902178D01*
X94902178Y-85206634D01*
X94662969Y-85564636D01*
X94498199Y-85962426D01*
X94414200Y-86384718D01*
X94414200Y-86815282D01*
X94498199Y-87237574D01*
X94662969Y-87635364D01*
X94902178Y-87993366D01*
X94919812Y-88011000D01*
X87376000Y-88011000D01*
X87376000Y-82169000D01*
X87373560Y-82144224D01*
X87366333Y-82120399D01*
X87354597Y-82098443D01*
X87338803Y-82079197D01*
X87319557Y-82063403D01*
X87297601Y-82051667D01*
X87273776Y-82044440D01*
X87249000Y-82042000D01*
X75781308Y-82042000D01*
X75834517Y-82006447D01*
X75986647Y-81854317D01*
X76106175Y-81675431D01*
X76188508Y-81476663D01*
X76230480Y-81265652D01*
X76230480Y-81050508D01*
X76188508Y-80839497D01*
X76106175Y-80640729D01*
X76078080Y-80598682D01*
X76078080Y-78120168D01*
X76213484Y-78176254D01*
X76423258Y-78217980D01*
X76637142Y-78217980D01*
X76846916Y-78176254D01*
X77044519Y-78094404D01*
X77222357Y-77975576D01*
X77373596Y-77824337D01*
X77492424Y-77646499D01*
X77574274Y-77448896D01*
X77616000Y-77239122D01*
X77616000Y-77025238D01*
X77574274Y-76815464D01*
X77492424Y-76617861D01*
X77470000Y-76584301D01*
X77470000Y-54342413D01*
X77574555Y-54272551D01*
X77800200Y-54046906D01*
X78025845Y-54272551D01*
X78130400Y-54342413D01*
X78130401Y-72616739D01*
X78099765Y-72662589D01*
X78017432Y-72861357D01*
X77975460Y-73072368D01*
X77975460Y-73287512D01*
X78017432Y-73498523D01*
X78099765Y-73697291D01*
X78219293Y-73876177D01*
X78371423Y-74028307D01*
X78550309Y-74147835D01*
X78749077Y-74230168D01*
X78960088Y-74272140D01*
X79175232Y-74272140D01*
X79386243Y-74230168D01*
X79585011Y-74147835D01*
X79763897Y-74028307D01*
X79916027Y-73876177D01*
X80035555Y-73697291D01*
X80117888Y-73498523D01*
X80159860Y-73287512D01*
X80159860Y-73072368D01*
X80117888Y-72861357D01*
X80035555Y-72662589D01*
X80010000Y-72624343D01*
X80010000Y-71772013D01*
X80073493Y-71867037D01*
X80225623Y-72019167D01*
X80404509Y-72138695D01*
X80603277Y-72221028D01*
X80814288Y-72263000D01*
X81029432Y-72263000D01*
X81240443Y-72221028D01*
X81439211Y-72138695D01*
X81618097Y-72019167D01*
X81770227Y-71867037D01*
X81889755Y-71688151D01*
X81972088Y-71489383D01*
X82014060Y-71278372D01*
X82014060Y-71063228D01*
X81972088Y-70852217D01*
X81889755Y-70653449D01*
X81861660Y-70611402D01*
X81861660Y-69918864D01*
X81957903Y-70015107D01*
X82136789Y-70134635D01*
X82335557Y-70216968D01*
X82546568Y-70258940D01*
X82761712Y-70258940D01*
X82972723Y-70216968D01*
X83171491Y-70134635D01*
X83350377Y-70015107D01*
X83502507Y-69862977D01*
X83622035Y-69684091D01*
X83704368Y-69485323D01*
X83746340Y-69274312D01*
X83746340Y-69059168D01*
X83704368Y-68848157D01*
X83622035Y-68649389D01*
X83593940Y-68607342D01*
X83593940Y-64044216D01*
X84782096Y-62856062D01*
X84817954Y-62826634D01*
X84935396Y-62683531D01*
X85022663Y-62520266D01*
X85076402Y-62343113D01*
X85090000Y-62205047D01*
X85090000Y-62205038D01*
X85094546Y-62158881D01*
X85090000Y-62112724D01*
X85090000Y-54342413D01*
X85194555Y-54272551D01*
X85420200Y-54046906D01*
X85645845Y-54272551D01*
X85750400Y-54342413D01*
X85750401Y-59472320D01*
X85727976Y-59505881D01*
X85646126Y-59703484D01*
X85604400Y-59913258D01*
X85604400Y-60127142D01*
X85646126Y-60336916D01*
X85727976Y-60534519D01*
X85846804Y-60712357D01*
X85998043Y-60863596D01*
X86175881Y-60982424D01*
X86373484Y-61064274D01*
X86583258Y-61106000D01*
X86797142Y-61106000D01*
X87006916Y-61064274D01*
X87204519Y-60982424D01*
X87259161Y-60945913D01*
X87259160Y-74007382D01*
X87231065Y-74049429D01*
X87148732Y-74248197D01*
X87106760Y-74459208D01*
X87106760Y-74674352D01*
X87148732Y-74885363D01*
X87231065Y-75084131D01*
X87350593Y-75263017D01*
X87502723Y-75415147D01*
X87681609Y-75534675D01*
X87880377Y-75617008D01*
X88091388Y-75658980D01*
X88306532Y-75658980D01*
X88517543Y-75617008D01*
X88716311Y-75534675D01*
X88895197Y-75415147D01*
X89047327Y-75263017D01*
X89166855Y-75084131D01*
X89249188Y-74885363D01*
X89291160Y-74674352D01*
X89291160Y-74459208D01*
X89249188Y-74248197D01*
X89166855Y-74049429D01*
X89138760Y-74007382D01*
X89138760Y-57071917D01*
X89862095Y-56348583D01*
X89897954Y-56319154D01*
X89927384Y-56283294D01*
X90015396Y-56176052D01*
X90102663Y-56012786D01*
X90127910Y-55929557D01*
X90156402Y-55835633D01*
X90170000Y-55697567D01*
X90170000Y-55697565D01*
X90174547Y-55651400D01*
X90170000Y-55605235D01*
X90170000Y-54342413D01*
X90274555Y-54272551D01*
X90502751Y-54044355D01*
X90682043Y-53776026D01*
X90805541Y-53477874D01*
X90868500Y-53161358D01*
X90868500Y-52838642D01*
X90805541Y-52522126D01*
X90682043Y-52223974D01*
X90502751Y-51955645D01*
X90274555Y-51727449D01*
X90006226Y-51548157D01*
X89708074Y-51424659D01*
X89391558Y-51361700D01*
X89068842Y-51361700D01*
X88752326Y-51424659D01*
X88454174Y-51548157D01*
X88185845Y-51727449D01*
X87960200Y-51953094D01*
X87734555Y-51727449D01*
X87466226Y-51548157D01*
X87168074Y-51424659D01*
X86851558Y-51361700D01*
X86528842Y-51361700D01*
X86212326Y-51424659D01*
X85914174Y-51548157D01*
X85645845Y-51727449D01*
X85420200Y-51953094D01*
X85194555Y-51727449D01*
X84926226Y-51548157D01*
X84628074Y-51424659D01*
X84311558Y-51361700D01*
X83988842Y-51361700D01*
X83672326Y-51424659D01*
X83374174Y-51548157D01*
X83105845Y-51727449D01*
X82880200Y-51953094D01*
X82654555Y-51727449D01*
X82386226Y-51548157D01*
X82088074Y-51424659D01*
X81771558Y-51361700D01*
X81448842Y-51361700D01*
X81132326Y-51424659D01*
X80834174Y-51548157D01*
X80565845Y-51727449D01*
X80340200Y-51953094D01*
X80114555Y-51727449D01*
X79846226Y-51548157D01*
X79548074Y-51424659D01*
X79231558Y-51361700D01*
X78908842Y-51361700D01*
X78592326Y-51424659D01*
X78294174Y-51548157D01*
X78025845Y-51727449D01*
X77800200Y-51953094D01*
X77574555Y-51727449D01*
X77306226Y-51548157D01*
X77008074Y-51424659D01*
X76691558Y-51361700D01*
X76368842Y-51361700D01*
X76052326Y-51424659D01*
X75754174Y-51548157D01*
X75485845Y-51727449D01*
X75260200Y-51953094D01*
X75034555Y-51727449D01*
X74766226Y-51548157D01*
X74468074Y-51424659D01*
X74151558Y-51361700D01*
X73828842Y-51361700D01*
X73512326Y-51424659D01*
X73214174Y-51548157D01*
X72945845Y-51727449D01*
X72717649Y-51955645D01*
X72620021Y-52101756D01*
X72551735Y-52078070D01*
X71629805Y-53000000D01*
X72551735Y-53921930D01*
X72620021Y-53898244D01*
X72717649Y-54044355D01*
X72945845Y-54272551D01*
X73214174Y-54451843D01*
X73512326Y-54575341D01*
X73828842Y-54638300D01*
X74151558Y-54638300D01*
X74468074Y-54575341D01*
X74766226Y-54451843D01*
X75034555Y-54272551D01*
X75260200Y-54046906D01*
X75485845Y-54272551D01*
X75590401Y-54342413D01*
X75590401Y-60470546D01*
X75456863Y-60415232D01*
X75245852Y-60373260D01*
X75030708Y-60373260D01*
X74819697Y-60415232D01*
X74620929Y-60497565D01*
X74442043Y-60617093D01*
X74289913Y-60769223D01*
X74170385Y-60948109D01*
X74088052Y-61146877D01*
X74046080Y-61357888D01*
X74046080Y-61573032D01*
X74088052Y-61784043D01*
X74170385Y-61982811D01*
X74198480Y-62024858D01*
X74198480Y-62168580D01*
X74147687Y-62092563D01*
X73995557Y-61940433D01*
X73816671Y-61820905D01*
X73617903Y-61738572D01*
X73406892Y-61696600D01*
X73191748Y-61696600D01*
X72980737Y-61738572D01*
X72781969Y-61820905D01*
X72603083Y-61940433D01*
X72450953Y-62092563D01*
X72331425Y-62271449D01*
X72249092Y-62470217D01*
X72207120Y-62681228D01*
X72207120Y-62896372D01*
X72249092Y-63107383D01*
X72331425Y-63306151D01*
X72359520Y-63348198D01*
X72359521Y-68594641D01*
X72331425Y-68636689D01*
X72249092Y-68835457D01*
X72207120Y-69046468D01*
X72207120Y-69261612D01*
X72249092Y-69472623D01*
X72331425Y-69671391D01*
X72450953Y-69850277D01*
X72603083Y-70002407D01*
X72781969Y-70121935D01*
X72980737Y-70204268D01*
X73191748Y-70246240D01*
X73406892Y-70246240D01*
X73617903Y-70204268D01*
X73816671Y-70121935D01*
X73995557Y-70002407D01*
X74147687Y-69850277D01*
X74198480Y-69774259D01*
X74198481Y-80598680D01*
X74170385Y-80640729D01*
X74088052Y-80839497D01*
X74046080Y-81050508D01*
X74046080Y-81265652D01*
X74088052Y-81476663D01*
X74170385Y-81675431D01*
X74289913Y-81854317D01*
X74442043Y-82006447D01*
X74495252Y-82042000D01*
X69293740Y-82042000D01*
X69293740Y-76336399D01*
X69316164Y-76302839D01*
X69398014Y-76105236D01*
X69439740Y-75895462D01*
X69439740Y-75681578D01*
X69398014Y-75471804D01*
X69316164Y-75274201D01*
X69197336Y-75096363D01*
X69046097Y-74945124D01*
X68868259Y-74826296D01*
X68670656Y-74744446D01*
X68460882Y-74702720D01*
X68246998Y-74702720D01*
X68037224Y-74744446D01*
X67839621Y-74826296D01*
X67661783Y-74945124D01*
X67510544Y-75096363D01*
X67391716Y-75274201D01*
X67309866Y-75471804D01*
X67268140Y-75681578D01*
X67268140Y-75895462D01*
X67309866Y-76105236D01*
X67391716Y-76302839D01*
X67414140Y-76336399D01*
X67414141Y-86104237D01*
X67386636Y-86145401D01*
X67304786Y-86343004D01*
X67263060Y-86552778D01*
X67263060Y-86766662D01*
X67304786Y-86976436D01*
X67386636Y-87174039D01*
X67505464Y-87351877D01*
X67656703Y-87503116D01*
X67834541Y-87621944D01*
X68032144Y-87703794D01*
X68241918Y-87745520D01*
X68455802Y-87745520D01*
X68665576Y-87703794D01*
X68863179Y-87621944D01*
X68961000Y-87556582D01*
X68961000Y-88011000D01*
X40210467Y-88011000D01*
X40317274Y-87973332D01*
X40460775Y-87896628D01*
X40541435Y-87645000D01*
X39674800Y-86778365D01*
X38808165Y-87645000D01*
X38888825Y-87896628D01*
X39127818Y-88011000D01*
X35843918Y-88011000D01*
X35914116Y-87981923D01*
X36169752Y-87811112D01*
X36387152Y-87593712D01*
X36557963Y-87338076D01*
X36675619Y-87054029D01*
X36735600Y-86752485D01*
X36735600Y-86666303D01*
X38158996Y-86666303D01*
X38201299Y-86960723D01*
X38300228Y-87241234D01*
X38376932Y-87384735D01*
X38628560Y-87465395D01*
X39495195Y-86598760D01*
X38628560Y-85732125D01*
X38376932Y-85812785D01*
X38248533Y-86081089D01*
X38174945Y-86369286D01*
X38158996Y-86666303D01*
X36735600Y-86666303D01*
X36735600Y-86445035D01*
X36675619Y-86143491D01*
X36557963Y-85859444D01*
X36387152Y-85603808D01*
X36335864Y-85552520D01*
X38808165Y-85552520D01*
X39674800Y-86419155D01*
X39688943Y-86405013D01*
X39868548Y-86584618D01*
X39854405Y-86598760D01*
X40721040Y-87465395D01*
X40972668Y-87384735D01*
X41101067Y-87116431D01*
X41174655Y-86828234D01*
X41190604Y-86531217D01*
X41148301Y-86236797D01*
X41049372Y-85956286D01*
X40989652Y-85844560D01*
X41095761Y-85844560D01*
X41431114Y-85777854D01*
X41747010Y-85647006D01*
X42031308Y-85457044D01*
X42273084Y-85215268D01*
X42463046Y-84930970D01*
X42593894Y-84615074D01*
X42660600Y-84279721D01*
X42660600Y-83937799D01*
X42593894Y-83602446D01*
X42463046Y-83286550D01*
X42273084Y-83002252D01*
X42031308Y-82760476D01*
X41747010Y-82570514D01*
X41431114Y-82439666D01*
X41430441Y-82439532D01*
X43643980Y-82439532D01*
X43643980Y-82751908D01*
X43704921Y-83058281D01*
X43824462Y-83346878D01*
X43998009Y-83606609D01*
X44218891Y-83827491D01*
X44478622Y-84001038D01*
X44767219Y-84120579D01*
X45073592Y-84181520D01*
X45385968Y-84181520D01*
X45692341Y-84120579D01*
X45980938Y-84001038D01*
X46240669Y-83827491D01*
X46461551Y-83606609D01*
X46635098Y-83346878D01*
X46754639Y-83058281D01*
X46815580Y-82751908D01*
X46815580Y-82439532D01*
X46754639Y-82133159D01*
X46635098Y-81844562D01*
X46461551Y-81584831D01*
X46405228Y-81528508D01*
X46484274Y-81486257D01*
X46580965Y-81406905D01*
X46660317Y-81310214D01*
X46719282Y-81199900D01*
X46755592Y-81080202D01*
X46767852Y-80955720D01*
X46764780Y-80341470D01*
X46606030Y-80182720D01*
X45356780Y-80182720D01*
X45356780Y-80202720D01*
X45102780Y-80202720D01*
X45102780Y-80182720D01*
X43853530Y-80182720D01*
X43694780Y-80341470D01*
X43691708Y-80955720D01*
X43703968Y-81080202D01*
X43740278Y-81199900D01*
X43799243Y-81310214D01*
X43878595Y-81406905D01*
X43975286Y-81486257D01*
X44054332Y-81528508D01*
X43998009Y-81584831D01*
X43824462Y-81844562D01*
X43704921Y-82133159D01*
X43643980Y-82439532D01*
X41430441Y-82439532D01*
X41095761Y-82372960D01*
X40753839Y-82372960D01*
X40418486Y-82439666D01*
X40102590Y-82570514D01*
X39818292Y-82760476D01*
X39576516Y-83002252D01*
X39386554Y-83286550D01*
X39255706Y-83602446D01*
X39189000Y-83937799D01*
X39189000Y-84279721D01*
X39255706Y-84615074D01*
X39386554Y-84930970D01*
X39498545Y-85098576D01*
X39312837Y-85125259D01*
X39032326Y-85224188D01*
X38888825Y-85300892D01*
X38808165Y-85552520D01*
X36335864Y-85552520D01*
X36169752Y-85386408D01*
X35914116Y-85215597D01*
X35630069Y-85097941D01*
X35375336Y-85047271D01*
X35453046Y-84930970D01*
X35583894Y-84615074D01*
X35650600Y-84279721D01*
X35650600Y-83937799D01*
X35583894Y-83602446D01*
X35453046Y-83286550D01*
X35263084Y-83002252D01*
X35021308Y-82760476D01*
X34737010Y-82570514D01*
X34421114Y-82439666D01*
X34085761Y-82372960D01*
X33743839Y-82372960D01*
X33408486Y-82439666D01*
X33092590Y-82570514D01*
X32808292Y-82760476D01*
X32566516Y-83002252D01*
X32376554Y-83286550D01*
X32245706Y-83602446D01*
X32179000Y-83937799D01*
X32179000Y-84279721D01*
X32245706Y-84615074D01*
X32376554Y-84930970D01*
X32566516Y-85215268D01*
X32808292Y-85457044D01*
X33092590Y-85647006D01*
X33408486Y-85777854D01*
X33743839Y-85844560D01*
X33801582Y-85844560D01*
X33791637Y-85859444D01*
X33673981Y-86143491D01*
X33614000Y-86445035D01*
X33614000Y-86752485D01*
X33673981Y-87054029D01*
X33791637Y-87338076D01*
X33962448Y-87593712D01*
X34179848Y-87811112D01*
X34435484Y-87981923D01*
X34505682Y-88011000D01*
X30080188Y-88011000D01*
X30097822Y-87993366D01*
X30337031Y-87635364D01*
X30501801Y-87237574D01*
X30585800Y-86815282D01*
X30585800Y-86384718D01*
X30501801Y-85962426D01*
X30337031Y-85564636D01*
X30097822Y-85206634D01*
X29793366Y-84902178D01*
X29435364Y-84662969D01*
X29037574Y-84498199D01*
X28615282Y-84414200D01*
X28184718Y-84414200D01*
X27762426Y-84498199D01*
X27364636Y-84662969D01*
X27044249Y-84877044D01*
X27032405Y-79155720D01*
X43691708Y-79155720D01*
X43694780Y-79769970D01*
X43853530Y-79928720D01*
X45102780Y-79928720D01*
X45102780Y-78679470D01*
X45356780Y-78679470D01*
X45356780Y-79928720D01*
X46606030Y-79928720D01*
X46764780Y-79769970D01*
X46767852Y-79155720D01*
X49784922Y-79155720D01*
X49784922Y-80955720D01*
X49798163Y-81090160D01*
X49837378Y-81219434D01*
X49901059Y-81338573D01*
X49986760Y-81443000D01*
X50091187Y-81528701D01*
X50161054Y-81566046D01*
X50142269Y-81584831D01*
X49968722Y-81844562D01*
X49849181Y-82133159D01*
X49788240Y-82439532D01*
X49788240Y-82751908D01*
X49849181Y-83058281D01*
X49968722Y-83346878D01*
X50142269Y-83606609D01*
X50363151Y-83827491D01*
X50622882Y-84001038D01*
X50911479Y-84120579D01*
X51217852Y-84181520D01*
X51530228Y-84181520D01*
X51836601Y-84120579D01*
X52125198Y-84001038D01*
X52384929Y-83827491D01*
X52605811Y-83606609D01*
X52779358Y-83346878D01*
X52898899Y-83058281D01*
X52959840Y-82751908D01*
X52959840Y-82439532D01*
X52898899Y-82133159D01*
X52779358Y-81844562D01*
X52605811Y-81584831D01*
X52587026Y-81566046D01*
X52656893Y-81528701D01*
X52761320Y-81443000D01*
X52847021Y-81338573D01*
X52910702Y-81219434D01*
X52949917Y-81090160D01*
X52963158Y-80955720D01*
X52963158Y-79155720D01*
X52949917Y-79021280D01*
X52910702Y-78892006D01*
X52847021Y-78772867D01*
X52761320Y-78668440D01*
X52656893Y-78582739D01*
X52537754Y-78519058D01*
X52408480Y-78479843D01*
X52274040Y-78466602D01*
X50474040Y-78466602D01*
X50339600Y-78479843D01*
X50210326Y-78519058D01*
X50091187Y-78582739D01*
X49986760Y-78668440D01*
X49901059Y-78772867D01*
X49837378Y-78892006D01*
X49798163Y-79021280D01*
X49784922Y-79155720D01*
X46767852Y-79155720D01*
X46755592Y-79031238D01*
X46719282Y-78911540D01*
X46660317Y-78801226D01*
X46580965Y-78704535D01*
X46484274Y-78625183D01*
X46373960Y-78566218D01*
X46254262Y-78529908D01*
X46129780Y-78517648D01*
X45515530Y-78520720D01*
X45356780Y-78679470D01*
X45102780Y-78679470D01*
X44944030Y-78520720D01*
X44329780Y-78517648D01*
X44205298Y-78529908D01*
X44085600Y-78566218D01*
X43975286Y-78625183D01*
X43878595Y-78704535D01*
X43799243Y-78801226D01*
X43740278Y-78911540D01*
X43703968Y-79031238D01*
X43691708Y-79155720D01*
X27032405Y-79155720D01*
X27007010Y-66890008D01*
X34485580Y-66890008D01*
X34485580Y-67105152D01*
X34527552Y-67316163D01*
X34609885Y-67514931D01*
X34637980Y-67556978D01*
X34637981Y-73067581D01*
X34609885Y-73109629D01*
X34527552Y-73308397D01*
X34485580Y-73519408D01*
X34485580Y-73734552D01*
X34527552Y-73945563D01*
X34609885Y-74144331D01*
X34729413Y-74323217D01*
X34881543Y-74475347D01*
X35060429Y-74594875D01*
X35259197Y-74677208D01*
X35470208Y-74719180D01*
X35685352Y-74719180D01*
X35896363Y-74677208D01*
X36095131Y-74594875D01*
X36274017Y-74475347D01*
X36426147Y-74323217D01*
X36545675Y-74144331D01*
X36628008Y-73945563D01*
X36669980Y-73734552D01*
X36669980Y-73519408D01*
X36628008Y-73308397D01*
X36545675Y-73109629D01*
X36517580Y-73067582D01*
X36517580Y-67556978D01*
X36545675Y-67514931D01*
X36628008Y-67316163D01*
X36669980Y-67105152D01*
X36669980Y-66890008D01*
X36628008Y-66678997D01*
X36545675Y-66480229D01*
X36426147Y-66301343D01*
X36274017Y-66149213D01*
X36095131Y-66029685D01*
X35896363Y-65947352D01*
X35685352Y-65905380D01*
X35470208Y-65905380D01*
X35259197Y-65947352D01*
X35060429Y-66029685D01*
X34881543Y-66149213D01*
X34729413Y-66301343D01*
X34609885Y-66480229D01*
X34527552Y-66678997D01*
X34485580Y-66890008D01*
X27007010Y-66890008D01*
X26966486Y-47317113D01*
X33655000Y-47317113D01*
X33655000Y-47577287D01*
X33705757Y-47832463D01*
X33805322Y-48072834D01*
X33883601Y-48189987D01*
X33883600Y-62909615D01*
X33805322Y-63026766D01*
X33705757Y-63267137D01*
X33655000Y-63522313D01*
X33655000Y-63782487D01*
X33705757Y-64037663D01*
X33805322Y-64278034D01*
X33949867Y-64494361D01*
X34133839Y-64678333D01*
X34350166Y-64822878D01*
X34590537Y-64922443D01*
X34845713Y-64973200D01*
X35105887Y-64973200D01*
X35361063Y-64922443D01*
X35601434Y-64822878D01*
X35817761Y-64678333D01*
X36001733Y-64494361D01*
X36146278Y-64278034D01*
X36245843Y-64037663D01*
X36296600Y-63782487D01*
X36296600Y-63522313D01*
X36245843Y-63267137D01*
X36146278Y-63026766D01*
X36068000Y-62909615D01*
X36068000Y-48189985D01*
X36146278Y-48072834D01*
X36245843Y-47832463D01*
X36296600Y-47577287D01*
X36296600Y-47317113D01*
X36245843Y-47061937D01*
X36146278Y-46821566D01*
X36001733Y-46605239D01*
X35817761Y-46421267D01*
X35601434Y-46276722D01*
X35361063Y-46177157D01*
X35105887Y-46126400D01*
X34845713Y-46126400D01*
X34590537Y-46177157D01*
X34350166Y-46276722D01*
X34133839Y-46421267D01*
X33949867Y-46605239D01*
X33805322Y-46821566D01*
X33705757Y-47061937D01*
X33655000Y-47317113D01*
X26966486Y-47317113D01*
X26960424Y-44389040D01*
X37109934Y-44389040D01*
X37114481Y-44435207D01*
X37114480Y-67693103D01*
X37109934Y-67739260D01*
X37114480Y-67785417D01*
X37114480Y-67785426D01*
X37128078Y-67923492D01*
X37181817Y-68100645D01*
X37269084Y-68263911D01*
X37386526Y-68407014D01*
X37422395Y-68436451D01*
X38849301Y-69863358D01*
X38849300Y-73481708D01*
X38844220Y-73533288D01*
X38844220Y-73533298D01*
X38839674Y-73579455D01*
X38841786Y-73600903D01*
X38821796Y-73630821D01*
X38739946Y-73828424D01*
X38698220Y-74038198D01*
X38698220Y-74252082D01*
X38739946Y-74461856D01*
X38821796Y-74659459D01*
X38940624Y-74837297D01*
X39091863Y-74988536D01*
X39269701Y-75107364D01*
X39467304Y-75189214D01*
X39677078Y-75230940D01*
X39890962Y-75230940D01*
X40100736Y-75189214D01*
X40298339Y-75107364D01*
X40476177Y-74988536D01*
X40627416Y-74837297D01*
X40746244Y-74659459D01*
X40828094Y-74461856D01*
X40869820Y-74252082D01*
X40869820Y-74038198D01*
X40828094Y-73828424D01*
X40746244Y-73630821D01*
X40730245Y-73606877D01*
X40733446Y-73574376D01*
X40728900Y-73528219D01*
X40728900Y-69520237D01*
X40733446Y-69474080D01*
X40728900Y-69427923D01*
X40728900Y-69427913D01*
X40715302Y-69289847D01*
X40661563Y-69112694D01*
X40632953Y-69059168D01*
X40574296Y-68949428D01*
X40524928Y-68889274D01*
X40456854Y-68806326D01*
X40420990Y-68776893D01*
X38994080Y-67349984D01*
X38994080Y-63359753D01*
X39166800Y-63359753D01*
X39166800Y-63619927D01*
X39217557Y-63875103D01*
X39317122Y-64115474D01*
X39461667Y-64331801D01*
X39645639Y-64515773D01*
X39861966Y-64660318D01*
X40102337Y-64759883D01*
X40357513Y-64810640D01*
X40617687Y-64810640D01*
X40872863Y-64759883D01*
X41113234Y-64660318D01*
X41230385Y-64582040D01*
X61169435Y-64582040D01*
X60978564Y-64620006D01*
X60780961Y-64701856D01*
X60603123Y-64820684D01*
X60451884Y-64971923D01*
X60333056Y-65149761D01*
X60251206Y-65347364D01*
X60250570Y-65350560D01*
X60083962Y-65317420D01*
X59870078Y-65317420D01*
X59660304Y-65359146D01*
X59462701Y-65440996D01*
X59284863Y-65559824D01*
X59133624Y-65711063D01*
X59014796Y-65888901D01*
X58932946Y-66086504D01*
X58891220Y-66296278D01*
X58891220Y-66510162D01*
X58932946Y-66719936D01*
X59014796Y-66917539D01*
X59037220Y-66951099D01*
X59037221Y-78671000D01*
X59035120Y-78668440D01*
X58930693Y-78582739D01*
X58811554Y-78519058D01*
X58682280Y-78479843D01*
X58607960Y-78472523D01*
X58607960Y-76163679D01*
X58630384Y-76130119D01*
X58712234Y-75932516D01*
X58753960Y-75722742D01*
X58753960Y-75508858D01*
X58712234Y-75299084D01*
X58630384Y-75101481D01*
X58511556Y-74923643D01*
X58360317Y-74772404D01*
X58182479Y-74653576D01*
X57984876Y-74571726D01*
X57775102Y-74530000D01*
X57561218Y-74530000D01*
X57351444Y-74571726D01*
X57153841Y-74653576D01*
X56976003Y-74772404D01*
X56824764Y-74923643D01*
X56705936Y-75101481D01*
X56624086Y-75299084D01*
X56582360Y-75508858D01*
X56582360Y-75722742D01*
X56624086Y-75932516D01*
X56705936Y-76130119D01*
X56728360Y-76163679D01*
X56728361Y-78468521D01*
X56613400Y-78479843D01*
X56484126Y-78519058D01*
X56364987Y-78582739D01*
X56260560Y-78668440D01*
X56174859Y-78772867D01*
X56111178Y-78892006D01*
X56071963Y-79021280D01*
X56058722Y-79155720D01*
X56058722Y-80955720D01*
X56071963Y-81090160D01*
X56111178Y-81219434D01*
X56174859Y-81338573D01*
X56260560Y-81443000D01*
X56364987Y-81528701D01*
X56434854Y-81566046D01*
X56416069Y-81584831D01*
X56242522Y-81844562D01*
X56122981Y-82133159D01*
X56062040Y-82439532D01*
X56062040Y-82751908D01*
X56122981Y-83058281D01*
X56242522Y-83346878D01*
X56416069Y-83606609D01*
X56636951Y-83827491D01*
X56896682Y-84001038D01*
X57185279Y-84120579D01*
X57491652Y-84181520D01*
X57804028Y-84181520D01*
X58110401Y-84120579D01*
X58398998Y-84001038D01*
X58658729Y-83827491D01*
X58879611Y-83606609D01*
X59053158Y-83346878D01*
X59172699Y-83058281D01*
X59233640Y-82751908D01*
X59233640Y-82439532D01*
X59172699Y-82133159D01*
X59053158Y-81844562D01*
X58879611Y-81584831D01*
X58860826Y-81566046D01*
X58930693Y-81528701D01*
X59035120Y-81443000D01*
X59120821Y-81338573D01*
X59184502Y-81219434D01*
X59223717Y-81090160D01*
X59236958Y-80955720D01*
X59236958Y-80315271D01*
X59282323Y-80360636D01*
X59460161Y-80479464D01*
X59657764Y-80561314D01*
X59867538Y-80603040D01*
X60081422Y-80603040D01*
X60291196Y-80561314D01*
X60488799Y-80479464D01*
X60666637Y-80360636D01*
X60817876Y-80209397D01*
X60936704Y-80031559D01*
X61018554Y-79833956D01*
X61060280Y-79624182D01*
X61060280Y-79410298D01*
X61042161Y-79319204D01*
X61188338Y-79348280D01*
X61402222Y-79348280D01*
X61611996Y-79306554D01*
X61760100Y-79245207D01*
X61760101Y-84260853D01*
X61681822Y-84378006D01*
X61582257Y-84618377D01*
X61531500Y-84873553D01*
X61531500Y-85133727D01*
X61582257Y-85388903D01*
X61681822Y-85629274D01*
X61826367Y-85845601D01*
X62010339Y-86029573D01*
X62226666Y-86174118D01*
X62467037Y-86273683D01*
X62722213Y-86324440D01*
X62982387Y-86324440D01*
X63237563Y-86273683D01*
X63477934Y-86174118D01*
X63694261Y-86029573D01*
X63878233Y-85845601D01*
X64022778Y-85629274D01*
X64122343Y-85388903D01*
X64173100Y-85133727D01*
X64173100Y-84873553D01*
X64122343Y-84618377D01*
X64022778Y-84378006D01*
X63944500Y-84260855D01*
X63944500Y-75929325D01*
X64022778Y-75812174D01*
X64122343Y-75571803D01*
X64173100Y-75316627D01*
X64173100Y-75056453D01*
X64122343Y-74801277D01*
X64022778Y-74560906D01*
X63949580Y-74451357D01*
X63949580Y-73071458D01*
X67239200Y-73071458D01*
X67239200Y-73285342D01*
X67280926Y-73495116D01*
X67362776Y-73692719D01*
X67481604Y-73870557D01*
X67632843Y-74021796D01*
X67810681Y-74140624D01*
X68008284Y-74222474D01*
X68218058Y-74264200D01*
X68431942Y-74264200D01*
X68641716Y-74222474D01*
X68839319Y-74140624D01*
X69017157Y-74021796D01*
X69168396Y-73870557D01*
X69287224Y-73692719D01*
X69369074Y-73495116D01*
X69410800Y-73285342D01*
X69410800Y-73071458D01*
X69369074Y-72861684D01*
X69287224Y-72664081D01*
X69265800Y-72632018D01*
X69265800Y-65576131D01*
X69267442Y-65570718D01*
X69281040Y-65432652D01*
X69281040Y-65432650D01*
X69285587Y-65386485D01*
X69283474Y-65365036D01*
X69303464Y-65335119D01*
X69385314Y-65137516D01*
X69427040Y-64927742D01*
X69427040Y-64713858D01*
X69385314Y-64504084D01*
X69303464Y-64306481D01*
X69184636Y-64128643D01*
X69033397Y-63977404D01*
X68855559Y-63858576D01*
X68657956Y-63776726D01*
X68448182Y-63735000D01*
X68234298Y-63735000D01*
X68024524Y-63776726D01*
X67826921Y-63858576D01*
X67649083Y-63977404D01*
X67497844Y-64128643D01*
X67379016Y-64306481D01*
X67297166Y-64504084D01*
X67255440Y-64713858D01*
X67255440Y-64927742D01*
X67297166Y-65137516D01*
X67379016Y-65335119D01*
X67387032Y-65347115D01*
X67386200Y-65355559D01*
X67386200Y-65355568D01*
X67381654Y-65401725D01*
X67386200Y-65447882D01*
X67386201Y-72629023D01*
X67362776Y-72664081D01*
X67280926Y-72861684D01*
X67239200Y-73071458D01*
X63949580Y-73071458D01*
X63949580Y-71893265D01*
X64027858Y-71776114D01*
X64127423Y-71535743D01*
X64178180Y-71280567D01*
X64178180Y-71020393D01*
X64127423Y-70765217D01*
X64027858Y-70524846D01*
X63949580Y-70407695D01*
X63949580Y-63620856D01*
X63962484Y-63489840D01*
X63957200Y-63436191D01*
X63957200Y-56708616D01*
X63996015Y-56692538D01*
X65149780Y-56692538D01*
X65149780Y-56906422D01*
X65191506Y-57116196D01*
X65273356Y-57313799D01*
X65298321Y-57351161D01*
X65298320Y-62162181D01*
X65275896Y-62195741D01*
X65194046Y-62393344D01*
X65152320Y-62603118D01*
X65152320Y-62817002D01*
X65194046Y-63026776D01*
X65275896Y-63224379D01*
X65394724Y-63402217D01*
X65545963Y-63553456D01*
X65723801Y-63672284D01*
X65921404Y-63754134D01*
X66131178Y-63795860D01*
X66345062Y-63795860D01*
X66554836Y-63754134D01*
X66752439Y-63672284D01*
X66930277Y-63553456D01*
X67081516Y-63402217D01*
X67200344Y-63224379D01*
X67282194Y-63026776D01*
X67323920Y-62817002D01*
X67323920Y-62603118D01*
X67282194Y-62393344D01*
X67200344Y-62195741D01*
X67177920Y-62162181D01*
X67177920Y-57343557D01*
X67197804Y-57313799D01*
X67279654Y-57116196D01*
X67321380Y-56906422D01*
X67321380Y-56692538D01*
X67279654Y-56482764D01*
X67197804Y-56285161D01*
X67078976Y-56107323D01*
X66927737Y-55956084D01*
X66749899Y-55837256D01*
X66552296Y-55755406D01*
X66342522Y-55713680D01*
X66128638Y-55713680D01*
X65918864Y-55755406D01*
X65721261Y-55837256D01*
X65543423Y-55956084D01*
X65392184Y-56107323D01*
X65273356Y-56285161D01*
X65191506Y-56482764D01*
X65149780Y-56692538D01*
X63996015Y-56692538D01*
X64186594Y-56613598D01*
X64402921Y-56469053D01*
X64586893Y-56285081D01*
X64731438Y-56068754D01*
X64831003Y-55828383D01*
X64881760Y-55573207D01*
X64881760Y-55313033D01*
X64831003Y-55057857D01*
X64731438Y-54817486D01*
X64586893Y-54601159D01*
X64402921Y-54417187D01*
X64186594Y-54272642D01*
X63946223Y-54173077D01*
X63691047Y-54122320D01*
X63430873Y-54122320D01*
X63175697Y-54173077D01*
X62935326Y-54272642D01*
X62718999Y-54417187D01*
X62535027Y-54601159D01*
X62390482Y-54817486D01*
X62290917Y-55057857D01*
X62263430Y-55196047D01*
X62130632Y-55328845D01*
X62088963Y-55363042D01*
X62054766Y-55404711D01*
X62054763Y-55404714D01*
X62016510Y-55451326D01*
X61952476Y-55529351D01*
X61937613Y-55557158D01*
X61851057Y-55719092D01*
X61788604Y-55924971D01*
X61767517Y-56139080D01*
X61772801Y-56192731D01*
X61772800Y-62397640D01*
X41230385Y-62397640D01*
X41113234Y-62319362D01*
X40872863Y-62219797D01*
X40617687Y-62169040D01*
X40357513Y-62169040D01*
X40102337Y-62219797D01*
X39861966Y-62319362D01*
X39645639Y-62463907D01*
X39461667Y-62647879D01*
X39317122Y-62864206D01*
X39217557Y-63104577D01*
X39166800Y-63359753D01*
X38994080Y-63359753D01*
X38994080Y-58633098D01*
X39404340Y-58633098D01*
X39404340Y-58846982D01*
X39446066Y-59056756D01*
X39527916Y-59254359D01*
X39646744Y-59432197D01*
X39797983Y-59583436D01*
X39975821Y-59702264D01*
X40173424Y-59784114D01*
X40383198Y-59825840D01*
X40597082Y-59825840D01*
X40806856Y-59784114D01*
X41004459Y-59702264D01*
X41034377Y-59682274D01*
X41055825Y-59684386D01*
X41101982Y-59679840D01*
X41101992Y-59679840D01*
X41179361Y-59672220D01*
X45798303Y-59672220D01*
X45844460Y-59676766D01*
X45890617Y-59672220D01*
X45890627Y-59672220D01*
X46028693Y-59658622D01*
X46205846Y-59604883D01*
X46369111Y-59517616D01*
X46512214Y-59400174D01*
X46541651Y-59364305D01*
X49189910Y-56716048D01*
X49229496Y-56708174D01*
X49427099Y-56626324D01*
X49604937Y-56507496D01*
X49756176Y-56356257D01*
X49875004Y-56178419D01*
X49956854Y-55980816D01*
X49998580Y-55771042D01*
X49998580Y-55557158D01*
X49956854Y-55347384D01*
X49875004Y-55149781D01*
X49756176Y-54971943D01*
X49604937Y-54820704D01*
X49427099Y-54701876D01*
X49229496Y-54620026D01*
X49019722Y-54578300D01*
X48805838Y-54578300D01*
X48596064Y-54620026D01*
X48398461Y-54701876D01*
X48220623Y-54820704D01*
X48069384Y-54971943D01*
X47950556Y-55149781D01*
X47868706Y-55347384D01*
X47860832Y-55386970D01*
X45455184Y-57792620D01*
X41109601Y-57792620D01*
X41063444Y-57788074D01*
X41025416Y-57791819D01*
X41004459Y-57777816D01*
X40806856Y-57695966D01*
X40597082Y-57654240D01*
X40383198Y-57654240D01*
X40173424Y-57695966D01*
X39975821Y-57777816D01*
X39797983Y-57896644D01*
X39646744Y-58047883D01*
X39527916Y-58225721D01*
X39446066Y-58423324D01*
X39404340Y-58633098D01*
X38994080Y-58633098D01*
X38994080Y-44778316D01*
X40068838Y-43703559D01*
X45308606Y-43707869D01*
X45342841Y-43730744D01*
X45540444Y-43812594D01*
X45750218Y-43854320D01*
X45964102Y-43854320D01*
X46173876Y-43812594D01*
X46371479Y-43730744D01*
X46549317Y-43611916D01*
X46700556Y-43460677D01*
X46819384Y-43282839D01*
X46901234Y-43085236D01*
X46942960Y-42875462D01*
X46942960Y-42661578D01*
X46901234Y-42451804D01*
X46819384Y-42254201D01*
X46700556Y-42076363D01*
X46549317Y-41925124D01*
X46371479Y-41806296D01*
X46173876Y-41724446D01*
X45964102Y-41682720D01*
X45750218Y-41682720D01*
X45540444Y-41724446D01*
X45342841Y-41806296D01*
X45309954Y-41828270D01*
X39726440Y-41823679D01*
X39679880Y-41819093D01*
X39587504Y-41828191D01*
X39496409Y-41837087D01*
X39496037Y-41837200D01*
X39495647Y-41837238D01*
X39406717Y-41864215D01*
X39319212Y-41890681D01*
X39318872Y-41890862D01*
X39318494Y-41890977D01*
X39236314Y-41934903D01*
X39155875Y-41977813D01*
X39155576Y-41978058D01*
X39155228Y-41978244D01*
X39082976Y-42037540D01*
X39012676Y-42095138D01*
X38982978Y-42131264D01*
X37422390Y-43691854D01*
X37386527Y-43721286D01*
X37357097Y-43757147D01*
X37269084Y-43864389D01*
X37181818Y-44027654D01*
X37128079Y-44204807D01*
X37109934Y-44389040D01*
X26960424Y-44389040D01*
X26951909Y-40276233D01*
X39400480Y-40276233D01*
X39400480Y-40536407D01*
X39451237Y-40791583D01*
X39550802Y-41031954D01*
X39695347Y-41248281D01*
X39879319Y-41432253D01*
X40095646Y-41576798D01*
X40336017Y-41676363D01*
X40591193Y-41727120D01*
X40851367Y-41727120D01*
X41106543Y-41676363D01*
X41346914Y-41576798D01*
X41464065Y-41498520D01*
X64955137Y-41498520D01*
X67818000Y-44361384D01*
X67818001Y-51775293D01*
X67637649Y-51955645D01*
X67458357Y-52223974D01*
X67334859Y-52522126D01*
X67271900Y-52838642D01*
X67271900Y-53161358D01*
X67334859Y-53477874D01*
X67458357Y-53776026D01*
X67637649Y-54044355D01*
X67865845Y-54272551D01*
X68134174Y-54451843D01*
X68432326Y-54575341D01*
X68748842Y-54638300D01*
X69071558Y-54638300D01*
X69388074Y-54575341D01*
X69686226Y-54451843D01*
X69954555Y-54272551D01*
X70125571Y-54101535D01*
X70528270Y-54101535D01*
X70618298Y-54361081D01*
X70899816Y-54497224D01*
X71202486Y-54575829D01*
X71514674Y-54593877D01*
X71824385Y-54550672D01*
X72119716Y-54447877D01*
X72282102Y-54361081D01*
X72372130Y-54101535D01*
X71450200Y-53179605D01*
X70528270Y-54101535D01*
X70125571Y-54101535D01*
X70182751Y-54044355D01*
X70280379Y-53898244D01*
X70348665Y-53921930D01*
X71270595Y-53000000D01*
X70348665Y-52078070D01*
X70280379Y-52101756D01*
X70182751Y-51955645D01*
X70125571Y-51898465D01*
X70528270Y-51898465D01*
X71450200Y-52820395D01*
X72372130Y-51898465D01*
X72282102Y-51638919D01*
X72000584Y-51502776D01*
X71697914Y-51424171D01*
X71385726Y-51406123D01*
X71076015Y-51449328D01*
X70780684Y-51552123D01*
X70618298Y-51638919D01*
X70528270Y-51898465D01*
X70125571Y-51898465D01*
X70002400Y-51775294D01*
X70002400Y-43962618D01*
X70007683Y-43908979D01*
X70002400Y-43855340D01*
X70002400Y-43855331D01*
X69986596Y-43694871D01*
X69924143Y-43488991D01*
X69822725Y-43299251D01*
X69686238Y-43132942D01*
X69644569Y-43098745D01*
X66217780Y-39671957D01*
X66183578Y-39630282D01*
X66017269Y-39493795D01*
X65827529Y-39392377D01*
X65621649Y-39329924D01*
X65461189Y-39314120D01*
X65461181Y-39314120D01*
X65407540Y-39308837D01*
X65353899Y-39314120D01*
X41464065Y-39314120D01*
X41346914Y-39235842D01*
X41106543Y-39136277D01*
X40851367Y-39085520D01*
X40591193Y-39085520D01*
X40336017Y-39136277D01*
X40095646Y-39235842D01*
X39879319Y-39380387D01*
X39695347Y-39564359D01*
X39550802Y-39780686D01*
X39451237Y-40021057D01*
X39400480Y-40276233D01*
X26951909Y-40276233D01*
X26938935Y-34010000D01*
X31875528Y-34010000D01*
X31887788Y-34134482D01*
X31924098Y-34254180D01*
X31983063Y-34364494D01*
X32062415Y-34461185D01*
X32159106Y-34540537D01*
X32269420Y-34599502D01*
X32389118Y-34635812D01*
X32513600Y-34648072D01*
X33977850Y-34645000D01*
X34136600Y-34486250D01*
X34136600Y-32387000D01*
X34390600Y-32387000D01*
X34390600Y-34486250D01*
X34549350Y-34645000D01*
X36013600Y-34648072D01*
X36138082Y-34635812D01*
X36257780Y-34599502D01*
X36368094Y-34540537D01*
X36464785Y-34461185D01*
X36524482Y-34388444D01*
X36524482Y-37010000D01*
X36537723Y-37144440D01*
X36576938Y-37273714D01*
X36640619Y-37392853D01*
X36726320Y-37497280D01*
X36830747Y-37582981D01*
X36949886Y-37646662D01*
X37079160Y-37685877D01*
X37213600Y-37699118D01*
X40713600Y-37699118D01*
X40848040Y-37685877D01*
X40977314Y-37646662D01*
X41096453Y-37582981D01*
X41200880Y-37497280D01*
X41286581Y-37392853D01*
X41350262Y-37273714D01*
X41389477Y-37144440D01*
X41402718Y-37010000D01*
X41402718Y-35920000D01*
X51460882Y-35920000D01*
X51460882Y-37620000D01*
X51474123Y-37754440D01*
X51513338Y-37883714D01*
X51577019Y-38002853D01*
X51662720Y-38107280D01*
X51767147Y-38192981D01*
X51886286Y-38256662D01*
X52015560Y-38295877D01*
X52150000Y-38309118D01*
X53850000Y-38309118D01*
X53984440Y-38295877D01*
X54113714Y-38256662D01*
X54232853Y-38192981D01*
X54337280Y-38107280D01*
X54422981Y-38002853D01*
X54471023Y-37912972D01*
X54520985Y-37962934D01*
X54772526Y-38131008D01*
X55052024Y-38246780D01*
X55348737Y-38305800D01*
X55651263Y-38305800D01*
X55947976Y-38246780D01*
X56227474Y-38131008D01*
X56479015Y-37962934D01*
X56692934Y-37749015D01*
X56861008Y-37497474D01*
X56976780Y-37217976D01*
X57035800Y-36921263D01*
X57035800Y-36618737D01*
X56976780Y-36322024D01*
X56861008Y-36042526D01*
X56692934Y-35790985D01*
X56671949Y-35770000D01*
X56692934Y-35749015D01*
X56861008Y-35497474D01*
X56976780Y-35217976D01*
X57035800Y-34921263D01*
X57035800Y-34618737D01*
X56976780Y-34322024D01*
X56861008Y-34042526D01*
X56692934Y-33790985D01*
X56631558Y-33729609D01*
X58779997Y-33729609D01*
X58966073Y-34070766D01*
X59383409Y-34286513D01*
X59834815Y-34416696D01*
X60302946Y-34456313D01*
X60769811Y-34403842D01*
X61217468Y-34261297D01*
X61573927Y-34070766D01*
X61760003Y-33729609D01*
X60270000Y-32239605D01*
X58779997Y-33729609D01*
X56631558Y-33729609D01*
X56479015Y-33577066D01*
X56227474Y-33408992D01*
X55947976Y-33293220D01*
X55651263Y-33234200D01*
X55348737Y-33234200D01*
X55052024Y-33293220D01*
X54772526Y-33408992D01*
X54520985Y-33577066D01*
X54307066Y-33790985D01*
X54187018Y-33970649D01*
X54028397Y-33921208D01*
X53179605Y-34770000D01*
X53193748Y-34784143D01*
X53014143Y-34963748D01*
X53000000Y-34949605D01*
X52985858Y-34963748D01*
X52806253Y-34784143D01*
X52820395Y-34770000D01*
X51971603Y-33921208D01*
X51722528Y-33998843D01*
X51596629Y-34262883D01*
X51524661Y-34546411D01*
X51509389Y-34838531D01*
X51551401Y-35128019D01*
X51649081Y-35403747D01*
X51664004Y-35431666D01*
X51662720Y-35432720D01*
X51577019Y-35537147D01*
X51513338Y-35656286D01*
X51474123Y-35785560D01*
X51460882Y-35920000D01*
X41402718Y-35920000D01*
X41402718Y-33729609D01*
X46739997Y-33729609D01*
X46926073Y-34070766D01*
X47343409Y-34286513D01*
X47794815Y-34416696D01*
X48262946Y-34456313D01*
X48729811Y-34403842D01*
X49177468Y-34261297D01*
X49533927Y-34070766D01*
X49713461Y-33741603D01*
X52151208Y-33741603D01*
X53000000Y-34590395D01*
X53848792Y-33741603D01*
X53771157Y-33492528D01*
X53507117Y-33366629D01*
X53223589Y-33294661D01*
X52931469Y-33279389D01*
X52641981Y-33321401D01*
X52366253Y-33419081D01*
X52228843Y-33492528D01*
X52151208Y-33741603D01*
X49713461Y-33741603D01*
X49720003Y-33729609D01*
X48230000Y-32239605D01*
X46739997Y-33729609D01*
X41402718Y-33729609D01*
X41402718Y-33510000D01*
X41389477Y-33375560D01*
X41350262Y-33246286D01*
X41286581Y-33127147D01*
X41200880Y-33022720D01*
X41096453Y-32937019D01*
X40977314Y-32873338D01*
X40848040Y-32834123D01*
X40713600Y-32820882D01*
X37213600Y-32820882D01*
X37079160Y-32834123D01*
X36949886Y-32873338D01*
X36830747Y-32937019D01*
X36726320Y-33022720D01*
X36649796Y-33115964D01*
X36648600Y-32545750D01*
X36489850Y-32387000D01*
X34390600Y-32387000D01*
X34136600Y-32387000D01*
X32037350Y-32387000D01*
X31878600Y-32545750D01*
X31875528Y-34010000D01*
X26938935Y-34010000D01*
X26930677Y-30021865D01*
X27006634Y-30097822D01*
X27364636Y-30337031D01*
X27762426Y-30501801D01*
X28184718Y-30585800D01*
X28615282Y-30585800D01*
X28996354Y-30510000D01*
X31875528Y-30510000D01*
X31878600Y-31974250D01*
X32037350Y-32133000D01*
X34136600Y-32133000D01*
X34136600Y-30033750D01*
X34390600Y-30033750D01*
X34390600Y-32133000D01*
X36489850Y-32133000D01*
X36529904Y-32092946D01*
X45833687Y-32092946D01*
X45886158Y-32559811D01*
X46028703Y-33007468D01*
X46219234Y-33363927D01*
X46560391Y-33550003D01*
X48050395Y-32060000D01*
X48409605Y-32060000D01*
X49899609Y-33550003D01*
X50240766Y-33363927D01*
X50456513Y-32946591D01*
X50586696Y-32495185D01*
X50620736Y-32092946D01*
X57873687Y-32092946D01*
X57926158Y-32559811D01*
X58068703Y-33007468D01*
X58259234Y-33363927D01*
X58600391Y-33550003D01*
X60090395Y-32060000D01*
X60449605Y-32060000D01*
X61939609Y-33550003D01*
X62280766Y-33363927D01*
X62496513Y-32946591D01*
X62626696Y-32495185D01*
X62666313Y-32027054D01*
X62613842Y-31560189D01*
X62471297Y-31112532D01*
X62280766Y-30756073D01*
X61939609Y-30569997D01*
X60449605Y-32060000D01*
X60090395Y-32060000D01*
X58600391Y-30569997D01*
X58259234Y-30756073D01*
X58043487Y-31173409D01*
X57913304Y-31624815D01*
X57873687Y-32092946D01*
X50620736Y-32092946D01*
X50626313Y-32027054D01*
X50573842Y-31560189D01*
X50431297Y-31112532D01*
X50240766Y-30756073D01*
X49899609Y-30569997D01*
X48409605Y-32060000D01*
X48050395Y-32060000D01*
X46560391Y-30569997D01*
X46219234Y-30756073D01*
X46003487Y-31173409D01*
X45873304Y-31624815D01*
X45833687Y-32092946D01*
X36529904Y-32092946D01*
X36648600Y-31974250D01*
X36650531Y-31053633D01*
X36683063Y-31114494D01*
X36762415Y-31211185D01*
X36859106Y-31290537D01*
X36969420Y-31349502D01*
X37089118Y-31385812D01*
X37213600Y-31398072D01*
X38677850Y-31395000D01*
X38836600Y-31236250D01*
X38836600Y-29387000D01*
X39090600Y-29387000D01*
X39090600Y-31236250D01*
X39249350Y-31395000D01*
X40713600Y-31398072D01*
X40838082Y-31385812D01*
X40957780Y-31349502D01*
X41068094Y-31290537D01*
X41164785Y-31211185D01*
X41244137Y-31114494D01*
X41303102Y-31004180D01*
X41339412Y-30884482D01*
X41351672Y-30760000D01*
X41350737Y-30390391D01*
X46739997Y-30390391D01*
X48230000Y-31880395D01*
X49720003Y-30390391D01*
X58779997Y-30390391D01*
X60270000Y-31880395D01*
X61760003Y-30390391D01*
X61573927Y-30049234D01*
X61156591Y-29833487D01*
X60705185Y-29703304D01*
X60237054Y-29663687D01*
X59770189Y-29716158D01*
X59322532Y-29858703D01*
X58966073Y-30049234D01*
X58779997Y-30390391D01*
X49720003Y-30390391D01*
X49533927Y-30049234D01*
X49116591Y-29833487D01*
X48665185Y-29703304D01*
X48197054Y-29663687D01*
X47730189Y-29716158D01*
X47282532Y-29858703D01*
X46926073Y-30049234D01*
X46739997Y-30390391D01*
X41350737Y-30390391D01*
X41348600Y-29545750D01*
X41189850Y-29387000D01*
X39090600Y-29387000D01*
X38836600Y-29387000D01*
X36737350Y-29387000D01*
X36578600Y-29545750D01*
X36576902Y-30216805D01*
X36544137Y-30155506D01*
X36464785Y-30058815D01*
X36368094Y-29979463D01*
X36257780Y-29920498D01*
X36138082Y-29884188D01*
X36013600Y-29871928D01*
X34549350Y-29875000D01*
X34390600Y-30033750D01*
X34136600Y-30033750D01*
X33977850Y-29875000D01*
X32513600Y-29871928D01*
X32389118Y-29884188D01*
X32269420Y-29920498D01*
X32159106Y-29979463D01*
X32062415Y-30058815D01*
X31983063Y-30155506D01*
X31924098Y-30265820D01*
X31887788Y-30385518D01*
X31875528Y-30510000D01*
X28996354Y-30510000D01*
X29037574Y-30501801D01*
X29435364Y-30337031D01*
X29793366Y-30097822D01*
X30097822Y-29793366D01*
X30337031Y-29435364D01*
X30501801Y-29037574D01*
X30585800Y-28615282D01*
X30585800Y-28184718D01*
X30501801Y-27762426D01*
X30500797Y-27760000D01*
X36575528Y-27760000D01*
X36578600Y-28974250D01*
X36737350Y-29133000D01*
X38836600Y-29133000D01*
X38836600Y-27283750D01*
X39090600Y-27283750D01*
X39090600Y-29133000D01*
X41189850Y-29133000D01*
X41348600Y-28974250D01*
X41351672Y-27760000D01*
X41339412Y-27635518D01*
X41303102Y-27515820D01*
X41244137Y-27405506D01*
X41164785Y-27308815D01*
X41068094Y-27229463D01*
X40957780Y-27170498D01*
X40838082Y-27134188D01*
X40713600Y-27121928D01*
X39249350Y-27125000D01*
X39090600Y-27283750D01*
X38836600Y-27283750D01*
X38677850Y-27125000D01*
X37213600Y-27121928D01*
X37089118Y-27134188D01*
X36969420Y-27170498D01*
X36859106Y-27229463D01*
X36762415Y-27308815D01*
X36683063Y-27405506D01*
X36624098Y-27515820D01*
X36587788Y-27635518D01*
X36575528Y-27760000D01*
X30500797Y-27760000D01*
X30337031Y-27364636D01*
X30097822Y-27006634D01*
X30015188Y-26924000D01*
X67546812Y-26924000D01*
X67450248Y-27157128D01*
G36*
X83105845Y-54272551D02*
G01*
X83210400Y-54342413D01*
X83210401Y-61769601D01*
X82022255Y-62957749D01*
X81986386Y-62987186D01*
X81868944Y-63130289D01*
X81861660Y-63143916D01*
X81861660Y-62296697D01*
X82229395Y-61928963D01*
X82265254Y-61899534D01*
X82382696Y-61756431D01*
X82469963Y-61593166D01*
X82523702Y-61416013D01*
X82537300Y-61277947D01*
X82537300Y-61277938D01*
X82541846Y-61231781D01*
X82537300Y-61185624D01*
X82537300Y-54352447D01*
X82537463Y-54350789D01*
X82654555Y-54272551D01*
X82880200Y-54046906D01*
X83105845Y-54272551D01*
G37*
X83105845Y-54272551D02*
X83210400Y-54342413D01*
X83210401Y-61769601D01*
X82022255Y-62957749D01*
X81986386Y-62987186D01*
X81868944Y-63130289D01*
X81861660Y-63143916D01*
X81861660Y-62296697D01*
X82229395Y-61928963D01*
X82265254Y-61899534D01*
X82382696Y-61756431D01*
X82469963Y-61593166D01*
X82523702Y-61416013D01*
X82537300Y-61277947D01*
X82537300Y-61277938D01*
X82541846Y-61231781D01*
X82537300Y-61185624D01*
X82537300Y-54352447D01*
X82537463Y-54350789D01*
X82654555Y-54272551D01*
X82880200Y-54046906D01*
X83105845Y-54272551D01*
G36*
X80565845Y-54272551D02*
G01*
X80657700Y-54333927D01*
X80657701Y-60842502D01*
X80289974Y-61210230D01*
X80254106Y-61239666D01*
X80136664Y-61382769D01*
X80049397Y-61546035D01*
X80010000Y-61675909D01*
X80010000Y-54342413D01*
X80114555Y-54272551D01*
X80340200Y-54046906D01*
X80565845Y-54272551D01*
G37*
X80565845Y-54272551D02*
X80657700Y-54333927D01*
X80657701Y-60842502D01*
X80289974Y-61210230D01*
X80254106Y-61239666D01*
X80136664Y-61382769D01*
X80049397Y-61546035D01*
X80010000Y-61675909D01*
X80010000Y-54342413D01*
X80114555Y-54272551D01*
X80340200Y-54046906D01*
X80565845Y-54272551D01*
M02*
