M48
; DRILL file {KiCad (5.1.5)-3} date 10/12/2021 20:52:53
; FORMAT={-:-/ absolute / metric / decimal}
; #@! TF.CreationDate,2021-12-10T20:52:53-03:00
; #@! TF.GenerationSoftware,Kicad,Pcbnew,(5.1.5)-3
FMAT,2
METRIC
T1C0.400
T2C0.406
T3C0.508
T4C0.900
T5C0.920
T6C0.990
T7C1.000
T8C1.110
T9C1.300
T10C2.330
T11C3.000
%
G90
G05
T1
X29.845Y-32.766
X29.845Y-56.388
X30.48Y-79.629
X30.48Y-83.185
X33.782Y-68.961
X34.29Y-79.629
X35.687Y-41.91
X37.465Y-83.566
X38.1Y-79.629
X39.784Y-74.145
X40.49Y-58.74
X41.91Y-79.629
X44.958Y-57.15
X45.339Y-74.803
X45.857Y-42.769
X45.974Y-38.481
X48.133Y-60.706
X48.387Y-84.836
X48.913Y-55.664
X50.673Y-74.041
X51.689Y-29.083
X54.483Y-74.041
X54.991Y-49.403
X57.15Y-29.083
X57.531Y-68.453
X57.531Y-72.136
X57.668Y-75.616
X59.974Y-79.517
X59.977Y-66.403
X61.295Y-65.664
X61.295Y-78.262
X62.23Y-38.227
X64.262Y-29.21
X64.389Y-65.024
X66.236Y-56.799
X66.238Y-62.71
X68.325Y-73.178
X68.341Y-64.821
X68.349Y-86.66
X68.354Y-75.789
X68.58Y-36.83
X69.596Y-41.91
X71.12Y-46.99
X73.685Y-57.048
X76.53Y-77.132
X78.74Y-36.83
X78.74Y-47.117
X80.34Y-57.175
X82.88Y-59.055
X86.69Y-60.02
X87.63Y-30.226
X87.63Y-41.91
X87.757Y-46.863
X88.9Y-83.058
X88.9Y-86.741
X90.17Y-64.897
X92.812Y-57.125
X94.107Y-86.36
X95.25Y-41.91
X95.25Y-47.117
X95.377Y-36.703
X95.504Y-66.167
X96.012Y-83.058
T2
X35.578Y-66.998
X35.578Y-73.627
X73.299Y-62.789
X73.299Y-69.154
X75.138Y-61.465
X75.138Y-81.158
X79.068Y-73.18
X80.922Y-71.171
X82.654Y-69.167
X88.199Y-74.567
T3
X34.976Y-47.447
X34.976Y-63.652
X40.488Y-63.49
X40.488Y-63.49
X40.721Y-40.406
X44.92Y-51.824
X62.852Y-75.187
X62.852Y-85.004
X62.857Y-71.15
X63.561Y-55.443
X64.12Y-47.14
X71.244Y-63.221
T4
X57.648Y-80.056
X57.648Y-82.596
X51.374Y-80.056
X51.374Y-82.596
X45.23Y-80.056
X45.23Y-82.596
T5
X53.0Y-34.77
X53.0Y-36.77
X55.5Y-34.77
X55.5Y-36.77
T6
X35.175Y-86.599
X39.675Y-86.599
T8
X68.91Y-27.6
X68.91Y-53.0
X71.45Y-27.6
X71.45Y-53.0
X73.99Y-27.6
X73.99Y-53.0
X76.53Y-27.6
X76.53Y-53.0
X79.07Y-27.6
X79.07Y-53.0
X81.61Y-53.0
X84.15Y-53.0
X86.69Y-53.0
X89.23Y-53.0
T9
X33.915Y-84.109
X40.925Y-84.109
T10
X48.23Y-32.06
X60.27Y-32.06
T11
X96.6Y-86.6
X96.6Y-28.4
X28.4Y-86.6
X28.4Y-28.4
T7
G00X34.264Y-31.26
M15
G01X34.264Y-33.26
M16
G05
G00X39.964Y-29.26
M15
G01X37.964Y-29.26
M16
G05
G00X39.964Y-35.26
M15
G01X37.964Y-35.26
M16
G05
T0
M30
