G04 #@! TF.GenerationSoftware,KiCad,Pcbnew,(5.1.5)-3*
G04 #@! TF.CreationDate,2021-12-10T20:30:37-03:00*
G04 #@! TF.ProjectId,remoto,72656d6f-746f-42e6-9b69-6361645f7063,rev?*
G04 #@! TF.SameCoordinates,Original*
G04 #@! TF.FileFunction,Copper,L2,Bot*
G04 #@! TF.FilePolarity,Positive*
%FSLAX46Y46*%
G04 Gerber Fmt 4.6, Leading zero omitted, Abs format (unit mm)*
G04 Created by KiCad (PCBNEW (5.1.5)-3) date 2021-12-10 20:30:37*
%MOMM*%
%LPD*%
G04 APERTURE LIST*
%ADD10C,1.500000*%
%ADD11C,3.555000*%
%ADD12C,1.509000*%
%ADD13O,1.700000X1.700000*%
%ADD14R,1.700000X1.700000*%
%ADD15C,1.700000*%
%ADD16C,3.500000*%
%ADD17C,1.665000*%
%ADD18C,1.800000*%
%ADD19R,1.800000X1.800000*%
%ADD20C,1.270000*%
%ADD21C,0.800000*%
%ADD22C,0.812800*%
%ADD23C,0.812800*%
%ADD24C,0.508000*%
%ADD25C,0.254000*%
G04 APERTURE END LIST*
D10*
X49232820Y-64836380D03*
X49232820Y-59936380D03*
D11*
X48369800Y-29207200D03*
X41609800Y-28397200D03*
X34849800Y-29207200D03*
D12*
X44959800Y-34697200D03*
X38259800Y-34697200D03*
X44959800Y-32207200D03*
X38259800Y-32207200D03*
X42909800Y-32207200D03*
X40309800Y-32207200D03*
D13*
X47581820Y-75214480D03*
X50121820Y-75214480D03*
X47581820Y-77754480D03*
X50121820Y-77754480D03*
X47581820Y-80294480D03*
D14*
X50121820Y-80294480D03*
D15*
X59500000Y-36835000D03*
D16*
X52230000Y-34125000D03*
D15*
X57000000Y-36835000D03*
D14*
X57000000Y-38835000D03*
D15*
X59500000Y-38835000D03*
D16*
X64270000Y-34125000D03*
D13*
X34145220Y-62499240D03*
X34145220Y-65039240D03*
X34145220Y-67579240D03*
D14*
X34145220Y-70119240D03*
D17*
X69400000Y-52984400D03*
X71940000Y-52984400D03*
X74480000Y-52984400D03*
X77020000Y-52984400D03*
X79560000Y-52984400D03*
X82100000Y-52984400D03*
X84640000Y-52984400D03*
X87180000Y-52984400D03*
X89720000Y-52984400D03*
X69400000Y-27584400D03*
X71940000Y-27584400D03*
X74480000Y-27584400D03*
X77020000Y-27584400D03*
X79560000Y-27584400D03*
D18*
X69037200Y-78460600D03*
D19*
X69037200Y-75920600D03*
D18*
X75057000Y-78562200D03*
D19*
X75057000Y-76022200D03*
D18*
X80899000Y-78333600D03*
D19*
X80899000Y-75793600D03*
D20*
X63812420Y-75214480D03*
X89341960Y-81346040D03*
D21*
X29845000Y-34290000D03*
X29845000Y-39370000D03*
X31115000Y-58420000D03*
X37465000Y-58420000D03*
X30353000Y-75184000D03*
X34290000Y-80137000D03*
X60706000Y-80137000D03*
X86360000Y-76454000D03*
X96520000Y-74930000D03*
X96393000Y-66548000D03*
X92837000Y-71628000D03*
X74676000Y-60325000D03*
X94996000Y-58801000D03*
X94742000Y-48768000D03*
X95758000Y-34798000D03*
X90170000Y-28956000D03*
X83947000Y-28956000D03*
X90551000Y-34417000D03*
X81153000Y-34163000D03*
X90551000Y-40767000D03*
X90551000Y-49022000D03*
X81153000Y-49403000D03*
X73406000Y-49403000D03*
X73533000Y-34417000D03*
X69088000Y-38608000D03*
X68961000Y-47117000D03*
X55118000Y-29845000D03*
X61468000Y-29845000D03*
X56261000Y-45466000D03*
X59309000Y-49657000D03*
X49911000Y-52070000D03*
X44069000Y-51943000D03*
X38481000Y-52197000D03*
X36703000Y-39624000D03*
X38100000Y-74168000D03*
X36677600Y-44678600D03*
X36677600Y-48920400D03*
D22*
X58707020Y-63969900D03*
X76073000Y-63969900D03*
D20*
X70853300Y-62687200D03*
X70853300Y-57810400D03*
X51681380Y-70106540D03*
X52552600Y-59563000D03*
D22*
X75524360Y-66573400D03*
X54437280Y-61064140D03*
X72471280Y-67604640D03*
X53009800Y-61968380D03*
X59029600Y-65252600D03*
X58874660Y-71361300D03*
X60365640Y-71353680D03*
X61765180Y-71414640D03*
X57250000Y-72240140D03*
X56250000Y-73261220D03*
X62664340Y-56548020D03*
X62448440Y-61968380D03*
X57896760Y-54300000D03*
X59750960Y-54300000D03*
X55745380Y-54300000D03*
X61409580Y-54300000D03*
X67835780Y-63060580D03*
X66786760Y-49253140D03*
X63700660Y-62971680D03*
X63705740Y-50170080D03*
X40518080Y-71958200D03*
X62621160Y-74124820D03*
D23*
X50121820Y-75214480D02*
X63812420Y-75214480D01*
X64518540Y-75920600D02*
X69037200Y-75920600D01*
D24*
X63812420Y-75214480D02*
X63812420Y-75214480D01*
D23*
X63812420Y-75214480D02*
X64518540Y-75920600D01*
X89341960Y-81346040D02*
X65587880Y-81346040D01*
X63812420Y-79570580D02*
X63812420Y-75214480D01*
X65587880Y-81346040D02*
X63812420Y-79570580D01*
X36677600Y-44678600D02*
X36677600Y-48920400D01*
D25*
X58707020Y-63969900D02*
X76073000Y-63969900D01*
D23*
X70853300Y-62687200D02*
X70853300Y-62112464D01*
X70853300Y-62112464D02*
X70853300Y-57810400D01*
X34145220Y-70119240D02*
X51668680Y-70119240D01*
D24*
X51668680Y-70119240D02*
X51681380Y-70106540D01*
D23*
X51681380Y-70106540D02*
X51681380Y-60434220D01*
X51681380Y-60434220D02*
X52552600Y-59563000D01*
D25*
X74775060Y-66573400D02*
X75524360Y-66573400D01*
X55603140Y-66573400D02*
X74775060Y-66573400D01*
X54437280Y-61064140D02*
X54437280Y-65407540D01*
X54437280Y-65407540D02*
X55603140Y-66573400D01*
X72471280Y-67604640D02*
X61546740Y-67604640D01*
X61546740Y-67604640D02*
X56225440Y-67604640D01*
X56225440Y-67604640D02*
X54841140Y-67604640D01*
X54841140Y-67604640D02*
X53009800Y-65773300D01*
X53009800Y-65773300D02*
X53009800Y-61968380D01*
X77020000Y-64533360D02*
X77020000Y-52984400D01*
X77022960Y-64536320D02*
X77020000Y-64533360D01*
X59029600Y-65260220D02*
X76299060Y-65260220D01*
X76299060Y-65260220D02*
X77022960Y-64536320D01*
X79560000Y-69014760D02*
X79560000Y-52984400D01*
X58874660Y-71361300D02*
X60520580Y-69715380D01*
X78859380Y-69715380D02*
X79560000Y-69014760D01*
X60520580Y-69715380D02*
X78859380Y-69715380D01*
X82100000Y-52984400D02*
X82100000Y-69700560D01*
X82100000Y-69700560D02*
X81297780Y-70502780D01*
X81297780Y-70502780D02*
X61219080Y-70502780D01*
X61219080Y-70502780D02*
X60368180Y-71353680D01*
X60368180Y-71353680D02*
X60365640Y-71353680D01*
X84640000Y-52984400D02*
X84640000Y-69967260D01*
X84640000Y-69967260D02*
X84640000Y-70289840D01*
X84640000Y-70289840D02*
X83515200Y-71414640D01*
X83515200Y-71414640D02*
X61765180Y-71414640D01*
X87180000Y-69997740D02*
X87180000Y-52984400D01*
X57250000Y-72240140D02*
X84937600Y-72240140D01*
X84937600Y-72240140D02*
X87180000Y-69997740D01*
X89728040Y-70152260D02*
X89720000Y-70144220D01*
X89720000Y-70144220D02*
X89720000Y-52984400D01*
X56250000Y-73261220D02*
X86619080Y-73261220D01*
X86619080Y-73261220D02*
X89728040Y-70152260D01*
X37815520Y-65039240D02*
X34145220Y-65039240D01*
X39301420Y-63553340D02*
X37815520Y-65039240D01*
X39301420Y-59563000D02*
X39301420Y-63553340D01*
X62664340Y-56548020D02*
X42316400Y-56548020D01*
X42316400Y-56548020D02*
X39301420Y-59563000D01*
X43197780Y-57861200D02*
X40957500Y-60101480D01*
X40957500Y-60101480D02*
X40957500Y-65107820D01*
X38486080Y-67579240D02*
X34145220Y-67579240D01*
X40957500Y-65107820D02*
X38486080Y-67579240D01*
X58331100Y-57851040D02*
X57945020Y-57851040D01*
X62448440Y-61968380D02*
X58331100Y-57851040D01*
X57945020Y-57851040D02*
X43197780Y-57861200D01*
X38259800Y-32207200D02*
X38259800Y-32496540D01*
X38259800Y-32207200D02*
X38259800Y-32455900D01*
X57896760Y-54300000D02*
X42557700Y-38960940D01*
X42557700Y-36505100D02*
X38259800Y-32207200D01*
X42557700Y-38960940D02*
X42557700Y-36505100D01*
X44959800Y-39508840D02*
X44959800Y-34697200D01*
X59750960Y-54300000D02*
X44959800Y-39508840D01*
X38259800Y-36814420D02*
X38259800Y-34697200D01*
X55745380Y-54300000D02*
X38259800Y-36814420D01*
X44959800Y-32207200D02*
X46901100Y-34148500D01*
X46901100Y-34148500D02*
X46901100Y-39651940D01*
X46901100Y-39651940D02*
X46901100Y-39794180D01*
X46901100Y-39794180D02*
X61409580Y-54302660D01*
X67061080Y-49527460D02*
X66786760Y-49253140D01*
X66786760Y-62011560D02*
X67835780Y-63060580D01*
X66786760Y-49253140D02*
X66786760Y-62011560D01*
X63700660Y-62971680D02*
X63700660Y-50175160D01*
X63700660Y-50175160D02*
X63705740Y-50170080D01*
X50962560Y-71958200D02*
X53129180Y-74124820D01*
X53129180Y-74124820D02*
X60855860Y-74124820D01*
X42611040Y-71958200D02*
X50962560Y-71958200D01*
X60855860Y-74124820D02*
X62621160Y-74124820D01*
X40518080Y-71958200D02*
X42611040Y-71958200D01*
G36*
X33682990Y-27024252D02*
G01*
X33279538Y-27293830D01*
X32936430Y-27636938D01*
X32666852Y-28040390D01*
X32481163Y-28488682D01*
X32386500Y-28964586D01*
X32386500Y-29449814D01*
X32481163Y-29925718D01*
X32666852Y-30374010D01*
X32936430Y-30777462D01*
X33279538Y-31120570D01*
X33682990Y-31390148D01*
X34131282Y-31575837D01*
X34607186Y-31670500D01*
X35092414Y-31670500D01*
X35568318Y-31575837D01*
X36016610Y-31390148D01*
X36420062Y-31120570D01*
X36763170Y-30777462D01*
X37032748Y-30374010D01*
X37218437Y-29925718D01*
X37313100Y-29449814D01*
X37313100Y-28964586D01*
X37218437Y-28488682D01*
X37032748Y-28040390D01*
X36763170Y-27636938D01*
X36420062Y-27293830D01*
X36016610Y-27024252D01*
X35774581Y-26924000D01*
X39631575Y-26924000D01*
X39426852Y-27230390D01*
X39241163Y-27678682D01*
X39146500Y-28154586D01*
X39146500Y-28639814D01*
X39241163Y-29115718D01*
X39426852Y-29564010D01*
X39696430Y-29967462D01*
X40039538Y-30310570D01*
X40442990Y-30580148D01*
X40891282Y-30765837D01*
X41367186Y-30860500D01*
X41852414Y-30860500D01*
X42328318Y-30765837D01*
X42776610Y-30580148D01*
X43180062Y-30310570D01*
X43523170Y-29967462D01*
X43792748Y-29564010D01*
X43978437Y-29115718D01*
X44073100Y-28639814D01*
X44073100Y-28154586D01*
X43978437Y-27678682D01*
X43792748Y-27230390D01*
X43588025Y-26924000D01*
X47445019Y-26924000D01*
X47202990Y-27024252D01*
X46799538Y-27293830D01*
X46456430Y-27636938D01*
X46186852Y-28040390D01*
X46001163Y-28488682D01*
X45906500Y-28964586D01*
X45906500Y-29449814D01*
X46001163Y-29925718D01*
X46186852Y-30374010D01*
X46456430Y-30777462D01*
X46799538Y-31120570D01*
X47202990Y-31390148D01*
X47651282Y-31575837D01*
X48127186Y-31670500D01*
X48612414Y-31670500D01*
X49088318Y-31575837D01*
X49536610Y-31390148D01*
X49940062Y-31120570D01*
X50283170Y-30777462D01*
X50552748Y-30374010D01*
X50738437Y-29925718D01*
X50833100Y-29449814D01*
X50833100Y-28964586D01*
X50738437Y-28488682D01*
X50552748Y-28040390D01*
X50283170Y-27636938D01*
X49940062Y-27293830D01*
X49536610Y-27024252D01*
X49294581Y-26924000D01*
X68030151Y-26924000D01*
X67940048Y-27141528D01*
X67881700Y-27434861D01*
X67881700Y-27733939D01*
X67940048Y-28027272D01*
X68054500Y-28303585D01*
X68220660Y-28552260D01*
X68432140Y-28763740D01*
X68680815Y-28929900D01*
X68957128Y-29044352D01*
X69250461Y-29102700D01*
X69549539Y-29102700D01*
X69842872Y-29044352D01*
X70119185Y-28929900D01*
X70367860Y-28763740D01*
X70579340Y-28552260D01*
X70670000Y-28416578D01*
X70760660Y-28552260D01*
X70972140Y-28763740D01*
X71220815Y-28929900D01*
X71497128Y-29044352D01*
X71790461Y-29102700D01*
X72089539Y-29102700D01*
X72382872Y-29044352D01*
X72659185Y-28929900D01*
X72907860Y-28763740D01*
X73119340Y-28552260D01*
X73210000Y-28416578D01*
X73300660Y-28552260D01*
X73512140Y-28763740D01*
X73760815Y-28929900D01*
X74037128Y-29044352D01*
X74330461Y-29102700D01*
X74629539Y-29102700D01*
X74922872Y-29044352D01*
X75199185Y-28929900D01*
X75447860Y-28763740D01*
X75659340Y-28552260D01*
X75750000Y-28416578D01*
X75840660Y-28552260D01*
X76052140Y-28763740D01*
X76300815Y-28929900D01*
X76577128Y-29044352D01*
X76870461Y-29102700D01*
X77169539Y-29102700D01*
X77462872Y-29044352D01*
X77739185Y-28929900D01*
X77987860Y-28763740D01*
X78199340Y-28552260D01*
X78290000Y-28416578D01*
X78380660Y-28552260D01*
X78592140Y-28763740D01*
X78840815Y-28929900D01*
X79117128Y-29044352D01*
X79410461Y-29102700D01*
X79709539Y-29102700D01*
X80002872Y-29044352D01*
X80279185Y-28929900D01*
X80527860Y-28763740D01*
X80739340Y-28552260D01*
X80905500Y-28303585D01*
X81019952Y-28027272D01*
X81078300Y-27733939D01*
X81078300Y-27434861D01*
X81019952Y-27141528D01*
X80929849Y-26924000D01*
X94988012Y-26924000D01*
X94902178Y-27009834D01*
X94662969Y-27367836D01*
X94498199Y-27765626D01*
X94414200Y-28187918D01*
X94414200Y-28618482D01*
X94498199Y-29040774D01*
X94662969Y-29438564D01*
X94902178Y-29796566D01*
X95206634Y-30101022D01*
X95564636Y-30340231D01*
X95962426Y-30505001D01*
X96384718Y-30589000D01*
X96815282Y-30589000D01*
X97237574Y-30505001D01*
X97635364Y-30340231D01*
X97993366Y-30101022D01*
X98044000Y-30050388D01*
X98044000Y-79952812D01*
X97993366Y-79902178D01*
X97635364Y-79662969D01*
X97237574Y-79498199D01*
X96815282Y-79414200D01*
X96384718Y-79414200D01*
X95962426Y-79498199D01*
X95564636Y-79662969D01*
X95206634Y-79902178D01*
X94902178Y-80206634D01*
X94662969Y-80564636D01*
X94498199Y-80962426D01*
X94414200Y-81384718D01*
X94414200Y-81815282D01*
X94498199Y-82237574D01*
X94662969Y-82635364D01*
X94902178Y-82993366D01*
X94966812Y-83058000D01*
X30026188Y-83058000D01*
X30090622Y-82993566D01*
X30329831Y-82635564D01*
X30494601Y-82237774D01*
X30578600Y-81815482D01*
X30578600Y-81384918D01*
X30494601Y-80962626D01*
X30329831Y-80564836D01*
X30090622Y-80206834D01*
X29786166Y-79902378D01*
X29428164Y-79663169D01*
X29030374Y-79498399D01*
X28608082Y-79414400D01*
X28177518Y-79414400D01*
X27755226Y-79498399D01*
X27357436Y-79663169D01*
X27043541Y-79872906D01*
X27038430Y-77603217D01*
X46046020Y-77603217D01*
X46046020Y-77905743D01*
X46105040Y-78202456D01*
X46220812Y-78481954D01*
X46388886Y-78733495D01*
X46602805Y-78947414D01*
X46718143Y-79024480D01*
X46602805Y-79101546D01*
X46388886Y-79315465D01*
X46220812Y-79567006D01*
X46105040Y-79846504D01*
X46046020Y-80143217D01*
X46046020Y-80445743D01*
X46105040Y-80742456D01*
X46220812Y-81021954D01*
X46388886Y-81273495D01*
X46602805Y-81487414D01*
X46854346Y-81655488D01*
X47133844Y-81771260D01*
X47430557Y-81830280D01*
X47733083Y-81830280D01*
X48029796Y-81771260D01*
X48309294Y-81655488D01*
X48560835Y-81487414D01*
X48636864Y-81411385D01*
X48698839Y-81527333D01*
X48784540Y-81631760D01*
X48888967Y-81717461D01*
X49008106Y-81781142D01*
X49137380Y-81820357D01*
X49271820Y-81833598D01*
X50971820Y-81833598D01*
X51106260Y-81820357D01*
X51235534Y-81781142D01*
X51354673Y-81717461D01*
X51459100Y-81631760D01*
X51544801Y-81527333D01*
X51608482Y-81408194D01*
X51647697Y-81278920D01*
X51660938Y-81144480D01*
X51660938Y-79444480D01*
X51647697Y-79310040D01*
X51608482Y-79180766D01*
X51544801Y-79061627D01*
X51459100Y-78957200D01*
X51354673Y-78871499D01*
X51238725Y-78809524D01*
X51314754Y-78733495D01*
X51482828Y-78481954D01*
X51556368Y-78304412D01*
X67451400Y-78304412D01*
X67451400Y-78616788D01*
X67512341Y-78923161D01*
X67631882Y-79211758D01*
X67805429Y-79471489D01*
X68026311Y-79692371D01*
X68286042Y-79865918D01*
X68574639Y-79985459D01*
X68881012Y-80046400D01*
X69193388Y-80046400D01*
X69499761Y-79985459D01*
X69788358Y-79865918D01*
X70048089Y-79692371D01*
X70268971Y-79471489D01*
X70442518Y-79211758D01*
X70562059Y-78923161D01*
X70623000Y-78616788D01*
X70623000Y-78304412D01*
X70562059Y-77998039D01*
X70442518Y-77709442D01*
X70268971Y-77449711D01*
X70212648Y-77393388D01*
X70291694Y-77351137D01*
X70388385Y-77271785D01*
X70467737Y-77175094D01*
X70526702Y-77064780D01*
X70563012Y-76945082D01*
X70575272Y-76820600D01*
X70572200Y-76206350D01*
X70413450Y-76047600D01*
X69164200Y-76047600D01*
X69164200Y-76067600D01*
X68910200Y-76067600D01*
X68910200Y-76047600D01*
X67660950Y-76047600D01*
X67502200Y-76206350D01*
X67499128Y-76820600D01*
X67511388Y-76945082D01*
X67547698Y-77064780D01*
X67606663Y-77175094D01*
X67686015Y-77271785D01*
X67782706Y-77351137D01*
X67861752Y-77393388D01*
X67805429Y-77449711D01*
X67631882Y-77709442D01*
X67512341Y-77998039D01*
X67451400Y-78304412D01*
X51556368Y-78304412D01*
X51598600Y-78202456D01*
X51657620Y-77905743D01*
X51657620Y-77603217D01*
X51598600Y-77306504D01*
X51482828Y-77027006D01*
X51314754Y-76775465D01*
X51100835Y-76561546D01*
X50934627Y-76450490D01*
X51003175Y-76409658D01*
X51219408Y-76214749D01*
X51393461Y-75981400D01*
X51518645Y-75718579D01*
X51563296Y-75571370D01*
X51441975Y-75341480D01*
X50248820Y-75341480D01*
X50248820Y-75361480D01*
X49994820Y-75361480D01*
X49994820Y-75341480D01*
X47708820Y-75341480D01*
X47708820Y-75361480D01*
X47454820Y-75361480D01*
X47454820Y-75341480D01*
X46261665Y-75341480D01*
X46140344Y-75571370D01*
X46184995Y-75718579D01*
X46310179Y-75981400D01*
X46484232Y-76214749D01*
X46700465Y-76409658D01*
X46769013Y-76450490D01*
X46602805Y-76561546D01*
X46388886Y-76775465D01*
X46220812Y-77027006D01*
X46105040Y-77306504D01*
X46046020Y-77603217D01*
X27038430Y-77603217D01*
X27032247Y-74857590D01*
X46140344Y-74857590D01*
X46261665Y-75087480D01*
X47454820Y-75087480D01*
X47454820Y-73893666D01*
X47708820Y-73893666D01*
X47708820Y-75087480D01*
X49994820Y-75087480D01*
X49994820Y-73893666D01*
X50248820Y-73893666D01*
X50248820Y-75087480D01*
X51441975Y-75087480D01*
X51563296Y-74857590D01*
X51518645Y-74710381D01*
X51393461Y-74447560D01*
X51219408Y-74214211D01*
X51003175Y-74019302D01*
X50753072Y-73870323D01*
X50478711Y-73772999D01*
X50248820Y-73893666D01*
X49994820Y-73893666D01*
X49764929Y-73772999D01*
X49490568Y-73870323D01*
X49240465Y-74019302D01*
X49024232Y-74214211D01*
X48851820Y-74445360D01*
X48679408Y-74214211D01*
X48463175Y-74019302D01*
X48213072Y-73870323D01*
X47938711Y-73772999D01*
X47708820Y-73893666D01*
X47454820Y-73893666D01*
X47224929Y-73772999D01*
X46950568Y-73870323D01*
X46700465Y-74019302D01*
X46484232Y-74214211D01*
X46310179Y-74447560D01*
X46184995Y-74710381D01*
X46140344Y-74857590D01*
X27032247Y-74857590D01*
X27019660Y-69269240D01*
X32606102Y-69269240D01*
X32606102Y-70969240D01*
X32619343Y-71103680D01*
X32658558Y-71232954D01*
X32722239Y-71352093D01*
X32807940Y-71456520D01*
X32912367Y-71542221D01*
X33031506Y-71605902D01*
X33160780Y-71645117D01*
X33295220Y-71658358D01*
X34995220Y-71658358D01*
X35129660Y-71645117D01*
X35258934Y-71605902D01*
X35378073Y-71542221D01*
X35482500Y-71456520D01*
X35568201Y-71352093D01*
X35631882Y-71232954D01*
X35638408Y-71211440D01*
X39720236Y-71211440D01*
X39669713Y-71261963D01*
X39550185Y-71440849D01*
X39467852Y-71639617D01*
X39425880Y-71850628D01*
X39425880Y-72065772D01*
X39467852Y-72276783D01*
X39550185Y-72475551D01*
X39669713Y-72654437D01*
X39821843Y-72806567D01*
X40000729Y-72926095D01*
X40199497Y-73008428D01*
X40410508Y-73050400D01*
X40625652Y-73050400D01*
X40836663Y-73008428D01*
X41035431Y-72926095D01*
X41214317Y-72806567D01*
X41249884Y-72771000D01*
X50625888Y-72771000D01*
X52526208Y-74671320D01*
X52551663Y-74702337D01*
X52637217Y-74772549D01*
X52675427Y-74803908D01*
X52724612Y-74830197D01*
X52816630Y-74879382D01*
X52969843Y-74925859D01*
X53089257Y-74937620D01*
X53089259Y-74937620D01*
X53129179Y-74941552D01*
X53169100Y-74937620D01*
X61889356Y-74937620D01*
X61924923Y-74973187D01*
X62103809Y-75092715D01*
X62302577Y-75175048D01*
X62513588Y-75217020D01*
X62728732Y-75217020D01*
X62939743Y-75175048D01*
X63138511Y-75092715D01*
X63246438Y-75020600D01*
X67499128Y-75020600D01*
X67502200Y-75634850D01*
X67660950Y-75793600D01*
X68910200Y-75793600D01*
X68910200Y-74544350D01*
X69164200Y-74544350D01*
X69164200Y-75793600D01*
X70413450Y-75793600D01*
X70572200Y-75634850D01*
X70574763Y-75122200D01*
X73467882Y-75122200D01*
X73467882Y-76922200D01*
X73481123Y-77056640D01*
X73520338Y-77185914D01*
X73584019Y-77305053D01*
X73669720Y-77409480D01*
X73774147Y-77495181D01*
X73844014Y-77532526D01*
X73825229Y-77551311D01*
X73651682Y-77811042D01*
X73532141Y-78099639D01*
X73471200Y-78406012D01*
X73471200Y-78718388D01*
X73532141Y-79024761D01*
X73651682Y-79313358D01*
X73825229Y-79573089D01*
X74046111Y-79793971D01*
X74305842Y-79967518D01*
X74594439Y-80087059D01*
X74900812Y-80148000D01*
X75213188Y-80148000D01*
X75519561Y-80087059D01*
X75808158Y-79967518D01*
X76067889Y-79793971D01*
X76288771Y-79573089D01*
X76462318Y-79313358D01*
X76581859Y-79024761D01*
X76642800Y-78718388D01*
X76642800Y-78406012D01*
X76581859Y-78099639D01*
X76462318Y-77811042D01*
X76288771Y-77551311D01*
X76269986Y-77532526D01*
X76339853Y-77495181D01*
X76444280Y-77409480D01*
X76529981Y-77305053D01*
X76593662Y-77185914D01*
X76632877Y-77056640D01*
X76646118Y-76922200D01*
X76646118Y-75122200D01*
X76632877Y-74987760D01*
X76604314Y-74893600D01*
X79309882Y-74893600D01*
X79309882Y-76693600D01*
X79323123Y-76828040D01*
X79362338Y-76957314D01*
X79426019Y-77076453D01*
X79511720Y-77180880D01*
X79616147Y-77266581D01*
X79686014Y-77303926D01*
X79667229Y-77322711D01*
X79493682Y-77582442D01*
X79374141Y-77871039D01*
X79313200Y-78177412D01*
X79313200Y-78489788D01*
X79374141Y-78796161D01*
X79493682Y-79084758D01*
X79667229Y-79344489D01*
X79888111Y-79565371D01*
X80147842Y-79738918D01*
X80436439Y-79858459D01*
X80742812Y-79919400D01*
X81055188Y-79919400D01*
X81361561Y-79858459D01*
X81650158Y-79738918D01*
X81909889Y-79565371D01*
X82130771Y-79344489D01*
X82304318Y-79084758D01*
X82423859Y-78796161D01*
X82484800Y-78489788D01*
X82484800Y-78177412D01*
X82423859Y-77871039D01*
X82304318Y-77582442D01*
X82130771Y-77322711D01*
X82111986Y-77303926D01*
X82181853Y-77266581D01*
X82286280Y-77180880D01*
X82371981Y-77076453D01*
X82435662Y-76957314D01*
X82474877Y-76828040D01*
X82488118Y-76693600D01*
X82488118Y-74893600D01*
X82474877Y-74759160D01*
X82435662Y-74629886D01*
X82371981Y-74510747D01*
X82286280Y-74406320D01*
X82181853Y-74320619D01*
X82062714Y-74256938D01*
X81933440Y-74217723D01*
X81799000Y-74204482D01*
X79999000Y-74204482D01*
X79864560Y-74217723D01*
X79735286Y-74256938D01*
X79616147Y-74320619D01*
X79511720Y-74406320D01*
X79426019Y-74510747D01*
X79362338Y-74629886D01*
X79323123Y-74759160D01*
X79309882Y-74893600D01*
X76604314Y-74893600D01*
X76593662Y-74858486D01*
X76529981Y-74739347D01*
X76444280Y-74634920D01*
X76339853Y-74549219D01*
X76220714Y-74485538D01*
X76091440Y-74446323D01*
X75957000Y-74433082D01*
X74157000Y-74433082D01*
X74022560Y-74446323D01*
X73893286Y-74485538D01*
X73774147Y-74549219D01*
X73669720Y-74634920D01*
X73584019Y-74739347D01*
X73520338Y-74858486D01*
X73481123Y-74987760D01*
X73467882Y-75122200D01*
X70574763Y-75122200D01*
X70575272Y-75020600D01*
X70563012Y-74896118D01*
X70526702Y-74776420D01*
X70467737Y-74666106D01*
X70388385Y-74569415D01*
X70291694Y-74490063D01*
X70181380Y-74431098D01*
X70061682Y-74394788D01*
X69937200Y-74382528D01*
X69322950Y-74385600D01*
X69164200Y-74544350D01*
X68910200Y-74544350D01*
X68751450Y-74385600D01*
X68137200Y-74382528D01*
X68012718Y-74394788D01*
X67893020Y-74431098D01*
X67782706Y-74490063D01*
X67686015Y-74569415D01*
X67606663Y-74666106D01*
X67547698Y-74776420D01*
X67511388Y-74896118D01*
X67499128Y-75020600D01*
X63246438Y-75020600D01*
X63317397Y-74973187D01*
X63469527Y-74821057D01*
X63589055Y-74642171D01*
X63671388Y-74443403D01*
X63713360Y-74232392D01*
X63713360Y-74074020D01*
X86579160Y-74074020D01*
X86619080Y-74077952D01*
X86659000Y-74074020D01*
X86659003Y-74074020D01*
X86778417Y-74062259D01*
X86931630Y-74015782D01*
X87072832Y-73940308D01*
X87196597Y-73838737D01*
X87222052Y-73807720D01*
X90274549Y-70755223D01*
X90305556Y-70729776D01*
X90350845Y-70674592D01*
X90407128Y-70606013D01*
X90482601Y-70464810D01*
X90529078Y-70311597D01*
X90544772Y-70152261D01*
X90533485Y-70037662D01*
X90532800Y-70030712D01*
X90532800Y-54267348D01*
X90687860Y-54163740D01*
X90899340Y-53952260D01*
X91065500Y-53703585D01*
X91179952Y-53427272D01*
X91238300Y-53133939D01*
X91238300Y-52834861D01*
X91179952Y-52541528D01*
X91065500Y-52265215D01*
X90899340Y-52016540D01*
X90687860Y-51805060D01*
X90439185Y-51638900D01*
X90162872Y-51524448D01*
X89869539Y-51466100D01*
X89570461Y-51466100D01*
X89277128Y-51524448D01*
X89000815Y-51638900D01*
X88752140Y-51805060D01*
X88540660Y-52016540D01*
X88450000Y-52152222D01*
X88359340Y-52016540D01*
X88147860Y-51805060D01*
X87899185Y-51638900D01*
X87622872Y-51524448D01*
X87329539Y-51466100D01*
X87030461Y-51466100D01*
X86737128Y-51524448D01*
X86460815Y-51638900D01*
X86212140Y-51805060D01*
X86000660Y-52016540D01*
X85910000Y-52152222D01*
X85819340Y-52016540D01*
X85607860Y-51805060D01*
X85359185Y-51638900D01*
X85082872Y-51524448D01*
X84789539Y-51466100D01*
X84490461Y-51466100D01*
X84197128Y-51524448D01*
X83920815Y-51638900D01*
X83672140Y-51805060D01*
X83460660Y-52016540D01*
X83370000Y-52152222D01*
X83279340Y-52016540D01*
X83067860Y-51805060D01*
X82819185Y-51638900D01*
X82542872Y-51524448D01*
X82249539Y-51466100D01*
X81950461Y-51466100D01*
X81657128Y-51524448D01*
X81380815Y-51638900D01*
X81132140Y-51805060D01*
X80920660Y-52016540D01*
X80830000Y-52152222D01*
X80739340Y-52016540D01*
X80527860Y-51805060D01*
X80279185Y-51638900D01*
X80002872Y-51524448D01*
X79709539Y-51466100D01*
X79410461Y-51466100D01*
X79117128Y-51524448D01*
X78840815Y-51638900D01*
X78592140Y-51805060D01*
X78380660Y-52016540D01*
X78290000Y-52152222D01*
X78199340Y-52016540D01*
X77987860Y-51805060D01*
X77739185Y-51638900D01*
X77462872Y-51524448D01*
X77169539Y-51466100D01*
X76870461Y-51466100D01*
X76577128Y-51524448D01*
X76300815Y-51638900D01*
X76052140Y-51805060D01*
X75840660Y-52016540D01*
X75750000Y-52152222D01*
X75659340Y-52016540D01*
X75447860Y-51805060D01*
X75199185Y-51638900D01*
X74922872Y-51524448D01*
X74629539Y-51466100D01*
X74330461Y-51466100D01*
X74037128Y-51524448D01*
X73760815Y-51638900D01*
X73512140Y-51805060D01*
X73300660Y-52016540D01*
X73169226Y-52213244D01*
X72955906Y-52148099D01*
X72119605Y-52984400D01*
X72955906Y-53820701D01*
X73169226Y-53755556D01*
X73300660Y-53952260D01*
X73512140Y-54163740D01*
X73760815Y-54329900D01*
X74037128Y-54444352D01*
X74330461Y-54502700D01*
X74629539Y-54502700D01*
X74922872Y-54444352D01*
X75199185Y-54329900D01*
X75447860Y-54163740D01*
X75659340Y-53952260D01*
X75750000Y-53816578D01*
X75840660Y-53952260D01*
X76052140Y-54163740D01*
X76207201Y-54267349D01*
X76207200Y-62882997D01*
X76180572Y-62877700D01*
X75965428Y-62877700D01*
X75754417Y-62919672D01*
X75555649Y-63002005D01*
X75376763Y-63121533D01*
X75341196Y-63157100D01*
X72088285Y-63157100D01*
X72123343Y-63072463D01*
X72174100Y-62817287D01*
X72174100Y-62557113D01*
X72123343Y-62301937D01*
X72023778Y-62061566D01*
X71945500Y-61944415D01*
X71945500Y-58553185D01*
X72023778Y-58436034D01*
X72123343Y-58195663D01*
X72174100Y-57940487D01*
X72174100Y-57680313D01*
X72123343Y-57425137D01*
X72023778Y-57184766D01*
X71879233Y-56968439D01*
X71695261Y-56784467D01*
X71478934Y-56639922D01*
X71238563Y-56540357D01*
X70983387Y-56489600D01*
X70723213Y-56489600D01*
X70468037Y-56540357D01*
X70227666Y-56639922D01*
X70011339Y-56784467D01*
X69827367Y-56968439D01*
X69682822Y-57184766D01*
X69583257Y-57425137D01*
X69532500Y-57680313D01*
X69532500Y-57940487D01*
X69583257Y-58195663D01*
X69682822Y-58436034D01*
X69761101Y-58553187D01*
X69761100Y-61944415D01*
X69682822Y-62061566D01*
X69583257Y-62301937D01*
X69532500Y-62557113D01*
X69532500Y-62817287D01*
X69583257Y-63072463D01*
X69618315Y-63157100D01*
X68927980Y-63157100D01*
X68927980Y-62953008D01*
X68886008Y-62741997D01*
X68803675Y-62543229D01*
X68684147Y-62364343D01*
X68532017Y-62212213D01*
X68353131Y-62092685D01*
X68154363Y-62010352D01*
X67943352Y-61968380D01*
X67893052Y-61968380D01*
X67599560Y-61674888D01*
X67599560Y-52834861D01*
X67881700Y-52834861D01*
X67881700Y-53133939D01*
X67940048Y-53427272D01*
X68054500Y-53703585D01*
X68220660Y-53952260D01*
X68432140Y-54163740D01*
X68680815Y-54329900D01*
X68957128Y-54444352D01*
X69250461Y-54502700D01*
X69549539Y-54502700D01*
X69842872Y-54444352D01*
X70119185Y-54329900D01*
X70367860Y-54163740D01*
X70531294Y-54000306D01*
X71103699Y-54000306D01*
X71179217Y-54247593D01*
X71440273Y-54371743D01*
X71720532Y-54442577D01*
X72009226Y-54457374D01*
X72295259Y-54415566D01*
X72567639Y-54318759D01*
X72700783Y-54247593D01*
X72776301Y-54000306D01*
X71940000Y-53164005D01*
X71103699Y-54000306D01*
X70531294Y-54000306D01*
X70579340Y-53952260D01*
X70710774Y-53755556D01*
X70924094Y-53820701D01*
X71760395Y-52984400D01*
X70924094Y-52148099D01*
X70710774Y-52213244D01*
X70579340Y-52016540D01*
X70531294Y-51968494D01*
X71103699Y-51968494D01*
X71940000Y-52804795D01*
X72776301Y-51968494D01*
X72700783Y-51721207D01*
X72439727Y-51597057D01*
X72159468Y-51526223D01*
X71870774Y-51511426D01*
X71584741Y-51553234D01*
X71312361Y-51650041D01*
X71179217Y-51721207D01*
X71103699Y-51968494D01*
X70531294Y-51968494D01*
X70367860Y-51805060D01*
X70119185Y-51638900D01*
X69842872Y-51524448D01*
X69549539Y-51466100D01*
X69250461Y-51466100D01*
X68957128Y-51524448D01*
X68680815Y-51638900D01*
X68432140Y-51805060D01*
X68220660Y-52016540D01*
X68054500Y-52265215D01*
X67940048Y-52541528D01*
X67881700Y-52834861D01*
X67599560Y-52834861D01*
X67599560Y-50137012D01*
X67638596Y-50104976D01*
X67740168Y-49981211D01*
X67815642Y-49840009D01*
X67862118Y-49686796D01*
X67877812Y-49527459D01*
X67867208Y-49419796D01*
X67878960Y-49360712D01*
X67878960Y-49145568D01*
X67836988Y-48934557D01*
X67754655Y-48735789D01*
X67635127Y-48556903D01*
X67482997Y-48404773D01*
X67304111Y-48285245D01*
X67105343Y-48202912D01*
X66894332Y-48160940D01*
X66679188Y-48160940D01*
X66468177Y-48202912D01*
X66269409Y-48285245D01*
X66090523Y-48404773D01*
X65938393Y-48556903D01*
X65818865Y-48735789D01*
X65736532Y-48934557D01*
X65694560Y-49145568D01*
X65694560Y-49360712D01*
X65736532Y-49571723D01*
X65818865Y-49770491D01*
X65938393Y-49949377D01*
X65973960Y-49984944D01*
X65973961Y-61971630D01*
X65970028Y-62011560D01*
X65985722Y-62170896D01*
X66032198Y-62324109D01*
X66053704Y-62364343D01*
X66107673Y-62465312D01*
X66209244Y-62589077D01*
X66240255Y-62614527D01*
X66743580Y-63117852D01*
X66743580Y-63157100D01*
X64777375Y-63157100D01*
X64792860Y-63079252D01*
X64792860Y-62864108D01*
X64750888Y-62653097D01*
X64668555Y-62454329D01*
X64549027Y-62275443D01*
X64513460Y-62239876D01*
X64513460Y-50906964D01*
X64554107Y-50866317D01*
X64673635Y-50687431D01*
X64755968Y-50488663D01*
X64797940Y-50277652D01*
X64797940Y-50062508D01*
X64755968Y-49851497D01*
X64673635Y-49652729D01*
X64554107Y-49473843D01*
X64401977Y-49321713D01*
X64223091Y-49202185D01*
X64024323Y-49119852D01*
X63813312Y-49077880D01*
X63598168Y-49077880D01*
X63387157Y-49119852D01*
X63188389Y-49202185D01*
X63009503Y-49321713D01*
X62857373Y-49473843D01*
X62737845Y-49652729D01*
X62655512Y-49851497D01*
X62613540Y-50062508D01*
X62613540Y-50277652D01*
X62655512Y-50488663D01*
X62737845Y-50687431D01*
X62857373Y-50866317D01*
X62887861Y-50896805D01*
X62887861Y-55478883D01*
X62771912Y-55455820D01*
X62556768Y-55455820D01*
X62345757Y-55497792D01*
X62146989Y-55580125D01*
X61968103Y-55699653D01*
X61932536Y-55735220D01*
X42356323Y-55735220D01*
X42316400Y-55731288D01*
X42276477Y-55735220D01*
X42157063Y-55746981D01*
X42003850Y-55793458D01*
X41862648Y-55868932D01*
X41738883Y-55970503D01*
X41713433Y-56001514D01*
X38754919Y-58960029D01*
X38723903Y-58985483D01*
X38622332Y-59109249D01*
X38546858Y-59250451D01*
X38500381Y-59403664D01*
X38489162Y-59517573D01*
X38484688Y-59563000D01*
X38488620Y-59602920D01*
X38488621Y-63216666D01*
X37478848Y-64226440D01*
X35449215Y-64226440D01*
X35338154Y-64060225D01*
X35124235Y-63846306D01*
X34958027Y-63735250D01*
X35026575Y-63694418D01*
X35242808Y-63499509D01*
X35416861Y-63266160D01*
X35542045Y-63003339D01*
X35586696Y-62856130D01*
X35465375Y-62626240D01*
X34272220Y-62626240D01*
X34272220Y-62646240D01*
X34018220Y-62646240D01*
X34018220Y-62626240D01*
X32825065Y-62626240D01*
X32703744Y-62856130D01*
X32748395Y-63003339D01*
X32873579Y-63266160D01*
X33047632Y-63499509D01*
X33263865Y-63694418D01*
X33332413Y-63735250D01*
X33166205Y-63846306D01*
X32952286Y-64060225D01*
X32784212Y-64311766D01*
X32668440Y-64591264D01*
X32609420Y-64887977D01*
X32609420Y-65190503D01*
X32668440Y-65487216D01*
X32784212Y-65766714D01*
X32952286Y-66018255D01*
X33166205Y-66232174D01*
X33281543Y-66309240D01*
X33166205Y-66386306D01*
X32952286Y-66600225D01*
X32784212Y-66851766D01*
X32668440Y-67131264D01*
X32609420Y-67427977D01*
X32609420Y-67730503D01*
X32668440Y-68027216D01*
X32784212Y-68306714D01*
X32952286Y-68558255D01*
X33028315Y-68634284D01*
X32912367Y-68696259D01*
X32807940Y-68781960D01*
X32722239Y-68886387D01*
X32658558Y-69005526D01*
X32619343Y-69134800D01*
X32606102Y-69269240D01*
X27019660Y-69269240D01*
X27003609Y-62142350D01*
X32703744Y-62142350D01*
X32825065Y-62372240D01*
X34018220Y-62372240D01*
X34018220Y-61178426D01*
X34272220Y-61178426D01*
X34272220Y-62372240D01*
X35465375Y-62372240D01*
X35586696Y-62142350D01*
X35542045Y-61995141D01*
X35416861Y-61732320D01*
X35242808Y-61498971D01*
X35026575Y-61304062D01*
X34776472Y-61155083D01*
X34502111Y-61057759D01*
X34272220Y-61178426D01*
X34018220Y-61178426D01*
X33788329Y-61057759D01*
X33513968Y-61155083D01*
X33263865Y-61304062D01*
X33047632Y-61498971D01*
X32873579Y-61732320D01*
X32748395Y-61995141D01*
X32703744Y-62142350D01*
X27003609Y-62142350D01*
X26935868Y-32065343D01*
X36819500Y-32065343D01*
X36819500Y-32349057D01*
X36874850Y-32627320D01*
X36983423Y-32889438D01*
X37141046Y-33125338D01*
X37341662Y-33325954D01*
X37530603Y-33452200D01*
X37341662Y-33578446D01*
X37141046Y-33779062D01*
X36983423Y-34014962D01*
X36874850Y-34277080D01*
X36819500Y-34555343D01*
X36819500Y-34839057D01*
X36874850Y-35117320D01*
X36983423Y-35379438D01*
X37141046Y-35615338D01*
X37341662Y-35815954D01*
X37447000Y-35886339D01*
X37447000Y-36774499D01*
X37443068Y-36814420D01*
X37447000Y-36854340D01*
X37447000Y-36854342D01*
X37458761Y-36973756D01*
X37505238Y-37126969D01*
X37580712Y-37268171D01*
X37682283Y-37391937D01*
X37713300Y-37417392D01*
X54653180Y-54357272D01*
X54653180Y-54407572D01*
X54695152Y-54618583D01*
X54777485Y-54817351D01*
X54897013Y-54996237D01*
X55049143Y-55148367D01*
X55228029Y-55267895D01*
X55426797Y-55350228D01*
X55637808Y-55392200D01*
X55852952Y-55392200D01*
X56063963Y-55350228D01*
X56262731Y-55267895D01*
X56441617Y-55148367D01*
X56593747Y-54996237D01*
X56713275Y-54817351D01*
X56795608Y-54618583D01*
X56821070Y-54490575D01*
X56846532Y-54618583D01*
X56928865Y-54817351D01*
X57048393Y-54996237D01*
X57200523Y-55148367D01*
X57379409Y-55267895D01*
X57578177Y-55350228D01*
X57789188Y-55392200D01*
X58004332Y-55392200D01*
X58215343Y-55350228D01*
X58414111Y-55267895D01*
X58592997Y-55148367D01*
X58745127Y-54996237D01*
X58823860Y-54878405D01*
X58902593Y-54996237D01*
X59054723Y-55148367D01*
X59233609Y-55267895D01*
X59432377Y-55350228D01*
X59643388Y-55392200D01*
X59858532Y-55392200D01*
X60069543Y-55350228D01*
X60268311Y-55267895D01*
X60447197Y-55148367D01*
X60580270Y-55015294D01*
X60713343Y-55148367D01*
X60892229Y-55267895D01*
X61090997Y-55350228D01*
X61302008Y-55392200D01*
X61517152Y-55392200D01*
X61728163Y-55350228D01*
X61926931Y-55267895D01*
X62105817Y-55148367D01*
X62257947Y-54996237D01*
X62377475Y-54817351D01*
X62459808Y-54618583D01*
X62501780Y-54407572D01*
X62501780Y-54192428D01*
X62459808Y-53981417D01*
X62377475Y-53782649D01*
X62257947Y-53603763D01*
X62105817Y-53451633D01*
X61926931Y-53332105D01*
X61728163Y-53249772D01*
X61517152Y-53207800D01*
X61464193Y-53207800D01*
X47713900Y-39457508D01*
X47713900Y-37985000D01*
X55460882Y-37985000D01*
X55460882Y-39685000D01*
X55474123Y-39819440D01*
X55513338Y-39948714D01*
X55577019Y-40067853D01*
X55662720Y-40172280D01*
X55767147Y-40257981D01*
X55886286Y-40321662D01*
X56015560Y-40360877D01*
X56150000Y-40374118D01*
X57850000Y-40374118D01*
X57984440Y-40360877D01*
X58113714Y-40321662D01*
X58232853Y-40257981D01*
X58337280Y-40172280D01*
X58422981Y-40067853D01*
X58471023Y-39977972D01*
X58520985Y-40027934D01*
X58772526Y-40196008D01*
X59052024Y-40311780D01*
X59348737Y-40370800D01*
X59651263Y-40370800D01*
X59947976Y-40311780D01*
X60227474Y-40196008D01*
X60479015Y-40027934D01*
X60692934Y-39814015D01*
X60861008Y-39562474D01*
X60976780Y-39282976D01*
X61035800Y-38986263D01*
X61035800Y-38683737D01*
X60976780Y-38387024D01*
X60861008Y-38107526D01*
X60692934Y-37855985D01*
X60671949Y-37835000D01*
X60692934Y-37814015D01*
X60861008Y-37562474D01*
X60976780Y-37282976D01*
X61035800Y-36986263D01*
X61035800Y-36683737D01*
X60976780Y-36387024D01*
X60861008Y-36107526D01*
X60692934Y-35855985D01*
X60631558Y-35794609D01*
X62779997Y-35794609D01*
X62966073Y-36135766D01*
X63383409Y-36351513D01*
X63834815Y-36481696D01*
X64302946Y-36521313D01*
X64769811Y-36468842D01*
X65217468Y-36326297D01*
X65573927Y-36135766D01*
X65760003Y-35794609D01*
X64270000Y-34304605D01*
X62779997Y-35794609D01*
X60631558Y-35794609D01*
X60479015Y-35642066D01*
X60227474Y-35473992D01*
X59947976Y-35358220D01*
X59651263Y-35299200D01*
X59348737Y-35299200D01*
X59052024Y-35358220D01*
X58772526Y-35473992D01*
X58520985Y-35642066D01*
X58307066Y-35855985D01*
X58187018Y-36035649D01*
X58028397Y-35986208D01*
X57179605Y-36835000D01*
X57193748Y-36849143D01*
X57014143Y-37028748D01*
X57000000Y-37014605D01*
X56985858Y-37028748D01*
X56806253Y-36849143D01*
X56820395Y-36835000D01*
X55971603Y-35986208D01*
X55722528Y-36063843D01*
X55596629Y-36327883D01*
X55524661Y-36611411D01*
X55509389Y-36903531D01*
X55551401Y-37193019D01*
X55649081Y-37468747D01*
X55664004Y-37496666D01*
X55662720Y-37497720D01*
X55577019Y-37602147D01*
X55513338Y-37721286D01*
X55474123Y-37850560D01*
X55460882Y-37985000D01*
X47713900Y-37985000D01*
X47713900Y-35794609D01*
X50739997Y-35794609D01*
X50926073Y-36135766D01*
X51343409Y-36351513D01*
X51794815Y-36481696D01*
X52262946Y-36521313D01*
X52729811Y-36468842D01*
X53177468Y-36326297D01*
X53533927Y-36135766D01*
X53713461Y-35806603D01*
X56151208Y-35806603D01*
X57000000Y-36655395D01*
X57848792Y-35806603D01*
X57771157Y-35557528D01*
X57507117Y-35431629D01*
X57223589Y-35359661D01*
X56931469Y-35344389D01*
X56641981Y-35386401D01*
X56366253Y-35484081D01*
X56228843Y-35557528D01*
X56151208Y-35806603D01*
X53713461Y-35806603D01*
X53720003Y-35794609D01*
X52230000Y-34304605D01*
X50739997Y-35794609D01*
X47713900Y-35794609D01*
X47713900Y-34188420D01*
X47716901Y-34157946D01*
X49833687Y-34157946D01*
X49886158Y-34624811D01*
X50028703Y-35072468D01*
X50219234Y-35428927D01*
X50560391Y-35615003D01*
X52050395Y-34125000D01*
X52409605Y-34125000D01*
X53899609Y-35615003D01*
X54240766Y-35428927D01*
X54456513Y-35011591D01*
X54586696Y-34560185D01*
X54620736Y-34157946D01*
X61873687Y-34157946D01*
X61926158Y-34624811D01*
X62068703Y-35072468D01*
X62259234Y-35428927D01*
X62600391Y-35615003D01*
X64090395Y-34125000D01*
X64449605Y-34125000D01*
X65939609Y-35615003D01*
X66280766Y-35428927D01*
X66496513Y-35011591D01*
X66626696Y-34560185D01*
X66666313Y-34092054D01*
X66613842Y-33625189D01*
X66471297Y-33177532D01*
X66280766Y-32821073D01*
X65939609Y-32634997D01*
X64449605Y-34125000D01*
X64090395Y-34125000D01*
X62600391Y-32634997D01*
X62259234Y-32821073D01*
X62043487Y-33238409D01*
X61913304Y-33689815D01*
X61873687Y-34157946D01*
X54620736Y-34157946D01*
X54626313Y-34092054D01*
X54573842Y-33625189D01*
X54431297Y-33177532D01*
X54240766Y-32821073D01*
X53899609Y-32634997D01*
X52409605Y-34125000D01*
X52050395Y-34125000D01*
X50560391Y-32634997D01*
X50219234Y-32821073D01*
X50003487Y-33238409D01*
X49873304Y-33689815D01*
X49833687Y-34157946D01*
X47716901Y-34157946D01*
X47717832Y-34148500D01*
X47713900Y-34108577D01*
X47702139Y-33989163D01*
X47655662Y-33835950D01*
X47580188Y-33694748D01*
X47478617Y-33570983D01*
X47447607Y-33545534D01*
X46375384Y-32473312D01*
X46378948Y-32455391D01*
X50739997Y-32455391D01*
X52230000Y-33945395D01*
X53720003Y-32455391D01*
X62779997Y-32455391D01*
X64270000Y-33945395D01*
X65760003Y-32455391D01*
X65573927Y-32114234D01*
X65156591Y-31898487D01*
X64705185Y-31768304D01*
X64237054Y-31728687D01*
X63770189Y-31781158D01*
X63322532Y-31923703D01*
X62966073Y-32114234D01*
X62779997Y-32455391D01*
X53720003Y-32455391D01*
X53533927Y-32114234D01*
X53116591Y-31898487D01*
X52665185Y-31768304D01*
X52197054Y-31728687D01*
X51730189Y-31781158D01*
X51282532Y-31923703D01*
X50926073Y-32114234D01*
X50739997Y-32455391D01*
X46378948Y-32455391D01*
X46400100Y-32349057D01*
X46400100Y-32065343D01*
X46344750Y-31787080D01*
X46236177Y-31524962D01*
X46078554Y-31289062D01*
X45877938Y-31088446D01*
X45642038Y-30930823D01*
X45379920Y-30822250D01*
X45101657Y-30766900D01*
X44817943Y-30766900D01*
X44539680Y-30822250D01*
X44277562Y-30930823D01*
X44041662Y-31088446D01*
X43934800Y-31195308D01*
X43827938Y-31088446D01*
X43592038Y-30930823D01*
X43329920Y-30822250D01*
X43051657Y-30766900D01*
X42767943Y-30766900D01*
X42489680Y-30822250D01*
X42227562Y-30930823D01*
X41991662Y-31088446D01*
X41791046Y-31289062D01*
X41633423Y-31524962D01*
X41583927Y-31644455D01*
X41570337Y-31606796D01*
X41509334Y-31492668D01*
X41270008Y-31426597D01*
X40489405Y-32207200D01*
X41270008Y-32987803D01*
X41509334Y-32921732D01*
X41582376Y-32766200D01*
X41633423Y-32889438D01*
X41791046Y-33125338D01*
X41991662Y-33325954D01*
X42227562Y-33483577D01*
X42489680Y-33592150D01*
X42767943Y-33647500D01*
X43051657Y-33647500D01*
X43329920Y-33592150D01*
X43592038Y-33483577D01*
X43827938Y-33325954D01*
X43934800Y-33219092D01*
X44041662Y-33325954D01*
X44230603Y-33452200D01*
X44041662Y-33578446D01*
X43841046Y-33779062D01*
X43683423Y-34014962D01*
X43574850Y-34277080D01*
X43519500Y-34555343D01*
X43519500Y-34839057D01*
X43574850Y-35117320D01*
X43683423Y-35379438D01*
X43841046Y-35615338D01*
X44041662Y-35815954D01*
X44147001Y-35886339D01*
X44147000Y-39400768D01*
X43370500Y-38624268D01*
X43370500Y-36545020D01*
X43374432Y-36505099D01*
X43370500Y-36465177D01*
X43358739Y-36345763D01*
X43312262Y-36192550D01*
X43241337Y-36059858D01*
X43236788Y-36051347D01*
X43205429Y-36013137D01*
X43135217Y-35927583D01*
X43104200Y-35902128D01*
X40733558Y-33531486D01*
X40910204Y-33467737D01*
X41024332Y-33406734D01*
X41090403Y-33167408D01*
X40309800Y-32386805D01*
X40295658Y-32400948D01*
X40116053Y-32221343D01*
X40130195Y-32207200D01*
X39598558Y-31675563D01*
X39536177Y-31524962D01*
X39378554Y-31289062D01*
X39336484Y-31246992D01*
X39529197Y-31246992D01*
X40309800Y-32027595D01*
X41090403Y-31246992D01*
X41024332Y-31007666D01*
X40776585Y-30891317D01*
X40510900Y-30825536D01*
X40237486Y-30812851D01*
X39966852Y-30853751D01*
X39709396Y-30946663D01*
X39595268Y-31007666D01*
X39529197Y-31246992D01*
X39336484Y-31246992D01*
X39177938Y-31088446D01*
X38942038Y-30930823D01*
X38679920Y-30822250D01*
X38401657Y-30766900D01*
X38117943Y-30766900D01*
X37839680Y-30822250D01*
X37577562Y-30930823D01*
X37341662Y-31088446D01*
X37141046Y-31289062D01*
X36983423Y-31524962D01*
X36874850Y-31787080D01*
X36819500Y-32065343D01*
X26935868Y-32065343D01*
X26931266Y-30022454D01*
X27006634Y-30097822D01*
X27364636Y-30337031D01*
X27762426Y-30501801D01*
X28184718Y-30585800D01*
X28615282Y-30585800D01*
X29037574Y-30501801D01*
X29435364Y-30337031D01*
X29793366Y-30097822D01*
X30097822Y-29793366D01*
X30337031Y-29435364D01*
X30501801Y-29037574D01*
X30585800Y-28615282D01*
X30585800Y-28184718D01*
X30501801Y-27762426D01*
X30337031Y-27364636D01*
X30097822Y-27006634D01*
X30015188Y-26924000D01*
X33925019Y-26924000D01*
X33682990Y-27024252D01*
G37*
X33682990Y-27024252D02*
X33279538Y-27293830D01*
X32936430Y-27636938D01*
X32666852Y-28040390D01*
X32481163Y-28488682D01*
X32386500Y-28964586D01*
X32386500Y-29449814D01*
X32481163Y-29925718D01*
X32666852Y-30374010D01*
X32936430Y-30777462D01*
X33279538Y-31120570D01*
X33682990Y-31390148D01*
X34131282Y-31575837D01*
X34607186Y-31670500D01*
X35092414Y-31670500D01*
X35568318Y-31575837D01*
X36016610Y-31390148D01*
X36420062Y-31120570D01*
X36763170Y-30777462D01*
X37032748Y-30374010D01*
X37218437Y-29925718D01*
X37313100Y-29449814D01*
X37313100Y-28964586D01*
X37218437Y-28488682D01*
X37032748Y-28040390D01*
X36763170Y-27636938D01*
X36420062Y-27293830D01*
X36016610Y-27024252D01*
X35774581Y-26924000D01*
X39631575Y-26924000D01*
X39426852Y-27230390D01*
X39241163Y-27678682D01*
X39146500Y-28154586D01*
X39146500Y-28639814D01*
X39241163Y-29115718D01*
X39426852Y-29564010D01*
X39696430Y-29967462D01*
X40039538Y-30310570D01*
X40442990Y-30580148D01*
X40891282Y-30765837D01*
X41367186Y-30860500D01*
X41852414Y-30860500D01*
X42328318Y-30765837D01*
X42776610Y-30580148D01*
X43180062Y-30310570D01*
X43523170Y-29967462D01*
X43792748Y-29564010D01*
X43978437Y-29115718D01*
X44073100Y-28639814D01*
X44073100Y-28154586D01*
X43978437Y-27678682D01*
X43792748Y-27230390D01*
X43588025Y-26924000D01*
X47445019Y-26924000D01*
X47202990Y-27024252D01*
X46799538Y-27293830D01*
X46456430Y-27636938D01*
X46186852Y-28040390D01*
X46001163Y-28488682D01*
X45906500Y-28964586D01*
X45906500Y-29449814D01*
X46001163Y-29925718D01*
X46186852Y-30374010D01*
X46456430Y-30777462D01*
X46799538Y-31120570D01*
X47202990Y-31390148D01*
X47651282Y-31575837D01*
X48127186Y-31670500D01*
X48612414Y-31670500D01*
X49088318Y-31575837D01*
X49536610Y-31390148D01*
X49940062Y-31120570D01*
X50283170Y-30777462D01*
X50552748Y-30374010D01*
X50738437Y-29925718D01*
X50833100Y-29449814D01*
X50833100Y-28964586D01*
X50738437Y-28488682D01*
X50552748Y-28040390D01*
X50283170Y-27636938D01*
X49940062Y-27293830D01*
X49536610Y-27024252D01*
X49294581Y-26924000D01*
X68030151Y-26924000D01*
X67940048Y-27141528D01*
X67881700Y-27434861D01*
X67881700Y-27733939D01*
X67940048Y-28027272D01*
X68054500Y-28303585D01*
X68220660Y-28552260D01*
X68432140Y-28763740D01*
X68680815Y-28929900D01*
X68957128Y-29044352D01*
X69250461Y-29102700D01*
X69549539Y-29102700D01*
X69842872Y-29044352D01*
X70119185Y-28929900D01*
X70367860Y-28763740D01*
X70579340Y-28552260D01*
X70670000Y-28416578D01*
X70760660Y-28552260D01*
X70972140Y-28763740D01*
X71220815Y-28929900D01*
X71497128Y-29044352D01*
X71790461Y-29102700D01*
X72089539Y-29102700D01*
X72382872Y-29044352D01*
X72659185Y-28929900D01*
X72907860Y-28763740D01*
X73119340Y-28552260D01*
X73210000Y-28416578D01*
X73300660Y-28552260D01*
X73512140Y-28763740D01*
X73760815Y-28929900D01*
X74037128Y-29044352D01*
X74330461Y-29102700D01*
X74629539Y-29102700D01*
X74922872Y-29044352D01*
X75199185Y-28929900D01*
X75447860Y-28763740D01*
X75659340Y-28552260D01*
X75750000Y-28416578D01*
X75840660Y-28552260D01*
X76052140Y-28763740D01*
X76300815Y-28929900D01*
X76577128Y-29044352D01*
X76870461Y-29102700D01*
X77169539Y-29102700D01*
X77462872Y-29044352D01*
X77739185Y-28929900D01*
X77987860Y-28763740D01*
X78199340Y-28552260D01*
X78290000Y-28416578D01*
X78380660Y-28552260D01*
X78592140Y-28763740D01*
X78840815Y-28929900D01*
X79117128Y-29044352D01*
X79410461Y-29102700D01*
X79709539Y-29102700D01*
X80002872Y-29044352D01*
X80279185Y-28929900D01*
X80527860Y-28763740D01*
X80739340Y-28552260D01*
X80905500Y-28303585D01*
X81019952Y-28027272D01*
X81078300Y-27733939D01*
X81078300Y-27434861D01*
X81019952Y-27141528D01*
X80929849Y-26924000D01*
X94988012Y-26924000D01*
X94902178Y-27009834D01*
X94662969Y-27367836D01*
X94498199Y-27765626D01*
X94414200Y-28187918D01*
X94414200Y-28618482D01*
X94498199Y-29040774D01*
X94662969Y-29438564D01*
X94902178Y-29796566D01*
X95206634Y-30101022D01*
X95564636Y-30340231D01*
X95962426Y-30505001D01*
X96384718Y-30589000D01*
X96815282Y-30589000D01*
X97237574Y-30505001D01*
X97635364Y-30340231D01*
X97993366Y-30101022D01*
X98044000Y-30050388D01*
X98044000Y-79952812D01*
X97993366Y-79902178D01*
X97635364Y-79662969D01*
X97237574Y-79498199D01*
X96815282Y-79414200D01*
X96384718Y-79414200D01*
X95962426Y-79498199D01*
X95564636Y-79662969D01*
X95206634Y-79902178D01*
X94902178Y-80206634D01*
X94662969Y-80564636D01*
X94498199Y-80962426D01*
X94414200Y-81384718D01*
X94414200Y-81815282D01*
X94498199Y-82237574D01*
X94662969Y-82635364D01*
X94902178Y-82993366D01*
X94966812Y-83058000D01*
X30026188Y-83058000D01*
X30090622Y-82993566D01*
X30329831Y-82635564D01*
X30494601Y-82237774D01*
X30578600Y-81815482D01*
X30578600Y-81384918D01*
X30494601Y-80962626D01*
X30329831Y-80564836D01*
X30090622Y-80206834D01*
X29786166Y-79902378D01*
X29428164Y-79663169D01*
X29030374Y-79498399D01*
X28608082Y-79414400D01*
X28177518Y-79414400D01*
X27755226Y-79498399D01*
X27357436Y-79663169D01*
X27043541Y-79872906D01*
X27038430Y-77603217D01*
X46046020Y-77603217D01*
X46046020Y-77905743D01*
X46105040Y-78202456D01*
X46220812Y-78481954D01*
X46388886Y-78733495D01*
X46602805Y-78947414D01*
X46718143Y-79024480D01*
X46602805Y-79101546D01*
X46388886Y-79315465D01*
X46220812Y-79567006D01*
X46105040Y-79846504D01*
X46046020Y-80143217D01*
X46046020Y-80445743D01*
X46105040Y-80742456D01*
X46220812Y-81021954D01*
X46388886Y-81273495D01*
X46602805Y-81487414D01*
X46854346Y-81655488D01*
X47133844Y-81771260D01*
X47430557Y-81830280D01*
X47733083Y-81830280D01*
X48029796Y-81771260D01*
X48309294Y-81655488D01*
X48560835Y-81487414D01*
X48636864Y-81411385D01*
X48698839Y-81527333D01*
X48784540Y-81631760D01*
X48888967Y-81717461D01*
X49008106Y-81781142D01*
X49137380Y-81820357D01*
X49271820Y-81833598D01*
X50971820Y-81833598D01*
X51106260Y-81820357D01*
X51235534Y-81781142D01*
X51354673Y-81717461D01*
X51459100Y-81631760D01*
X51544801Y-81527333D01*
X51608482Y-81408194D01*
X51647697Y-81278920D01*
X51660938Y-81144480D01*
X51660938Y-79444480D01*
X51647697Y-79310040D01*
X51608482Y-79180766D01*
X51544801Y-79061627D01*
X51459100Y-78957200D01*
X51354673Y-78871499D01*
X51238725Y-78809524D01*
X51314754Y-78733495D01*
X51482828Y-78481954D01*
X51556368Y-78304412D01*
X67451400Y-78304412D01*
X67451400Y-78616788D01*
X67512341Y-78923161D01*
X67631882Y-79211758D01*
X67805429Y-79471489D01*
X68026311Y-79692371D01*
X68286042Y-79865918D01*
X68574639Y-79985459D01*
X68881012Y-80046400D01*
X69193388Y-80046400D01*
X69499761Y-79985459D01*
X69788358Y-79865918D01*
X70048089Y-79692371D01*
X70268971Y-79471489D01*
X70442518Y-79211758D01*
X70562059Y-78923161D01*
X70623000Y-78616788D01*
X70623000Y-78304412D01*
X70562059Y-77998039D01*
X70442518Y-77709442D01*
X70268971Y-77449711D01*
X70212648Y-77393388D01*
X70291694Y-77351137D01*
X70388385Y-77271785D01*
X70467737Y-77175094D01*
X70526702Y-77064780D01*
X70563012Y-76945082D01*
X70575272Y-76820600D01*
X70572200Y-76206350D01*
X70413450Y-76047600D01*
X69164200Y-76047600D01*
X69164200Y-76067600D01*
X68910200Y-76067600D01*
X68910200Y-76047600D01*
X67660950Y-76047600D01*
X67502200Y-76206350D01*
X67499128Y-76820600D01*
X67511388Y-76945082D01*
X67547698Y-77064780D01*
X67606663Y-77175094D01*
X67686015Y-77271785D01*
X67782706Y-77351137D01*
X67861752Y-77393388D01*
X67805429Y-77449711D01*
X67631882Y-77709442D01*
X67512341Y-77998039D01*
X67451400Y-78304412D01*
X51556368Y-78304412D01*
X51598600Y-78202456D01*
X51657620Y-77905743D01*
X51657620Y-77603217D01*
X51598600Y-77306504D01*
X51482828Y-77027006D01*
X51314754Y-76775465D01*
X51100835Y-76561546D01*
X50934627Y-76450490D01*
X51003175Y-76409658D01*
X51219408Y-76214749D01*
X51393461Y-75981400D01*
X51518645Y-75718579D01*
X51563296Y-75571370D01*
X51441975Y-75341480D01*
X50248820Y-75341480D01*
X50248820Y-75361480D01*
X49994820Y-75361480D01*
X49994820Y-75341480D01*
X47708820Y-75341480D01*
X47708820Y-75361480D01*
X47454820Y-75361480D01*
X47454820Y-75341480D01*
X46261665Y-75341480D01*
X46140344Y-75571370D01*
X46184995Y-75718579D01*
X46310179Y-75981400D01*
X46484232Y-76214749D01*
X46700465Y-76409658D01*
X46769013Y-76450490D01*
X46602805Y-76561546D01*
X46388886Y-76775465D01*
X46220812Y-77027006D01*
X46105040Y-77306504D01*
X46046020Y-77603217D01*
X27038430Y-77603217D01*
X27032247Y-74857590D01*
X46140344Y-74857590D01*
X46261665Y-75087480D01*
X47454820Y-75087480D01*
X47454820Y-73893666D01*
X47708820Y-73893666D01*
X47708820Y-75087480D01*
X49994820Y-75087480D01*
X49994820Y-73893666D01*
X50248820Y-73893666D01*
X50248820Y-75087480D01*
X51441975Y-75087480D01*
X51563296Y-74857590D01*
X51518645Y-74710381D01*
X51393461Y-74447560D01*
X51219408Y-74214211D01*
X51003175Y-74019302D01*
X50753072Y-73870323D01*
X50478711Y-73772999D01*
X50248820Y-73893666D01*
X49994820Y-73893666D01*
X49764929Y-73772999D01*
X49490568Y-73870323D01*
X49240465Y-74019302D01*
X49024232Y-74214211D01*
X48851820Y-74445360D01*
X48679408Y-74214211D01*
X48463175Y-74019302D01*
X48213072Y-73870323D01*
X47938711Y-73772999D01*
X47708820Y-73893666D01*
X47454820Y-73893666D01*
X47224929Y-73772999D01*
X46950568Y-73870323D01*
X46700465Y-74019302D01*
X46484232Y-74214211D01*
X46310179Y-74447560D01*
X46184995Y-74710381D01*
X46140344Y-74857590D01*
X27032247Y-74857590D01*
X27019660Y-69269240D01*
X32606102Y-69269240D01*
X32606102Y-70969240D01*
X32619343Y-71103680D01*
X32658558Y-71232954D01*
X32722239Y-71352093D01*
X32807940Y-71456520D01*
X32912367Y-71542221D01*
X33031506Y-71605902D01*
X33160780Y-71645117D01*
X33295220Y-71658358D01*
X34995220Y-71658358D01*
X35129660Y-71645117D01*
X35258934Y-71605902D01*
X35378073Y-71542221D01*
X35482500Y-71456520D01*
X35568201Y-71352093D01*
X35631882Y-71232954D01*
X35638408Y-71211440D01*
X39720236Y-71211440D01*
X39669713Y-71261963D01*
X39550185Y-71440849D01*
X39467852Y-71639617D01*
X39425880Y-71850628D01*
X39425880Y-72065772D01*
X39467852Y-72276783D01*
X39550185Y-72475551D01*
X39669713Y-72654437D01*
X39821843Y-72806567D01*
X40000729Y-72926095D01*
X40199497Y-73008428D01*
X40410508Y-73050400D01*
X40625652Y-73050400D01*
X40836663Y-73008428D01*
X41035431Y-72926095D01*
X41214317Y-72806567D01*
X41249884Y-72771000D01*
X50625888Y-72771000D01*
X52526208Y-74671320D01*
X52551663Y-74702337D01*
X52637217Y-74772549D01*
X52675427Y-74803908D01*
X52724612Y-74830197D01*
X52816630Y-74879382D01*
X52969843Y-74925859D01*
X53089257Y-74937620D01*
X53089259Y-74937620D01*
X53129179Y-74941552D01*
X53169100Y-74937620D01*
X61889356Y-74937620D01*
X61924923Y-74973187D01*
X62103809Y-75092715D01*
X62302577Y-75175048D01*
X62513588Y-75217020D01*
X62728732Y-75217020D01*
X62939743Y-75175048D01*
X63138511Y-75092715D01*
X63246438Y-75020600D01*
X67499128Y-75020600D01*
X67502200Y-75634850D01*
X67660950Y-75793600D01*
X68910200Y-75793600D01*
X68910200Y-74544350D01*
X69164200Y-74544350D01*
X69164200Y-75793600D01*
X70413450Y-75793600D01*
X70572200Y-75634850D01*
X70574763Y-75122200D01*
X73467882Y-75122200D01*
X73467882Y-76922200D01*
X73481123Y-77056640D01*
X73520338Y-77185914D01*
X73584019Y-77305053D01*
X73669720Y-77409480D01*
X73774147Y-77495181D01*
X73844014Y-77532526D01*
X73825229Y-77551311D01*
X73651682Y-77811042D01*
X73532141Y-78099639D01*
X73471200Y-78406012D01*
X73471200Y-78718388D01*
X73532141Y-79024761D01*
X73651682Y-79313358D01*
X73825229Y-79573089D01*
X74046111Y-79793971D01*
X74305842Y-79967518D01*
X74594439Y-80087059D01*
X74900812Y-80148000D01*
X75213188Y-80148000D01*
X75519561Y-80087059D01*
X75808158Y-79967518D01*
X76067889Y-79793971D01*
X76288771Y-79573089D01*
X76462318Y-79313358D01*
X76581859Y-79024761D01*
X76642800Y-78718388D01*
X76642800Y-78406012D01*
X76581859Y-78099639D01*
X76462318Y-77811042D01*
X76288771Y-77551311D01*
X76269986Y-77532526D01*
X76339853Y-77495181D01*
X76444280Y-77409480D01*
X76529981Y-77305053D01*
X76593662Y-77185914D01*
X76632877Y-77056640D01*
X76646118Y-76922200D01*
X76646118Y-75122200D01*
X76632877Y-74987760D01*
X76604314Y-74893600D01*
X79309882Y-74893600D01*
X79309882Y-76693600D01*
X79323123Y-76828040D01*
X79362338Y-76957314D01*
X79426019Y-77076453D01*
X79511720Y-77180880D01*
X79616147Y-77266581D01*
X79686014Y-77303926D01*
X79667229Y-77322711D01*
X79493682Y-77582442D01*
X79374141Y-77871039D01*
X79313200Y-78177412D01*
X79313200Y-78489788D01*
X79374141Y-78796161D01*
X79493682Y-79084758D01*
X79667229Y-79344489D01*
X79888111Y-79565371D01*
X80147842Y-79738918D01*
X80436439Y-79858459D01*
X80742812Y-79919400D01*
X81055188Y-79919400D01*
X81361561Y-79858459D01*
X81650158Y-79738918D01*
X81909889Y-79565371D01*
X82130771Y-79344489D01*
X82304318Y-79084758D01*
X82423859Y-78796161D01*
X82484800Y-78489788D01*
X82484800Y-78177412D01*
X82423859Y-77871039D01*
X82304318Y-77582442D01*
X82130771Y-77322711D01*
X82111986Y-77303926D01*
X82181853Y-77266581D01*
X82286280Y-77180880D01*
X82371981Y-77076453D01*
X82435662Y-76957314D01*
X82474877Y-76828040D01*
X82488118Y-76693600D01*
X82488118Y-74893600D01*
X82474877Y-74759160D01*
X82435662Y-74629886D01*
X82371981Y-74510747D01*
X82286280Y-74406320D01*
X82181853Y-74320619D01*
X82062714Y-74256938D01*
X81933440Y-74217723D01*
X81799000Y-74204482D01*
X79999000Y-74204482D01*
X79864560Y-74217723D01*
X79735286Y-74256938D01*
X79616147Y-74320619D01*
X79511720Y-74406320D01*
X79426019Y-74510747D01*
X79362338Y-74629886D01*
X79323123Y-74759160D01*
X79309882Y-74893600D01*
X76604314Y-74893600D01*
X76593662Y-74858486D01*
X76529981Y-74739347D01*
X76444280Y-74634920D01*
X76339853Y-74549219D01*
X76220714Y-74485538D01*
X76091440Y-74446323D01*
X75957000Y-74433082D01*
X74157000Y-74433082D01*
X74022560Y-74446323D01*
X73893286Y-74485538D01*
X73774147Y-74549219D01*
X73669720Y-74634920D01*
X73584019Y-74739347D01*
X73520338Y-74858486D01*
X73481123Y-74987760D01*
X73467882Y-75122200D01*
X70574763Y-75122200D01*
X70575272Y-75020600D01*
X70563012Y-74896118D01*
X70526702Y-74776420D01*
X70467737Y-74666106D01*
X70388385Y-74569415D01*
X70291694Y-74490063D01*
X70181380Y-74431098D01*
X70061682Y-74394788D01*
X69937200Y-74382528D01*
X69322950Y-74385600D01*
X69164200Y-74544350D01*
X68910200Y-74544350D01*
X68751450Y-74385600D01*
X68137200Y-74382528D01*
X68012718Y-74394788D01*
X67893020Y-74431098D01*
X67782706Y-74490063D01*
X67686015Y-74569415D01*
X67606663Y-74666106D01*
X67547698Y-74776420D01*
X67511388Y-74896118D01*
X67499128Y-75020600D01*
X63246438Y-75020600D01*
X63317397Y-74973187D01*
X63469527Y-74821057D01*
X63589055Y-74642171D01*
X63671388Y-74443403D01*
X63713360Y-74232392D01*
X63713360Y-74074020D01*
X86579160Y-74074020D01*
X86619080Y-74077952D01*
X86659000Y-74074020D01*
X86659003Y-74074020D01*
X86778417Y-74062259D01*
X86931630Y-74015782D01*
X87072832Y-73940308D01*
X87196597Y-73838737D01*
X87222052Y-73807720D01*
X90274549Y-70755223D01*
X90305556Y-70729776D01*
X90350845Y-70674592D01*
X90407128Y-70606013D01*
X90482601Y-70464810D01*
X90529078Y-70311597D01*
X90544772Y-70152261D01*
X90533485Y-70037662D01*
X90532800Y-70030712D01*
X90532800Y-54267348D01*
X90687860Y-54163740D01*
X90899340Y-53952260D01*
X91065500Y-53703585D01*
X91179952Y-53427272D01*
X91238300Y-53133939D01*
X91238300Y-52834861D01*
X91179952Y-52541528D01*
X91065500Y-52265215D01*
X90899340Y-52016540D01*
X90687860Y-51805060D01*
X90439185Y-51638900D01*
X90162872Y-51524448D01*
X89869539Y-51466100D01*
X89570461Y-51466100D01*
X89277128Y-51524448D01*
X89000815Y-51638900D01*
X88752140Y-51805060D01*
X88540660Y-52016540D01*
X88450000Y-52152222D01*
X88359340Y-52016540D01*
X88147860Y-51805060D01*
X87899185Y-51638900D01*
X87622872Y-51524448D01*
X87329539Y-51466100D01*
X87030461Y-51466100D01*
X86737128Y-51524448D01*
X86460815Y-51638900D01*
X86212140Y-51805060D01*
X86000660Y-52016540D01*
X85910000Y-52152222D01*
X85819340Y-52016540D01*
X85607860Y-51805060D01*
X85359185Y-51638900D01*
X85082872Y-51524448D01*
X84789539Y-51466100D01*
X84490461Y-51466100D01*
X84197128Y-51524448D01*
X83920815Y-51638900D01*
X83672140Y-51805060D01*
X83460660Y-52016540D01*
X83370000Y-52152222D01*
X83279340Y-52016540D01*
X83067860Y-51805060D01*
X82819185Y-51638900D01*
X82542872Y-51524448D01*
X82249539Y-51466100D01*
X81950461Y-51466100D01*
X81657128Y-51524448D01*
X81380815Y-51638900D01*
X81132140Y-51805060D01*
X80920660Y-52016540D01*
X80830000Y-52152222D01*
X80739340Y-52016540D01*
X80527860Y-51805060D01*
X80279185Y-51638900D01*
X80002872Y-51524448D01*
X79709539Y-51466100D01*
X79410461Y-51466100D01*
X79117128Y-51524448D01*
X78840815Y-51638900D01*
X78592140Y-51805060D01*
X78380660Y-52016540D01*
X78290000Y-52152222D01*
X78199340Y-52016540D01*
X77987860Y-51805060D01*
X77739185Y-51638900D01*
X77462872Y-51524448D01*
X77169539Y-51466100D01*
X76870461Y-51466100D01*
X76577128Y-51524448D01*
X76300815Y-51638900D01*
X76052140Y-51805060D01*
X75840660Y-52016540D01*
X75750000Y-52152222D01*
X75659340Y-52016540D01*
X75447860Y-51805060D01*
X75199185Y-51638900D01*
X74922872Y-51524448D01*
X74629539Y-51466100D01*
X74330461Y-51466100D01*
X74037128Y-51524448D01*
X73760815Y-51638900D01*
X73512140Y-51805060D01*
X73300660Y-52016540D01*
X73169226Y-52213244D01*
X72955906Y-52148099D01*
X72119605Y-52984400D01*
X72955906Y-53820701D01*
X73169226Y-53755556D01*
X73300660Y-53952260D01*
X73512140Y-54163740D01*
X73760815Y-54329900D01*
X74037128Y-54444352D01*
X74330461Y-54502700D01*
X74629539Y-54502700D01*
X74922872Y-54444352D01*
X75199185Y-54329900D01*
X75447860Y-54163740D01*
X75659340Y-53952260D01*
X75750000Y-53816578D01*
X75840660Y-53952260D01*
X76052140Y-54163740D01*
X76207201Y-54267349D01*
X76207200Y-62882997D01*
X76180572Y-62877700D01*
X75965428Y-62877700D01*
X75754417Y-62919672D01*
X75555649Y-63002005D01*
X75376763Y-63121533D01*
X75341196Y-63157100D01*
X72088285Y-63157100D01*
X72123343Y-63072463D01*
X72174100Y-62817287D01*
X72174100Y-62557113D01*
X72123343Y-62301937D01*
X72023778Y-62061566D01*
X71945500Y-61944415D01*
X71945500Y-58553185D01*
X72023778Y-58436034D01*
X72123343Y-58195663D01*
X72174100Y-57940487D01*
X72174100Y-57680313D01*
X72123343Y-57425137D01*
X72023778Y-57184766D01*
X71879233Y-56968439D01*
X71695261Y-56784467D01*
X71478934Y-56639922D01*
X71238563Y-56540357D01*
X70983387Y-56489600D01*
X70723213Y-56489600D01*
X70468037Y-56540357D01*
X70227666Y-56639922D01*
X70011339Y-56784467D01*
X69827367Y-56968439D01*
X69682822Y-57184766D01*
X69583257Y-57425137D01*
X69532500Y-57680313D01*
X69532500Y-57940487D01*
X69583257Y-58195663D01*
X69682822Y-58436034D01*
X69761101Y-58553187D01*
X69761100Y-61944415D01*
X69682822Y-62061566D01*
X69583257Y-62301937D01*
X69532500Y-62557113D01*
X69532500Y-62817287D01*
X69583257Y-63072463D01*
X69618315Y-63157100D01*
X68927980Y-63157100D01*
X68927980Y-62953008D01*
X68886008Y-62741997D01*
X68803675Y-62543229D01*
X68684147Y-62364343D01*
X68532017Y-62212213D01*
X68353131Y-62092685D01*
X68154363Y-62010352D01*
X67943352Y-61968380D01*
X67893052Y-61968380D01*
X67599560Y-61674888D01*
X67599560Y-52834861D01*
X67881700Y-52834861D01*
X67881700Y-53133939D01*
X67940048Y-53427272D01*
X68054500Y-53703585D01*
X68220660Y-53952260D01*
X68432140Y-54163740D01*
X68680815Y-54329900D01*
X68957128Y-54444352D01*
X69250461Y-54502700D01*
X69549539Y-54502700D01*
X69842872Y-54444352D01*
X70119185Y-54329900D01*
X70367860Y-54163740D01*
X70531294Y-54000306D01*
X71103699Y-54000306D01*
X71179217Y-54247593D01*
X71440273Y-54371743D01*
X71720532Y-54442577D01*
X72009226Y-54457374D01*
X72295259Y-54415566D01*
X72567639Y-54318759D01*
X72700783Y-54247593D01*
X72776301Y-54000306D01*
X71940000Y-53164005D01*
X71103699Y-54000306D01*
X70531294Y-54000306D01*
X70579340Y-53952260D01*
X70710774Y-53755556D01*
X70924094Y-53820701D01*
X71760395Y-52984400D01*
X70924094Y-52148099D01*
X70710774Y-52213244D01*
X70579340Y-52016540D01*
X70531294Y-51968494D01*
X71103699Y-51968494D01*
X71940000Y-52804795D01*
X72776301Y-51968494D01*
X72700783Y-51721207D01*
X72439727Y-51597057D01*
X72159468Y-51526223D01*
X71870774Y-51511426D01*
X71584741Y-51553234D01*
X71312361Y-51650041D01*
X71179217Y-51721207D01*
X71103699Y-51968494D01*
X70531294Y-51968494D01*
X70367860Y-51805060D01*
X70119185Y-51638900D01*
X69842872Y-51524448D01*
X69549539Y-51466100D01*
X69250461Y-51466100D01*
X68957128Y-51524448D01*
X68680815Y-51638900D01*
X68432140Y-51805060D01*
X68220660Y-52016540D01*
X68054500Y-52265215D01*
X67940048Y-52541528D01*
X67881700Y-52834861D01*
X67599560Y-52834861D01*
X67599560Y-50137012D01*
X67638596Y-50104976D01*
X67740168Y-49981211D01*
X67815642Y-49840009D01*
X67862118Y-49686796D01*
X67877812Y-49527459D01*
X67867208Y-49419796D01*
X67878960Y-49360712D01*
X67878960Y-49145568D01*
X67836988Y-48934557D01*
X67754655Y-48735789D01*
X67635127Y-48556903D01*
X67482997Y-48404773D01*
X67304111Y-48285245D01*
X67105343Y-48202912D01*
X66894332Y-48160940D01*
X66679188Y-48160940D01*
X66468177Y-48202912D01*
X66269409Y-48285245D01*
X66090523Y-48404773D01*
X65938393Y-48556903D01*
X65818865Y-48735789D01*
X65736532Y-48934557D01*
X65694560Y-49145568D01*
X65694560Y-49360712D01*
X65736532Y-49571723D01*
X65818865Y-49770491D01*
X65938393Y-49949377D01*
X65973960Y-49984944D01*
X65973961Y-61971630D01*
X65970028Y-62011560D01*
X65985722Y-62170896D01*
X66032198Y-62324109D01*
X66053704Y-62364343D01*
X66107673Y-62465312D01*
X66209244Y-62589077D01*
X66240255Y-62614527D01*
X66743580Y-63117852D01*
X66743580Y-63157100D01*
X64777375Y-63157100D01*
X64792860Y-63079252D01*
X64792860Y-62864108D01*
X64750888Y-62653097D01*
X64668555Y-62454329D01*
X64549027Y-62275443D01*
X64513460Y-62239876D01*
X64513460Y-50906964D01*
X64554107Y-50866317D01*
X64673635Y-50687431D01*
X64755968Y-50488663D01*
X64797940Y-50277652D01*
X64797940Y-50062508D01*
X64755968Y-49851497D01*
X64673635Y-49652729D01*
X64554107Y-49473843D01*
X64401977Y-49321713D01*
X64223091Y-49202185D01*
X64024323Y-49119852D01*
X63813312Y-49077880D01*
X63598168Y-49077880D01*
X63387157Y-49119852D01*
X63188389Y-49202185D01*
X63009503Y-49321713D01*
X62857373Y-49473843D01*
X62737845Y-49652729D01*
X62655512Y-49851497D01*
X62613540Y-50062508D01*
X62613540Y-50277652D01*
X62655512Y-50488663D01*
X62737845Y-50687431D01*
X62857373Y-50866317D01*
X62887861Y-50896805D01*
X62887861Y-55478883D01*
X62771912Y-55455820D01*
X62556768Y-55455820D01*
X62345757Y-55497792D01*
X62146989Y-55580125D01*
X61968103Y-55699653D01*
X61932536Y-55735220D01*
X42356323Y-55735220D01*
X42316400Y-55731288D01*
X42276477Y-55735220D01*
X42157063Y-55746981D01*
X42003850Y-55793458D01*
X41862648Y-55868932D01*
X41738883Y-55970503D01*
X41713433Y-56001514D01*
X38754919Y-58960029D01*
X38723903Y-58985483D01*
X38622332Y-59109249D01*
X38546858Y-59250451D01*
X38500381Y-59403664D01*
X38489162Y-59517573D01*
X38484688Y-59563000D01*
X38488620Y-59602920D01*
X38488621Y-63216666D01*
X37478848Y-64226440D01*
X35449215Y-64226440D01*
X35338154Y-64060225D01*
X35124235Y-63846306D01*
X34958027Y-63735250D01*
X35026575Y-63694418D01*
X35242808Y-63499509D01*
X35416861Y-63266160D01*
X35542045Y-63003339D01*
X35586696Y-62856130D01*
X35465375Y-62626240D01*
X34272220Y-62626240D01*
X34272220Y-62646240D01*
X34018220Y-62646240D01*
X34018220Y-62626240D01*
X32825065Y-62626240D01*
X32703744Y-62856130D01*
X32748395Y-63003339D01*
X32873579Y-63266160D01*
X33047632Y-63499509D01*
X33263865Y-63694418D01*
X33332413Y-63735250D01*
X33166205Y-63846306D01*
X32952286Y-64060225D01*
X32784212Y-64311766D01*
X32668440Y-64591264D01*
X32609420Y-64887977D01*
X32609420Y-65190503D01*
X32668440Y-65487216D01*
X32784212Y-65766714D01*
X32952286Y-66018255D01*
X33166205Y-66232174D01*
X33281543Y-66309240D01*
X33166205Y-66386306D01*
X32952286Y-66600225D01*
X32784212Y-66851766D01*
X32668440Y-67131264D01*
X32609420Y-67427977D01*
X32609420Y-67730503D01*
X32668440Y-68027216D01*
X32784212Y-68306714D01*
X32952286Y-68558255D01*
X33028315Y-68634284D01*
X32912367Y-68696259D01*
X32807940Y-68781960D01*
X32722239Y-68886387D01*
X32658558Y-69005526D01*
X32619343Y-69134800D01*
X32606102Y-69269240D01*
X27019660Y-69269240D01*
X27003609Y-62142350D01*
X32703744Y-62142350D01*
X32825065Y-62372240D01*
X34018220Y-62372240D01*
X34018220Y-61178426D01*
X34272220Y-61178426D01*
X34272220Y-62372240D01*
X35465375Y-62372240D01*
X35586696Y-62142350D01*
X35542045Y-61995141D01*
X35416861Y-61732320D01*
X35242808Y-61498971D01*
X35026575Y-61304062D01*
X34776472Y-61155083D01*
X34502111Y-61057759D01*
X34272220Y-61178426D01*
X34018220Y-61178426D01*
X33788329Y-61057759D01*
X33513968Y-61155083D01*
X33263865Y-61304062D01*
X33047632Y-61498971D01*
X32873579Y-61732320D01*
X32748395Y-61995141D01*
X32703744Y-62142350D01*
X27003609Y-62142350D01*
X26935868Y-32065343D01*
X36819500Y-32065343D01*
X36819500Y-32349057D01*
X36874850Y-32627320D01*
X36983423Y-32889438D01*
X37141046Y-33125338D01*
X37341662Y-33325954D01*
X37530603Y-33452200D01*
X37341662Y-33578446D01*
X37141046Y-33779062D01*
X36983423Y-34014962D01*
X36874850Y-34277080D01*
X36819500Y-34555343D01*
X36819500Y-34839057D01*
X36874850Y-35117320D01*
X36983423Y-35379438D01*
X37141046Y-35615338D01*
X37341662Y-35815954D01*
X37447000Y-35886339D01*
X37447000Y-36774499D01*
X37443068Y-36814420D01*
X37447000Y-36854340D01*
X37447000Y-36854342D01*
X37458761Y-36973756D01*
X37505238Y-37126969D01*
X37580712Y-37268171D01*
X37682283Y-37391937D01*
X37713300Y-37417392D01*
X54653180Y-54357272D01*
X54653180Y-54407572D01*
X54695152Y-54618583D01*
X54777485Y-54817351D01*
X54897013Y-54996237D01*
X55049143Y-55148367D01*
X55228029Y-55267895D01*
X55426797Y-55350228D01*
X55637808Y-55392200D01*
X55852952Y-55392200D01*
X56063963Y-55350228D01*
X56262731Y-55267895D01*
X56441617Y-55148367D01*
X56593747Y-54996237D01*
X56713275Y-54817351D01*
X56795608Y-54618583D01*
X56821070Y-54490575D01*
X56846532Y-54618583D01*
X56928865Y-54817351D01*
X57048393Y-54996237D01*
X57200523Y-55148367D01*
X57379409Y-55267895D01*
X57578177Y-55350228D01*
X57789188Y-55392200D01*
X58004332Y-55392200D01*
X58215343Y-55350228D01*
X58414111Y-55267895D01*
X58592997Y-55148367D01*
X58745127Y-54996237D01*
X58823860Y-54878405D01*
X58902593Y-54996237D01*
X59054723Y-55148367D01*
X59233609Y-55267895D01*
X59432377Y-55350228D01*
X59643388Y-55392200D01*
X59858532Y-55392200D01*
X60069543Y-55350228D01*
X60268311Y-55267895D01*
X60447197Y-55148367D01*
X60580270Y-55015294D01*
X60713343Y-55148367D01*
X60892229Y-55267895D01*
X61090997Y-55350228D01*
X61302008Y-55392200D01*
X61517152Y-55392200D01*
X61728163Y-55350228D01*
X61926931Y-55267895D01*
X62105817Y-55148367D01*
X62257947Y-54996237D01*
X62377475Y-54817351D01*
X62459808Y-54618583D01*
X62501780Y-54407572D01*
X62501780Y-54192428D01*
X62459808Y-53981417D01*
X62377475Y-53782649D01*
X62257947Y-53603763D01*
X62105817Y-53451633D01*
X61926931Y-53332105D01*
X61728163Y-53249772D01*
X61517152Y-53207800D01*
X61464193Y-53207800D01*
X47713900Y-39457508D01*
X47713900Y-37985000D01*
X55460882Y-37985000D01*
X55460882Y-39685000D01*
X55474123Y-39819440D01*
X55513338Y-39948714D01*
X55577019Y-40067853D01*
X55662720Y-40172280D01*
X55767147Y-40257981D01*
X55886286Y-40321662D01*
X56015560Y-40360877D01*
X56150000Y-40374118D01*
X57850000Y-40374118D01*
X57984440Y-40360877D01*
X58113714Y-40321662D01*
X58232853Y-40257981D01*
X58337280Y-40172280D01*
X58422981Y-40067853D01*
X58471023Y-39977972D01*
X58520985Y-40027934D01*
X58772526Y-40196008D01*
X59052024Y-40311780D01*
X59348737Y-40370800D01*
X59651263Y-40370800D01*
X59947976Y-40311780D01*
X60227474Y-40196008D01*
X60479015Y-40027934D01*
X60692934Y-39814015D01*
X60861008Y-39562474D01*
X60976780Y-39282976D01*
X61035800Y-38986263D01*
X61035800Y-38683737D01*
X60976780Y-38387024D01*
X60861008Y-38107526D01*
X60692934Y-37855985D01*
X60671949Y-37835000D01*
X60692934Y-37814015D01*
X60861008Y-37562474D01*
X60976780Y-37282976D01*
X61035800Y-36986263D01*
X61035800Y-36683737D01*
X60976780Y-36387024D01*
X60861008Y-36107526D01*
X60692934Y-35855985D01*
X60631558Y-35794609D01*
X62779997Y-35794609D01*
X62966073Y-36135766D01*
X63383409Y-36351513D01*
X63834815Y-36481696D01*
X64302946Y-36521313D01*
X64769811Y-36468842D01*
X65217468Y-36326297D01*
X65573927Y-36135766D01*
X65760003Y-35794609D01*
X64270000Y-34304605D01*
X62779997Y-35794609D01*
X60631558Y-35794609D01*
X60479015Y-35642066D01*
X60227474Y-35473992D01*
X59947976Y-35358220D01*
X59651263Y-35299200D01*
X59348737Y-35299200D01*
X59052024Y-35358220D01*
X58772526Y-35473992D01*
X58520985Y-35642066D01*
X58307066Y-35855985D01*
X58187018Y-36035649D01*
X58028397Y-35986208D01*
X57179605Y-36835000D01*
X57193748Y-36849143D01*
X57014143Y-37028748D01*
X57000000Y-37014605D01*
X56985858Y-37028748D01*
X56806253Y-36849143D01*
X56820395Y-36835000D01*
X55971603Y-35986208D01*
X55722528Y-36063843D01*
X55596629Y-36327883D01*
X55524661Y-36611411D01*
X55509389Y-36903531D01*
X55551401Y-37193019D01*
X55649081Y-37468747D01*
X55664004Y-37496666D01*
X55662720Y-37497720D01*
X55577019Y-37602147D01*
X55513338Y-37721286D01*
X55474123Y-37850560D01*
X55460882Y-37985000D01*
X47713900Y-37985000D01*
X47713900Y-35794609D01*
X50739997Y-35794609D01*
X50926073Y-36135766D01*
X51343409Y-36351513D01*
X51794815Y-36481696D01*
X52262946Y-36521313D01*
X52729811Y-36468842D01*
X53177468Y-36326297D01*
X53533927Y-36135766D01*
X53713461Y-35806603D01*
X56151208Y-35806603D01*
X57000000Y-36655395D01*
X57848792Y-35806603D01*
X57771157Y-35557528D01*
X57507117Y-35431629D01*
X57223589Y-35359661D01*
X56931469Y-35344389D01*
X56641981Y-35386401D01*
X56366253Y-35484081D01*
X56228843Y-35557528D01*
X56151208Y-35806603D01*
X53713461Y-35806603D01*
X53720003Y-35794609D01*
X52230000Y-34304605D01*
X50739997Y-35794609D01*
X47713900Y-35794609D01*
X47713900Y-34188420D01*
X47716901Y-34157946D01*
X49833687Y-34157946D01*
X49886158Y-34624811D01*
X50028703Y-35072468D01*
X50219234Y-35428927D01*
X50560391Y-35615003D01*
X52050395Y-34125000D01*
X52409605Y-34125000D01*
X53899609Y-35615003D01*
X54240766Y-35428927D01*
X54456513Y-35011591D01*
X54586696Y-34560185D01*
X54620736Y-34157946D01*
X61873687Y-34157946D01*
X61926158Y-34624811D01*
X62068703Y-35072468D01*
X62259234Y-35428927D01*
X62600391Y-35615003D01*
X64090395Y-34125000D01*
X64449605Y-34125000D01*
X65939609Y-35615003D01*
X66280766Y-35428927D01*
X66496513Y-35011591D01*
X66626696Y-34560185D01*
X66666313Y-34092054D01*
X66613842Y-33625189D01*
X66471297Y-33177532D01*
X66280766Y-32821073D01*
X65939609Y-32634997D01*
X64449605Y-34125000D01*
X64090395Y-34125000D01*
X62600391Y-32634997D01*
X62259234Y-32821073D01*
X62043487Y-33238409D01*
X61913304Y-33689815D01*
X61873687Y-34157946D01*
X54620736Y-34157946D01*
X54626313Y-34092054D01*
X54573842Y-33625189D01*
X54431297Y-33177532D01*
X54240766Y-32821073D01*
X53899609Y-32634997D01*
X52409605Y-34125000D01*
X52050395Y-34125000D01*
X50560391Y-32634997D01*
X50219234Y-32821073D01*
X50003487Y-33238409D01*
X49873304Y-33689815D01*
X49833687Y-34157946D01*
X47716901Y-34157946D01*
X47717832Y-34148500D01*
X47713900Y-34108577D01*
X47702139Y-33989163D01*
X47655662Y-33835950D01*
X47580188Y-33694748D01*
X47478617Y-33570983D01*
X47447607Y-33545534D01*
X46375384Y-32473312D01*
X46378948Y-32455391D01*
X50739997Y-32455391D01*
X52230000Y-33945395D01*
X53720003Y-32455391D01*
X62779997Y-32455391D01*
X64270000Y-33945395D01*
X65760003Y-32455391D01*
X65573927Y-32114234D01*
X65156591Y-31898487D01*
X64705185Y-31768304D01*
X64237054Y-31728687D01*
X63770189Y-31781158D01*
X63322532Y-31923703D01*
X62966073Y-32114234D01*
X62779997Y-32455391D01*
X53720003Y-32455391D01*
X53533927Y-32114234D01*
X53116591Y-31898487D01*
X52665185Y-31768304D01*
X52197054Y-31728687D01*
X51730189Y-31781158D01*
X51282532Y-31923703D01*
X50926073Y-32114234D01*
X50739997Y-32455391D01*
X46378948Y-32455391D01*
X46400100Y-32349057D01*
X46400100Y-32065343D01*
X46344750Y-31787080D01*
X46236177Y-31524962D01*
X46078554Y-31289062D01*
X45877938Y-31088446D01*
X45642038Y-30930823D01*
X45379920Y-30822250D01*
X45101657Y-30766900D01*
X44817943Y-30766900D01*
X44539680Y-30822250D01*
X44277562Y-30930823D01*
X44041662Y-31088446D01*
X43934800Y-31195308D01*
X43827938Y-31088446D01*
X43592038Y-30930823D01*
X43329920Y-30822250D01*
X43051657Y-30766900D01*
X42767943Y-30766900D01*
X42489680Y-30822250D01*
X42227562Y-30930823D01*
X41991662Y-31088446D01*
X41791046Y-31289062D01*
X41633423Y-31524962D01*
X41583927Y-31644455D01*
X41570337Y-31606796D01*
X41509334Y-31492668D01*
X41270008Y-31426597D01*
X40489405Y-32207200D01*
X41270008Y-32987803D01*
X41509334Y-32921732D01*
X41582376Y-32766200D01*
X41633423Y-32889438D01*
X41791046Y-33125338D01*
X41991662Y-33325954D01*
X42227562Y-33483577D01*
X42489680Y-33592150D01*
X42767943Y-33647500D01*
X43051657Y-33647500D01*
X43329920Y-33592150D01*
X43592038Y-33483577D01*
X43827938Y-33325954D01*
X43934800Y-33219092D01*
X44041662Y-33325954D01*
X44230603Y-33452200D01*
X44041662Y-33578446D01*
X43841046Y-33779062D01*
X43683423Y-34014962D01*
X43574850Y-34277080D01*
X43519500Y-34555343D01*
X43519500Y-34839057D01*
X43574850Y-35117320D01*
X43683423Y-35379438D01*
X43841046Y-35615338D01*
X44041662Y-35815954D01*
X44147001Y-35886339D01*
X44147000Y-39400768D01*
X43370500Y-38624268D01*
X43370500Y-36545020D01*
X43374432Y-36505099D01*
X43370500Y-36465177D01*
X43358739Y-36345763D01*
X43312262Y-36192550D01*
X43241337Y-36059858D01*
X43236788Y-36051347D01*
X43205429Y-36013137D01*
X43135217Y-35927583D01*
X43104200Y-35902128D01*
X40733558Y-33531486D01*
X40910204Y-33467737D01*
X41024332Y-33406734D01*
X41090403Y-33167408D01*
X40309800Y-32386805D01*
X40295658Y-32400948D01*
X40116053Y-32221343D01*
X40130195Y-32207200D01*
X39598558Y-31675563D01*
X39536177Y-31524962D01*
X39378554Y-31289062D01*
X39336484Y-31246992D01*
X39529197Y-31246992D01*
X40309800Y-32027595D01*
X41090403Y-31246992D01*
X41024332Y-31007666D01*
X40776585Y-30891317D01*
X40510900Y-30825536D01*
X40237486Y-30812851D01*
X39966852Y-30853751D01*
X39709396Y-30946663D01*
X39595268Y-31007666D01*
X39529197Y-31246992D01*
X39336484Y-31246992D01*
X39177938Y-31088446D01*
X38942038Y-30930823D01*
X38679920Y-30822250D01*
X38401657Y-30766900D01*
X38117943Y-30766900D01*
X37839680Y-30822250D01*
X37577562Y-30930823D01*
X37341662Y-31088446D01*
X37141046Y-31289062D01*
X36983423Y-31524962D01*
X36874850Y-31787080D01*
X36819500Y-32065343D01*
X26935868Y-32065343D01*
X26931266Y-30022454D01*
X27006634Y-30097822D01*
X27364636Y-30337031D01*
X27762426Y-30501801D01*
X28184718Y-30585800D01*
X28615282Y-30585800D01*
X29037574Y-30501801D01*
X29435364Y-30337031D01*
X29793366Y-30097822D01*
X30097822Y-29793366D01*
X30337031Y-29435364D01*
X30501801Y-29037574D01*
X30585800Y-28615282D01*
X30585800Y-28184718D01*
X30501801Y-27762426D01*
X30337031Y-27364636D01*
X30097822Y-27006634D01*
X30015188Y-26924000D01*
X33925019Y-26924000D01*
X33682990Y-27024252D01*
M02*
