M48
; DRILL file {KiCad (5.1.5)-3} date 10/12/2021 20:30:47
; FORMAT={-:-/ absolute / metric / decimal}
; #@! TF.CreationDate,2021-12-10T20:30:47-03:00
; #@! TF.GenerationSoftware,Kicad,Pcbnew,(5.1.5)-3
FMAT,2
METRIC
T1C0.400
T2C0.406
T3C0.508
T4C0.800
T5C0.900
T6C0.920
T7C0.970
T8C1.000
T9C1.110
T10C2.330
T11C2.370
T12C3.000
%
G90
G05
T1
X29.845Y-34.29
X29.845Y-39.37
X30.353Y-75.184
X31.115Y-58.42
X34.29Y-80.137
X36.678Y-44.679
X36.678Y-48.92
X36.703Y-39.624
X37.465Y-58.42
X38.1Y-74.168
X38.481Y-52.197
X44.069Y-51.943
X49.911Y-52.07
X55.118Y-29.845
X56.261Y-45.466
X59.309Y-49.657
X60.706Y-80.137
X61.468Y-29.845
X68.961Y-47.117
X69.088Y-38.608
X73.406Y-49.403
X73.533Y-34.417
X74.676Y-60.325
X81.153Y-34.163
X81.153Y-49.403
X83.947Y-28.956
X86.36Y-76.454
X90.17Y-28.956
X90.551Y-34.417
X90.551Y-40.767
X90.551Y-49.022
X92.837Y-71.628
X94.742Y-48.768
X94.996Y-58.801
X95.758Y-34.798
X96.393Y-66.548
X96.52Y-74.93
T2
X40.518Y-71.958
X53.01Y-61.968
X54.437Y-61.064
X55.745Y-54.3
X56.25Y-73.261
X57.25Y-72.24
X57.897Y-54.3
X58.707Y-63.97
X58.875Y-71.361
X59.03Y-65.253
X59.751Y-54.3
X60.366Y-71.354
X61.41Y-54.3
X61.765Y-71.415
X62.448Y-61.968
X62.621Y-74.125
X62.664Y-56.548
X63.701Y-62.972
X63.706Y-50.17
X66.787Y-49.253
X67.836Y-63.061
X72.471Y-67.605
X75.524Y-66.573
X76.073Y-63.97
T3
X51.681Y-70.107
X52.553Y-59.563
X63.812Y-75.214
X70.853Y-57.81
X70.853Y-62.687
X89.342Y-81.346
T4
X49.233Y-59.936
X49.233Y-64.836
T5
X75.057Y-76.022
X75.057Y-78.562
X69.037Y-75.921
X69.037Y-78.461
X80.899Y-75.794
X80.899Y-78.334
T6
X57.0Y-36.835
X57.0Y-38.835
X59.5Y-36.835
X59.5Y-38.835
T7
X38.26Y-32.207
X38.26Y-34.697
X40.31Y-32.207
X42.91Y-32.207
X44.96Y-32.207
X44.96Y-34.697
T8
X47.582Y-75.214
X47.582Y-77.754
X47.582Y-80.294
X50.122Y-75.214
X50.122Y-77.754
X50.122Y-80.294
X34.145Y-62.499
X34.145Y-65.039
X34.145Y-67.579
X34.145Y-70.119
T9
X69.4Y-27.584
X69.4Y-52.984
X71.94Y-27.584
X71.94Y-52.984
X74.48Y-27.584
X74.48Y-52.984
X77.02Y-27.584
X77.02Y-52.984
X79.56Y-27.584
X79.56Y-52.984
X82.1Y-52.984
X84.64Y-52.984
X87.18Y-52.984
X89.72Y-52.984
T10
X52.23Y-34.125
X64.27Y-34.125
T11
X34.85Y-29.207
X41.61Y-28.397
X48.37Y-29.207
T12
X28.393Y-81.6
X28.4Y-28.4
X96.6Y-28.403
X96.6Y-81.6
T0
M30
