G04 #@! TF.GenerationSoftware,KiCad,Pcbnew,(5.1.5)-3*
G04 #@! TF.CreationDate,2021-12-10T20:30:37-03:00*
G04 #@! TF.ProjectId,remoto,72656d6f-746f-42e6-9b69-6361645f7063,rev?*
G04 #@! TF.SameCoordinates,Original*
G04 #@! TF.FileFunction,Legend,Top*
G04 #@! TF.FilePolarity,Positive*
%FSLAX46Y46*%
G04 Gerber Fmt 4.6, Leading zero omitted, Abs format (unit mm)*
G04 Created by KiCad (PCBNEW (5.1.5)-3) date 2021-12-10 20:30:37*
%MOMM*%
%LPD*%
G04 APERTURE LIST*
%ADD10C,0.250000*%
%ADD11C,0.150000*%
%ADD12C,0.120000*%
%ADD13C,0.200000*%
%ADD14C,0.100000*%
%ADD15C,0.254000*%
G04 APERTURE END LIST*
D10*
X35584571Y-38237976D02*
X35584571Y-36987976D01*
X36060761Y-36987976D01*
X36179809Y-37047500D01*
X36239333Y-37107023D01*
X36298857Y-37226071D01*
X36298857Y-37404642D01*
X36239333Y-37523690D01*
X36179809Y-37583214D01*
X36060761Y-37642738D01*
X35584571Y-37642738D01*
X37489333Y-38237976D02*
X36775047Y-38237976D01*
X37132190Y-38237976D02*
X37132190Y-36987976D01*
X37013142Y-37166547D01*
X36894095Y-37285595D01*
X36775047Y-37345119D01*
X39929809Y-37761785D02*
X40882190Y-37761785D01*
X42429809Y-37761785D02*
X43382190Y-37761785D01*
X42906000Y-38237976D02*
X42906000Y-37285595D01*
X45882190Y-38237976D02*
X45882190Y-36987976D01*
X46358380Y-36987976D01*
X46477428Y-37047500D01*
X46536952Y-37107023D01*
X46596476Y-37226071D01*
X46596476Y-37404642D01*
X46536952Y-37523690D01*
X46477428Y-37583214D01*
X46358380Y-37642738D01*
X45882190Y-37642738D01*
X47013142Y-36987976D02*
X47786952Y-36987976D01*
X47370285Y-37464166D01*
X47548857Y-37464166D01*
X47667904Y-37523690D01*
X47727428Y-37583214D01*
X47786952Y-37702261D01*
X47786952Y-37999880D01*
X47727428Y-38118928D01*
X47667904Y-38178452D01*
X47548857Y-38237976D01*
X47191714Y-38237976D01*
X47072666Y-38178452D01*
X47013142Y-38118928D01*
X35703619Y-40362976D02*
X35703619Y-39112976D01*
X36179809Y-39112976D01*
X36298857Y-39172500D01*
X36358380Y-39232023D01*
X36417904Y-39351071D01*
X36417904Y-39529642D01*
X36358380Y-39648690D01*
X36298857Y-39708214D01*
X36179809Y-39767738D01*
X35703619Y-39767738D01*
X37191714Y-39112976D02*
X37310761Y-39112976D01*
X37429809Y-39172500D01*
X37489333Y-39232023D01*
X37548857Y-39351071D01*
X37608380Y-39589166D01*
X37608380Y-39886785D01*
X37548857Y-40124880D01*
X37489333Y-40243928D01*
X37429809Y-40303452D01*
X37310761Y-40362976D01*
X37191714Y-40362976D01*
X37072666Y-40303452D01*
X37013142Y-40243928D01*
X36953619Y-40124880D01*
X36894095Y-39886785D01*
X36894095Y-39589166D01*
X36953619Y-39351071D01*
X37013142Y-39232023D01*
X37072666Y-39172500D01*
X37191714Y-39112976D01*
X45763142Y-40362976D02*
X45763142Y-39112976D01*
X46239333Y-39112976D01*
X46358380Y-39172500D01*
X46417904Y-39232023D01*
X46477428Y-39351071D01*
X46477428Y-39529642D01*
X46417904Y-39648690D01*
X46358380Y-39708214D01*
X46239333Y-39767738D01*
X45763142Y-39767738D01*
X46953619Y-39232023D02*
X47013142Y-39172500D01*
X47132190Y-39112976D01*
X47429809Y-39112976D01*
X47548857Y-39172500D01*
X47608380Y-39232023D01*
X47667904Y-39351071D01*
X47667904Y-39470119D01*
X47608380Y-39648690D01*
X46894095Y-40362976D01*
X47667904Y-40362976D01*
D11*
X60206095Y-41108380D02*
X60206095Y-41917904D01*
X60253714Y-42013142D01*
X60301333Y-42060761D01*
X60396571Y-42108380D01*
X60587047Y-42108380D01*
X60682285Y-42060761D01*
X60729904Y-42013142D01*
X60777523Y-41917904D01*
X60777523Y-41108380D01*
X61206095Y-42060761D02*
X61348952Y-42108380D01*
X61587047Y-42108380D01*
X61682285Y-42060761D01*
X61729904Y-42013142D01*
X61777523Y-41917904D01*
X61777523Y-41822666D01*
X61729904Y-41727428D01*
X61682285Y-41679809D01*
X61587047Y-41632190D01*
X61396571Y-41584571D01*
X61301333Y-41536952D01*
X61253714Y-41489333D01*
X61206095Y-41394095D01*
X61206095Y-41298857D01*
X61253714Y-41203619D01*
X61301333Y-41156000D01*
X61396571Y-41108380D01*
X61634666Y-41108380D01*
X61777523Y-41156000D01*
X62539428Y-41584571D02*
X62682285Y-41632190D01*
X62729904Y-41679809D01*
X62777523Y-41775047D01*
X62777523Y-41917904D01*
X62729904Y-42013142D01*
X62682285Y-42060761D01*
X62587047Y-42108380D01*
X62206095Y-42108380D01*
X62206095Y-41108380D01*
X62539428Y-41108380D01*
X62634666Y-41156000D01*
X62682285Y-41203619D01*
X62729904Y-41298857D01*
X62729904Y-41394095D01*
X62682285Y-41489333D01*
X62634666Y-41536952D01*
X62539428Y-41584571D01*
X62206095Y-41584571D01*
X80684073Y-74198740D02*
X80207882Y-74198740D01*
X80207882Y-73198740D01*
X81541216Y-74198740D02*
X80969787Y-74198740D01*
X81255501Y-74198740D02*
X81255501Y-73198740D01*
X81160263Y-73341598D01*
X81065025Y-73436836D01*
X80969787Y-73484455D01*
X73812542Y-74244460D02*
X73336352Y-74244460D01*
X73336352Y-73244460D01*
X74336352Y-73244460D02*
X74526828Y-73244460D01*
X74622066Y-73292080D01*
X74717304Y-73387318D01*
X74764923Y-73577794D01*
X74764923Y-73911127D01*
X74717304Y-74101603D01*
X74622066Y-74196841D01*
X74526828Y-74244460D01*
X74336352Y-74244460D01*
X74241114Y-74196841D01*
X74145876Y-74101603D01*
X74098257Y-73911127D01*
X74098257Y-73577794D01*
X74145876Y-73387318D01*
X74241114Y-73292080D01*
X74336352Y-73244460D01*
X75764923Y-74244460D02*
X75431590Y-73768270D01*
X75193495Y-74244460D02*
X75193495Y-73244460D01*
X75574447Y-73244460D01*
X75669685Y-73292080D01*
X75717304Y-73339699D01*
X75764923Y-73434937D01*
X75764923Y-73577794D01*
X75717304Y-73673032D01*
X75669685Y-73720651D01*
X75574447Y-73768270D01*
X75193495Y-73768270D01*
X76145876Y-73958746D02*
X76622066Y-73958746D01*
X76050638Y-74244460D02*
X76383971Y-73244460D01*
X76717304Y-74244460D01*
X66704816Y-74287640D02*
X66704816Y-73287640D01*
X67085768Y-73287640D01*
X67181006Y-73335260D01*
X67228625Y-73382879D01*
X67276244Y-73478117D01*
X67276244Y-73620974D01*
X67228625Y-73716212D01*
X67181006Y-73763831D01*
X67085768Y-73811450D01*
X66704816Y-73811450D01*
X67895292Y-73287640D02*
X68085768Y-73287640D01*
X68181006Y-73335260D01*
X68276244Y-73430498D01*
X68323863Y-73620974D01*
X68323863Y-73954307D01*
X68276244Y-74144783D01*
X68181006Y-74240021D01*
X68085768Y-74287640D01*
X67895292Y-74287640D01*
X67800054Y-74240021D01*
X67704816Y-74144783D01*
X67657197Y-73954307D01*
X67657197Y-73620974D01*
X67704816Y-73430498D01*
X67800054Y-73335260D01*
X67895292Y-73287640D01*
X68657197Y-73287640D02*
X68895292Y-74287640D01*
X69085768Y-73573355D01*
X69276244Y-74287640D01*
X69514340Y-73287640D01*
X69895292Y-73763831D02*
X70228625Y-73763831D01*
X70371482Y-74287640D02*
X69895292Y-74287640D01*
X69895292Y-73287640D01*
X70371482Y-73287640D01*
X71371482Y-74287640D02*
X71038149Y-73811450D01*
X70800054Y-74287640D02*
X70800054Y-73287640D01*
X71181006Y-73287640D01*
X71276244Y-73335260D01*
X71323863Y-73382879D01*
X71371482Y-73478117D01*
X71371482Y-73620974D01*
X71323863Y-73716212D01*
X71276244Y-73763831D01*
X71181006Y-73811450D01*
X70800054Y-73811450D01*
X93896440Y-65422280D02*
X93420250Y-65755614D01*
X93896440Y-65993709D02*
X92896440Y-65993709D01*
X92896440Y-65612757D01*
X92944060Y-65517519D01*
X92991679Y-65469900D01*
X93086917Y-65422280D01*
X93229774Y-65422280D01*
X93325012Y-65469900D01*
X93372631Y-65517519D01*
X93420250Y-65612757D01*
X93420250Y-65993709D01*
X93372631Y-64993709D02*
X93372631Y-64660376D01*
X93896440Y-64517519D02*
X93896440Y-64993709D01*
X92896440Y-64993709D01*
X92896440Y-64517519D01*
X93848821Y-64136566D02*
X93896440Y-63993709D01*
X93896440Y-63755614D01*
X93848821Y-63660376D01*
X93801202Y-63612757D01*
X93705964Y-63565138D01*
X93610726Y-63565138D01*
X93515488Y-63612757D01*
X93467869Y-63660376D01*
X93420250Y-63755614D01*
X93372631Y-63946090D01*
X93325012Y-64041328D01*
X93277393Y-64088947D01*
X93182155Y-64136566D01*
X93086917Y-64136566D01*
X92991679Y-64088947D01*
X92944060Y-64041328D01*
X92896440Y-63946090D01*
X92896440Y-63707995D01*
X92944060Y-63565138D01*
X93372631Y-63136566D02*
X93372631Y-62803233D01*
X93896440Y-62660376D02*
X93896440Y-63136566D01*
X92896440Y-63136566D01*
X92896440Y-62660376D01*
X92896440Y-62374661D02*
X92896440Y-61803233D01*
X93896440Y-62088947D02*
X92896440Y-62088947D01*
X30849320Y-71406117D02*
X31563606Y-71406117D01*
X31706463Y-71453736D01*
X31801701Y-71548974D01*
X31849320Y-71691831D01*
X31849320Y-71787069D01*
X31468368Y-70929926D02*
X31468368Y-70168021D01*
X31849320Y-69215640D02*
X31849320Y-69691831D01*
X30849320Y-69691831D01*
X31849320Y-68882307D02*
X30849320Y-68882307D01*
X31849320Y-68406117D02*
X30849320Y-68406117D01*
X31849320Y-67834688D01*
X30849320Y-67834688D01*
X31849320Y-67358498D02*
X30849320Y-67358498D01*
X31849320Y-66787069D02*
X31277892Y-67215640D01*
X30849320Y-66787069D02*
X31420749Y-67358498D01*
X36132924Y-69541140D02*
X36751972Y-69541140D01*
X36418639Y-69922093D01*
X36561496Y-69922093D01*
X36656734Y-69969712D01*
X36704353Y-70017331D01*
X36751972Y-70112569D01*
X36751972Y-70350664D01*
X36704353Y-70445902D01*
X36656734Y-70493521D01*
X36561496Y-70541140D01*
X36275781Y-70541140D01*
X36180543Y-70493521D01*
X36132924Y-70445902D01*
X37037686Y-69541140D02*
X37371020Y-70541140D01*
X37704353Y-69541140D01*
X37942448Y-69541140D02*
X38561496Y-69541140D01*
X38228162Y-69922093D01*
X38371020Y-69922093D01*
X38466258Y-69969712D01*
X38513877Y-70017331D01*
X38561496Y-70112569D01*
X38561496Y-70350664D01*
X38513877Y-70445902D01*
X38466258Y-70493521D01*
X38371020Y-70541140D01*
X38085305Y-70541140D01*
X37990067Y-70493521D01*
X37942448Y-70445902D01*
X36140972Y-68024641D02*
X36283829Y-68072260D01*
X36521924Y-68072260D01*
X36617162Y-68024641D01*
X36664781Y-67977022D01*
X36712400Y-67881784D01*
X36712400Y-67786546D01*
X36664781Y-67691308D01*
X36617162Y-67643689D01*
X36521924Y-67596070D01*
X36331448Y-67548451D01*
X36236210Y-67500832D01*
X36188591Y-67453213D01*
X36140972Y-67357975D01*
X36140972Y-67262737D01*
X36188591Y-67167499D01*
X36236210Y-67119880D01*
X36331448Y-67072260D01*
X36569543Y-67072260D01*
X36712400Y-67119880D01*
X37045734Y-67072260D02*
X37283829Y-68072260D01*
X37474305Y-67357975D01*
X37664781Y-68072260D01*
X37902877Y-67072260D01*
X38283829Y-68072260D02*
X38283829Y-67072260D01*
X38521924Y-67072260D01*
X38664781Y-67119880D01*
X38760020Y-67215118D01*
X38807639Y-67310356D01*
X38855258Y-67500832D01*
X38855258Y-67643689D01*
X38807639Y-67834165D01*
X38760020Y-67929403D01*
X38664781Y-68024641D01*
X38521924Y-68072260D01*
X38283829Y-68072260D01*
X39283829Y-68072260D02*
X39283829Y-67072260D01*
X39950496Y-67072260D02*
X40140972Y-67072260D01*
X40236210Y-67119880D01*
X40331448Y-67215118D01*
X40379067Y-67405594D01*
X40379067Y-67738927D01*
X40331448Y-67929403D01*
X40236210Y-68024641D01*
X40140972Y-68072260D01*
X39950496Y-68072260D01*
X39855258Y-68024641D01*
X39760020Y-67929403D01*
X39712400Y-67738927D01*
X39712400Y-67405594D01*
X39760020Y-67215118D01*
X39855258Y-67119880D01*
X39950496Y-67072260D01*
X36084855Y-65604021D02*
X36227712Y-65651640D01*
X36465807Y-65651640D01*
X36561045Y-65604021D01*
X36608664Y-65556402D01*
X36656283Y-65461164D01*
X36656283Y-65365926D01*
X36608664Y-65270688D01*
X36561045Y-65223069D01*
X36465807Y-65175450D01*
X36275331Y-65127831D01*
X36180093Y-65080212D01*
X36132474Y-65032593D01*
X36084855Y-64937355D01*
X36084855Y-64842117D01*
X36132474Y-64746879D01*
X36180093Y-64699260D01*
X36275331Y-64651640D01*
X36513426Y-64651640D01*
X36656283Y-64699260D01*
X36989617Y-64651640D02*
X37227712Y-65651640D01*
X37418188Y-64937355D01*
X37608664Y-65651640D01*
X37846760Y-64651640D01*
X38227712Y-65651640D02*
X38227712Y-64651640D01*
X38465807Y-64651640D01*
X38608664Y-64699260D01*
X38703902Y-64794498D01*
X38751521Y-64889736D01*
X38799140Y-65080212D01*
X38799140Y-65223069D01*
X38751521Y-65413545D01*
X38703902Y-65508783D01*
X38608664Y-65604021D01*
X38465807Y-65651640D01*
X38227712Y-65651640D01*
X39799140Y-65556402D02*
X39751521Y-65604021D01*
X39608664Y-65651640D01*
X39513426Y-65651640D01*
X39370569Y-65604021D01*
X39275331Y-65508783D01*
X39227712Y-65413545D01*
X39180093Y-65223069D01*
X39180093Y-65080212D01*
X39227712Y-64889736D01*
X39275331Y-64794498D01*
X39370569Y-64699260D01*
X39513426Y-64651640D01*
X39608664Y-64651640D01*
X39751521Y-64699260D01*
X39799140Y-64746879D01*
X40703902Y-65651640D02*
X40227712Y-65651640D01*
X40227712Y-64651640D01*
X41037236Y-65651640D02*
X41037236Y-64651640D01*
X41608664Y-65651640D02*
X41180093Y-65080212D01*
X41608664Y-64651640D02*
X41037236Y-65223069D01*
X36634515Y-62052580D02*
X36539277Y-62004960D01*
X36396420Y-62004960D01*
X36253562Y-62052580D01*
X36158324Y-62147818D01*
X36110705Y-62243056D01*
X36063086Y-62433532D01*
X36063086Y-62576389D01*
X36110705Y-62766865D01*
X36158324Y-62862103D01*
X36253562Y-62957341D01*
X36396420Y-63004960D01*
X36491658Y-63004960D01*
X36634515Y-62957341D01*
X36682134Y-62909722D01*
X36682134Y-62576389D01*
X36491658Y-62576389D01*
X37110705Y-63004960D02*
X37110705Y-62004960D01*
X37682134Y-63004960D01*
X37682134Y-62004960D01*
X38158324Y-63004960D02*
X38158324Y-62004960D01*
X38396420Y-62004960D01*
X38539277Y-62052580D01*
X38634515Y-62147818D01*
X38682134Y-62243056D01*
X38729753Y-62433532D01*
X38729753Y-62576389D01*
X38682134Y-62766865D01*
X38634515Y-62862103D01*
X38539277Y-62957341D01*
X38396420Y-63004960D01*
X38158324Y-63004960D01*
X53150734Y-80772260D02*
X52579305Y-80772260D01*
X52865020Y-80772260D02*
X52865020Y-79772260D01*
X52769781Y-79915118D01*
X52674543Y-80010356D01*
X52579305Y-80057975D01*
X52938039Y-75482699D02*
X52842800Y-75482699D01*
X52747562Y-75435080D01*
X52699943Y-75387460D01*
X52652324Y-75292222D01*
X52604705Y-75101746D01*
X52604705Y-74863651D01*
X52652324Y-74673175D01*
X52699943Y-74577937D01*
X52747562Y-74530318D01*
X52842800Y-74482699D01*
X52938039Y-74482699D01*
X53033277Y-74530318D01*
X53080896Y-74577937D01*
X53128515Y-74673175D01*
X53176134Y-74863651D01*
X53176134Y-75101746D01*
X53128515Y-75292222D01*
X53080896Y-75387460D01*
X53033277Y-75435080D01*
X52938039Y-75482699D01*
X43169531Y-79656393D02*
X43217150Y-79513536D01*
X43264769Y-79465917D01*
X43360007Y-79418298D01*
X43502864Y-79418298D01*
X43598102Y-79465917D01*
X43645721Y-79513536D01*
X43693340Y-79608774D01*
X43693340Y-79989726D01*
X42693340Y-79989726D01*
X42693340Y-79656393D01*
X42740960Y-79561155D01*
X42788579Y-79513536D01*
X42883817Y-79465917D01*
X42979055Y-79465917D01*
X43074293Y-79513536D01*
X43121912Y-79561155D01*
X43169531Y-79656393D01*
X43169531Y-79989726D01*
X42693340Y-78799250D02*
X42693340Y-78608774D01*
X42740960Y-78513536D01*
X42836198Y-78418298D01*
X43026674Y-78370679D01*
X43360007Y-78370679D01*
X43550483Y-78418298D01*
X43645721Y-78513536D01*
X43693340Y-78608774D01*
X43693340Y-78799250D01*
X43645721Y-78894488D01*
X43550483Y-78989726D01*
X43360007Y-79037345D01*
X43026674Y-79037345D01*
X42836198Y-78989726D01*
X42740960Y-78894488D01*
X42693340Y-78799250D01*
X42693340Y-77751631D02*
X42693340Y-77561155D01*
X42740960Y-77465917D01*
X42836198Y-77370679D01*
X43026674Y-77323060D01*
X43360007Y-77323060D01*
X43550483Y-77370679D01*
X43645721Y-77465917D01*
X43693340Y-77561155D01*
X43693340Y-77751631D01*
X43645721Y-77846869D01*
X43550483Y-77942107D01*
X43360007Y-77989726D01*
X43026674Y-77989726D01*
X42836198Y-77942107D01*
X42740960Y-77846869D01*
X42693340Y-77751631D01*
X42693340Y-77037345D02*
X42693340Y-76465917D01*
X43693340Y-76751631D02*
X42693340Y-76751631D01*
X43693340Y-75608774D02*
X43693340Y-76180202D01*
X43693340Y-75894488D02*
X42693340Y-75894488D01*
X42836198Y-75989726D01*
X42931436Y-76084964D01*
X42979055Y-76180202D01*
X54205831Y-79437953D02*
X54253450Y-79295096D01*
X54301069Y-79247477D01*
X54396307Y-79199858D01*
X54539164Y-79199858D01*
X54634402Y-79247477D01*
X54682021Y-79295096D01*
X54729640Y-79390334D01*
X54729640Y-79771286D01*
X53729640Y-79771286D01*
X53729640Y-79437953D01*
X53777260Y-79342715D01*
X53824879Y-79295096D01*
X53920117Y-79247477D01*
X54015355Y-79247477D01*
X54110593Y-79295096D01*
X54158212Y-79342715D01*
X54205831Y-79437953D01*
X54205831Y-79771286D01*
X53729640Y-78580810D02*
X53729640Y-78390334D01*
X53777260Y-78295096D01*
X53872498Y-78199858D01*
X54062974Y-78152239D01*
X54396307Y-78152239D01*
X54586783Y-78199858D01*
X54682021Y-78295096D01*
X54729640Y-78390334D01*
X54729640Y-78580810D01*
X54682021Y-78676048D01*
X54586783Y-78771286D01*
X54396307Y-78818905D01*
X54062974Y-78818905D01*
X53872498Y-78771286D01*
X53777260Y-78676048D01*
X53729640Y-78580810D01*
X53729640Y-77533191D02*
X53729640Y-77342715D01*
X53777260Y-77247477D01*
X53872498Y-77152239D01*
X54062974Y-77104620D01*
X54396307Y-77104620D01*
X54586783Y-77152239D01*
X54682021Y-77247477D01*
X54729640Y-77342715D01*
X54729640Y-77533191D01*
X54682021Y-77628429D01*
X54586783Y-77723667D01*
X54396307Y-77771286D01*
X54062974Y-77771286D01*
X53872498Y-77723667D01*
X53777260Y-77628429D01*
X53729640Y-77533191D01*
X53729640Y-76818905D02*
X53729640Y-76247477D01*
X54729640Y-76533191D02*
X53729640Y-76533191D01*
X53729640Y-75723667D02*
X53729640Y-75628429D01*
X53777260Y-75533191D01*
X53824879Y-75485572D01*
X53920117Y-75437953D01*
X54110593Y-75390334D01*
X54348688Y-75390334D01*
X54539164Y-75437953D01*
X54634402Y-75485572D01*
X54682021Y-75533191D01*
X54729640Y-75628429D01*
X54729640Y-75723667D01*
X54682021Y-75818905D01*
X54634402Y-75866524D01*
X54539164Y-75914143D01*
X54348688Y-75961762D01*
X54110593Y-75961762D01*
X53920117Y-75914143D01*
X53824879Y-75866524D01*
X53777260Y-75818905D01*
X53729640Y-75723667D01*
X45022734Y-80823060D02*
X44451305Y-80823060D01*
X44737020Y-80823060D02*
X44737020Y-79823060D01*
X44641781Y-79965918D01*
X44546543Y-80061156D01*
X44451305Y-80108775D01*
X44810039Y-75533499D02*
X44714800Y-75533499D01*
X44619562Y-75485880D01*
X44571943Y-75438260D01*
X44524324Y-75343022D01*
X44476705Y-75152546D01*
X44476705Y-74914451D01*
X44524324Y-74723975D01*
X44571943Y-74628737D01*
X44619562Y-74581118D01*
X44714800Y-74533499D01*
X44810039Y-74533499D01*
X44905277Y-74581118D01*
X44952896Y-74628737D01*
X45000515Y-74723975D01*
X45048134Y-74914451D01*
X45048134Y-75152546D01*
X45000515Y-75343022D01*
X44952896Y-75438260D01*
X44905277Y-75485880D01*
X44810039Y-75533499D01*
D12*
X87852640Y-60998800D02*
X91552640Y-60998800D01*
X87852640Y-67118800D02*
X87852640Y-60998800D01*
X91552640Y-67118800D02*
X87852640Y-67118800D01*
X91552640Y-60998800D02*
X91552640Y-67118800D01*
X40298100Y-48457060D02*
X40298100Y-43057060D01*
X43598100Y-48457060D02*
X43598100Y-43057060D01*
X40298100Y-48457060D02*
X43598100Y-48457060D01*
X46707820Y-65511380D02*
G75*
G03X51757820Y-65511380I2525000J0D01*
G01*
X46707820Y-59261380D02*
G75*
G02X51757820Y-59261380I2525000J0D01*
G01*
X46707820Y-59261380D02*
X46707820Y-65511380D01*
X51757820Y-59261380D02*
X51757820Y-65511380D01*
X57535420Y-60560980D02*
X56245420Y-60560980D01*
X57535420Y-60110980D02*
X57535420Y-60560980D01*
X57985420Y-60110980D02*
X57535420Y-60110980D01*
X64755420Y-60110980D02*
X64755420Y-60560980D01*
X64305420Y-60110980D02*
X64755420Y-60110980D01*
X57535420Y-67330980D02*
X57535420Y-66880980D01*
X57985420Y-67330980D02*
X57535420Y-67330980D01*
X64755420Y-67330980D02*
X64755420Y-66880980D01*
X64305420Y-67330980D02*
X64755420Y-67330980D01*
X28467000Y-50284820D02*
X28467000Y-44274820D01*
X35287000Y-48034820D02*
X35287000Y-44274820D01*
X28467000Y-44274820D02*
X29727000Y-44274820D01*
X35287000Y-44274820D02*
X34027000Y-44274820D01*
X68327200Y-81783422D02*
X68327200Y-82300578D01*
X69747200Y-81783422D02*
X69747200Y-82300578D01*
X74347000Y-81783422D02*
X74347000Y-82300578D01*
X75767000Y-81783422D02*
X75767000Y-82300578D01*
X80189000Y-81758022D02*
X80189000Y-82275178D01*
X81609000Y-81758022D02*
X81609000Y-82275178D01*
X39823320Y-76563722D02*
X39823320Y-77080878D01*
X41243320Y-76563722D02*
X41243320Y-77080878D01*
X67491680Y-52303178D02*
X67491680Y-51786022D01*
X66071680Y-52303178D02*
X66071680Y-51786022D01*
X58789500Y-45293782D02*
X58789500Y-45810938D01*
X60209500Y-45293782D02*
X60209500Y-45810938D01*
X63575000Y-45892218D02*
X63575000Y-45375062D01*
X62155000Y-45892218D02*
X62155000Y-45375062D01*
X56926982Y-78441620D02*
X57444138Y-78441620D01*
X56926982Y-77021620D02*
X57444138Y-77021620D01*
X90417720Y-72056758D02*
X90417720Y-71539602D01*
X88997720Y-72056758D02*
X88997720Y-71539602D01*
D13*
X33309800Y-32207200D02*
G75*
G02X33509800Y-32207200I100000J0D01*
G01*
X33509800Y-32207200D02*
G75*
G02X33309800Y-32207200I-100000J0D01*
G01*
X33509800Y-32207200D02*
X33509800Y-32207200D01*
X33309800Y-32207200D02*
X33309800Y-32207200D01*
D14*
X34609800Y-35717200D02*
X34609800Y-31397200D01*
X48609800Y-35717200D02*
X34609800Y-35717200D01*
X48609800Y-31397200D02*
X48609800Y-35717200D01*
X34609800Y-22897200D02*
X34609800Y-26897200D01*
X48609800Y-22887200D02*
X34609800Y-22897200D01*
X48609800Y-26897200D02*
X48609800Y-22887200D01*
D12*
X51451820Y-81624480D02*
X50121820Y-81624480D01*
X51451820Y-80294480D02*
X51451820Y-81624480D01*
X48851820Y-81624480D02*
X46251820Y-81624480D01*
X48851820Y-79024480D02*
X48851820Y-81624480D01*
X51451820Y-79024480D02*
X48851820Y-79024480D01*
X46251820Y-81624480D02*
X46251820Y-73884480D01*
X51451820Y-79024480D02*
X51451820Y-73884480D01*
X51451820Y-73884480D02*
X46251820Y-73884480D01*
X64410000Y-23715000D02*
X64410000Y-32075000D01*
X52090000Y-36175000D02*
X52090000Y-40435000D01*
X52090000Y-32075000D02*
X52090000Y-23715000D01*
X57000000Y-40655000D02*
X56500000Y-41155000D01*
X64410000Y-40435000D02*
X64410000Y-36175000D01*
X52090000Y-40435000D02*
X64410000Y-40435000D01*
X57500000Y-41155000D02*
X57000000Y-40655000D01*
X52090000Y-23715000D02*
X64410000Y-23715000D01*
X56500000Y-41155000D02*
X57500000Y-41155000D01*
X35475220Y-71449240D02*
X34145220Y-71449240D01*
X35475220Y-70119240D02*
X35475220Y-71449240D01*
X35475220Y-68849240D02*
X32815220Y-68849240D01*
X32815220Y-68849240D02*
X32815220Y-61169240D01*
X35475220Y-68849240D02*
X35475220Y-61169240D01*
X35475220Y-61169240D02*
X32815220Y-61169240D01*
D14*
X66860000Y-25044400D02*
X92260000Y-25044400D01*
X92260000Y-25044400D02*
X92260000Y-55524400D01*
X92260000Y-55524400D02*
X66860000Y-55524400D01*
X66860000Y-55524400D02*
X66860000Y-25044400D01*
D12*
X67957363Y-78231730D02*
G75*
G02X67957200Y-76149639I1079837J1041130D01*
G01*
X70117037Y-78231730D02*
G75*
G03X70117200Y-76149639I-1079837J1041130D01*
G01*
X67958592Y-78862935D02*
G75*
G02X67801684Y-75630600I1078608J1672335D01*
G01*
X70115808Y-78862935D02*
G75*
G03X70272716Y-75630600I-1078608J1672335D01*
G01*
X67957200Y-75630600D02*
X67801200Y-75630600D01*
X70273200Y-75630600D02*
X70117200Y-75630600D01*
X73977000Y-75732200D02*
X73821000Y-75732200D01*
X76293000Y-75732200D02*
X76137000Y-75732200D01*
X73977163Y-78333330D02*
G75*
G02X73977000Y-76251239I1079837J1041130D01*
G01*
X76136837Y-78333330D02*
G75*
G03X76137000Y-76251239I-1079837J1041130D01*
G01*
X73978392Y-78964535D02*
G75*
G02X73821484Y-75732200I1078608J1672335D01*
G01*
X76135608Y-78964535D02*
G75*
G03X76292516Y-75732200I-1078608J1672335D01*
G01*
X79819000Y-75503600D02*
X79663000Y-75503600D01*
X82135000Y-75503600D02*
X81979000Y-75503600D01*
X79819163Y-78104730D02*
G75*
G02X79819000Y-76022639I1079837J1041130D01*
G01*
X81978837Y-78104730D02*
G75*
G03X81979000Y-76022639I-1079837J1041130D01*
G01*
X79820392Y-78735935D02*
G75*
G02X79663484Y-75503600I1078608J1672335D01*
G01*
X81977608Y-78735935D02*
G75*
G03X82134516Y-75503600I-1078608J1672335D01*
G01*
X45875940Y-48451980D02*
X45875940Y-43051980D01*
X49175940Y-48451980D02*
X49175940Y-43051980D01*
X45875940Y-48451980D02*
X49175940Y-48451980D01*
X55322540Y-58884318D02*
X55322540Y-58367162D01*
X53902540Y-58884318D02*
X53902540Y-58367162D01*
X54491960Y-67228218D02*
X54491960Y-66711062D01*
X53071960Y-67228218D02*
X53071960Y-66711062D01*
X65010798Y-70128060D02*
X64493642Y-70128060D01*
X65010798Y-71548060D02*
X64493642Y-71548060D01*
X67694740Y-60282322D02*
X67694740Y-60799478D01*
X69114740Y-60282322D02*
X69114740Y-60799478D01*
X44843198Y-64103180D02*
X44326042Y-64103180D01*
X44843198Y-65523180D02*
X44326042Y-65523180D01*
X44843198Y-59226380D02*
X44326042Y-59226380D01*
X44843198Y-60646380D02*
X44326042Y-60646380D01*
X31167000Y-53439562D02*
X31167000Y-53956718D01*
X32587000Y-53439562D02*
X32587000Y-53956718D01*
X33453000Y-53439562D02*
X33453000Y-53956718D01*
X34873000Y-53439562D02*
X34873000Y-53956718D01*
X31367800Y-63687458D02*
X31367800Y-63170302D01*
X29947800Y-63687458D02*
X29947800Y-63170302D01*
X85642520Y-63283598D02*
X85642520Y-62766442D01*
X84222520Y-63283598D02*
X84222520Y-62766442D01*
D11*
X88602986Y-58880641D02*
X88745843Y-58928260D01*
X88983939Y-58928260D01*
X89079177Y-58880641D01*
X89126796Y-58833022D01*
X89174415Y-58737784D01*
X89174415Y-58642546D01*
X89126796Y-58547308D01*
X89079177Y-58499689D01*
X88983939Y-58452070D01*
X88793462Y-58404451D01*
X88698224Y-58356832D01*
X88650605Y-58309213D01*
X88602986Y-58213975D01*
X88602986Y-58118737D01*
X88650605Y-58023499D01*
X88698224Y-57975880D01*
X88793462Y-57928260D01*
X89031558Y-57928260D01*
X89174415Y-57975880D01*
X89507748Y-57928260D02*
X89745843Y-58928260D01*
X89936320Y-58213975D01*
X90126796Y-58928260D01*
X90364891Y-57928260D01*
X91269653Y-58928260D02*
X90698224Y-58928260D01*
X90983939Y-58928260D02*
X90983939Y-57928260D01*
X90888700Y-58071118D01*
X90793462Y-58166356D01*
X90698224Y-58213975D01*
X39900480Y-45795155D02*
X38900480Y-45795155D01*
X38900480Y-45557060D01*
X38948100Y-45414202D01*
X39043338Y-45318964D01*
X39138576Y-45271345D01*
X39329052Y-45223726D01*
X39471909Y-45223726D01*
X39662385Y-45271345D01*
X39757623Y-45318964D01*
X39852861Y-45414202D01*
X39900480Y-45557060D01*
X39900480Y-45795155D01*
X38900480Y-44318964D02*
X38900480Y-44795155D01*
X39376671Y-44842774D01*
X39329052Y-44795155D01*
X39281433Y-44699917D01*
X39281433Y-44461821D01*
X39329052Y-44366583D01*
X39376671Y-44318964D01*
X39471909Y-44271345D01*
X39710004Y-44271345D01*
X39805242Y-44318964D01*
X39852861Y-44366583D01*
X39900480Y-44461821D01*
X39900480Y-44699917D01*
X39852861Y-44795155D01*
X39805242Y-44842774D01*
X45729210Y-57720170D02*
X46205400Y-57720170D01*
X45205400Y-58053503D02*
X45729210Y-57720170D01*
X45205400Y-57386837D01*
X46205400Y-56529694D02*
X46205400Y-57101122D01*
X46205400Y-56815408D02*
X45205400Y-56815408D01*
X45348258Y-56910646D01*
X45443496Y-57005884D01*
X45491115Y-57101122D01*
X60383515Y-57323360D02*
X60383515Y-58132884D01*
X60431134Y-58228122D01*
X60478753Y-58275741D01*
X60573991Y-58323360D01*
X60764467Y-58323360D01*
X60859705Y-58275741D01*
X60907324Y-58228122D01*
X60954943Y-58132884D01*
X60954943Y-57323360D01*
X61383515Y-57418599D02*
X61431134Y-57370980D01*
X61526372Y-57323360D01*
X61764467Y-57323360D01*
X61859705Y-57370980D01*
X61907324Y-57418599D01*
X61954943Y-57513837D01*
X61954943Y-57609075D01*
X61907324Y-57751932D01*
X61335896Y-58323360D01*
X61954943Y-58323360D01*
X26829380Y-46946724D02*
X27638904Y-46946724D01*
X27734142Y-46899105D01*
X27781761Y-46851486D01*
X27829380Y-46756248D01*
X27829380Y-46565772D01*
X27781761Y-46470534D01*
X27734142Y-46422915D01*
X27638904Y-46375296D01*
X26829380Y-46375296D01*
X27829380Y-45375296D02*
X27829380Y-45946724D01*
X27829380Y-45661010D02*
X26829380Y-45661010D01*
X26972238Y-45756248D01*
X27067476Y-45851486D01*
X27115095Y-45946724D01*
X71139580Y-82208666D02*
X70663390Y-82542000D01*
X71139580Y-82780095D02*
X70139580Y-82780095D01*
X70139580Y-82399142D01*
X70187200Y-82303904D01*
X70234819Y-82256285D01*
X70330057Y-82208666D01*
X70472914Y-82208666D01*
X70568152Y-82256285D01*
X70615771Y-82303904D01*
X70663390Y-82399142D01*
X70663390Y-82780095D01*
X71139580Y-81732476D02*
X71139580Y-81542000D01*
X71091961Y-81446761D01*
X71044342Y-81399142D01*
X70901485Y-81303904D01*
X70711009Y-81256285D01*
X70330057Y-81256285D01*
X70234819Y-81303904D01*
X70187200Y-81351523D01*
X70139580Y-81446761D01*
X70139580Y-81637238D01*
X70187200Y-81732476D01*
X70234819Y-81780095D01*
X70330057Y-81827714D01*
X70568152Y-81827714D01*
X70663390Y-81780095D01*
X70711009Y-81732476D01*
X70758628Y-81637238D01*
X70758628Y-81446761D01*
X70711009Y-81351523D01*
X70663390Y-81303904D01*
X70568152Y-81256285D01*
X77159380Y-82208666D02*
X76683190Y-82542000D01*
X77159380Y-82780095D02*
X76159380Y-82780095D01*
X76159380Y-82399142D01*
X76207000Y-82303904D01*
X76254619Y-82256285D01*
X76349857Y-82208666D01*
X76492714Y-82208666D01*
X76587952Y-82256285D01*
X76635571Y-82303904D01*
X76683190Y-82399142D01*
X76683190Y-82780095D01*
X76587952Y-81637238D02*
X76540333Y-81732476D01*
X76492714Y-81780095D01*
X76397476Y-81827714D01*
X76349857Y-81827714D01*
X76254619Y-81780095D01*
X76207000Y-81732476D01*
X76159380Y-81637238D01*
X76159380Y-81446761D01*
X76207000Y-81351523D01*
X76254619Y-81303904D01*
X76349857Y-81256285D01*
X76397476Y-81256285D01*
X76492714Y-81303904D01*
X76540333Y-81351523D01*
X76587952Y-81446761D01*
X76587952Y-81637238D01*
X76635571Y-81732476D01*
X76683190Y-81780095D01*
X76778428Y-81827714D01*
X76968904Y-81827714D01*
X77064142Y-81780095D01*
X77111761Y-81732476D01*
X77159380Y-81637238D01*
X77159380Y-81446761D01*
X77111761Y-81351523D01*
X77064142Y-81303904D01*
X76968904Y-81256285D01*
X76778428Y-81256285D01*
X76683190Y-81303904D01*
X76635571Y-81351523D01*
X76587952Y-81446761D01*
X83001380Y-82183266D02*
X82525190Y-82516600D01*
X83001380Y-82754695D02*
X82001380Y-82754695D01*
X82001380Y-82373742D01*
X82049000Y-82278504D01*
X82096619Y-82230885D01*
X82191857Y-82183266D01*
X82334714Y-82183266D01*
X82429952Y-82230885D01*
X82477571Y-82278504D01*
X82525190Y-82373742D01*
X82525190Y-82754695D01*
X82001380Y-81849933D02*
X82001380Y-81183266D01*
X83001380Y-81611838D01*
X39428680Y-76996586D02*
X38952490Y-77329920D01*
X39428680Y-77568015D02*
X38428680Y-77568015D01*
X38428680Y-77187062D01*
X38476300Y-77091824D01*
X38523919Y-77044205D01*
X38619157Y-76996586D01*
X38762014Y-76996586D01*
X38857252Y-77044205D01*
X38904871Y-77091824D01*
X38952490Y-77187062D01*
X38952490Y-77568015D01*
X38428680Y-76139443D02*
X38428680Y-76329920D01*
X38476300Y-76425158D01*
X38523919Y-76472777D01*
X38666776Y-76568015D01*
X38857252Y-76615634D01*
X39238204Y-76615634D01*
X39333442Y-76568015D01*
X39381061Y-76520396D01*
X39428680Y-76425158D01*
X39428680Y-76234681D01*
X39381061Y-76139443D01*
X39333442Y-76091824D01*
X39238204Y-76044205D01*
X39000109Y-76044205D01*
X38904871Y-76091824D01*
X38857252Y-76139443D01*
X38809633Y-76234681D01*
X38809633Y-76425158D01*
X38857252Y-76520396D01*
X38904871Y-76568015D01*
X39000109Y-76615634D01*
X65584060Y-52211266D02*
X65107870Y-52544600D01*
X65584060Y-52782695D02*
X64584060Y-52782695D01*
X64584060Y-52401742D01*
X64631680Y-52306504D01*
X64679299Y-52258885D01*
X64774537Y-52211266D01*
X64917394Y-52211266D01*
X65012632Y-52258885D01*
X65060251Y-52306504D01*
X65107870Y-52401742D01*
X65107870Y-52782695D01*
X64584060Y-51306504D02*
X64584060Y-51782695D01*
X65060251Y-51830314D01*
X65012632Y-51782695D01*
X64965013Y-51687457D01*
X64965013Y-51449361D01*
X65012632Y-51354123D01*
X65060251Y-51306504D01*
X65155489Y-51258885D01*
X65393584Y-51258885D01*
X65488822Y-51306504D01*
X65536441Y-51354123D01*
X65584060Y-51449361D01*
X65584060Y-51687457D01*
X65536441Y-51782695D01*
X65488822Y-51830314D01*
X61601880Y-45719026D02*
X61125690Y-46052360D01*
X61601880Y-46290455D02*
X60601880Y-46290455D01*
X60601880Y-45909502D01*
X60649500Y-45814264D01*
X60697119Y-45766645D01*
X60792357Y-45719026D01*
X60935214Y-45719026D01*
X61030452Y-45766645D01*
X61078071Y-45814264D01*
X61125690Y-45909502D01*
X61125690Y-46290455D01*
X60935214Y-44861883D02*
X61601880Y-44861883D01*
X60554261Y-45099979D02*
X61268547Y-45338074D01*
X61268547Y-44719026D01*
X65146180Y-45774906D02*
X64669990Y-46108240D01*
X65146180Y-46346335D02*
X64146180Y-46346335D01*
X64146180Y-45965382D01*
X64193800Y-45870144D01*
X64241419Y-45822525D01*
X64336657Y-45774906D01*
X64479514Y-45774906D01*
X64574752Y-45822525D01*
X64622371Y-45870144D01*
X64669990Y-45965382D01*
X64669990Y-46346335D01*
X64146180Y-45441573D02*
X64146180Y-44822525D01*
X64527133Y-45155859D01*
X64527133Y-45013001D01*
X64574752Y-44917763D01*
X64622371Y-44870144D01*
X64717609Y-44822525D01*
X64955704Y-44822525D01*
X65050942Y-44870144D01*
X65098561Y-44917763D01*
X65146180Y-45013001D01*
X65146180Y-45298716D01*
X65098561Y-45393954D01*
X65050942Y-45441573D01*
X57034133Y-79880720D02*
X56700800Y-79404530D01*
X56462704Y-79880720D02*
X56462704Y-78880720D01*
X56843657Y-78880720D01*
X56938895Y-78928340D01*
X56986514Y-78975959D01*
X57034133Y-79071197D01*
X57034133Y-79214054D01*
X56986514Y-79309292D01*
X56938895Y-79356911D01*
X56843657Y-79404530D01*
X56462704Y-79404530D01*
X57415085Y-78975959D02*
X57462704Y-78928340D01*
X57557942Y-78880720D01*
X57796038Y-78880720D01*
X57891276Y-78928340D01*
X57938895Y-78975959D01*
X57986514Y-79071197D01*
X57986514Y-79166435D01*
X57938895Y-79309292D01*
X57367466Y-79880720D01*
X57986514Y-79880720D01*
X88510100Y-71964846D02*
X88033910Y-72298180D01*
X88510100Y-72536275D02*
X87510100Y-72536275D01*
X87510100Y-72155322D01*
X87557720Y-72060084D01*
X87605339Y-72012465D01*
X87700577Y-71964846D01*
X87843434Y-71964846D01*
X87938672Y-72012465D01*
X87986291Y-72060084D01*
X88033910Y-72155322D01*
X88033910Y-72536275D01*
X88510100Y-71012465D02*
X88510100Y-71583894D01*
X88510100Y-71298180D02*
X87510100Y-71298180D01*
X87652958Y-71393418D01*
X87748196Y-71488656D01*
X87795815Y-71583894D01*
D15*
X32723666Y-34356523D02*
X32723666Y-35263666D01*
X32663190Y-35445095D01*
X32542238Y-35566047D01*
X32360809Y-35626523D01*
X32239857Y-35626523D01*
X33872714Y-34779857D02*
X33872714Y-35626523D01*
X33570333Y-34296047D02*
X33267952Y-35203190D01*
X34054142Y-35203190D01*
D11*
X48518486Y-82076860D02*
X48518486Y-82791146D01*
X48470867Y-82934003D01*
X48375629Y-83029241D01*
X48232772Y-83076860D01*
X48137534Y-83076860D01*
X48899439Y-82076860D02*
X49518486Y-82076860D01*
X49185153Y-82457813D01*
X49328010Y-82457813D01*
X49423248Y-82505432D01*
X49470867Y-82553051D01*
X49518486Y-82648289D01*
X49518486Y-82886384D01*
X49470867Y-82981622D01*
X49423248Y-83029241D01*
X49328010Y-83076860D01*
X49042296Y-83076860D01*
X48947058Y-83029241D01*
X48899439Y-82981622D01*
X50720666Y-39457380D02*
X50720666Y-40171666D01*
X50673047Y-40314523D01*
X50577809Y-40409761D01*
X50434952Y-40457380D01*
X50339714Y-40457380D01*
X51149238Y-39552619D02*
X51196857Y-39505000D01*
X51292095Y-39457380D01*
X51530190Y-39457380D01*
X51625428Y-39505000D01*
X51673047Y-39552619D01*
X51720666Y-39647857D01*
X51720666Y-39743095D01*
X51673047Y-39885952D01*
X51101619Y-40457380D01*
X51720666Y-40457380D01*
X33867766Y-59520840D02*
X33867766Y-60235126D01*
X33820147Y-60377983D01*
X33724909Y-60473221D01*
X33582052Y-60520840D01*
X33486814Y-60520840D01*
X34867766Y-60520840D02*
X34296338Y-60520840D01*
X34582052Y-60520840D02*
X34582052Y-59520840D01*
X34486814Y-59663698D01*
X34391576Y-59758936D01*
X34296338Y-59806555D01*
D15*
X78320238Y-40858923D02*
X78320238Y-39588923D01*
X79650714Y-40737971D02*
X79590238Y-40798447D01*
X79408809Y-40858923D01*
X79287857Y-40858923D01*
X79106428Y-40798447D01*
X78985476Y-40677495D01*
X78925000Y-40556542D01*
X78864523Y-40314638D01*
X78864523Y-40133209D01*
X78925000Y-39891304D01*
X78985476Y-39770352D01*
X79106428Y-39649400D01*
X79287857Y-39588923D01*
X79408809Y-39588923D01*
X79590238Y-39649400D01*
X79650714Y-39709876D01*
X80860238Y-40858923D02*
X80134523Y-40858923D01*
X80497380Y-40858923D02*
X80497380Y-39588923D01*
X80376428Y-39770352D01*
X80255476Y-39891304D01*
X80134523Y-39951780D01*
D11*
X72449580Y-77928695D02*
X71449580Y-77928695D01*
X71449580Y-77690600D01*
X71497200Y-77547742D01*
X71592438Y-77452504D01*
X71687676Y-77404885D01*
X71878152Y-77357266D01*
X72021009Y-77357266D01*
X72211485Y-77404885D01*
X72306723Y-77452504D01*
X72401961Y-77547742D01*
X72449580Y-77690600D01*
X72449580Y-77928695D01*
X71782914Y-76500123D02*
X72449580Y-76500123D01*
X71401961Y-76738219D02*
X72116247Y-76976314D01*
X72116247Y-76357266D01*
X78469380Y-78030295D02*
X77469380Y-78030295D01*
X77469380Y-77792200D01*
X77517000Y-77649342D01*
X77612238Y-77554104D01*
X77707476Y-77506485D01*
X77897952Y-77458866D01*
X78040809Y-77458866D01*
X78231285Y-77506485D01*
X78326523Y-77554104D01*
X78421761Y-77649342D01*
X78469380Y-77792200D01*
X78469380Y-78030295D01*
X77469380Y-77125533D02*
X77469380Y-76506485D01*
X77850333Y-76839819D01*
X77850333Y-76696961D01*
X77897952Y-76601723D01*
X77945571Y-76554104D01*
X78040809Y-76506485D01*
X78278904Y-76506485D01*
X78374142Y-76554104D01*
X78421761Y-76601723D01*
X78469380Y-76696961D01*
X78469380Y-76982676D01*
X78421761Y-77077914D01*
X78374142Y-77125533D01*
X84311380Y-77801695D02*
X83311380Y-77801695D01*
X83311380Y-77563600D01*
X83359000Y-77420742D01*
X83454238Y-77325504D01*
X83549476Y-77277885D01*
X83739952Y-77230266D01*
X83882809Y-77230266D01*
X84073285Y-77277885D01*
X84168523Y-77325504D01*
X84263761Y-77420742D01*
X84311380Y-77563600D01*
X84311380Y-77801695D01*
X83406619Y-76849314D02*
X83359000Y-76801695D01*
X83311380Y-76706457D01*
X83311380Y-76468361D01*
X83359000Y-76373123D01*
X83406619Y-76325504D01*
X83501857Y-76277885D01*
X83597095Y-76277885D01*
X83739952Y-76325504D01*
X84311380Y-76896933D01*
X84311380Y-76277885D01*
X45478320Y-45790075D02*
X44478320Y-45790075D01*
X44478320Y-45551980D01*
X44525940Y-45409122D01*
X44621178Y-45313884D01*
X44716416Y-45266265D01*
X44906892Y-45218646D01*
X45049749Y-45218646D01*
X45240225Y-45266265D01*
X45335463Y-45313884D01*
X45430701Y-45409122D01*
X45478320Y-45551980D01*
X45478320Y-45790075D01*
X45478320Y-44266265D02*
X45478320Y-44837694D01*
X45478320Y-44551980D02*
X44478320Y-44551980D01*
X44621178Y-44647218D01*
X44716416Y-44742456D01*
X44764035Y-44837694D01*
X56666402Y-58864737D02*
X56714021Y-58912356D01*
X56761640Y-59055213D01*
X56761640Y-59150451D01*
X56714021Y-59293308D01*
X56618783Y-59388546D01*
X56523545Y-59436165D01*
X56333069Y-59483784D01*
X56190212Y-59483784D01*
X55999736Y-59436165D01*
X55904498Y-59388546D01*
X55809260Y-59293308D01*
X55761640Y-59150451D01*
X55761640Y-59055213D01*
X55809260Y-58912356D01*
X55856879Y-58864737D01*
X56761640Y-57912356D02*
X56761640Y-58483784D01*
X56761640Y-58198070D02*
X55761640Y-58198070D01*
X55904498Y-58293308D01*
X55999736Y-58388546D01*
X56047355Y-58483784D01*
X55761640Y-57293308D02*
X55761640Y-57198070D01*
X55809260Y-57102832D01*
X55856879Y-57055213D01*
X55952117Y-57007594D01*
X56142593Y-56959975D01*
X56380688Y-56959975D01*
X56571164Y-57007594D01*
X56666402Y-57055213D01*
X56714021Y-57102832D01*
X56761640Y-57198070D01*
X56761640Y-57293308D01*
X56714021Y-57388546D01*
X56666402Y-57436165D01*
X56571164Y-57483784D01*
X56380688Y-57531403D01*
X56142593Y-57531403D01*
X55952117Y-57483784D01*
X55856879Y-57436165D01*
X55809260Y-57388546D01*
X55761640Y-57293308D01*
X55790102Y-68043086D02*
X55837721Y-68090705D01*
X55885340Y-68233562D01*
X55885340Y-68328800D01*
X55837721Y-68471658D01*
X55742483Y-68566896D01*
X55647245Y-68614515D01*
X55456769Y-68662134D01*
X55313912Y-68662134D01*
X55123436Y-68614515D01*
X55028198Y-68566896D01*
X54932960Y-68471658D01*
X54885340Y-68328800D01*
X54885340Y-68233562D01*
X54932960Y-68090705D01*
X54980579Y-68043086D01*
X55885340Y-67566896D02*
X55885340Y-67376420D01*
X55837721Y-67281181D01*
X55790102Y-67233562D01*
X55647245Y-67138324D01*
X55456769Y-67090705D01*
X55075817Y-67090705D01*
X54980579Y-67138324D01*
X54932960Y-67185943D01*
X54885340Y-67281181D01*
X54885340Y-67471658D01*
X54932960Y-67566896D01*
X54980579Y-67614515D01*
X55075817Y-67662134D01*
X55313912Y-67662134D01*
X55409150Y-67614515D01*
X55456769Y-67566896D01*
X55504388Y-67471658D01*
X55504388Y-67281181D01*
X55456769Y-67185943D01*
X55409150Y-67138324D01*
X55313912Y-67090705D01*
X64585553Y-72845202D02*
X64537934Y-72892821D01*
X64395077Y-72940440D01*
X64299839Y-72940440D01*
X64156981Y-72892821D01*
X64061743Y-72797583D01*
X64014124Y-72702345D01*
X63966505Y-72511869D01*
X63966505Y-72369012D01*
X64014124Y-72178536D01*
X64061743Y-72083298D01*
X64156981Y-71988060D01*
X64299839Y-71940440D01*
X64395077Y-71940440D01*
X64537934Y-71988060D01*
X64585553Y-72035679D01*
X65156981Y-72369012D02*
X65061743Y-72321393D01*
X65014124Y-72273774D01*
X64966505Y-72178536D01*
X64966505Y-72130917D01*
X65014124Y-72035679D01*
X65061743Y-71988060D01*
X65156981Y-71940440D01*
X65347458Y-71940440D01*
X65442696Y-71988060D01*
X65490315Y-72035679D01*
X65537934Y-72130917D01*
X65537934Y-72178536D01*
X65490315Y-72273774D01*
X65442696Y-72321393D01*
X65347458Y-72369012D01*
X65156981Y-72369012D01*
X65061743Y-72416631D01*
X65014124Y-72464250D01*
X64966505Y-72559488D01*
X64966505Y-72749964D01*
X65014124Y-72845202D01*
X65061743Y-72892821D01*
X65156981Y-72940440D01*
X65347458Y-72940440D01*
X65442696Y-72892821D01*
X65490315Y-72845202D01*
X65537934Y-72749964D01*
X65537934Y-72559488D01*
X65490315Y-72464250D01*
X65442696Y-72416631D01*
X65347458Y-72369012D01*
X70411882Y-60707566D02*
X70459501Y-60755185D01*
X70507120Y-60898042D01*
X70507120Y-60993280D01*
X70459501Y-61136138D01*
X70364263Y-61231376D01*
X70269025Y-61278995D01*
X70078549Y-61326614D01*
X69935692Y-61326614D01*
X69745216Y-61278995D01*
X69649978Y-61231376D01*
X69554740Y-61136138D01*
X69507120Y-60993280D01*
X69507120Y-60898042D01*
X69554740Y-60755185D01*
X69602359Y-60707566D01*
X69507120Y-60374233D02*
X69507120Y-59707566D01*
X70507120Y-60136138D01*
X44417953Y-66820322D02*
X44370334Y-66867941D01*
X44227477Y-66915560D01*
X44132239Y-66915560D01*
X43989381Y-66867941D01*
X43894143Y-66772703D01*
X43846524Y-66677465D01*
X43798905Y-66486989D01*
X43798905Y-66344132D01*
X43846524Y-66153656D01*
X43894143Y-66058418D01*
X43989381Y-65963180D01*
X44132239Y-65915560D01*
X44227477Y-65915560D01*
X44370334Y-65963180D01*
X44417953Y-66010799D01*
X45275096Y-65915560D02*
X45084620Y-65915560D01*
X44989381Y-65963180D01*
X44941762Y-66010799D01*
X44846524Y-66153656D01*
X44798905Y-66344132D01*
X44798905Y-66725084D01*
X44846524Y-66820322D01*
X44894143Y-66867941D01*
X44989381Y-66915560D01*
X45179858Y-66915560D01*
X45275096Y-66867941D01*
X45322715Y-66820322D01*
X45370334Y-66725084D01*
X45370334Y-66486989D01*
X45322715Y-66391751D01*
X45275096Y-66344132D01*
X45179858Y-66296513D01*
X44989381Y-66296513D01*
X44894143Y-66344132D01*
X44846524Y-66391751D01*
X44798905Y-66486989D01*
X44417953Y-61943522D02*
X44370334Y-61991141D01*
X44227477Y-62038760D01*
X44132239Y-62038760D01*
X43989381Y-61991141D01*
X43894143Y-61895903D01*
X43846524Y-61800665D01*
X43798905Y-61610189D01*
X43798905Y-61467332D01*
X43846524Y-61276856D01*
X43894143Y-61181618D01*
X43989381Y-61086380D01*
X44132239Y-61038760D01*
X44227477Y-61038760D01*
X44370334Y-61086380D01*
X44417953Y-61133999D01*
X45322715Y-61038760D02*
X44846524Y-61038760D01*
X44798905Y-61514951D01*
X44846524Y-61467332D01*
X44941762Y-61419713D01*
X45179858Y-61419713D01*
X45275096Y-61467332D01*
X45322715Y-61514951D01*
X45370334Y-61610189D01*
X45370334Y-61848284D01*
X45322715Y-61943522D01*
X45275096Y-61991141D01*
X45179858Y-62038760D01*
X44941762Y-62038760D01*
X44846524Y-61991141D01*
X44798905Y-61943522D01*
X30684742Y-53864806D02*
X30732361Y-53912425D01*
X30779980Y-54055282D01*
X30779980Y-54150520D01*
X30732361Y-54293378D01*
X30637123Y-54388616D01*
X30541885Y-54436235D01*
X30351409Y-54483854D01*
X30208552Y-54483854D01*
X30018076Y-54436235D01*
X29922838Y-54388616D01*
X29827600Y-54293378D01*
X29779980Y-54150520D01*
X29779980Y-54055282D01*
X29827600Y-53912425D01*
X29875219Y-53864806D01*
X30113314Y-53007663D02*
X30779980Y-53007663D01*
X29732361Y-53245759D02*
X30446647Y-53483854D01*
X30446647Y-52864806D01*
X36170142Y-53864806D02*
X36217761Y-53912425D01*
X36265380Y-54055282D01*
X36265380Y-54150520D01*
X36217761Y-54293378D01*
X36122523Y-54388616D01*
X36027285Y-54436235D01*
X35836809Y-54483854D01*
X35693952Y-54483854D01*
X35503476Y-54436235D01*
X35408238Y-54388616D01*
X35313000Y-54293378D01*
X35265380Y-54150520D01*
X35265380Y-54055282D01*
X35313000Y-53912425D01*
X35360619Y-53864806D01*
X35265380Y-53531473D02*
X35265380Y-52912425D01*
X35646333Y-53245759D01*
X35646333Y-53102901D01*
X35693952Y-53007663D01*
X35741571Y-52960044D01*
X35836809Y-52912425D01*
X36074904Y-52912425D01*
X36170142Y-52960044D01*
X36217761Y-53007663D01*
X36265380Y-53102901D01*
X36265380Y-53388616D01*
X36217761Y-53483854D01*
X36170142Y-53531473D01*
X29364942Y-63595546D02*
X29412561Y-63643165D01*
X29460180Y-63786022D01*
X29460180Y-63881260D01*
X29412561Y-64024118D01*
X29317323Y-64119356D01*
X29222085Y-64166975D01*
X29031609Y-64214594D01*
X28888752Y-64214594D01*
X28698276Y-64166975D01*
X28603038Y-64119356D01*
X28507800Y-64024118D01*
X28460180Y-63881260D01*
X28460180Y-63786022D01*
X28507800Y-63643165D01*
X28555419Y-63595546D01*
X28555419Y-63214594D02*
X28507800Y-63166975D01*
X28460180Y-63071737D01*
X28460180Y-62833641D01*
X28507800Y-62738403D01*
X28555419Y-62690784D01*
X28650657Y-62643165D01*
X28745895Y-62643165D01*
X28888752Y-62690784D01*
X29460180Y-63262213D01*
X29460180Y-62643165D01*
X83639662Y-63191686D02*
X83687281Y-63239305D01*
X83734900Y-63382162D01*
X83734900Y-63477400D01*
X83687281Y-63620258D01*
X83592043Y-63715496D01*
X83496805Y-63763115D01*
X83306329Y-63810734D01*
X83163472Y-63810734D01*
X82972996Y-63763115D01*
X82877758Y-63715496D01*
X82782520Y-63620258D01*
X82734900Y-63477400D01*
X82734900Y-63382162D01*
X82782520Y-63239305D01*
X82830139Y-63191686D01*
X83734900Y-62239305D02*
X83734900Y-62810734D01*
X83734900Y-62525020D02*
X82734900Y-62525020D01*
X82877758Y-62620258D01*
X82972996Y-62715496D01*
X83020615Y-62810734D01*
M02*
