G04 #@! TF.GenerationSoftware,KiCad,Pcbnew,(5.1.5)-3*
G04 #@! TF.CreationDate,2021-12-10T20:30:37-03:00*
G04 #@! TF.ProjectId,remoto,72656d6f-746f-42e6-9b69-6361645f7063,rev?*
G04 #@! TF.SameCoordinates,Original*
G04 #@! TF.FileFunction,Legend,Bot*
G04 #@! TF.FilePolarity,Positive*
%FSLAX46Y46*%
G04 Gerber Fmt 4.6, Leading zero omitted, Abs format (unit mm)*
G04 Created by KiCad (PCBNEW (5.1.5)-3) date 2021-12-10 20:30:37*
%MOMM*%
%LPD*%
G04 APERTURE LIST*
%ADD10C,0.250000*%
%ADD11C,0.300000*%
G04 APERTURE END LIST*
D10*
X91168904Y-47027714D02*
X90752238Y-47027714D01*
X90573666Y-47682476D02*
X91168904Y-47682476D01*
X91168904Y-46432476D01*
X90573666Y-46432476D01*
X89204619Y-47801523D02*
X89323666Y-47742000D01*
X89442714Y-47622952D01*
X89621285Y-47444380D01*
X89740333Y-47384857D01*
X89859380Y-47384857D01*
X89799857Y-47682476D02*
X89918904Y-47622952D01*
X90037952Y-47503904D01*
X90097476Y-47265809D01*
X90097476Y-46849142D01*
X90037952Y-46611047D01*
X89918904Y-46492000D01*
X89799857Y-46432476D01*
X89561761Y-46432476D01*
X89442714Y-46492000D01*
X89323666Y-46611047D01*
X89264142Y-46849142D01*
X89264142Y-47265809D01*
X89323666Y-47503904D01*
X89442714Y-47622952D01*
X89561761Y-47682476D01*
X89799857Y-47682476D01*
X88728428Y-46432476D02*
X88728428Y-47444380D01*
X88668904Y-47563428D01*
X88609380Y-47622952D01*
X88490333Y-47682476D01*
X88252238Y-47682476D01*
X88133190Y-47622952D01*
X88073666Y-47563428D01*
X88014142Y-47444380D01*
X88014142Y-46432476D01*
X87418904Y-47682476D02*
X87418904Y-46432476D01*
X86823666Y-47682476D02*
X86823666Y-46432476D01*
X86347476Y-46432476D01*
X86228428Y-46492000D01*
X86168904Y-46551523D01*
X86109380Y-46670571D01*
X86109380Y-46849142D01*
X86168904Y-46968190D01*
X86228428Y-47027714D01*
X86347476Y-47087238D01*
X86823666Y-47087238D01*
X85335571Y-46432476D02*
X85097476Y-46432476D01*
X84978428Y-46492000D01*
X84859380Y-46611047D01*
X84799857Y-46849142D01*
X84799857Y-47265809D01*
X84859380Y-47503904D01*
X84978428Y-47622952D01*
X85097476Y-47682476D01*
X85335571Y-47682476D01*
X85454619Y-47622952D01*
X85573666Y-47503904D01*
X85633190Y-47265809D01*
X85633190Y-46849142D01*
X85573666Y-46611047D01*
X85454619Y-46492000D01*
X85335571Y-46432476D01*
X82597476Y-47682476D02*
X83014142Y-47087238D01*
X83311761Y-47682476D02*
X83311761Y-46432476D01*
X82835571Y-46432476D01*
X82716523Y-46492000D01*
X82657000Y-46551523D01*
X82597476Y-46670571D01*
X82597476Y-46849142D01*
X82657000Y-46968190D01*
X82716523Y-47027714D01*
X82835571Y-47087238D01*
X83311761Y-47087238D01*
X82061761Y-47027714D02*
X81645095Y-47027714D01*
X81466523Y-47682476D02*
X82061761Y-47682476D01*
X82061761Y-46432476D01*
X81466523Y-46432476D01*
X80930809Y-47682476D02*
X80930809Y-46432476D01*
X80514142Y-47325333D01*
X80097476Y-46432476D01*
X80097476Y-47682476D01*
X79264142Y-46432476D02*
X79026047Y-46432476D01*
X78907000Y-46492000D01*
X78787952Y-46611047D01*
X78728428Y-46849142D01*
X78728428Y-47265809D01*
X78787952Y-47503904D01*
X78907000Y-47622952D01*
X79026047Y-47682476D01*
X79264142Y-47682476D01*
X79383190Y-47622952D01*
X79502238Y-47503904D01*
X79561761Y-47265809D01*
X79561761Y-46849142D01*
X79502238Y-46611047D01*
X79383190Y-46492000D01*
X79264142Y-46432476D01*
X78371285Y-46432476D02*
X77657000Y-46432476D01*
X78014142Y-47682476D02*
X78014142Y-46432476D01*
X77002238Y-46432476D02*
X76764142Y-46432476D01*
X76645095Y-46492000D01*
X76526047Y-46611047D01*
X76466523Y-46849142D01*
X76466523Y-47265809D01*
X76526047Y-47503904D01*
X76645095Y-47622952D01*
X76764142Y-47682476D01*
X77002238Y-47682476D01*
X77121285Y-47622952D01*
X77240333Y-47503904D01*
X77299857Y-47265809D01*
X77299857Y-46849142D01*
X77240333Y-46611047D01*
X77121285Y-46492000D01*
X77002238Y-46432476D01*
X75097476Y-46849142D02*
X74799857Y-47682476D01*
X74502238Y-46849142D01*
X73371285Y-47682476D02*
X74085571Y-47682476D01*
X73728428Y-47682476D02*
X73728428Y-46432476D01*
X73847476Y-46611047D01*
X73966523Y-46730095D01*
X74085571Y-46789619D01*
X72835571Y-47563428D02*
X72776047Y-47622952D01*
X72835571Y-47682476D01*
X72895095Y-47622952D01*
X72835571Y-47563428D01*
X72835571Y-47682476D01*
X72002238Y-46432476D02*
X71883190Y-46432476D01*
X71764142Y-46492000D01*
X71704619Y-46551523D01*
X71645095Y-46670571D01*
X71585571Y-46908666D01*
X71585571Y-47206285D01*
X71645095Y-47444380D01*
X71704619Y-47563428D01*
X71764142Y-47622952D01*
X71883190Y-47682476D01*
X72002238Y-47682476D01*
X72121285Y-47622952D01*
X72180809Y-47563428D01*
X72240333Y-47444380D01*
X72299857Y-47206285D01*
X72299857Y-46908666D01*
X72240333Y-46670571D01*
X72180809Y-46551523D01*
X72121285Y-46492000D01*
X72002238Y-46432476D01*
D11*
X95335571Y-44858714D02*
X95407000Y-44930142D01*
X95621285Y-45001571D01*
X95764142Y-45001571D01*
X95978428Y-44930142D01*
X96121285Y-44787285D01*
X96192714Y-44644428D01*
X96264142Y-44358714D01*
X96264142Y-44144428D01*
X96192714Y-43858714D01*
X96121285Y-43715857D01*
X95978428Y-43573000D01*
X95764142Y-43501571D01*
X95621285Y-43501571D01*
X95407000Y-43573000D01*
X95335571Y-43644428D01*
X94407000Y-43501571D02*
X94121285Y-43501571D01*
X93978428Y-43573000D01*
X93835571Y-43715857D01*
X93764142Y-44001571D01*
X93764142Y-44501571D01*
X93835571Y-44787285D01*
X93978428Y-44930142D01*
X94121285Y-45001571D01*
X94407000Y-45001571D01*
X94549857Y-44930142D01*
X94692714Y-44787285D01*
X94764142Y-44501571D01*
X94764142Y-44001571D01*
X94692714Y-43715857D01*
X94549857Y-43573000D01*
X94407000Y-43501571D01*
X93121285Y-45001571D02*
X93121285Y-43501571D01*
X92264142Y-45001571D01*
X92264142Y-43501571D01*
X91549857Y-45001571D02*
X91549857Y-43501571D01*
X91049857Y-44573000D01*
X90549857Y-43501571D01*
X90549857Y-45001571D01*
X89835571Y-43501571D02*
X89835571Y-44715857D01*
X89764142Y-44858714D01*
X89692714Y-44930142D01*
X89549857Y-45001571D01*
X89264142Y-45001571D01*
X89121285Y-44930142D01*
X89049857Y-44858714D01*
X88978428Y-44715857D01*
X88978428Y-43501571D01*
X88478428Y-43501571D02*
X87621285Y-43501571D01*
X88049857Y-45001571D02*
X88049857Y-43501571D01*
X87192714Y-44573000D02*
X86478428Y-44573000D01*
X87335571Y-45001571D02*
X86835571Y-43501571D01*
X86335571Y-45001571D01*
X85835571Y-45001571D02*
X85835571Y-43501571D01*
X85478428Y-43501571D01*
X85264142Y-43573000D01*
X85121285Y-43715857D01*
X85049857Y-43858714D01*
X84978428Y-44144428D01*
X84978428Y-44358714D01*
X85049857Y-44644428D01*
X85121285Y-44787285D01*
X85264142Y-44930142D01*
X85478428Y-45001571D01*
X85835571Y-45001571D01*
X84049857Y-43501571D02*
X83764142Y-43501571D01*
X83621285Y-43573000D01*
X83478428Y-43715857D01*
X83407000Y-44001571D01*
X83407000Y-44501571D01*
X83478428Y-44787285D01*
X83621285Y-44930142D01*
X83764142Y-45001571D01*
X84049857Y-45001571D01*
X84192714Y-44930142D01*
X84335571Y-44787285D01*
X84407000Y-44501571D01*
X84407000Y-44001571D01*
X84335571Y-43715857D01*
X84192714Y-43573000D01*
X84049857Y-43501571D01*
X81907000Y-45001571D02*
X82407000Y-44287285D01*
X82764142Y-45001571D02*
X82764142Y-43501571D01*
X82192714Y-43501571D01*
X82049857Y-43573000D01*
X81978428Y-43644428D01*
X81907000Y-43787285D01*
X81907000Y-44001571D01*
X81978428Y-44144428D01*
X82049857Y-44215857D01*
X82192714Y-44287285D01*
X82764142Y-44287285D01*
X80121285Y-45001571D02*
X80121285Y-43501571D01*
X79764142Y-43501571D01*
X79549857Y-43573000D01*
X79407000Y-43715857D01*
X79335571Y-43858714D01*
X79264142Y-44144428D01*
X79264142Y-44358714D01*
X79335571Y-44644428D01*
X79407000Y-44787285D01*
X79549857Y-44930142D01*
X79764142Y-45001571D01*
X80121285Y-45001571D01*
X78621285Y-44215857D02*
X78121285Y-44215857D01*
X77907000Y-45001571D02*
X78621285Y-45001571D01*
X78621285Y-43501571D01*
X77907000Y-43501571D01*
X75264142Y-45001571D02*
X75764142Y-44287285D01*
X76121285Y-45001571D02*
X76121285Y-43501571D01*
X75549857Y-43501571D01*
X75407000Y-43573000D01*
X75335571Y-43644428D01*
X75264142Y-43787285D01*
X75264142Y-44001571D01*
X75335571Y-44144428D01*
X75407000Y-44215857D01*
X75549857Y-44287285D01*
X76121285Y-44287285D01*
X74621285Y-44215857D02*
X74121285Y-44215857D01*
X73907000Y-45001571D02*
X74621285Y-45001571D01*
X74621285Y-43501571D01*
X73907000Y-43501571D01*
X73478428Y-43501571D02*
X72621285Y-43501571D01*
X73049857Y-45001571D02*
X73049857Y-43501571D01*
X71835571Y-43501571D02*
X71549857Y-43501571D01*
X71407000Y-43573000D01*
X71264142Y-43715857D01*
X71192714Y-44001571D01*
X71192714Y-44501571D01*
X71264142Y-44787285D01*
X71407000Y-44930142D01*
X71549857Y-45001571D01*
X71835571Y-45001571D01*
X71978428Y-44930142D01*
X72121285Y-44787285D01*
X72192714Y-44501571D01*
X72192714Y-44001571D01*
X72121285Y-43715857D01*
X71978428Y-43573000D01*
X71835571Y-43501571D01*
X69692714Y-45001571D02*
X70192714Y-44287285D01*
X70549857Y-45001571D02*
X70549857Y-43501571D01*
X69978428Y-43501571D01*
X69835571Y-43573000D01*
X69764142Y-43644428D01*
X69692714Y-43787285D01*
X69692714Y-44001571D01*
X69764142Y-44144428D01*
X69835571Y-44215857D01*
X69978428Y-44287285D01*
X70549857Y-44287285D01*
X69049857Y-45001571D02*
X69049857Y-43501571D01*
X68192714Y-45001571D01*
X68192714Y-43501571D01*
X67192714Y-43501571D02*
X66907000Y-43501571D01*
X66764142Y-43573000D01*
X66621285Y-43715857D01*
X66549857Y-44001571D01*
X66549857Y-44501571D01*
X66621285Y-44787285D01*
X66764142Y-44930142D01*
X66907000Y-45001571D01*
X67192714Y-45001571D01*
X67335571Y-44930142D01*
X67478428Y-44787285D01*
X67549857Y-44501571D01*
X67549857Y-44001571D01*
X67478428Y-43715857D01*
X67335571Y-43573000D01*
X67192714Y-43501571D01*
M02*
