G04 #@! TF.GenerationSoftware,KiCad,Pcbnew,(5.1.5)-3*
G04 #@! TF.CreationDate,2021-12-10T20:30:37-03:00*
G04 #@! TF.ProjectId,remoto,72656d6f-746f-42e6-9b69-6361645f7063,rev?*
G04 #@! TF.SameCoordinates,Original*
G04 #@! TF.FileFunction,Soldermask,Top*
G04 #@! TF.FilePolarity,Negative*
%FSLAX46Y46*%
G04 Gerber Fmt 4.6, Leading zero omitted, Abs format (unit mm)*
G04 Created by KiCad (PCBNEW (5.1.5)-3) date 2021-12-10 20:30:37*
%MOMM*%
%LPD*%
G04 APERTURE LIST*
%ADD10C,0.100000*%
G04 APERTURE END LIST*
D10*
G36*
X75641468Y-82445565D02*
G01*
X75680138Y-82457296D01*
X75715777Y-82476346D01*
X75747017Y-82501983D01*
X75772654Y-82533223D01*
X75791704Y-82568862D01*
X75803435Y-82607532D01*
X75808000Y-82653888D01*
X75808000Y-83305112D01*
X75803435Y-83351468D01*
X75791704Y-83390138D01*
X75772654Y-83425777D01*
X75747017Y-83457017D01*
X75715777Y-83482654D01*
X75680138Y-83501704D01*
X75641468Y-83513435D01*
X75595112Y-83518000D01*
X74518888Y-83518000D01*
X74472532Y-83513435D01*
X74433862Y-83501704D01*
X74398223Y-83482654D01*
X74366983Y-83457017D01*
X74341346Y-83425777D01*
X74322296Y-83390138D01*
X74310565Y-83351468D01*
X74306000Y-83305112D01*
X74306000Y-82653888D01*
X74310565Y-82607532D01*
X74322296Y-82568862D01*
X74341346Y-82533223D01*
X74366983Y-82501983D01*
X74398223Y-82476346D01*
X74433862Y-82457296D01*
X74472532Y-82445565D01*
X74518888Y-82441000D01*
X75595112Y-82441000D01*
X75641468Y-82445565D01*
G37*
G36*
X69621668Y-82445565D02*
G01*
X69660338Y-82457296D01*
X69695977Y-82476346D01*
X69727217Y-82501983D01*
X69752854Y-82533223D01*
X69771904Y-82568862D01*
X69783635Y-82607532D01*
X69788200Y-82653888D01*
X69788200Y-83305112D01*
X69783635Y-83351468D01*
X69771904Y-83390138D01*
X69752854Y-83425777D01*
X69727217Y-83457017D01*
X69695977Y-83482654D01*
X69660338Y-83501704D01*
X69621668Y-83513435D01*
X69575312Y-83518000D01*
X68499088Y-83518000D01*
X68452732Y-83513435D01*
X68414062Y-83501704D01*
X68378423Y-83482654D01*
X68347183Y-83457017D01*
X68321546Y-83425777D01*
X68302496Y-83390138D01*
X68290765Y-83351468D01*
X68286200Y-83305112D01*
X68286200Y-82653888D01*
X68290765Y-82607532D01*
X68302496Y-82568862D01*
X68321546Y-82533223D01*
X68347183Y-82501983D01*
X68378423Y-82476346D01*
X68414062Y-82457296D01*
X68452732Y-82445565D01*
X68499088Y-82441000D01*
X69575312Y-82441000D01*
X69621668Y-82445565D01*
G37*
G36*
X81483468Y-82420165D02*
G01*
X81522138Y-82431896D01*
X81557777Y-82450946D01*
X81589017Y-82476583D01*
X81614654Y-82507823D01*
X81633704Y-82543462D01*
X81645435Y-82582132D01*
X81650000Y-82628488D01*
X81650000Y-83279712D01*
X81645435Y-83326068D01*
X81633704Y-83364738D01*
X81614654Y-83400377D01*
X81589017Y-83431617D01*
X81557777Y-83457254D01*
X81522138Y-83476304D01*
X81483468Y-83488035D01*
X81437112Y-83492600D01*
X80360888Y-83492600D01*
X80314532Y-83488035D01*
X80275862Y-83476304D01*
X80240223Y-83457254D01*
X80208983Y-83431617D01*
X80183346Y-83400377D01*
X80164296Y-83364738D01*
X80152565Y-83326068D01*
X80148000Y-83279712D01*
X80148000Y-82628488D01*
X80152565Y-82582132D01*
X80164296Y-82543462D01*
X80183346Y-82507823D01*
X80208983Y-82476583D01*
X80240223Y-82450946D01*
X80275862Y-82431896D01*
X80314532Y-82420165D01*
X80360888Y-82415600D01*
X81437112Y-82415600D01*
X81483468Y-82420165D01*
G37*
G36*
X28695385Y-80079002D02*
G01*
X28845210Y-80108804D01*
X29127474Y-80225721D01*
X29381505Y-80395459D01*
X29597541Y-80611495D01*
X29767279Y-80865526D01*
X29884196Y-81147790D01*
X29943800Y-81447440D01*
X29943800Y-81752960D01*
X29884196Y-82052610D01*
X29767279Y-82334874D01*
X29597541Y-82588905D01*
X29381505Y-82804941D01*
X29127474Y-82974679D01*
X28845210Y-83091596D01*
X28695385Y-83121398D01*
X28545561Y-83151200D01*
X28240039Y-83151200D01*
X28090215Y-83121398D01*
X27940390Y-83091596D01*
X27658126Y-82974679D01*
X27404095Y-82804941D01*
X27188059Y-82588905D01*
X27018321Y-82334874D01*
X26901404Y-82052610D01*
X26841800Y-81752960D01*
X26841800Y-81447440D01*
X26901404Y-81147790D01*
X27018321Y-80865526D01*
X27188059Y-80611495D01*
X27404095Y-80395459D01*
X27658126Y-80225721D01*
X27940390Y-80108804D01*
X28090215Y-80079002D01*
X28240039Y-80049200D01*
X28545561Y-80049200D01*
X28695385Y-80079002D01*
G37*
G36*
X96902585Y-80078802D02*
G01*
X97052410Y-80108604D01*
X97334674Y-80225521D01*
X97588705Y-80395259D01*
X97804741Y-80611295D01*
X97974479Y-80865326D01*
X98091396Y-81147590D01*
X98094035Y-81160856D01*
X98146831Y-81426278D01*
X98151000Y-81447240D01*
X98151000Y-81752760D01*
X98091396Y-82052410D01*
X97974479Y-82334674D01*
X97804741Y-82588705D01*
X97588705Y-82804741D01*
X97334674Y-82974479D01*
X97052410Y-83091396D01*
X96902585Y-83121198D01*
X96752761Y-83151000D01*
X96447239Y-83151000D01*
X96297415Y-83121198D01*
X96147590Y-83091396D01*
X95865326Y-82974479D01*
X95611295Y-82804741D01*
X95395259Y-82588705D01*
X95225521Y-82334674D01*
X95108604Y-82052410D01*
X95049000Y-81752760D01*
X95049000Y-81447240D01*
X95053170Y-81426278D01*
X95105965Y-81160856D01*
X95108604Y-81147590D01*
X95225521Y-80865326D01*
X95395259Y-80611295D01*
X95611295Y-80395259D01*
X95865326Y-80225521D01*
X96147590Y-80108604D01*
X96297415Y-80078802D01*
X96447239Y-80049000D01*
X96752761Y-80049000D01*
X96902585Y-80078802D01*
G37*
G36*
X75641468Y-80570565D02*
G01*
X75680138Y-80582296D01*
X75715777Y-80601346D01*
X75747017Y-80626983D01*
X75772654Y-80658223D01*
X75791704Y-80693862D01*
X75803435Y-80732532D01*
X75808000Y-80778888D01*
X75808000Y-81430112D01*
X75803435Y-81476468D01*
X75791704Y-81515138D01*
X75772654Y-81550777D01*
X75747017Y-81582017D01*
X75715777Y-81607654D01*
X75680138Y-81626704D01*
X75641468Y-81638435D01*
X75595112Y-81643000D01*
X74518888Y-81643000D01*
X74472532Y-81638435D01*
X74433862Y-81626704D01*
X74398223Y-81607654D01*
X74366983Y-81582017D01*
X74341346Y-81550777D01*
X74322296Y-81515138D01*
X74310565Y-81476468D01*
X74306000Y-81430112D01*
X74306000Y-80778888D01*
X74310565Y-80732532D01*
X74322296Y-80693862D01*
X74341346Y-80658223D01*
X74366983Y-80626983D01*
X74398223Y-80601346D01*
X74433862Y-80582296D01*
X74472532Y-80570565D01*
X74518888Y-80566000D01*
X75595112Y-80566000D01*
X75641468Y-80570565D01*
G37*
G36*
X69621668Y-80570565D02*
G01*
X69660338Y-80582296D01*
X69695977Y-80601346D01*
X69727217Y-80626983D01*
X69752854Y-80658223D01*
X69771904Y-80693862D01*
X69783635Y-80732532D01*
X69788200Y-80778888D01*
X69788200Y-81430112D01*
X69783635Y-81476468D01*
X69771904Y-81515138D01*
X69752854Y-81550777D01*
X69727217Y-81582017D01*
X69695977Y-81607654D01*
X69660338Y-81626704D01*
X69621668Y-81638435D01*
X69575312Y-81643000D01*
X68499088Y-81643000D01*
X68452732Y-81638435D01*
X68414062Y-81626704D01*
X68378423Y-81607654D01*
X68347183Y-81582017D01*
X68321546Y-81550777D01*
X68302496Y-81515138D01*
X68290765Y-81476468D01*
X68286200Y-81430112D01*
X68286200Y-80778888D01*
X68290765Y-80732532D01*
X68302496Y-80693862D01*
X68321546Y-80658223D01*
X68347183Y-80626983D01*
X68378423Y-80601346D01*
X68414062Y-80582296D01*
X68452732Y-80570565D01*
X68499088Y-80566000D01*
X69575312Y-80566000D01*
X69621668Y-80570565D01*
G37*
G36*
X81483468Y-80545165D02*
G01*
X81522138Y-80556896D01*
X81557777Y-80575946D01*
X81589017Y-80601583D01*
X81614654Y-80632823D01*
X81633704Y-80668462D01*
X81645435Y-80707132D01*
X81650000Y-80753488D01*
X81650000Y-81404712D01*
X81645435Y-81451068D01*
X81633704Y-81489738D01*
X81614654Y-81525377D01*
X81589017Y-81556617D01*
X81557777Y-81582254D01*
X81522138Y-81601304D01*
X81483468Y-81613035D01*
X81437112Y-81617600D01*
X80360888Y-81617600D01*
X80314532Y-81613035D01*
X80275862Y-81601304D01*
X80240223Y-81582254D01*
X80208983Y-81556617D01*
X80183346Y-81525377D01*
X80164296Y-81489738D01*
X80152565Y-81451068D01*
X80148000Y-81404712D01*
X80148000Y-80753488D01*
X80152565Y-80707132D01*
X80164296Y-80668462D01*
X80183346Y-80632823D01*
X80208983Y-80601583D01*
X80240223Y-80575946D01*
X80275862Y-80556896D01*
X80314532Y-80545165D01*
X80360888Y-80540600D01*
X81437112Y-80540600D01*
X81483468Y-80545165D01*
G37*
G36*
X51022820Y-81195480D02*
G01*
X49220820Y-81195480D01*
X49220820Y-79393480D01*
X51022820Y-79393480D01*
X51022820Y-81195480D01*
G37*
G36*
X47695332Y-79398407D02*
G01*
X47844632Y-79428104D01*
X48008604Y-79496024D01*
X48156174Y-79594627D01*
X48281673Y-79720126D01*
X48380276Y-79867696D01*
X48448196Y-80031668D01*
X48482820Y-80205739D01*
X48482820Y-80383221D01*
X48448196Y-80557292D01*
X48380276Y-80721264D01*
X48281673Y-80868834D01*
X48156174Y-80994333D01*
X48008604Y-81092936D01*
X47844632Y-81160856D01*
X47695332Y-81190553D01*
X47670562Y-81195480D01*
X47493078Y-81195480D01*
X47468308Y-81190553D01*
X47319008Y-81160856D01*
X47155036Y-81092936D01*
X47007466Y-80994333D01*
X46881967Y-80868834D01*
X46783364Y-80721264D01*
X46715444Y-80557292D01*
X46680820Y-80383221D01*
X46680820Y-80205739D01*
X46715444Y-80031668D01*
X46783364Y-79867696D01*
X46881967Y-79720126D01*
X47007466Y-79594627D01*
X47155036Y-79496024D01*
X47319008Y-79428104D01*
X47468308Y-79398407D01*
X47493078Y-79393480D01*
X47670562Y-79393480D01*
X47695332Y-79398407D01*
G37*
G36*
X75334395Y-77647746D02*
G01*
X75507466Y-77719434D01*
X75584818Y-77771119D01*
X75663227Y-77823510D01*
X75795690Y-77955973D01*
X75795691Y-77955975D01*
X75899766Y-78111734D01*
X75971454Y-78284805D01*
X76008000Y-78468533D01*
X76008000Y-78655867D01*
X75971454Y-78839595D01*
X75899766Y-79012666D01*
X75899765Y-79012667D01*
X75795690Y-79168427D01*
X75663227Y-79300890D01*
X75659521Y-79303366D01*
X75507466Y-79404966D01*
X75334395Y-79476654D01*
X75150667Y-79513200D01*
X74963333Y-79513200D01*
X74779605Y-79476654D01*
X74606534Y-79404966D01*
X74454479Y-79303366D01*
X74450773Y-79300890D01*
X74318310Y-79168427D01*
X74214235Y-79012667D01*
X74214234Y-79012666D01*
X74142546Y-78839595D01*
X74106000Y-78655867D01*
X74106000Y-78468533D01*
X74142546Y-78284805D01*
X74214234Y-78111734D01*
X74318309Y-77955975D01*
X74318310Y-77955973D01*
X74450773Y-77823510D01*
X74529182Y-77771119D01*
X74606534Y-77719434D01*
X74779605Y-77647746D01*
X74963333Y-77611200D01*
X75150667Y-77611200D01*
X75334395Y-77647746D01*
G37*
G36*
X69314595Y-77546146D02*
G01*
X69487666Y-77617834D01*
X69487667Y-77617835D01*
X69643427Y-77721910D01*
X69775890Y-77854373D01*
X69775891Y-77854375D01*
X69879966Y-78010134D01*
X69951654Y-78183205D01*
X69988200Y-78366933D01*
X69988200Y-78554267D01*
X69951654Y-78737995D01*
X69879966Y-78911066D01*
X69879965Y-78911067D01*
X69775890Y-79066827D01*
X69643427Y-79199290D01*
X69570448Y-79248053D01*
X69487666Y-79303366D01*
X69314595Y-79375054D01*
X69130867Y-79411600D01*
X68943533Y-79411600D01*
X68759805Y-79375054D01*
X68586734Y-79303366D01*
X68503952Y-79248053D01*
X68430973Y-79199290D01*
X68298510Y-79066827D01*
X68194435Y-78911067D01*
X68194434Y-78911066D01*
X68122746Y-78737995D01*
X68086200Y-78554267D01*
X68086200Y-78366933D01*
X68122746Y-78183205D01*
X68194434Y-78010134D01*
X68298509Y-77854375D01*
X68298510Y-77854373D01*
X68430973Y-77721910D01*
X68586733Y-77617835D01*
X68586734Y-77617834D01*
X68759805Y-77546146D01*
X68943533Y-77509600D01*
X69130867Y-77509600D01*
X69314595Y-77546146D01*
G37*
G36*
X81176395Y-77419146D02*
G01*
X81349466Y-77490834D01*
X81377551Y-77509600D01*
X81505227Y-77594910D01*
X81637690Y-77727373D01*
X81637691Y-77727375D01*
X81741766Y-77883134D01*
X81813454Y-78056205D01*
X81850000Y-78239933D01*
X81850000Y-78427267D01*
X81813454Y-78610995D01*
X81741766Y-78784066D01*
X81741765Y-78784067D01*
X81637690Y-78939827D01*
X81505227Y-79072290D01*
X81426818Y-79124681D01*
X81349466Y-79176366D01*
X81176395Y-79248054D01*
X80992667Y-79284600D01*
X80805333Y-79284600D01*
X80621605Y-79248054D01*
X80448534Y-79176366D01*
X80371182Y-79124681D01*
X80292773Y-79072290D01*
X80160310Y-78939827D01*
X80056235Y-78784067D01*
X80056234Y-78784066D01*
X79984546Y-78610995D01*
X79948000Y-78427267D01*
X79948000Y-78239933D01*
X79984546Y-78056205D01*
X80056234Y-77883134D01*
X80160309Y-77727375D01*
X80160310Y-77727373D01*
X80292773Y-77594910D01*
X80420449Y-77509600D01*
X80448534Y-77490834D01*
X80621605Y-77419146D01*
X80805333Y-77382600D01*
X80992667Y-77382600D01*
X81176395Y-77419146D01*
G37*
G36*
X47695332Y-76858407D02*
G01*
X47844632Y-76888104D01*
X48008604Y-76956024D01*
X48156174Y-77054627D01*
X48281673Y-77180126D01*
X48380276Y-77327696D01*
X48448196Y-77491668D01*
X48482820Y-77665739D01*
X48482820Y-77843221D01*
X48448196Y-78017292D01*
X48380276Y-78181264D01*
X48281673Y-78328834D01*
X48156174Y-78454333D01*
X48008604Y-78552936D01*
X47844632Y-78620856D01*
X47695332Y-78650553D01*
X47670562Y-78655480D01*
X47493078Y-78655480D01*
X47468308Y-78650553D01*
X47319008Y-78620856D01*
X47155036Y-78552936D01*
X47007466Y-78454333D01*
X46881967Y-78328834D01*
X46783364Y-78181264D01*
X46715444Y-78017292D01*
X46680820Y-77843221D01*
X46680820Y-77665739D01*
X46715444Y-77491668D01*
X46783364Y-77327696D01*
X46881967Y-77180126D01*
X47007466Y-77054627D01*
X47155036Y-76956024D01*
X47319008Y-76888104D01*
X47468308Y-76858407D01*
X47493078Y-76853480D01*
X47670562Y-76853480D01*
X47695332Y-76858407D01*
G37*
G36*
X50235332Y-76858407D02*
G01*
X50384632Y-76888104D01*
X50548604Y-76956024D01*
X50696174Y-77054627D01*
X50821673Y-77180126D01*
X50920276Y-77327696D01*
X50988196Y-77491668D01*
X51022820Y-77665739D01*
X51022820Y-77843221D01*
X50988196Y-78017292D01*
X50920276Y-78181264D01*
X50821673Y-78328834D01*
X50696174Y-78454333D01*
X50548604Y-78552936D01*
X50384632Y-78620856D01*
X50235332Y-78650553D01*
X50210562Y-78655480D01*
X50033078Y-78655480D01*
X50008308Y-78650553D01*
X49859008Y-78620856D01*
X49695036Y-78552936D01*
X49547466Y-78454333D01*
X49421967Y-78328834D01*
X49323364Y-78181264D01*
X49255444Y-78017292D01*
X49220820Y-77843221D01*
X49220820Y-77665739D01*
X49255444Y-77491668D01*
X49323364Y-77327696D01*
X49421967Y-77180126D01*
X49547466Y-77054627D01*
X49695036Y-76956024D01*
X49859008Y-76888104D01*
X50008308Y-76858407D01*
X50033078Y-76853480D01*
X50210562Y-76853480D01*
X50235332Y-76858407D01*
G37*
G36*
X58495028Y-76985185D02*
G01*
X58533698Y-76996916D01*
X58569337Y-77015966D01*
X58600577Y-77041603D01*
X58626214Y-77072843D01*
X58645264Y-77108482D01*
X58656995Y-77147152D01*
X58661560Y-77193508D01*
X58661560Y-78269732D01*
X58656995Y-78316088D01*
X58645264Y-78354758D01*
X58626214Y-78390397D01*
X58600577Y-78421637D01*
X58569337Y-78447274D01*
X58533698Y-78466324D01*
X58495028Y-78478055D01*
X58448672Y-78482620D01*
X57797448Y-78482620D01*
X57751092Y-78478055D01*
X57712422Y-78466324D01*
X57676783Y-78447274D01*
X57645543Y-78421637D01*
X57619906Y-78390397D01*
X57600856Y-78354758D01*
X57589125Y-78316088D01*
X57584560Y-78269732D01*
X57584560Y-77193508D01*
X57589125Y-77147152D01*
X57600856Y-77108482D01*
X57619906Y-77072843D01*
X57645543Y-77041603D01*
X57676783Y-77015966D01*
X57712422Y-76996916D01*
X57751092Y-76985185D01*
X57797448Y-76980620D01*
X58448672Y-76980620D01*
X58495028Y-76985185D01*
G37*
G36*
X56620028Y-76985185D02*
G01*
X56658698Y-76996916D01*
X56694337Y-77015966D01*
X56725577Y-77041603D01*
X56751214Y-77072843D01*
X56770264Y-77108482D01*
X56781995Y-77147152D01*
X56786560Y-77193508D01*
X56786560Y-78269732D01*
X56781995Y-78316088D01*
X56770264Y-78354758D01*
X56751214Y-78390397D01*
X56725577Y-78421637D01*
X56694337Y-78447274D01*
X56658698Y-78466324D01*
X56620028Y-78478055D01*
X56573672Y-78482620D01*
X55922448Y-78482620D01*
X55876092Y-78478055D01*
X55837422Y-78466324D01*
X55801783Y-78447274D01*
X55770543Y-78421637D01*
X55744906Y-78390397D01*
X55725856Y-78354758D01*
X55714125Y-78316088D01*
X55709560Y-78269732D01*
X55709560Y-77193508D01*
X55714125Y-77147152D01*
X55725856Y-77108482D01*
X55744906Y-77072843D01*
X55770543Y-77041603D01*
X55801783Y-77015966D01*
X55837422Y-76996916D01*
X55876092Y-76985185D01*
X55922448Y-76980620D01*
X56573672Y-76980620D01*
X56620028Y-76985185D01*
G37*
G36*
X41117788Y-77225865D02*
G01*
X41156458Y-77237596D01*
X41192097Y-77256646D01*
X41223337Y-77282283D01*
X41248974Y-77313523D01*
X41268024Y-77349162D01*
X41279755Y-77387832D01*
X41284320Y-77434188D01*
X41284320Y-78085412D01*
X41279755Y-78131768D01*
X41268024Y-78170438D01*
X41248974Y-78206077D01*
X41223337Y-78237317D01*
X41192097Y-78262954D01*
X41156458Y-78282004D01*
X41117788Y-78293735D01*
X41071432Y-78298300D01*
X39995208Y-78298300D01*
X39948852Y-78293735D01*
X39910182Y-78282004D01*
X39874543Y-78262954D01*
X39843303Y-78237317D01*
X39817666Y-78206077D01*
X39798616Y-78170438D01*
X39786885Y-78131768D01*
X39782320Y-78085412D01*
X39782320Y-77434188D01*
X39786885Y-77387832D01*
X39798616Y-77349162D01*
X39817666Y-77313523D01*
X39843303Y-77282283D01*
X39874543Y-77256646D01*
X39910182Y-77237596D01*
X39948852Y-77225865D01*
X39995208Y-77221300D01*
X41071432Y-77221300D01*
X41117788Y-77225865D01*
G37*
G36*
X76008000Y-76973200D02*
G01*
X74106000Y-76973200D01*
X74106000Y-75071200D01*
X76008000Y-75071200D01*
X76008000Y-76973200D01*
G37*
G36*
X69988200Y-76871600D02*
G01*
X68086200Y-76871600D01*
X68086200Y-74969600D01*
X69988200Y-74969600D01*
X69988200Y-76871600D01*
G37*
G36*
X81850000Y-76744600D02*
G01*
X79948000Y-76744600D01*
X79948000Y-74842600D01*
X81850000Y-74842600D01*
X81850000Y-76744600D01*
G37*
G36*
X41117788Y-75350865D02*
G01*
X41156458Y-75362596D01*
X41192097Y-75381646D01*
X41223337Y-75407283D01*
X41248974Y-75438523D01*
X41268024Y-75474162D01*
X41279755Y-75512832D01*
X41284320Y-75559188D01*
X41284320Y-76210412D01*
X41279755Y-76256768D01*
X41268024Y-76295438D01*
X41248974Y-76331077D01*
X41223337Y-76362317D01*
X41192097Y-76387954D01*
X41156458Y-76407004D01*
X41117788Y-76418735D01*
X41071432Y-76423300D01*
X39995208Y-76423300D01*
X39948852Y-76418735D01*
X39910182Y-76407004D01*
X39874543Y-76387954D01*
X39843303Y-76362317D01*
X39817666Y-76331077D01*
X39798616Y-76295438D01*
X39786885Y-76256768D01*
X39782320Y-76210412D01*
X39782320Y-75559188D01*
X39786885Y-75512832D01*
X39798616Y-75474162D01*
X39817666Y-75438523D01*
X39843303Y-75407283D01*
X39874543Y-75381646D01*
X39910182Y-75362596D01*
X39948852Y-75350865D01*
X39995208Y-75346300D01*
X41071432Y-75346300D01*
X41117788Y-75350865D01*
G37*
G36*
X47695332Y-74318407D02*
G01*
X47844632Y-74348104D01*
X48008604Y-74416024D01*
X48156174Y-74514627D01*
X48281673Y-74640126D01*
X48380276Y-74787696D01*
X48448196Y-74951668D01*
X48482820Y-75125739D01*
X48482820Y-75303221D01*
X48448196Y-75477292D01*
X48380276Y-75641264D01*
X48281673Y-75788834D01*
X48156174Y-75914333D01*
X48008604Y-76012936D01*
X47844632Y-76080856D01*
X47695332Y-76110553D01*
X47670562Y-76115480D01*
X47493078Y-76115480D01*
X47468308Y-76110553D01*
X47319008Y-76080856D01*
X47155036Y-76012936D01*
X47007466Y-75914333D01*
X46881967Y-75788834D01*
X46783364Y-75641264D01*
X46715444Y-75477292D01*
X46680820Y-75303221D01*
X46680820Y-75125739D01*
X46715444Y-74951668D01*
X46783364Y-74787696D01*
X46881967Y-74640126D01*
X47007466Y-74514627D01*
X47155036Y-74416024D01*
X47319008Y-74348104D01*
X47468308Y-74318407D01*
X47493078Y-74313480D01*
X47670562Y-74313480D01*
X47695332Y-74318407D01*
G37*
G36*
X50235332Y-74318407D02*
G01*
X50384632Y-74348104D01*
X50548604Y-74416024D01*
X50696174Y-74514627D01*
X50821673Y-74640126D01*
X50920276Y-74787696D01*
X50988196Y-74951668D01*
X51022820Y-75125739D01*
X51022820Y-75303221D01*
X50988196Y-75477292D01*
X50920276Y-75641264D01*
X50821673Y-75788834D01*
X50696174Y-75914333D01*
X50548604Y-76012936D01*
X50384632Y-76080856D01*
X50235332Y-76110553D01*
X50210562Y-76115480D01*
X50033078Y-76115480D01*
X50008308Y-76110553D01*
X49859008Y-76080856D01*
X49695036Y-76012936D01*
X49547466Y-75914333D01*
X49421967Y-75788834D01*
X49323364Y-75641264D01*
X49255444Y-75477292D01*
X49220820Y-75303221D01*
X49220820Y-75125739D01*
X49255444Y-74951668D01*
X49323364Y-74787696D01*
X49421967Y-74640126D01*
X49547466Y-74514627D01*
X49695036Y-74416024D01*
X49859008Y-74348104D01*
X50008308Y-74318407D01*
X50033078Y-74313480D01*
X50210562Y-74313480D01*
X50235332Y-74318407D01*
G37*
G36*
X90292188Y-72201745D02*
G01*
X90330858Y-72213476D01*
X90366497Y-72232526D01*
X90397737Y-72258163D01*
X90423374Y-72289403D01*
X90442424Y-72325042D01*
X90454155Y-72363712D01*
X90458720Y-72410068D01*
X90458720Y-73061292D01*
X90454155Y-73107648D01*
X90442424Y-73146318D01*
X90423374Y-73181957D01*
X90397737Y-73213197D01*
X90366497Y-73238834D01*
X90330858Y-73257884D01*
X90292188Y-73269615D01*
X90245832Y-73274180D01*
X89169608Y-73274180D01*
X89123252Y-73269615D01*
X89084582Y-73257884D01*
X89048943Y-73238834D01*
X89017703Y-73213197D01*
X88992066Y-73181957D01*
X88973016Y-73146318D01*
X88961285Y-73107648D01*
X88956720Y-73061292D01*
X88956720Y-72410068D01*
X88961285Y-72363712D01*
X88973016Y-72325042D01*
X88992066Y-72289403D01*
X89017703Y-72258163D01*
X89048943Y-72232526D01*
X89084582Y-72213476D01*
X89123252Y-72201745D01*
X89169608Y-72197180D01*
X90245832Y-72197180D01*
X90292188Y-72201745D01*
G37*
G36*
X64186688Y-70091625D02*
G01*
X64225358Y-70103356D01*
X64260997Y-70122406D01*
X64292237Y-70148043D01*
X64317874Y-70179283D01*
X64336924Y-70214922D01*
X64348655Y-70253592D01*
X64353220Y-70299948D01*
X64353220Y-71376172D01*
X64348655Y-71422528D01*
X64336924Y-71461198D01*
X64317874Y-71496837D01*
X64292237Y-71528077D01*
X64260997Y-71553714D01*
X64225358Y-71572764D01*
X64186688Y-71584495D01*
X64140332Y-71589060D01*
X63489108Y-71589060D01*
X63442752Y-71584495D01*
X63404082Y-71572764D01*
X63368443Y-71553714D01*
X63337203Y-71528077D01*
X63311566Y-71496837D01*
X63292516Y-71461198D01*
X63280785Y-71422528D01*
X63276220Y-71376172D01*
X63276220Y-70299948D01*
X63280785Y-70253592D01*
X63292516Y-70214922D01*
X63311566Y-70179283D01*
X63337203Y-70148043D01*
X63368443Y-70122406D01*
X63404082Y-70103356D01*
X63442752Y-70091625D01*
X63489108Y-70087060D01*
X64140332Y-70087060D01*
X64186688Y-70091625D01*
G37*
G36*
X66061688Y-70091625D02*
G01*
X66100358Y-70103356D01*
X66135997Y-70122406D01*
X66167237Y-70148043D01*
X66192874Y-70179283D01*
X66211924Y-70214922D01*
X66223655Y-70253592D01*
X66228220Y-70299948D01*
X66228220Y-71376172D01*
X66223655Y-71422528D01*
X66211924Y-71461198D01*
X66192874Y-71496837D01*
X66167237Y-71528077D01*
X66135997Y-71553714D01*
X66100358Y-71572764D01*
X66061688Y-71584495D01*
X66015332Y-71589060D01*
X65364108Y-71589060D01*
X65317752Y-71584495D01*
X65279082Y-71572764D01*
X65243443Y-71553714D01*
X65212203Y-71528077D01*
X65186566Y-71496837D01*
X65167516Y-71461198D01*
X65155785Y-71422528D01*
X65151220Y-71376172D01*
X65151220Y-70299948D01*
X65155785Y-70253592D01*
X65167516Y-70214922D01*
X65186566Y-70179283D01*
X65212203Y-70148043D01*
X65243443Y-70122406D01*
X65279082Y-70103356D01*
X65317752Y-70091625D01*
X65364108Y-70087060D01*
X66015332Y-70087060D01*
X66061688Y-70091625D01*
G37*
G36*
X90292188Y-70326745D02*
G01*
X90330858Y-70338476D01*
X90366497Y-70357526D01*
X90397737Y-70383163D01*
X90423374Y-70414403D01*
X90442424Y-70450042D01*
X90454155Y-70488712D01*
X90458720Y-70535068D01*
X90458720Y-71186292D01*
X90454155Y-71232648D01*
X90442424Y-71271318D01*
X90423374Y-71306957D01*
X90397737Y-71338197D01*
X90366497Y-71363834D01*
X90330858Y-71382884D01*
X90292188Y-71394615D01*
X90245832Y-71399180D01*
X89169608Y-71399180D01*
X89123252Y-71394615D01*
X89084582Y-71382884D01*
X89048943Y-71363834D01*
X89017703Y-71338197D01*
X88992066Y-71306957D01*
X88973016Y-71271318D01*
X88961285Y-71232648D01*
X88956720Y-71186292D01*
X88956720Y-70535068D01*
X88961285Y-70488712D01*
X88973016Y-70450042D01*
X88992066Y-70414403D01*
X89017703Y-70383163D01*
X89048943Y-70357526D01*
X89084582Y-70338476D01*
X89123252Y-70326745D01*
X89169608Y-70322180D01*
X90245832Y-70322180D01*
X90292188Y-70326745D01*
G37*
G36*
X35046220Y-71020240D02*
G01*
X33244220Y-71020240D01*
X33244220Y-69218240D01*
X35046220Y-69218240D01*
X35046220Y-71020240D01*
G37*
G36*
X90503640Y-68759800D02*
G01*
X88901640Y-68759800D01*
X88901640Y-67157800D01*
X90503640Y-67157800D01*
X90503640Y-68759800D01*
G37*
G36*
X58565715Y-67096303D02*
G01*
X58572729Y-67098431D01*
X58586497Y-67105790D01*
X58609136Y-67115167D01*
X58633169Y-67119947D01*
X58657673Y-67119947D01*
X58681706Y-67115166D01*
X58704343Y-67105790D01*
X58718111Y-67098431D01*
X58725125Y-67096303D01*
X58738560Y-67094980D01*
X59052280Y-67094980D01*
X59065715Y-67096303D01*
X59072729Y-67098431D01*
X59086497Y-67105790D01*
X59109136Y-67115167D01*
X59133169Y-67119947D01*
X59157673Y-67119947D01*
X59181706Y-67115166D01*
X59204343Y-67105790D01*
X59218111Y-67098431D01*
X59225125Y-67096303D01*
X59238560Y-67094980D01*
X59552280Y-67094980D01*
X59565715Y-67096303D01*
X59572729Y-67098431D01*
X59586497Y-67105790D01*
X59609136Y-67115167D01*
X59633169Y-67119947D01*
X59657673Y-67119947D01*
X59681706Y-67115166D01*
X59704343Y-67105790D01*
X59718111Y-67098431D01*
X59725125Y-67096303D01*
X59738560Y-67094980D01*
X60052280Y-67094980D01*
X60065715Y-67096303D01*
X60072729Y-67098431D01*
X60086497Y-67105790D01*
X60109136Y-67115167D01*
X60133169Y-67119947D01*
X60157673Y-67119947D01*
X60181706Y-67115166D01*
X60204343Y-67105790D01*
X60218111Y-67098431D01*
X60225125Y-67096303D01*
X60238560Y-67094980D01*
X60552280Y-67094980D01*
X60565715Y-67096303D01*
X60572729Y-67098431D01*
X60586497Y-67105790D01*
X60609136Y-67115167D01*
X60633169Y-67119947D01*
X60657673Y-67119947D01*
X60681706Y-67115166D01*
X60704343Y-67105790D01*
X60718111Y-67098431D01*
X60725125Y-67096303D01*
X60738560Y-67094980D01*
X61052280Y-67094980D01*
X61065715Y-67096303D01*
X61072729Y-67098431D01*
X61086497Y-67105790D01*
X61109136Y-67115167D01*
X61133169Y-67119947D01*
X61157673Y-67119947D01*
X61181706Y-67115166D01*
X61204343Y-67105790D01*
X61218111Y-67098431D01*
X61225125Y-67096303D01*
X61238560Y-67094980D01*
X61552280Y-67094980D01*
X61565715Y-67096303D01*
X61572729Y-67098431D01*
X61586497Y-67105790D01*
X61609136Y-67115167D01*
X61633169Y-67119947D01*
X61657673Y-67119947D01*
X61681706Y-67115166D01*
X61704343Y-67105790D01*
X61718111Y-67098431D01*
X61725125Y-67096303D01*
X61738560Y-67094980D01*
X62052280Y-67094980D01*
X62065715Y-67096303D01*
X62072729Y-67098431D01*
X62086497Y-67105790D01*
X62109136Y-67115167D01*
X62133169Y-67119947D01*
X62157673Y-67119947D01*
X62181706Y-67115166D01*
X62204343Y-67105790D01*
X62218111Y-67098431D01*
X62225125Y-67096303D01*
X62238560Y-67094980D01*
X62552280Y-67094980D01*
X62565715Y-67096303D01*
X62572729Y-67098431D01*
X62586497Y-67105790D01*
X62609136Y-67115167D01*
X62633169Y-67119947D01*
X62657673Y-67119947D01*
X62681706Y-67115166D01*
X62704343Y-67105790D01*
X62718111Y-67098431D01*
X62725125Y-67096303D01*
X62738560Y-67094980D01*
X63052280Y-67094980D01*
X63065715Y-67096303D01*
X63072729Y-67098431D01*
X63086497Y-67105790D01*
X63109136Y-67115167D01*
X63133169Y-67119947D01*
X63157673Y-67119947D01*
X63181706Y-67115166D01*
X63204343Y-67105790D01*
X63218111Y-67098431D01*
X63225125Y-67096303D01*
X63238560Y-67094980D01*
X63552280Y-67094980D01*
X63565715Y-67096303D01*
X63572729Y-67098431D01*
X63586497Y-67105790D01*
X63609136Y-67115167D01*
X63633169Y-67119947D01*
X63657673Y-67119947D01*
X63681706Y-67115166D01*
X63704343Y-67105790D01*
X63718111Y-67098431D01*
X63725125Y-67096303D01*
X63738560Y-67094980D01*
X64052280Y-67094980D01*
X64065715Y-67096303D01*
X64072730Y-67098431D01*
X64079196Y-67101888D01*
X64084862Y-67106538D01*
X64089512Y-67112204D01*
X64092969Y-67118670D01*
X64095097Y-67125685D01*
X64096420Y-67139120D01*
X64096420Y-68627840D01*
X64095097Y-68641275D01*
X64092969Y-68648290D01*
X64089512Y-68654756D01*
X64084862Y-68660422D01*
X64079196Y-68665072D01*
X64072730Y-68668529D01*
X64065715Y-68670657D01*
X64052280Y-68671980D01*
X63738560Y-68671980D01*
X63725125Y-68670657D01*
X63718111Y-68668529D01*
X63704343Y-68661170D01*
X63681704Y-68651793D01*
X63657671Y-68647013D01*
X63633167Y-68647013D01*
X63609134Y-68651794D01*
X63586497Y-68661170D01*
X63572729Y-68668529D01*
X63565715Y-68670657D01*
X63552280Y-68671980D01*
X63238560Y-68671980D01*
X63225125Y-68670657D01*
X63218111Y-68668529D01*
X63204343Y-68661170D01*
X63181704Y-68651793D01*
X63157671Y-68647013D01*
X63133167Y-68647013D01*
X63109134Y-68651794D01*
X63086497Y-68661170D01*
X63072729Y-68668529D01*
X63065715Y-68670657D01*
X63052280Y-68671980D01*
X62738560Y-68671980D01*
X62725125Y-68670657D01*
X62718111Y-68668529D01*
X62704343Y-68661170D01*
X62681704Y-68651793D01*
X62657671Y-68647013D01*
X62633167Y-68647013D01*
X62609134Y-68651794D01*
X62586497Y-68661170D01*
X62572729Y-68668529D01*
X62565715Y-68670657D01*
X62552280Y-68671980D01*
X62238560Y-68671980D01*
X62225125Y-68670657D01*
X62218111Y-68668529D01*
X62204343Y-68661170D01*
X62181704Y-68651793D01*
X62157671Y-68647013D01*
X62133167Y-68647013D01*
X62109134Y-68651794D01*
X62086497Y-68661170D01*
X62072729Y-68668529D01*
X62065715Y-68670657D01*
X62052280Y-68671980D01*
X61738560Y-68671980D01*
X61725125Y-68670657D01*
X61718111Y-68668529D01*
X61704343Y-68661170D01*
X61681704Y-68651793D01*
X61657671Y-68647013D01*
X61633167Y-68647013D01*
X61609134Y-68651794D01*
X61586497Y-68661170D01*
X61572729Y-68668529D01*
X61565715Y-68670657D01*
X61552280Y-68671980D01*
X61238560Y-68671980D01*
X61225125Y-68670657D01*
X61218111Y-68668529D01*
X61204343Y-68661170D01*
X61181704Y-68651793D01*
X61157671Y-68647013D01*
X61133167Y-68647013D01*
X61109134Y-68651794D01*
X61086497Y-68661170D01*
X61072729Y-68668529D01*
X61065715Y-68670657D01*
X61052280Y-68671980D01*
X60738560Y-68671980D01*
X60725125Y-68670657D01*
X60718111Y-68668529D01*
X60704343Y-68661170D01*
X60681704Y-68651793D01*
X60657671Y-68647013D01*
X60633167Y-68647013D01*
X60609134Y-68651794D01*
X60586497Y-68661170D01*
X60572729Y-68668529D01*
X60565715Y-68670657D01*
X60552280Y-68671980D01*
X60238560Y-68671980D01*
X60225125Y-68670657D01*
X60218111Y-68668529D01*
X60204343Y-68661170D01*
X60181704Y-68651793D01*
X60157671Y-68647013D01*
X60133167Y-68647013D01*
X60109134Y-68651794D01*
X60086497Y-68661170D01*
X60072729Y-68668529D01*
X60065715Y-68670657D01*
X60052280Y-68671980D01*
X59738560Y-68671980D01*
X59725125Y-68670657D01*
X59718111Y-68668529D01*
X59704343Y-68661170D01*
X59681704Y-68651793D01*
X59657671Y-68647013D01*
X59633167Y-68647013D01*
X59609134Y-68651794D01*
X59586497Y-68661170D01*
X59572729Y-68668529D01*
X59565715Y-68670657D01*
X59552280Y-68671980D01*
X59238560Y-68671980D01*
X59225125Y-68670657D01*
X59218111Y-68668529D01*
X59204343Y-68661170D01*
X59181704Y-68651793D01*
X59157671Y-68647013D01*
X59133167Y-68647013D01*
X59109134Y-68651794D01*
X59086497Y-68661170D01*
X59072729Y-68668529D01*
X59065715Y-68670657D01*
X59052280Y-68671980D01*
X58738560Y-68671980D01*
X58725125Y-68670657D01*
X58718111Y-68668529D01*
X58704343Y-68661170D01*
X58681704Y-68651793D01*
X58657671Y-68647013D01*
X58633167Y-68647013D01*
X58609134Y-68651794D01*
X58586497Y-68661170D01*
X58572729Y-68668529D01*
X58565715Y-68670657D01*
X58552280Y-68671980D01*
X58238560Y-68671980D01*
X58225125Y-68670657D01*
X58218110Y-68668529D01*
X58211644Y-68665072D01*
X58205978Y-68660422D01*
X58201328Y-68654756D01*
X58197871Y-68648290D01*
X58195743Y-68641275D01*
X58194420Y-68627840D01*
X58194420Y-67139120D01*
X58195743Y-67125685D01*
X58197871Y-67118670D01*
X58201328Y-67112204D01*
X58205978Y-67106538D01*
X58211644Y-67101888D01*
X58218110Y-67098431D01*
X58225125Y-67096303D01*
X58238560Y-67094980D01*
X58552280Y-67094980D01*
X58565715Y-67096303D01*
G37*
G36*
X34258732Y-66683167D02*
G01*
X34408032Y-66712864D01*
X34572004Y-66780784D01*
X34719574Y-66879387D01*
X34845073Y-67004886D01*
X34943676Y-67152456D01*
X35011596Y-67316428D01*
X35046220Y-67490499D01*
X35046220Y-67667981D01*
X35011596Y-67842052D01*
X34943676Y-68006024D01*
X34845073Y-68153594D01*
X34719574Y-68279093D01*
X34572004Y-68377696D01*
X34408032Y-68445616D01*
X34258732Y-68475313D01*
X34233962Y-68480240D01*
X34056478Y-68480240D01*
X34031708Y-68475313D01*
X33882408Y-68445616D01*
X33718436Y-68377696D01*
X33570866Y-68279093D01*
X33445367Y-68153594D01*
X33346764Y-68006024D01*
X33278844Y-67842052D01*
X33244220Y-67667981D01*
X33244220Y-67490499D01*
X33278844Y-67316428D01*
X33346764Y-67152456D01*
X33445367Y-67004886D01*
X33570866Y-66879387D01*
X33718436Y-66780784D01*
X33882408Y-66712864D01*
X34031708Y-66683167D01*
X34056478Y-66678240D01*
X34233962Y-66678240D01*
X34258732Y-66683167D01*
G37*
G36*
X54366428Y-67373205D02*
G01*
X54405098Y-67384936D01*
X54440737Y-67403986D01*
X54471977Y-67429623D01*
X54497614Y-67460863D01*
X54516664Y-67496502D01*
X54528395Y-67535172D01*
X54532960Y-67581528D01*
X54532960Y-68232752D01*
X54528395Y-68279108D01*
X54516664Y-68317778D01*
X54497614Y-68353417D01*
X54471977Y-68384657D01*
X54440737Y-68410294D01*
X54405098Y-68429344D01*
X54366428Y-68441075D01*
X54320072Y-68445640D01*
X53243848Y-68445640D01*
X53197492Y-68441075D01*
X53158822Y-68429344D01*
X53123183Y-68410294D01*
X53091943Y-68384657D01*
X53066306Y-68353417D01*
X53047256Y-68317778D01*
X53035525Y-68279108D01*
X53030960Y-68232752D01*
X53030960Y-67581528D01*
X53035525Y-67535172D01*
X53047256Y-67496502D01*
X53066306Y-67460863D01*
X53091943Y-67429623D01*
X53123183Y-67403986D01*
X53158822Y-67384936D01*
X53197492Y-67373205D01*
X53243848Y-67368640D01*
X54320072Y-67368640D01*
X54366428Y-67373205D01*
G37*
G36*
X57740715Y-60771303D02*
G01*
X57747730Y-60773431D01*
X57754196Y-60776888D01*
X57759862Y-60781538D01*
X57764512Y-60787204D01*
X57767969Y-60793670D01*
X57770097Y-60800685D01*
X57771420Y-60814120D01*
X57771420Y-61127840D01*
X57770097Y-61141275D01*
X57767969Y-61148289D01*
X57760610Y-61162057D01*
X57751233Y-61184696D01*
X57746453Y-61208729D01*
X57746453Y-61233233D01*
X57751234Y-61257266D01*
X57760610Y-61279903D01*
X57767969Y-61293671D01*
X57770097Y-61300685D01*
X57771420Y-61314120D01*
X57771420Y-61627840D01*
X57770097Y-61641275D01*
X57767969Y-61648289D01*
X57760610Y-61662057D01*
X57751233Y-61684696D01*
X57746453Y-61708729D01*
X57746453Y-61733233D01*
X57751234Y-61757266D01*
X57760610Y-61779903D01*
X57767969Y-61793671D01*
X57770097Y-61800685D01*
X57771420Y-61814120D01*
X57771420Y-62127840D01*
X57770097Y-62141275D01*
X57767969Y-62148289D01*
X57760610Y-62162057D01*
X57751233Y-62184696D01*
X57746453Y-62208729D01*
X57746453Y-62233233D01*
X57751234Y-62257266D01*
X57760610Y-62279903D01*
X57767969Y-62293671D01*
X57770097Y-62300685D01*
X57771420Y-62314120D01*
X57771420Y-62627840D01*
X57770097Y-62641275D01*
X57767969Y-62648289D01*
X57760610Y-62662057D01*
X57751233Y-62684696D01*
X57746453Y-62708729D01*
X57746453Y-62733233D01*
X57751234Y-62757266D01*
X57760610Y-62779903D01*
X57767969Y-62793671D01*
X57770097Y-62800685D01*
X57771420Y-62814120D01*
X57771420Y-63127840D01*
X57770097Y-63141275D01*
X57767969Y-63148289D01*
X57760610Y-63162057D01*
X57751233Y-63184696D01*
X57746453Y-63208729D01*
X57746453Y-63233233D01*
X57751234Y-63257266D01*
X57760610Y-63279903D01*
X57767969Y-63293671D01*
X57770097Y-63300685D01*
X57771420Y-63314120D01*
X57771420Y-63627840D01*
X57770097Y-63641275D01*
X57767969Y-63648289D01*
X57760610Y-63662057D01*
X57751233Y-63684696D01*
X57746453Y-63708729D01*
X57746453Y-63733233D01*
X57751234Y-63757266D01*
X57760610Y-63779903D01*
X57767969Y-63793671D01*
X57770097Y-63800685D01*
X57771420Y-63814120D01*
X57771420Y-64127840D01*
X57770097Y-64141275D01*
X57767969Y-64148289D01*
X57760610Y-64162057D01*
X57751233Y-64184696D01*
X57746453Y-64208729D01*
X57746453Y-64233233D01*
X57751234Y-64257266D01*
X57760610Y-64279903D01*
X57767969Y-64293671D01*
X57770097Y-64300685D01*
X57771420Y-64314120D01*
X57771420Y-64627840D01*
X57770097Y-64641275D01*
X57767969Y-64648289D01*
X57760610Y-64662057D01*
X57751233Y-64684696D01*
X57746453Y-64708729D01*
X57746453Y-64733233D01*
X57751234Y-64757266D01*
X57760610Y-64779903D01*
X57767969Y-64793671D01*
X57770097Y-64800685D01*
X57771420Y-64814120D01*
X57771420Y-65127840D01*
X57770097Y-65141275D01*
X57767969Y-65148289D01*
X57760610Y-65162057D01*
X57751233Y-65184696D01*
X57746453Y-65208729D01*
X57746453Y-65233233D01*
X57751234Y-65257266D01*
X57760610Y-65279903D01*
X57767969Y-65293671D01*
X57770097Y-65300685D01*
X57771420Y-65314120D01*
X57771420Y-65627840D01*
X57770097Y-65641275D01*
X57767969Y-65648289D01*
X57760610Y-65662057D01*
X57751233Y-65684696D01*
X57746453Y-65708729D01*
X57746453Y-65733233D01*
X57751234Y-65757266D01*
X57760610Y-65779903D01*
X57767969Y-65793671D01*
X57770097Y-65800685D01*
X57771420Y-65814120D01*
X57771420Y-66127840D01*
X57770097Y-66141275D01*
X57767969Y-66148289D01*
X57760610Y-66162057D01*
X57751233Y-66184696D01*
X57746453Y-66208729D01*
X57746453Y-66233233D01*
X57751234Y-66257266D01*
X57760610Y-66279903D01*
X57767969Y-66293671D01*
X57770097Y-66300685D01*
X57771420Y-66314120D01*
X57771420Y-66627840D01*
X57770097Y-66641275D01*
X57767969Y-66648290D01*
X57764512Y-66654756D01*
X57759862Y-66660422D01*
X57754196Y-66665072D01*
X57747730Y-66668529D01*
X57740715Y-66670657D01*
X57727280Y-66671980D01*
X56238560Y-66671980D01*
X56225125Y-66670657D01*
X56218110Y-66668529D01*
X56211644Y-66665072D01*
X56205978Y-66660422D01*
X56201328Y-66654756D01*
X56197871Y-66648290D01*
X56195743Y-66641275D01*
X56194420Y-66627840D01*
X56194420Y-66314120D01*
X56195743Y-66300685D01*
X56197871Y-66293671D01*
X56205230Y-66279903D01*
X56214607Y-66257264D01*
X56219387Y-66233231D01*
X56219387Y-66208727D01*
X56214606Y-66184694D01*
X56205230Y-66162057D01*
X56197871Y-66148289D01*
X56195743Y-66141275D01*
X56194420Y-66127840D01*
X56194420Y-65814120D01*
X56195743Y-65800685D01*
X56197871Y-65793671D01*
X56205230Y-65779903D01*
X56214607Y-65757264D01*
X56219387Y-65733231D01*
X56219387Y-65708727D01*
X56214606Y-65684694D01*
X56205230Y-65662057D01*
X56197871Y-65648289D01*
X56195743Y-65641275D01*
X56194420Y-65627840D01*
X56194420Y-65314120D01*
X56195743Y-65300685D01*
X56197871Y-65293671D01*
X56205230Y-65279903D01*
X56214607Y-65257264D01*
X56219387Y-65233231D01*
X56219387Y-65208727D01*
X56214606Y-65184694D01*
X56205230Y-65162057D01*
X56197871Y-65148289D01*
X56195743Y-65141275D01*
X56194420Y-65127840D01*
X56194420Y-64814120D01*
X56195743Y-64800685D01*
X56197871Y-64793671D01*
X56205230Y-64779903D01*
X56214607Y-64757264D01*
X56219387Y-64733231D01*
X56219387Y-64708727D01*
X56214606Y-64684694D01*
X56205230Y-64662057D01*
X56197871Y-64648289D01*
X56195743Y-64641275D01*
X56194420Y-64627840D01*
X56194420Y-64314120D01*
X56195743Y-64300685D01*
X56197871Y-64293671D01*
X56205230Y-64279903D01*
X56214607Y-64257264D01*
X56219387Y-64233231D01*
X56219387Y-64208727D01*
X56214606Y-64184694D01*
X56205230Y-64162057D01*
X56197871Y-64148289D01*
X56195743Y-64141275D01*
X56194420Y-64127840D01*
X56194420Y-63814120D01*
X56195743Y-63800685D01*
X56197871Y-63793671D01*
X56205230Y-63779903D01*
X56214607Y-63757264D01*
X56219387Y-63733231D01*
X56219387Y-63708727D01*
X56214606Y-63684694D01*
X56205230Y-63662057D01*
X56197871Y-63648289D01*
X56195743Y-63641275D01*
X56194420Y-63627840D01*
X56194420Y-63314120D01*
X56195743Y-63300685D01*
X56197871Y-63293671D01*
X56205230Y-63279903D01*
X56214607Y-63257264D01*
X56219387Y-63233231D01*
X56219387Y-63208727D01*
X56214606Y-63184694D01*
X56205230Y-63162057D01*
X56197871Y-63148289D01*
X56195743Y-63141275D01*
X56194420Y-63127840D01*
X56194420Y-62814120D01*
X56195743Y-62800685D01*
X56197871Y-62793671D01*
X56205230Y-62779903D01*
X56214607Y-62757264D01*
X56219387Y-62733231D01*
X56219387Y-62708727D01*
X56214606Y-62684694D01*
X56205230Y-62662057D01*
X56197871Y-62648289D01*
X56195743Y-62641275D01*
X56194420Y-62627840D01*
X56194420Y-62314120D01*
X56195743Y-62300685D01*
X56197871Y-62293671D01*
X56205230Y-62279903D01*
X56214607Y-62257264D01*
X56219387Y-62233231D01*
X56219387Y-62208727D01*
X56214606Y-62184694D01*
X56205230Y-62162057D01*
X56197871Y-62148289D01*
X56195743Y-62141275D01*
X56194420Y-62127840D01*
X56194420Y-61814120D01*
X56195743Y-61800685D01*
X56197871Y-61793671D01*
X56205230Y-61779903D01*
X56214607Y-61757264D01*
X56219387Y-61733231D01*
X56219387Y-61708727D01*
X56214606Y-61684694D01*
X56205230Y-61662057D01*
X56197871Y-61648289D01*
X56195743Y-61641275D01*
X56194420Y-61627840D01*
X56194420Y-61314120D01*
X56195743Y-61300685D01*
X56197871Y-61293671D01*
X56205230Y-61279903D01*
X56214607Y-61257264D01*
X56219387Y-61233231D01*
X56219387Y-61208727D01*
X56214606Y-61184694D01*
X56205230Y-61162057D01*
X56197871Y-61148289D01*
X56195743Y-61141275D01*
X56194420Y-61127840D01*
X56194420Y-60814120D01*
X56195743Y-60800685D01*
X56197871Y-60793670D01*
X56201328Y-60787204D01*
X56205978Y-60781538D01*
X56211644Y-60776888D01*
X56218110Y-60773431D01*
X56225125Y-60771303D01*
X56238560Y-60769980D01*
X57727280Y-60769980D01*
X57740715Y-60771303D01*
G37*
G36*
X66065715Y-60771303D02*
G01*
X66072730Y-60773431D01*
X66079196Y-60776888D01*
X66084862Y-60781538D01*
X66089512Y-60787204D01*
X66092969Y-60793670D01*
X66095097Y-60800685D01*
X66096420Y-60814120D01*
X66096420Y-61127840D01*
X66095097Y-61141275D01*
X66092969Y-61148289D01*
X66085610Y-61162057D01*
X66076233Y-61184696D01*
X66071453Y-61208729D01*
X66071453Y-61233233D01*
X66076234Y-61257266D01*
X66085610Y-61279903D01*
X66092969Y-61293671D01*
X66095097Y-61300685D01*
X66096420Y-61314120D01*
X66096420Y-61627840D01*
X66095097Y-61641275D01*
X66092969Y-61648289D01*
X66085610Y-61662057D01*
X66076233Y-61684696D01*
X66071453Y-61708729D01*
X66071453Y-61733233D01*
X66076234Y-61757266D01*
X66085610Y-61779903D01*
X66092969Y-61793671D01*
X66095097Y-61800685D01*
X66096420Y-61814120D01*
X66096420Y-62127840D01*
X66095097Y-62141275D01*
X66092969Y-62148289D01*
X66085610Y-62162057D01*
X66076233Y-62184696D01*
X66071453Y-62208729D01*
X66071453Y-62233233D01*
X66076234Y-62257266D01*
X66085610Y-62279903D01*
X66092969Y-62293671D01*
X66095097Y-62300685D01*
X66096420Y-62314120D01*
X66096420Y-62627840D01*
X66095097Y-62641275D01*
X66092969Y-62648289D01*
X66085610Y-62662057D01*
X66076233Y-62684696D01*
X66071453Y-62708729D01*
X66071453Y-62733233D01*
X66076234Y-62757266D01*
X66085610Y-62779903D01*
X66092969Y-62793671D01*
X66095097Y-62800685D01*
X66096420Y-62814120D01*
X66096420Y-63127840D01*
X66095097Y-63141275D01*
X66092969Y-63148289D01*
X66085610Y-63162057D01*
X66076233Y-63184696D01*
X66071453Y-63208729D01*
X66071453Y-63233233D01*
X66076234Y-63257266D01*
X66085610Y-63279903D01*
X66092969Y-63293671D01*
X66095097Y-63300685D01*
X66096420Y-63314120D01*
X66096420Y-63627840D01*
X66095097Y-63641275D01*
X66092969Y-63648289D01*
X66085610Y-63662057D01*
X66076233Y-63684696D01*
X66071453Y-63708729D01*
X66071453Y-63733233D01*
X66076234Y-63757266D01*
X66085610Y-63779903D01*
X66092969Y-63793671D01*
X66095097Y-63800685D01*
X66096420Y-63814120D01*
X66096420Y-64127840D01*
X66095097Y-64141275D01*
X66092969Y-64148289D01*
X66085610Y-64162057D01*
X66076233Y-64184696D01*
X66071453Y-64208729D01*
X66071453Y-64233233D01*
X66076234Y-64257266D01*
X66085610Y-64279903D01*
X66092969Y-64293671D01*
X66095097Y-64300685D01*
X66096420Y-64314120D01*
X66096420Y-64627840D01*
X66095097Y-64641275D01*
X66092969Y-64648289D01*
X66085610Y-64662057D01*
X66076233Y-64684696D01*
X66071453Y-64708729D01*
X66071453Y-64733233D01*
X66076234Y-64757266D01*
X66085610Y-64779903D01*
X66092969Y-64793671D01*
X66095097Y-64800685D01*
X66096420Y-64814120D01*
X66096420Y-65127840D01*
X66095097Y-65141275D01*
X66092969Y-65148289D01*
X66085610Y-65162057D01*
X66076233Y-65184696D01*
X66071453Y-65208729D01*
X66071453Y-65233233D01*
X66076234Y-65257266D01*
X66085610Y-65279903D01*
X66092969Y-65293671D01*
X66095097Y-65300685D01*
X66096420Y-65314120D01*
X66096420Y-65627840D01*
X66095097Y-65641275D01*
X66092969Y-65648289D01*
X66085610Y-65662057D01*
X66076233Y-65684696D01*
X66071453Y-65708729D01*
X66071453Y-65733233D01*
X66076234Y-65757266D01*
X66085610Y-65779903D01*
X66092969Y-65793671D01*
X66095097Y-65800685D01*
X66096420Y-65814120D01*
X66096420Y-66127840D01*
X66095097Y-66141275D01*
X66092969Y-66148289D01*
X66085610Y-66162057D01*
X66076233Y-66184696D01*
X66071453Y-66208729D01*
X66071453Y-66233233D01*
X66076234Y-66257266D01*
X66085610Y-66279903D01*
X66092969Y-66293671D01*
X66095097Y-66300685D01*
X66096420Y-66314120D01*
X66096420Y-66627840D01*
X66095097Y-66641275D01*
X66092969Y-66648290D01*
X66089512Y-66654756D01*
X66084862Y-66660422D01*
X66079196Y-66665072D01*
X66072730Y-66668529D01*
X66065715Y-66670657D01*
X66052280Y-66671980D01*
X64563560Y-66671980D01*
X64550125Y-66670657D01*
X64543110Y-66668529D01*
X64536644Y-66665072D01*
X64530978Y-66660422D01*
X64526328Y-66654756D01*
X64522871Y-66648290D01*
X64520743Y-66641275D01*
X64519420Y-66627840D01*
X64519420Y-66314120D01*
X64520743Y-66300685D01*
X64522871Y-66293671D01*
X64530230Y-66279903D01*
X64539607Y-66257264D01*
X64544387Y-66233231D01*
X64544387Y-66208727D01*
X64539606Y-66184694D01*
X64530230Y-66162057D01*
X64522871Y-66148289D01*
X64520743Y-66141275D01*
X64519420Y-66127840D01*
X64519420Y-65814120D01*
X64520743Y-65800685D01*
X64522871Y-65793671D01*
X64530230Y-65779903D01*
X64539607Y-65757264D01*
X64544387Y-65733231D01*
X64544387Y-65708727D01*
X64539606Y-65684694D01*
X64530230Y-65662057D01*
X64522871Y-65648289D01*
X64520743Y-65641275D01*
X64519420Y-65627840D01*
X64519420Y-65314120D01*
X64520743Y-65300685D01*
X64522871Y-65293671D01*
X64530230Y-65279903D01*
X64539607Y-65257264D01*
X64544387Y-65233231D01*
X64544387Y-65208727D01*
X64539606Y-65184694D01*
X64530230Y-65162057D01*
X64522871Y-65148289D01*
X64520743Y-65141275D01*
X64519420Y-65127840D01*
X64519420Y-64814120D01*
X64520743Y-64800685D01*
X64522871Y-64793671D01*
X64530230Y-64779903D01*
X64539607Y-64757264D01*
X64544387Y-64733231D01*
X64544387Y-64708727D01*
X64539606Y-64684694D01*
X64530230Y-64662057D01*
X64522871Y-64648289D01*
X64520743Y-64641275D01*
X64519420Y-64627840D01*
X64519420Y-64314120D01*
X64520743Y-64300685D01*
X64522871Y-64293671D01*
X64530230Y-64279903D01*
X64539607Y-64257264D01*
X64544387Y-64233231D01*
X64544387Y-64208727D01*
X64539606Y-64184694D01*
X64530230Y-64162057D01*
X64522871Y-64148289D01*
X64520743Y-64141275D01*
X64519420Y-64127840D01*
X64519420Y-63814120D01*
X64520743Y-63800685D01*
X64522871Y-63793671D01*
X64530230Y-63779903D01*
X64539607Y-63757264D01*
X64544387Y-63733231D01*
X64544387Y-63708727D01*
X64539606Y-63684694D01*
X64530230Y-63662057D01*
X64522871Y-63648289D01*
X64520743Y-63641275D01*
X64519420Y-63627840D01*
X64519420Y-63314120D01*
X64520743Y-63300685D01*
X64522871Y-63293671D01*
X64530230Y-63279903D01*
X64539607Y-63257264D01*
X64544387Y-63233231D01*
X64544387Y-63208727D01*
X64539606Y-63184694D01*
X64530230Y-63162057D01*
X64522871Y-63148289D01*
X64520743Y-63141275D01*
X64519420Y-63127840D01*
X64519420Y-62814120D01*
X64520743Y-62800685D01*
X64522871Y-62793671D01*
X64530230Y-62779903D01*
X64539607Y-62757264D01*
X64544387Y-62733231D01*
X64544387Y-62708727D01*
X64539606Y-62684694D01*
X64530230Y-62662057D01*
X64522871Y-62648289D01*
X64520743Y-62641275D01*
X64519420Y-62627840D01*
X64519420Y-62314120D01*
X64520743Y-62300685D01*
X64522871Y-62293671D01*
X64530230Y-62279903D01*
X64539607Y-62257264D01*
X64544387Y-62233231D01*
X64544387Y-62208727D01*
X64539606Y-62184694D01*
X64530230Y-62162057D01*
X64522871Y-62148289D01*
X64520743Y-62141275D01*
X64519420Y-62127840D01*
X64519420Y-61814120D01*
X64520743Y-61800685D01*
X64522871Y-61793671D01*
X64530230Y-61779903D01*
X64539607Y-61757264D01*
X64544387Y-61733231D01*
X64544387Y-61708727D01*
X64539606Y-61684694D01*
X64530230Y-61662057D01*
X64522871Y-61648289D01*
X64520743Y-61641275D01*
X64519420Y-61627840D01*
X64519420Y-61314120D01*
X64520743Y-61300685D01*
X64522871Y-61293671D01*
X64530230Y-61279903D01*
X64539607Y-61257264D01*
X64544387Y-61233231D01*
X64544387Y-61208727D01*
X64539606Y-61184694D01*
X64530230Y-61162057D01*
X64522871Y-61148289D01*
X64520743Y-61141275D01*
X64519420Y-61127840D01*
X64519420Y-60814120D01*
X64520743Y-60800685D01*
X64522871Y-60793670D01*
X64526328Y-60787204D01*
X64530978Y-60781538D01*
X64536644Y-60776888D01*
X64543110Y-60773431D01*
X64550125Y-60771303D01*
X64563560Y-60769980D01*
X66052280Y-60769980D01*
X66065715Y-60771303D01*
G37*
G36*
X54366428Y-65498205D02*
G01*
X54405098Y-65509936D01*
X54440737Y-65528986D01*
X54471977Y-65554623D01*
X54497614Y-65585863D01*
X54516664Y-65621502D01*
X54528395Y-65660172D01*
X54532960Y-65706528D01*
X54532960Y-66357752D01*
X54528395Y-66404108D01*
X54516664Y-66442778D01*
X54497614Y-66478417D01*
X54471977Y-66509657D01*
X54440737Y-66535294D01*
X54405098Y-66554344D01*
X54366428Y-66566075D01*
X54320072Y-66570640D01*
X53243848Y-66570640D01*
X53197492Y-66566075D01*
X53158822Y-66554344D01*
X53123183Y-66535294D01*
X53091943Y-66509657D01*
X53066306Y-66478417D01*
X53047256Y-66442778D01*
X53035525Y-66404108D01*
X53030960Y-66357752D01*
X53030960Y-65706528D01*
X53035525Y-65660172D01*
X53047256Y-65621502D01*
X53066306Y-65585863D01*
X53091943Y-65554623D01*
X53123183Y-65528986D01*
X53158822Y-65509936D01*
X53197492Y-65498205D01*
X53243848Y-65493640D01*
X54320072Y-65493640D01*
X54366428Y-65498205D01*
G37*
G36*
X34255599Y-64142544D02*
G01*
X34408032Y-64172864D01*
X34572004Y-64240784D01*
X34719574Y-64339387D01*
X34845073Y-64464886D01*
X34943676Y-64612456D01*
X35011596Y-64776428D01*
X35046220Y-64950499D01*
X35046220Y-65127981D01*
X35011596Y-65302052D01*
X34943676Y-65466024D01*
X34845073Y-65613594D01*
X34719574Y-65739093D01*
X34572004Y-65837696D01*
X34408032Y-65905616D01*
X34258732Y-65935313D01*
X34233962Y-65940240D01*
X34056478Y-65940240D01*
X34031708Y-65935313D01*
X33882408Y-65905616D01*
X33718436Y-65837696D01*
X33570866Y-65739093D01*
X33445367Y-65613594D01*
X33346764Y-65466024D01*
X33278844Y-65302052D01*
X33244220Y-65127981D01*
X33244220Y-64950499D01*
X33278844Y-64776428D01*
X33346764Y-64612456D01*
X33445367Y-64464886D01*
X33570866Y-64339387D01*
X33718436Y-64240784D01*
X33882408Y-64172864D01*
X34034841Y-64142544D01*
X34056478Y-64138240D01*
X34233962Y-64138240D01*
X34255599Y-64142544D01*
G37*
G36*
X49466462Y-64066161D02*
G01*
X49541227Y-64097130D01*
X49612236Y-64126543D01*
X49743428Y-64214202D01*
X49854998Y-64325772D01*
X49941774Y-64455643D01*
X49942658Y-64456966D01*
X50003039Y-64602738D01*
X50033820Y-64757487D01*
X50033820Y-64915273D01*
X50003039Y-65070022D01*
X49963975Y-65164330D01*
X49942657Y-65215796D01*
X49854998Y-65346988D01*
X49743428Y-65458558D01*
X49612236Y-65546217D01*
X49612235Y-65546218D01*
X49612234Y-65546218D01*
X49466462Y-65606599D01*
X49311713Y-65637380D01*
X49153927Y-65637380D01*
X48999178Y-65606599D01*
X48853406Y-65546218D01*
X48853405Y-65546218D01*
X48853404Y-65546217D01*
X48722212Y-65458558D01*
X48610642Y-65346988D01*
X48522983Y-65215796D01*
X48501665Y-65164330D01*
X48462601Y-65070022D01*
X48431820Y-64915273D01*
X48431820Y-64757487D01*
X48462601Y-64602738D01*
X48522982Y-64456966D01*
X48523866Y-64455643D01*
X48610642Y-64325772D01*
X48722212Y-64214202D01*
X48853404Y-64126543D01*
X48924413Y-64097130D01*
X48999178Y-64066161D01*
X49153927Y-64035380D01*
X49311713Y-64035380D01*
X49466462Y-64066161D01*
G37*
G36*
X45894088Y-64066745D02*
G01*
X45932758Y-64078476D01*
X45968397Y-64097526D01*
X45999637Y-64123163D01*
X46025274Y-64154403D01*
X46044324Y-64190042D01*
X46056055Y-64228712D01*
X46060620Y-64275068D01*
X46060620Y-65351292D01*
X46056055Y-65397648D01*
X46044324Y-65436318D01*
X46025274Y-65471957D01*
X45999637Y-65503197D01*
X45968397Y-65528834D01*
X45932758Y-65547884D01*
X45894088Y-65559615D01*
X45847732Y-65564180D01*
X45196508Y-65564180D01*
X45150152Y-65559615D01*
X45111482Y-65547884D01*
X45075843Y-65528834D01*
X45044603Y-65503197D01*
X45018966Y-65471957D01*
X44999916Y-65436318D01*
X44988185Y-65397648D01*
X44983620Y-65351292D01*
X44983620Y-64275068D01*
X44988185Y-64228712D01*
X44999916Y-64190042D01*
X45018966Y-64154403D01*
X45044603Y-64123163D01*
X45075843Y-64097526D01*
X45111482Y-64078476D01*
X45150152Y-64066745D01*
X45196508Y-64062180D01*
X45847732Y-64062180D01*
X45894088Y-64066745D01*
G37*
G36*
X44019088Y-64066745D02*
G01*
X44057758Y-64078476D01*
X44093397Y-64097526D01*
X44124637Y-64123163D01*
X44150274Y-64154403D01*
X44169324Y-64190042D01*
X44181055Y-64228712D01*
X44185620Y-64275068D01*
X44185620Y-65351292D01*
X44181055Y-65397648D01*
X44169324Y-65436318D01*
X44150274Y-65471957D01*
X44124637Y-65503197D01*
X44093397Y-65528834D01*
X44057758Y-65547884D01*
X44019088Y-65559615D01*
X43972732Y-65564180D01*
X43321508Y-65564180D01*
X43275152Y-65559615D01*
X43236482Y-65547884D01*
X43200843Y-65528834D01*
X43169603Y-65503197D01*
X43143966Y-65471957D01*
X43124916Y-65436318D01*
X43113185Y-65397648D01*
X43108620Y-65351292D01*
X43108620Y-64275068D01*
X43113185Y-64228712D01*
X43124916Y-64190042D01*
X43143966Y-64154403D01*
X43169603Y-64123163D01*
X43200843Y-64097526D01*
X43236482Y-64078476D01*
X43275152Y-64066745D01*
X43321508Y-64062180D01*
X43972732Y-64062180D01*
X44019088Y-64066745D01*
G37*
G36*
X31242268Y-63832445D02*
G01*
X31280938Y-63844176D01*
X31316577Y-63863226D01*
X31347817Y-63888863D01*
X31373454Y-63920103D01*
X31392504Y-63955742D01*
X31404235Y-63994412D01*
X31408800Y-64040768D01*
X31408800Y-64691992D01*
X31404235Y-64738348D01*
X31392504Y-64777018D01*
X31373454Y-64812657D01*
X31347817Y-64843897D01*
X31316577Y-64869534D01*
X31280938Y-64888584D01*
X31242268Y-64900315D01*
X31195912Y-64904880D01*
X30119688Y-64904880D01*
X30073332Y-64900315D01*
X30034662Y-64888584D01*
X29999023Y-64869534D01*
X29967783Y-64843897D01*
X29942146Y-64812657D01*
X29923096Y-64777018D01*
X29911365Y-64738348D01*
X29906800Y-64691992D01*
X29906800Y-64040768D01*
X29911365Y-63994412D01*
X29923096Y-63955742D01*
X29942146Y-63920103D01*
X29967783Y-63888863D01*
X29999023Y-63863226D01*
X30034662Y-63844176D01*
X30073332Y-63832445D01*
X30119688Y-63827880D01*
X31195912Y-63827880D01*
X31242268Y-63832445D01*
G37*
G36*
X85516988Y-63428585D02*
G01*
X85555658Y-63440316D01*
X85591297Y-63459366D01*
X85622537Y-63485003D01*
X85648174Y-63516243D01*
X85667224Y-63551882D01*
X85678955Y-63590552D01*
X85683520Y-63636908D01*
X85683520Y-64288132D01*
X85678955Y-64334488D01*
X85667224Y-64373158D01*
X85648174Y-64408797D01*
X85622537Y-64440037D01*
X85591297Y-64465674D01*
X85555658Y-64484724D01*
X85516988Y-64496455D01*
X85470632Y-64501020D01*
X84394408Y-64501020D01*
X84348052Y-64496455D01*
X84309382Y-64484724D01*
X84273743Y-64465674D01*
X84242503Y-64440037D01*
X84216866Y-64408797D01*
X84197816Y-64373158D01*
X84186085Y-64334488D01*
X84181520Y-64288132D01*
X84181520Y-63636908D01*
X84186085Y-63590552D01*
X84197816Y-63551882D01*
X84216866Y-63516243D01*
X84242503Y-63485003D01*
X84273743Y-63459366D01*
X84309382Y-63440316D01*
X84348052Y-63428585D01*
X84394408Y-63424020D01*
X85470632Y-63424020D01*
X85516988Y-63428585D01*
G37*
G36*
X34258732Y-61603167D02*
G01*
X34408032Y-61632864D01*
X34572004Y-61700784D01*
X34719574Y-61799387D01*
X34845073Y-61924886D01*
X34943676Y-62072456D01*
X35011596Y-62236428D01*
X35030610Y-62332020D01*
X35046220Y-62410498D01*
X35046220Y-62587982D01*
X35045602Y-62591087D01*
X35011596Y-62762052D01*
X34943676Y-62926024D01*
X34845073Y-63073594D01*
X34719574Y-63199093D01*
X34572004Y-63297696D01*
X34408032Y-63365616D01*
X34258732Y-63395313D01*
X34233962Y-63400240D01*
X34056478Y-63400240D01*
X34031708Y-63395313D01*
X33882408Y-63365616D01*
X33718436Y-63297696D01*
X33570866Y-63199093D01*
X33445367Y-63073594D01*
X33346764Y-62926024D01*
X33278844Y-62762052D01*
X33244838Y-62591087D01*
X33244220Y-62587982D01*
X33244220Y-62410498D01*
X33259830Y-62332020D01*
X33278844Y-62236428D01*
X33346764Y-62072456D01*
X33445367Y-61924886D01*
X33570866Y-61799387D01*
X33718436Y-61700784D01*
X33882408Y-61632864D01*
X34031708Y-61603167D01*
X34056478Y-61598240D01*
X34233962Y-61598240D01*
X34258732Y-61603167D01*
G37*
G36*
X31242268Y-61957445D02*
G01*
X31280938Y-61969176D01*
X31316577Y-61988226D01*
X31347817Y-62013863D01*
X31373454Y-62045103D01*
X31392504Y-62080742D01*
X31404235Y-62119412D01*
X31408800Y-62165768D01*
X31408800Y-62816992D01*
X31404235Y-62863348D01*
X31392504Y-62902018D01*
X31373454Y-62937657D01*
X31347817Y-62968897D01*
X31316577Y-62994534D01*
X31280938Y-63013584D01*
X31242268Y-63025315D01*
X31195912Y-63029880D01*
X30119688Y-63029880D01*
X30073332Y-63025315D01*
X30034662Y-63013584D01*
X29999023Y-62994534D01*
X29967783Y-62968897D01*
X29942146Y-62937657D01*
X29923096Y-62902018D01*
X29911365Y-62863348D01*
X29906800Y-62816992D01*
X29906800Y-62165768D01*
X29911365Y-62119412D01*
X29923096Y-62080742D01*
X29942146Y-62045103D01*
X29967783Y-62013863D01*
X29999023Y-61988226D01*
X30034662Y-61969176D01*
X30073332Y-61957445D01*
X30119688Y-61952880D01*
X31195912Y-61952880D01*
X31242268Y-61957445D01*
G37*
G36*
X85516988Y-61553585D02*
G01*
X85555658Y-61565316D01*
X85591297Y-61584366D01*
X85622537Y-61610003D01*
X85648174Y-61641243D01*
X85667224Y-61676882D01*
X85678955Y-61715552D01*
X85683520Y-61761908D01*
X85683520Y-62413132D01*
X85678955Y-62459488D01*
X85667224Y-62498158D01*
X85648174Y-62533797D01*
X85622537Y-62565037D01*
X85591297Y-62590674D01*
X85555658Y-62609724D01*
X85516988Y-62621455D01*
X85470632Y-62626020D01*
X84394408Y-62626020D01*
X84348052Y-62621455D01*
X84309382Y-62609724D01*
X84273743Y-62590674D01*
X84242503Y-62565037D01*
X84216866Y-62533797D01*
X84197816Y-62498158D01*
X84186085Y-62459488D01*
X84181520Y-62413132D01*
X84181520Y-61761908D01*
X84186085Y-61715552D01*
X84197816Y-61676882D01*
X84216866Y-61641243D01*
X84242503Y-61610003D01*
X84273743Y-61584366D01*
X84309382Y-61565316D01*
X84348052Y-61553585D01*
X84394408Y-61549020D01*
X85470632Y-61549020D01*
X85516988Y-61553585D01*
G37*
G36*
X68989208Y-60944465D02*
G01*
X69027878Y-60956196D01*
X69063517Y-60975246D01*
X69094757Y-61000883D01*
X69120394Y-61032123D01*
X69139444Y-61067762D01*
X69151175Y-61106432D01*
X69155740Y-61152788D01*
X69155740Y-61804012D01*
X69151175Y-61850368D01*
X69139444Y-61889038D01*
X69120394Y-61924677D01*
X69094757Y-61955917D01*
X69063517Y-61981554D01*
X69027878Y-62000604D01*
X68989208Y-62012335D01*
X68942852Y-62016900D01*
X67866628Y-62016900D01*
X67820272Y-62012335D01*
X67781602Y-62000604D01*
X67745963Y-61981554D01*
X67714723Y-61955917D01*
X67689086Y-61924677D01*
X67670036Y-61889038D01*
X67658305Y-61850368D01*
X67653740Y-61804012D01*
X67653740Y-61152788D01*
X67658305Y-61106432D01*
X67670036Y-61067762D01*
X67689086Y-61032123D01*
X67714723Y-61000883D01*
X67745963Y-60975246D01*
X67781602Y-60956196D01*
X67820272Y-60944465D01*
X67866628Y-60939900D01*
X68942852Y-60939900D01*
X68989208Y-60944465D01*
G37*
G36*
X90503640Y-60959800D02*
G01*
X88901640Y-60959800D01*
X88901640Y-59357800D01*
X90503640Y-59357800D01*
X90503640Y-60959800D01*
G37*
G36*
X49466462Y-59166161D02*
G01*
X49612234Y-59226542D01*
X49612236Y-59226543D01*
X49743428Y-59314202D01*
X49854998Y-59425772D01*
X49874280Y-59454630D01*
X49942658Y-59556966D01*
X50003039Y-59702738D01*
X50033820Y-59857487D01*
X50033820Y-60015273D01*
X50003039Y-60170022D01*
X49971369Y-60246480D01*
X49942657Y-60315796D01*
X49854998Y-60446988D01*
X49743428Y-60558558D01*
X49612236Y-60646217D01*
X49612235Y-60646218D01*
X49612234Y-60646218D01*
X49466462Y-60706599D01*
X49311713Y-60737380D01*
X49153927Y-60737380D01*
X48999178Y-60706599D01*
X48853406Y-60646218D01*
X48853405Y-60646218D01*
X48853404Y-60646217D01*
X48722212Y-60558558D01*
X48610642Y-60446988D01*
X48522983Y-60315796D01*
X48494271Y-60246480D01*
X48462601Y-60170022D01*
X48431820Y-60015273D01*
X48431820Y-59857487D01*
X48462601Y-59702738D01*
X48522982Y-59556966D01*
X48591360Y-59454630D01*
X48610642Y-59425772D01*
X48722212Y-59314202D01*
X48853404Y-59226543D01*
X48853406Y-59226542D01*
X48999178Y-59166161D01*
X49153927Y-59135380D01*
X49311713Y-59135380D01*
X49466462Y-59166161D01*
G37*
G36*
X44019088Y-59189945D02*
G01*
X44057758Y-59201676D01*
X44093397Y-59220726D01*
X44124637Y-59246363D01*
X44150274Y-59277603D01*
X44169324Y-59313242D01*
X44181055Y-59351912D01*
X44185620Y-59398268D01*
X44185620Y-60474492D01*
X44181055Y-60520848D01*
X44169324Y-60559518D01*
X44150274Y-60595157D01*
X44124637Y-60626397D01*
X44093397Y-60652034D01*
X44057758Y-60671084D01*
X44019088Y-60682815D01*
X43972732Y-60687380D01*
X43321508Y-60687380D01*
X43275152Y-60682815D01*
X43236482Y-60671084D01*
X43200843Y-60652034D01*
X43169603Y-60626397D01*
X43143966Y-60595157D01*
X43124916Y-60559518D01*
X43113185Y-60520848D01*
X43108620Y-60474492D01*
X43108620Y-59398268D01*
X43113185Y-59351912D01*
X43124916Y-59313242D01*
X43143966Y-59277603D01*
X43169603Y-59246363D01*
X43200843Y-59220726D01*
X43236482Y-59201676D01*
X43275152Y-59189945D01*
X43321508Y-59185380D01*
X43972732Y-59185380D01*
X44019088Y-59189945D01*
G37*
G36*
X45894088Y-59189945D02*
G01*
X45932758Y-59201676D01*
X45968397Y-59220726D01*
X45999637Y-59246363D01*
X46025274Y-59277603D01*
X46044324Y-59313242D01*
X46056055Y-59351912D01*
X46060620Y-59398268D01*
X46060620Y-60474492D01*
X46056055Y-60520848D01*
X46044324Y-60559518D01*
X46025274Y-60595157D01*
X45999637Y-60626397D01*
X45968397Y-60652034D01*
X45932758Y-60671084D01*
X45894088Y-60682815D01*
X45847732Y-60687380D01*
X45196508Y-60687380D01*
X45150152Y-60682815D01*
X45111482Y-60671084D01*
X45075843Y-60652034D01*
X45044603Y-60626397D01*
X45018966Y-60595157D01*
X44999916Y-60559518D01*
X44988185Y-60520848D01*
X44983620Y-60474492D01*
X44983620Y-59398268D01*
X44988185Y-59351912D01*
X44999916Y-59313242D01*
X45018966Y-59277603D01*
X45044603Y-59246363D01*
X45075843Y-59220726D01*
X45111482Y-59201676D01*
X45150152Y-59189945D01*
X45196508Y-59185380D01*
X45847732Y-59185380D01*
X45894088Y-59189945D01*
G37*
G36*
X58565715Y-58771303D02*
G01*
X58572729Y-58773431D01*
X58586497Y-58780790D01*
X58609136Y-58790167D01*
X58633169Y-58794947D01*
X58657673Y-58794947D01*
X58681706Y-58790166D01*
X58704343Y-58780790D01*
X58718111Y-58773431D01*
X58725125Y-58771303D01*
X58738560Y-58769980D01*
X59052280Y-58769980D01*
X59065715Y-58771303D01*
X59072729Y-58773431D01*
X59086497Y-58780790D01*
X59109136Y-58790167D01*
X59133169Y-58794947D01*
X59157673Y-58794947D01*
X59181706Y-58790166D01*
X59204343Y-58780790D01*
X59218111Y-58773431D01*
X59225125Y-58771303D01*
X59238560Y-58769980D01*
X59552280Y-58769980D01*
X59565715Y-58771303D01*
X59572729Y-58773431D01*
X59586497Y-58780790D01*
X59609136Y-58790167D01*
X59633169Y-58794947D01*
X59657673Y-58794947D01*
X59681706Y-58790166D01*
X59704343Y-58780790D01*
X59718111Y-58773431D01*
X59725125Y-58771303D01*
X59738560Y-58769980D01*
X60052280Y-58769980D01*
X60065715Y-58771303D01*
X60072729Y-58773431D01*
X60086497Y-58780790D01*
X60109136Y-58790167D01*
X60133169Y-58794947D01*
X60157673Y-58794947D01*
X60181706Y-58790166D01*
X60204343Y-58780790D01*
X60218111Y-58773431D01*
X60225125Y-58771303D01*
X60238560Y-58769980D01*
X60552280Y-58769980D01*
X60565715Y-58771303D01*
X60572729Y-58773431D01*
X60586497Y-58780790D01*
X60609136Y-58790167D01*
X60633169Y-58794947D01*
X60657673Y-58794947D01*
X60681706Y-58790166D01*
X60704343Y-58780790D01*
X60718111Y-58773431D01*
X60725125Y-58771303D01*
X60738560Y-58769980D01*
X61052280Y-58769980D01*
X61065715Y-58771303D01*
X61072729Y-58773431D01*
X61086497Y-58780790D01*
X61109136Y-58790167D01*
X61133169Y-58794947D01*
X61157673Y-58794947D01*
X61181706Y-58790166D01*
X61204343Y-58780790D01*
X61218111Y-58773431D01*
X61225125Y-58771303D01*
X61238560Y-58769980D01*
X61552280Y-58769980D01*
X61565715Y-58771303D01*
X61572729Y-58773431D01*
X61586497Y-58780790D01*
X61609136Y-58790167D01*
X61633169Y-58794947D01*
X61657673Y-58794947D01*
X61681706Y-58790166D01*
X61704343Y-58780790D01*
X61718111Y-58773431D01*
X61725125Y-58771303D01*
X61738560Y-58769980D01*
X62052280Y-58769980D01*
X62065715Y-58771303D01*
X62072729Y-58773431D01*
X62086497Y-58780790D01*
X62109136Y-58790167D01*
X62133169Y-58794947D01*
X62157673Y-58794947D01*
X62181706Y-58790166D01*
X62204343Y-58780790D01*
X62218111Y-58773431D01*
X62225125Y-58771303D01*
X62238560Y-58769980D01*
X62552280Y-58769980D01*
X62565715Y-58771303D01*
X62572729Y-58773431D01*
X62586497Y-58780790D01*
X62609136Y-58790167D01*
X62633169Y-58794947D01*
X62657673Y-58794947D01*
X62681706Y-58790166D01*
X62704343Y-58780790D01*
X62718111Y-58773431D01*
X62725125Y-58771303D01*
X62738560Y-58769980D01*
X63052280Y-58769980D01*
X63065715Y-58771303D01*
X63072729Y-58773431D01*
X63086497Y-58780790D01*
X63109136Y-58790167D01*
X63133169Y-58794947D01*
X63157673Y-58794947D01*
X63181706Y-58790166D01*
X63204343Y-58780790D01*
X63218111Y-58773431D01*
X63225125Y-58771303D01*
X63238560Y-58769980D01*
X63552280Y-58769980D01*
X63565715Y-58771303D01*
X63572729Y-58773431D01*
X63586497Y-58780790D01*
X63609136Y-58790167D01*
X63633169Y-58794947D01*
X63657673Y-58794947D01*
X63681706Y-58790166D01*
X63704343Y-58780790D01*
X63718111Y-58773431D01*
X63725125Y-58771303D01*
X63738560Y-58769980D01*
X64052280Y-58769980D01*
X64065715Y-58771303D01*
X64072730Y-58773431D01*
X64079196Y-58776888D01*
X64084862Y-58781538D01*
X64089512Y-58787204D01*
X64092969Y-58793670D01*
X64095097Y-58800685D01*
X64096420Y-58814120D01*
X64096420Y-60302840D01*
X64095097Y-60316275D01*
X64092969Y-60323290D01*
X64089512Y-60329756D01*
X64084862Y-60335422D01*
X64079196Y-60340072D01*
X64072730Y-60343529D01*
X64065715Y-60345657D01*
X64052280Y-60346980D01*
X63738560Y-60346980D01*
X63725125Y-60345657D01*
X63718111Y-60343529D01*
X63704343Y-60336170D01*
X63681704Y-60326793D01*
X63657671Y-60322013D01*
X63633167Y-60322013D01*
X63609134Y-60326794D01*
X63586497Y-60336170D01*
X63572729Y-60343529D01*
X63565715Y-60345657D01*
X63552280Y-60346980D01*
X63238560Y-60346980D01*
X63225125Y-60345657D01*
X63218111Y-60343529D01*
X63204343Y-60336170D01*
X63181704Y-60326793D01*
X63157671Y-60322013D01*
X63133167Y-60322013D01*
X63109134Y-60326794D01*
X63086497Y-60336170D01*
X63072729Y-60343529D01*
X63065715Y-60345657D01*
X63052280Y-60346980D01*
X62738560Y-60346980D01*
X62725125Y-60345657D01*
X62718111Y-60343529D01*
X62704343Y-60336170D01*
X62681704Y-60326793D01*
X62657671Y-60322013D01*
X62633167Y-60322013D01*
X62609134Y-60326794D01*
X62586497Y-60336170D01*
X62572729Y-60343529D01*
X62565715Y-60345657D01*
X62552280Y-60346980D01*
X62238560Y-60346980D01*
X62225125Y-60345657D01*
X62218111Y-60343529D01*
X62204343Y-60336170D01*
X62181704Y-60326793D01*
X62157671Y-60322013D01*
X62133167Y-60322013D01*
X62109134Y-60326794D01*
X62086497Y-60336170D01*
X62072729Y-60343529D01*
X62065715Y-60345657D01*
X62052280Y-60346980D01*
X61738560Y-60346980D01*
X61725125Y-60345657D01*
X61718111Y-60343529D01*
X61704343Y-60336170D01*
X61681704Y-60326793D01*
X61657671Y-60322013D01*
X61633167Y-60322013D01*
X61609134Y-60326794D01*
X61586497Y-60336170D01*
X61572729Y-60343529D01*
X61565715Y-60345657D01*
X61552280Y-60346980D01*
X61238560Y-60346980D01*
X61225125Y-60345657D01*
X61218111Y-60343529D01*
X61204343Y-60336170D01*
X61181704Y-60326793D01*
X61157671Y-60322013D01*
X61133167Y-60322013D01*
X61109134Y-60326794D01*
X61086497Y-60336170D01*
X61072729Y-60343529D01*
X61065715Y-60345657D01*
X61052280Y-60346980D01*
X60738560Y-60346980D01*
X60725125Y-60345657D01*
X60718111Y-60343529D01*
X60704343Y-60336170D01*
X60681704Y-60326793D01*
X60657671Y-60322013D01*
X60633167Y-60322013D01*
X60609134Y-60326794D01*
X60586497Y-60336170D01*
X60572729Y-60343529D01*
X60565715Y-60345657D01*
X60552280Y-60346980D01*
X60238560Y-60346980D01*
X60225125Y-60345657D01*
X60218111Y-60343529D01*
X60204343Y-60336170D01*
X60181704Y-60326793D01*
X60157671Y-60322013D01*
X60133167Y-60322013D01*
X60109134Y-60326794D01*
X60086497Y-60336170D01*
X60072729Y-60343529D01*
X60065715Y-60345657D01*
X60052280Y-60346980D01*
X59738560Y-60346980D01*
X59725125Y-60345657D01*
X59718111Y-60343529D01*
X59704343Y-60336170D01*
X59681704Y-60326793D01*
X59657671Y-60322013D01*
X59633167Y-60322013D01*
X59609134Y-60326794D01*
X59586497Y-60336170D01*
X59572729Y-60343529D01*
X59565715Y-60345657D01*
X59552280Y-60346980D01*
X59238560Y-60346980D01*
X59225125Y-60345657D01*
X59218111Y-60343529D01*
X59204343Y-60336170D01*
X59181704Y-60326793D01*
X59157671Y-60322013D01*
X59133167Y-60322013D01*
X59109134Y-60326794D01*
X59086497Y-60336170D01*
X59072729Y-60343529D01*
X59065715Y-60345657D01*
X59052280Y-60346980D01*
X58738560Y-60346980D01*
X58725125Y-60345657D01*
X58718111Y-60343529D01*
X58704343Y-60336170D01*
X58681704Y-60326793D01*
X58657671Y-60322013D01*
X58633167Y-60322013D01*
X58609134Y-60326794D01*
X58586497Y-60336170D01*
X58572729Y-60343529D01*
X58565715Y-60345657D01*
X58552280Y-60346980D01*
X58238560Y-60346980D01*
X58225125Y-60345657D01*
X58218110Y-60343529D01*
X58211644Y-60340072D01*
X58205978Y-60335422D01*
X58201328Y-60329756D01*
X58197871Y-60323290D01*
X58195743Y-60316275D01*
X58194420Y-60302840D01*
X58194420Y-58814120D01*
X58195743Y-58800685D01*
X58197871Y-58793670D01*
X58201328Y-58787204D01*
X58205978Y-58781538D01*
X58211644Y-58776888D01*
X58218110Y-58773431D01*
X58225125Y-58771303D01*
X58238560Y-58769980D01*
X58552280Y-58769980D01*
X58565715Y-58771303D01*
G37*
G36*
X68989208Y-59069465D02*
G01*
X69027878Y-59081196D01*
X69063517Y-59100246D01*
X69094757Y-59125883D01*
X69120394Y-59157123D01*
X69139444Y-59192762D01*
X69151175Y-59231432D01*
X69155740Y-59277788D01*
X69155740Y-59929012D01*
X69151175Y-59975368D01*
X69139444Y-60014038D01*
X69120394Y-60049677D01*
X69094757Y-60080917D01*
X69063517Y-60106554D01*
X69027878Y-60125604D01*
X68989208Y-60137335D01*
X68942852Y-60141900D01*
X67866628Y-60141900D01*
X67820272Y-60137335D01*
X67781602Y-60125604D01*
X67745963Y-60106554D01*
X67714723Y-60080917D01*
X67689086Y-60049677D01*
X67670036Y-60014038D01*
X67658305Y-59975368D01*
X67653740Y-59929012D01*
X67653740Y-59277788D01*
X67658305Y-59231432D01*
X67670036Y-59192762D01*
X67689086Y-59157123D01*
X67714723Y-59125883D01*
X67745963Y-59100246D01*
X67781602Y-59081196D01*
X67820272Y-59069465D01*
X67866628Y-59064900D01*
X68942852Y-59064900D01*
X68989208Y-59069465D01*
G37*
G36*
X55197008Y-59029305D02*
G01*
X55235678Y-59041036D01*
X55271317Y-59060086D01*
X55302557Y-59085723D01*
X55328194Y-59116963D01*
X55347244Y-59152602D01*
X55358975Y-59191272D01*
X55363540Y-59237628D01*
X55363540Y-59888852D01*
X55358975Y-59935208D01*
X55347244Y-59973878D01*
X55328194Y-60009517D01*
X55302557Y-60040757D01*
X55271317Y-60066394D01*
X55235678Y-60085444D01*
X55197008Y-60097175D01*
X55150652Y-60101740D01*
X54074428Y-60101740D01*
X54028072Y-60097175D01*
X53989402Y-60085444D01*
X53953763Y-60066394D01*
X53922523Y-60040757D01*
X53896886Y-60009517D01*
X53877836Y-59973878D01*
X53866105Y-59935208D01*
X53861540Y-59888852D01*
X53861540Y-59237628D01*
X53866105Y-59191272D01*
X53877836Y-59152602D01*
X53896886Y-59116963D01*
X53922523Y-59085723D01*
X53953763Y-59060086D01*
X53989402Y-59041036D01*
X54028072Y-59029305D01*
X54074428Y-59024740D01*
X55150652Y-59024740D01*
X55197008Y-59029305D01*
G37*
G36*
X55197008Y-57154305D02*
G01*
X55235678Y-57166036D01*
X55271317Y-57185086D01*
X55302557Y-57210723D01*
X55328194Y-57241963D01*
X55347244Y-57277602D01*
X55358975Y-57316272D01*
X55363540Y-57362628D01*
X55363540Y-58013852D01*
X55358975Y-58060208D01*
X55347244Y-58098878D01*
X55328194Y-58134517D01*
X55302557Y-58165757D01*
X55271317Y-58191394D01*
X55235678Y-58210444D01*
X55197008Y-58222175D01*
X55150652Y-58226740D01*
X54074428Y-58226740D01*
X54028072Y-58222175D01*
X53989402Y-58210444D01*
X53953763Y-58191394D01*
X53922523Y-58165757D01*
X53896886Y-58134517D01*
X53877836Y-58098878D01*
X53866105Y-58060208D01*
X53861540Y-58013852D01*
X53861540Y-57362628D01*
X53866105Y-57316272D01*
X53877836Y-57277602D01*
X53896886Y-57241963D01*
X53922523Y-57210723D01*
X53953763Y-57185086D01*
X53989402Y-57166036D01*
X54028072Y-57154305D01*
X54074428Y-57149740D01*
X55150652Y-57149740D01*
X55197008Y-57154305D01*
G37*
G36*
X34747468Y-54101705D02*
G01*
X34786138Y-54113436D01*
X34821777Y-54132486D01*
X34853017Y-54158123D01*
X34878654Y-54189363D01*
X34897704Y-54225002D01*
X34909435Y-54263672D01*
X34914000Y-54310028D01*
X34914000Y-54961252D01*
X34909435Y-55007608D01*
X34897704Y-55046278D01*
X34878654Y-55081917D01*
X34853017Y-55113157D01*
X34821777Y-55138794D01*
X34786138Y-55157844D01*
X34747468Y-55169575D01*
X34701112Y-55174140D01*
X33624888Y-55174140D01*
X33578532Y-55169575D01*
X33539862Y-55157844D01*
X33504223Y-55138794D01*
X33472983Y-55113157D01*
X33447346Y-55081917D01*
X33428296Y-55046278D01*
X33416565Y-55007608D01*
X33412000Y-54961252D01*
X33412000Y-54310028D01*
X33416565Y-54263672D01*
X33428296Y-54225002D01*
X33447346Y-54189363D01*
X33472983Y-54158123D01*
X33504223Y-54132486D01*
X33539862Y-54113436D01*
X33578532Y-54101705D01*
X33624888Y-54097140D01*
X34701112Y-54097140D01*
X34747468Y-54101705D01*
G37*
G36*
X32461468Y-54101705D02*
G01*
X32500138Y-54113436D01*
X32535777Y-54132486D01*
X32567017Y-54158123D01*
X32592654Y-54189363D01*
X32611704Y-54225002D01*
X32623435Y-54263672D01*
X32628000Y-54310028D01*
X32628000Y-54961252D01*
X32623435Y-55007608D01*
X32611704Y-55046278D01*
X32592654Y-55081917D01*
X32567017Y-55113157D01*
X32535777Y-55138794D01*
X32500138Y-55157844D01*
X32461468Y-55169575D01*
X32415112Y-55174140D01*
X31338888Y-55174140D01*
X31292532Y-55169575D01*
X31253862Y-55157844D01*
X31218223Y-55138794D01*
X31186983Y-55113157D01*
X31161346Y-55081917D01*
X31142296Y-55046278D01*
X31130565Y-55007608D01*
X31126000Y-54961252D01*
X31126000Y-54310028D01*
X31130565Y-54263672D01*
X31142296Y-54225002D01*
X31161346Y-54189363D01*
X31186983Y-54158123D01*
X31218223Y-54132486D01*
X31253862Y-54113436D01*
X31292532Y-54101705D01*
X31338888Y-54097140D01*
X32415112Y-54097140D01*
X32461468Y-54101705D01*
G37*
G36*
X77220810Y-52123535D02*
G01*
X77277707Y-52134852D01*
X77438494Y-52201452D01*
X77438496Y-52201453D01*
X77583196Y-52298138D01*
X77706262Y-52421204D01*
X77802947Y-52565904D01*
X77869548Y-52726694D01*
X77903500Y-52897381D01*
X77903500Y-53071419D01*
X77891265Y-53132928D01*
X77869548Y-53242107D01*
X77802948Y-53402894D01*
X77802947Y-53402896D01*
X77706262Y-53547596D01*
X77583196Y-53670662D01*
X77438496Y-53767347D01*
X77438495Y-53767348D01*
X77438494Y-53767348D01*
X77277707Y-53833948D01*
X77220810Y-53845265D01*
X77107019Y-53867900D01*
X76932981Y-53867900D01*
X76819190Y-53845265D01*
X76762293Y-53833948D01*
X76601506Y-53767348D01*
X76601505Y-53767348D01*
X76601504Y-53767347D01*
X76456804Y-53670662D01*
X76333738Y-53547596D01*
X76237053Y-53402896D01*
X76237052Y-53402894D01*
X76170452Y-53242107D01*
X76148735Y-53132928D01*
X76136500Y-53071419D01*
X76136500Y-52897381D01*
X76170452Y-52726694D01*
X76237053Y-52565904D01*
X76333738Y-52421204D01*
X76456804Y-52298138D01*
X76601504Y-52201453D01*
X76601506Y-52201452D01*
X76762293Y-52134852D01*
X76819190Y-52123535D01*
X76932981Y-52100900D01*
X77107019Y-52100900D01*
X77220810Y-52123535D01*
G37*
G36*
X89920810Y-52123535D02*
G01*
X89977707Y-52134852D01*
X90138494Y-52201452D01*
X90138496Y-52201453D01*
X90283196Y-52298138D01*
X90406262Y-52421204D01*
X90502947Y-52565904D01*
X90569548Y-52726694D01*
X90603500Y-52897381D01*
X90603500Y-53071419D01*
X90591265Y-53132928D01*
X90569548Y-53242107D01*
X90502948Y-53402894D01*
X90502947Y-53402896D01*
X90406262Y-53547596D01*
X90283196Y-53670662D01*
X90138496Y-53767347D01*
X90138495Y-53767348D01*
X90138494Y-53767348D01*
X89977707Y-53833948D01*
X89920810Y-53845265D01*
X89807019Y-53867900D01*
X89632981Y-53867900D01*
X89519190Y-53845265D01*
X89462293Y-53833948D01*
X89301506Y-53767348D01*
X89301505Y-53767348D01*
X89301504Y-53767347D01*
X89156804Y-53670662D01*
X89033738Y-53547596D01*
X88937053Y-53402896D01*
X88937052Y-53402894D01*
X88870452Y-53242107D01*
X88848735Y-53132928D01*
X88836500Y-53071419D01*
X88836500Y-52897381D01*
X88870452Y-52726694D01*
X88937053Y-52565904D01*
X89033738Y-52421204D01*
X89156804Y-52298138D01*
X89301504Y-52201453D01*
X89301506Y-52201452D01*
X89462293Y-52134852D01*
X89519190Y-52123535D01*
X89632981Y-52100900D01*
X89807019Y-52100900D01*
X89920810Y-52123535D01*
G37*
G36*
X87380810Y-52123535D02*
G01*
X87437707Y-52134852D01*
X87598494Y-52201452D01*
X87598496Y-52201453D01*
X87743196Y-52298138D01*
X87866262Y-52421204D01*
X87962947Y-52565904D01*
X88029548Y-52726694D01*
X88063500Y-52897381D01*
X88063500Y-53071419D01*
X88051265Y-53132928D01*
X88029548Y-53242107D01*
X87962948Y-53402894D01*
X87962947Y-53402896D01*
X87866262Y-53547596D01*
X87743196Y-53670662D01*
X87598496Y-53767347D01*
X87598495Y-53767348D01*
X87598494Y-53767348D01*
X87437707Y-53833948D01*
X87380810Y-53845265D01*
X87267019Y-53867900D01*
X87092981Y-53867900D01*
X86979190Y-53845265D01*
X86922293Y-53833948D01*
X86761506Y-53767348D01*
X86761505Y-53767348D01*
X86761504Y-53767347D01*
X86616804Y-53670662D01*
X86493738Y-53547596D01*
X86397053Y-53402896D01*
X86397052Y-53402894D01*
X86330452Y-53242107D01*
X86308735Y-53132928D01*
X86296500Y-53071419D01*
X86296500Y-52897381D01*
X86330452Y-52726694D01*
X86397053Y-52565904D01*
X86493738Y-52421204D01*
X86616804Y-52298138D01*
X86761504Y-52201453D01*
X86761506Y-52201452D01*
X86922293Y-52134852D01*
X86979190Y-52123535D01*
X87092981Y-52100900D01*
X87267019Y-52100900D01*
X87380810Y-52123535D01*
G37*
G36*
X84840810Y-52123535D02*
G01*
X84897707Y-52134852D01*
X85058494Y-52201452D01*
X85058496Y-52201453D01*
X85203196Y-52298138D01*
X85326262Y-52421204D01*
X85422947Y-52565904D01*
X85489548Y-52726694D01*
X85523500Y-52897381D01*
X85523500Y-53071419D01*
X85511265Y-53132928D01*
X85489548Y-53242107D01*
X85422948Y-53402894D01*
X85422947Y-53402896D01*
X85326262Y-53547596D01*
X85203196Y-53670662D01*
X85058496Y-53767347D01*
X85058495Y-53767348D01*
X85058494Y-53767348D01*
X84897707Y-53833948D01*
X84840810Y-53845265D01*
X84727019Y-53867900D01*
X84552981Y-53867900D01*
X84439190Y-53845265D01*
X84382293Y-53833948D01*
X84221506Y-53767348D01*
X84221505Y-53767348D01*
X84221504Y-53767347D01*
X84076804Y-53670662D01*
X83953738Y-53547596D01*
X83857053Y-53402896D01*
X83857052Y-53402894D01*
X83790452Y-53242107D01*
X83768735Y-53132928D01*
X83756500Y-53071419D01*
X83756500Y-52897381D01*
X83790452Y-52726694D01*
X83857053Y-52565904D01*
X83953738Y-52421204D01*
X84076804Y-52298138D01*
X84221504Y-52201453D01*
X84221506Y-52201452D01*
X84382293Y-52134852D01*
X84439190Y-52123535D01*
X84552981Y-52100900D01*
X84727019Y-52100900D01*
X84840810Y-52123535D01*
G37*
G36*
X82300810Y-52123535D02*
G01*
X82357707Y-52134852D01*
X82518494Y-52201452D01*
X82518496Y-52201453D01*
X82663196Y-52298138D01*
X82786262Y-52421204D01*
X82882947Y-52565904D01*
X82949548Y-52726694D01*
X82983500Y-52897381D01*
X82983500Y-53071419D01*
X82971265Y-53132928D01*
X82949548Y-53242107D01*
X82882948Y-53402894D01*
X82882947Y-53402896D01*
X82786262Y-53547596D01*
X82663196Y-53670662D01*
X82518496Y-53767347D01*
X82518495Y-53767348D01*
X82518494Y-53767348D01*
X82357707Y-53833948D01*
X82300810Y-53845265D01*
X82187019Y-53867900D01*
X82012981Y-53867900D01*
X81899190Y-53845265D01*
X81842293Y-53833948D01*
X81681506Y-53767348D01*
X81681505Y-53767348D01*
X81681504Y-53767347D01*
X81536804Y-53670662D01*
X81413738Y-53547596D01*
X81317053Y-53402896D01*
X81317052Y-53402894D01*
X81250452Y-53242107D01*
X81228735Y-53132928D01*
X81216500Y-53071419D01*
X81216500Y-52897381D01*
X81250452Y-52726694D01*
X81317053Y-52565904D01*
X81413738Y-52421204D01*
X81536804Y-52298138D01*
X81681504Y-52201453D01*
X81681506Y-52201452D01*
X81842293Y-52134852D01*
X81899190Y-52123535D01*
X82012981Y-52100900D01*
X82187019Y-52100900D01*
X82300810Y-52123535D01*
G37*
G36*
X79760810Y-52123535D02*
G01*
X79817707Y-52134852D01*
X79978494Y-52201452D01*
X79978496Y-52201453D01*
X80123196Y-52298138D01*
X80246262Y-52421204D01*
X80342947Y-52565904D01*
X80409548Y-52726694D01*
X80443500Y-52897381D01*
X80443500Y-53071419D01*
X80431265Y-53132928D01*
X80409548Y-53242107D01*
X80342948Y-53402894D01*
X80342947Y-53402896D01*
X80246262Y-53547596D01*
X80123196Y-53670662D01*
X79978496Y-53767347D01*
X79978495Y-53767348D01*
X79978494Y-53767348D01*
X79817707Y-53833948D01*
X79760810Y-53845265D01*
X79647019Y-53867900D01*
X79472981Y-53867900D01*
X79359190Y-53845265D01*
X79302293Y-53833948D01*
X79141506Y-53767348D01*
X79141505Y-53767348D01*
X79141504Y-53767347D01*
X78996804Y-53670662D01*
X78873738Y-53547596D01*
X78777053Y-53402896D01*
X78777052Y-53402894D01*
X78710452Y-53242107D01*
X78688735Y-53132928D01*
X78676500Y-53071419D01*
X78676500Y-52897381D01*
X78710452Y-52726694D01*
X78777053Y-52565904D01*
X78873738Y-52421204D01*
X78996804Y-52298138D01*
X79141504Y-52201453D01*
X79141506Y-52201452D01*
X79302293Y-52134852D01*
X79359190Y-52123535D01*
X79472981Y-52100900D01*
X79647019Y-52100900D01*
X79760810Y-52123535D01*
G37*
G36*
X74680810Y-52123535D02*
G01*
X74737707Y-52134852D01*
X74898494Y-52201452D01*
X74898496Y-52201453D01*
X75043196Y-52298138D01*
X75166262Y-52421204D01*
X75262947Y-52565904D01*
X75329548Y-52726694D01*
X75363500Y-52897381D01*
X75363500Y-53071419D01*
X75351265Y-53132928D01*
X75329548Y-53242107D01*
X75262948Y-53402894D01*
X75262947Y-53402896D01*
X75166262Y-53547596D01*
X75043196Y-53670662D01*
X74898496Y-53767347D01*
X74898495Y-53767348D01*
X74898494Y-53767348D01*
X74737707Y-53833948D01*
X74680810Y-53845265D01*
X74567019Y-53867900D01*
X74392981Y-53867900D01*
X74279190Y-53845265D01*
X74222293Y-53833948D01*
X74061506Y-53767348D01*
X74061505Y-53767348D01*
X74061504Y-53767347D01*
X73916804Y-53670662D01*
X73793738Y-53547596D01*
X73697053Y-53402896D01*
X73697052Y-53402894D01*
X73630452Y-53242107D01*
X73608735Y-53132928D01*
X73596500Y-53071419D01*
X73596500Y-52897381D01*
X73630452Y-52726694D01*
X73697053Y-52565904D01*
X73793738Y-52421204D01*
X73916804Y-52298138D01*
X74061504Y-52201453D01*
X74061506Y-52201452D01*
X74222293Y-52134852D01*
X74279190Y-52123535D01*
X74392981Y-52100900D01*
X74567019Y-52100900D01*
X74680810Y-52123535D01*
G37*
G36*
X69600810Y-52123535D02*
G01*
X69657707Y-52134852D01*
X69818494Y-52201452D01*
X69818496Y-52201453D01*
X69963196Y-52298138D01*
X70086262Y-52421204D01*
X70182947Y-52565904D01*
X70249548Y-52726694D01*
X70283500Y-52897381D01*
X70283500Y-53071419D01*
X70271265Y-53132928D01*
X70249548Y-53242107D01*
X70182948Y-53402894D01*
X70182947Y-53402896D01*
X70086262Y-53547596D01*
X69963196Y-53670662D01*
X69818496Y-53767347D01*
X69818495Y-53767348D01*
X69818494Y-53767348D01*
X69657707Y-53833948D01*
X69600810Y-53845265D01*
X69487019Y-53867900D01*
X69312981Y-53867900D01*
X69199190Y-53845265D01*
X69142293Y-53833948D01*
X68981506Y-53767348D01*
X68981505Y-53767348D01*
X68981504Y-53767347D01*
X68836804Y-53670662D01*
X68713738Y-53547596D01*
X68617053Y-53402896D01*
X68617052Y-53402894D01*
X68550452Y-53242107D01*
X68528735Y-53132928D01*
X68516500Y-53071419D01*
X68516500Y-52897381D01*
X68550452Y-52726694D01*
X68617053Y-52565904D01*
X68713738Y-52421204D01*
X68836804Y-52298138D01*
X68981504Y-52201453D01*
X68981506Y-52201452D01*
X69142293Y-52134852D01*
X69199190Y-52123535D01*
X69312981Y-52100900D01*
X69487019Y-52100900D01*
X69600810Y-52123535D01*
G37*
G36*
X72140810Y-52123535D02*
G01*
X72197707Y-52134852D01*
X72358494Y-52201452D01*
X72358496Y-52201453D01*
X72503196Y-52298138D01*
X72626262Y-52421204D01*
X72722947Y-52565904D01*
X72789548Y-52726694D01*
X72823500Y-52897381D01*
X72823500Y-53071419D01*
X72811265Y-53132928D01*
X72789548Y-53242107D01*
X72722948Y-53402894D01*
X72722947Y-53402896D01*
X72626262Y-53547596D01*
X72503196Y-53670662D01*
X72358496Y-53767347D01*
X72358495Y-53767348D01*
X72358494Y-53767348D01*
X72197707Y-53833948D01*
X72140810Y-53845265D01*
X72027019Y-53867900D01*
X71852981Y-53867900D01*
X71739190Y-53845265D01*
X71682293Y-53833948D01*
X71521506Y-53767348D01*
X71521505Y-53767348D01*
X71521504Y-53767347D01*
X71376804Y-53670662D01*
X71253738Y-53547596D01*
X71157053Y-53402896D01*
X71157052Y-53402894D01*
X71090452Y-53242107D01*
X71068735Y-53132928D01*
X71056500Y-53071419D01*
X71056500Y-52897381D01*
X71090452Y-52726694D01*
X71157053Y-52565904D01*
X71253738Y-52421204D01*
X71376804Y-52298138D01*
X71521504Y-52201453D01*
X71521506Y-52201452D01*
X71682293Y-52134852D01*
X71739190Y-52123535D01*
X71852981Y-52100900D01*
X72027019Y-52100900D01*
X72140810Y-52123535D01*
G37*
G36*
X67366148Y-52448165D02*
G01*
X67404818Y-52459896D01*
X67440457Y-52478946D01*
X67471697Y-52504583D01*
X67497334Y-52535823D01*
X67516384Y-52571462D01*
X67528115Y-52610132D01*
X67532680Y-52656488D01*
X67532680Y-53307712D01*
X67528115Y-53354068D01*
X67516384Y-53392738D01*
X67497334Y-53428377D01*
X67471697Y-53459617D01*
X67440457Y-53485254D01*
X67404818Y-53504304D01*
X67366148Y-53516035D01*
X67319792Y-53520600D01*
X66243568Y-53520600D01*
X66197212Y-53516035D01*
X66158542Y-53504304D01*
X66122903Y-53485254D01*
X66091663Y-53459617D01*
X66066026Y-53428377D01*
X66046976Y-53392738D01*
X66035245Y-53354068D01*
X66030680Y-53307712D01*
X66030680Y-52656488D01*
X66035245Y-52610132D01*
X66046976Y-52571462D01*
X66066026Y-52535823D01*
X66091663Y-52504583D01*
X66122903Y-52478946D01*
X66158542Y-52459896D01*
X66197212Y-52448165D01*
X66243568Y-52443600D01*
X67319792Y-52443600D01*
X67366148Y-52448165D01*
G37*
G36*
X34747468Y-52226705D02*
G01*
X34786138Y-52238436D01*
X34821777Y-52257486D01*
X34853017Y-52283123D01*
X34878654Y-52314363D01*
X34897704Y-52350002D01*
X34909435Y-52388672D01*
X34914000Y-52435028D01*
X34914000Y-53086252D01*
X34909435Y-53132608D01*
X34897704Y-53171278D01*
X34878654Y-53206917D01*
X34853017Y-53238157D01*
X34821777Y-53263794D01*
X34786138Y-53282844D01*
X34747468Y-53294575D01*
X34701112Y-53299140D01*
X33624888Y-53299140D01*
X33578532Y-53294575D01*
X33539862Y-53282844D01*
X33504223Y-53263794D01*
X33472983Y-53238157D01*
X33447346Y-53206917D01*
X33428296Y-53171278D01*
X33416565Y-53132608D01*
X33412000Y-53086252D01*
X33412000Y-52435028D01*
X33416565Y-52388672D01*
X33428296Y-52350002D01*
X33447346Y-52314363D01*
X33472983Y-52283123D01*
X33504223Y-52257486D01*
X33539862Y-52238436D01*
X33578532Y-52226705D01*
X33624888Y-52222140D01*
X34701112Y-52222140D01*
X34747468Y-52226705D01*
G37*
G36*
X32461468Y-52226705D02*
G01*
X32500138Y-52238436D01*
X32535777Y-52257486D01*
X32567017Y-52283123D01*
X32592654Y-52314363D01*
X32611704Y-52350002D01*
X32623435Y-52388672D01*
X32628000Y-52435028D01*
X32628000Y-53086252D01*
X32623435Y-53132608D01*
X32611704Y-53171278D01*
X32592654Y-53206917D01*
X32567017Y-53238157D01*
X32535777Y-53263794D01*
X32500138Y-53282844D01*
X32461468Y-53294575D01*
X32415112Y-53299140D01*
X31338888Y-53299140D01*
X31292532Y-53294575D01*
X31253862Y-53282844D01*
X31218223Y-53263794D01*
X31186983Y-53238157D01*
X31161346Y-53206917D01*
X31142296Y-53171278D01*
X31130565Y-53132608D01*
X31126000Y-53086252D01*
X31126000Y-52435028D01*
X31130565Y-52388672D01*
X31142296Y-52350002D01*
X31161346Y-52314363D01*
X31186983Y-52283123D01*
X31218223Y-52257486D01*
X31253862Y-52238436D01*
X31292532Y-52226705D01*
X31338888Y-52222140D01*
X32415112Y-52222140D01*
X32461468Y-52226705D01*
G37*
G36*
X67366148Y-50573165D02*
G01*
X67404818Y-50584896D01*
X67440457Y-50603946D01*
X67471697Y-50629583D01*
X67497334Y-50660823D01*
X67516384Y-50696462D01*
X67528115Y-50735132D01*
X67532680Y-50781488D01*
X67532680Y-51432712D01*
X67528115Y-51479068D01*
X67516384Y-51517738D01*
X67497334Y-51553377D01*
X67471697Y-51584617D01*
X67440457Y-51610254D01*
X67404818Y-51629304D01*
X67366148Y-51641035D01*
X67319792Y-51645600D01*
X66243568Y-51645600D01*
X66197212Y-51641035D01*
X66158542Y-51629304D01*
X66122903Y-51610254D01*
X66091663Y-51584617D01*
X66066026Y-51553377D01*
X66046976Y-51517738D01*
X66035245Y-51479068D01*
X66030680Y-51432712D01*
X66030680Y-50781488D01*
X66035245Y-50735132D01*
X66046976Y-50696462D01*
X66066026Y-50660823D01*
X66091663Y-50629583D01*
X66122903Y-50603946D01*
X66158542Y-50584896D01*
X66197212Y-50573165D01*
X66243568Y-50568600D01*
X67319792Y-50568600D01*
X67366148Y-50573165D01*
G37*
G36*
X34978000Y-50385820D02*
G01*
X33376000Y-50385820D01*
X33376000Y-48283820D01*
X34978000Y-48283820D01*
X34978000Y-50385820D01*
G37*
G36*
X32678000Y-50385820D02*
G01*
X31076000Y-50385820D01*
X31076000Y-48283820D01*
X32678000Y-48283820D01*
X32678000Y-50385820D01*
G37*
G36*
X30378000Y-50385820D02*
G01*
X28776000Y-50385820D01*
X28776000Y-48283820D01*
X30378000Y-48283820D01*
X30378000Y-50385820D01*
G37*
G36*
X42899100Y-48358060D02*
G01*
X40997100Y-48358060D01*
X40997100Y-45756060D01*
X42899100Y-45756060D01*
X42899100Y-48358060D01*
G37*
G36*
X48476940Y-48352980D02*
G01*
X46574940Y-48352980D01*
X46574940Y-45750980D01*
X48476940Y-45750980D01*
X48476940Y-48352980D01*
G37*
G36*
X63449468Y-46037205D02*
G01*
X63488138Y-46048936D01*
X63523777Y-46067986D01*
X63555017Y-46093623D01*
X63580654Y-46124863D01*
X63599704Y-46160502D01*
X63611435Y-46199172D01*
X63616000Y-46245528D01*
X63616000Y-46896752D01*
X63611435Y-46943108D01*
X63599704Y-46981778D01*
X63580654Y-47017417D01*
X63555017Y-47048657D01*
X63523777Y-47074294D01*
X63488138Y-47093344D01*
X63449468Y-47105075D01*
X63403112Y-47109640D01*
X62326888Y-47109640D01*
X62280532Y-47105075D01*
X62241862Y-47093344D01*
X62206223Y-47074294D01*
X62174983Y-47048657D01*
X62149346Y-47017417D01*
X62130296Y-46981778D01*
X62118565Y-46943108D01*
X62114000Y-46896752D01*
X62114000Y-46245528D01*
X62118565Y-46199172D01*
X62130296Y-46160502D01*
X62149346Y-46124863D01*
X62174983Y-46093623D01*
X62206223Y-46067986D01*
X62241862Y-46048936D01*
X62280532Y-46037205D01*
X62326888Y-46032640D01*
X63403112Y-46032640D01*
X63449468Y-46037205D01*
G37*
G36*
X60083968Y-45955925D02*
G01*
X60122638Y-45967656D01*
X60158277Y-45986706D01*
X60189517Y-46012343D01*
X60215154Y-46043583D01*
X60234204Y-46079222D01*
X60245935Y-46117892D01*
X60250500Y-46164248D01*
X60250500Y-46815472D01*
X60245935Y-46861828D01*
X60234204Y-46900498D01*
X60215154Y-46936137D01*
X60189517Y-46967377D01*
X60158277Y-46993014D01*
X60122638Y-47012064D01*
X60083968Y-47023795D01*
X60037612Y-47028360D01*
X58961388Y-47028360D01*
X58915032Y-47023795D01*
X58876362Y-47012064D01*
X58840723Y-46993014D01*
X58809483Y-46967377D01*
X58783846Y-46936137D01*
X58764796Y-46900498D01*
X58753065Y-46861828D01*
X58748500Y-46815472D01*
X58748500Y-46164248D01*
X58753065Y-46117892D01*
X58764796Y-46079222D01*
X58783846Y-46043583D01*
X58809483Y-46012343D01*
X58840723Y-45986706D01*
X58876362Y-45967656D01*
X58915032Y-45955925D01*
X58961388Y-45951360D01*
X60037612Y-45951360D01*
X60083968Y-45955925D01*
G37*
G36*
X63449468Y-44162205D02*
G01*
X63488138Y-44173936D01*
X63523777Y-44192986D01*
X63555017Y-44218623D01*
X63580654Y-44249863D01*
X63599704Y-44285502D01*
X63611435Y-44324172D01*
X63616000Y-44370528D01*
X63616000Y-45021752D01*
X63611435Y-45068108D01*
X63599704Y-45106778D01*
X63580654Y-45142417D01*
X63555017Y-45173657D01*
X63523777Y-45199294D01*
X63488138Y-45218344D01*
X63449468Y-45230075D01*
X63403112Y-45234640D01*
X62326888Y-45234640D01*
X62280532Y-45230075D01*
X62241862Y-45218344D01*
X62206223Y-45199294D01*
X62174983Y-45173657D01*
X62149346Y-45142417D01*
X62130296Y-45106778D01*
X62118565Y-45068108D01*
X62114000Y-45021752D01*
X62114000Y-44370528D01*
X62118565Y-44324172D01*
X62130296Y-44285502D01*
X62149346Y-44249863D01*
X62174983Y-44218623D01*
X62206223Y-44192986D01*
X62241862Y-44173936D01*
X62280532Y-44162205D01*
X62326888Y-44157640D01*
X63403112Y-44157640D01*
X63449468Y-44162205D01*
G37*
G36*
X60083968Y-44080925D02*
G01*
X60122638Y-44092656D01*
X60158277Y-44111706D01*
X60189517Y-44137343D01*
X60215154Y-44168583D01*
X60234204Y-44204222D01*
X60245935Y-44242892D01*
X60250500Y-44289248D01*
X60250500Y-44940472D01*
X60245935Y-44986828D01*
X60234204Y-45025498D01*
X60215154Y-45061137D01*
X60189517Y-45092377D01*
X60158277Y-45118014D01*
X60122638Y-45137064D01*
X60083968Y-45148795D01*
X60037612Y-45153360D01*
X58961388Y-45153360D01*
X58915032Y-45148795D01*
X58876362Y-45137064D01*
X58840723Y-45118014D01*
X58809483Y-45092377D01*
X58783846Y-45061137D01*
X58764796Y-45025498D01*
X58753065Y-44986828D01*
X58748500Y-44940472D01*
X58748500Y-44289248D01*
X58753065Y-44242892D01*
X58764796Y-44204222D01*
X58783846Y-44168583D01*
X58809483Y-44137343D01*
X58840723Y-44111706D01*
X58876362Y-44092656D01*
X58915032Y-44080925D01*
X58961388Y-44076360D01*
X60037612Y-44076360D01*
X60083968Y-44080925D01*
G37*
G36*
X42899100Y-44358060D02*
G01*
X40997100Y-44358060D01*
X40997100Y-41756060D01*
X42899100Y-41756060D01*
X42899100Y-44358060D01*
G37*
G36*
X48476940Y-44352980D02*
G01*
X46574940Y-44352980D01*
X46574940Y-41750980D01*
X48476940Y-41750980D01*
X48476940Y-44352980D01*
G37*
G36*
X33828000Y-44085820D02*
G01*
X29926000Y-44085820D01*
X29926000Y-41983820D01*
X33828000Y-41983820D01*
X33828000Y-44085820D01*
G37*
G36*
X57113512Y-35938927D02*
G01*
X57262812Y-35968624D01*
X57426784Y-36036544D01*
X57574354Y-36135147D01*
X57699853Y-36260646D01*
X57798456Y-36408216D01*
X57866376Y-36572188D01*
X57901000Y-36746259D01*
X57901000Y-36923741D01*
X57866376Y-37097812D01*
X57798456Y-37261784D01*
X57699853Y-37409354D01*
X57574354Y-37534853D01*
X57426784Y-37633456D01*
X57281771Y-37693523D01*
X57260171Y-37705068D01*
X57241229Y-37720613D01*
X57225684Y-37739555D01*
X57214133Y-37761166D01*
X57207020Y-37784615D01*
X57204618Y-37809001D01*
X57207020Y-37833387D01*
X57214133Y-37856836D01*
X57225684Y-37878447D01*
X57241229Y-37897389D01*
X57260171Y-37912934D01*
X57281782Y-37924485D01*
X57305231Y-37931598D01*
X57329617Y-37934000D01*
X57901000Y-37934000D01*
X57901000Y-39736000D01*
X56099000Y-39736000D01*
X56099000Y-37934000D01*
X56670383Y-37934000D01*
X56694769Y-37931598D01*
X56718218Y-37924485D01*
X56739829Y-37912934D01*
X56758771Y-37897389D01*
X56774316Y-37878447D01*
X56785867Y-37856836D01*
X56792980Y-37833387D01*
X56795382Y-37809001D01*
X56792980Y-37784615D01*
X56785867Y-37761166D01*
X56774316Y-37739555D01*
X56758771Y-37720613D01*
X56739829Y-37705068D01*
X56718229Y-37693523D01*
X56573216Y-37633456D01*
X56425646Y-37534853D01*
X56300147Y-37409354D01*
X56201544Y-37261784D01*
X56133624Y-37097812D01*
X56099000Y-36923741D01*
X56099000Y-36746259D01*
X56133624Y-36572188D01*
X56201544Y-36408216D01*
X56300147Y-36260646D01*
X56425646Y-36135147D01*
X56573216Y-36036544D01*
X56737188Y-35968624D01*
X56886488Y-35938927D01*
X56911258Y-35934000D01*
X57088742Y-35934000D01*
X57113512Y-35938927D01*
G37*
G36*
X59613512Y-35938927D02*
G01*
X59762812Y-35968624D01*
X59926784Y-36036544D01*
X60074354Y-36135147D01*
X60199853Y-36260646D01*
X60298456Y-36408216D01*
X60366376Y-36572188D01*
X60401000Y-36746259D01*
X60401000Y-36923741D01*
X60366376Y-37097812D01*
X60298456Y-37261784D01*
X60199853Y-37409354D01*
X60074354Y-37534853D01*
X59926784Y-37633456D01*
X59762812Y-37701376D01*
X59707362Y-37712405D01*
X59683922Y-37719516D01*
X59662311Y-37731067D01*
X59643369Y-37746613D01*
X59627824Y-37765555D01*
X59616273Y-37787165D01*
X59609160Y-37810614D01*
X59606758Y-37835000D01*
X59609160Y-37859387D01*
X59616273Y-37882835D01*
X59627824Y-37904446D01*
X59643370Y-37923388D01*
X59662312Y-37938933D01*
X59683922Y-37950484D01*
X59707362Y-37957595D01*
X59762812Y-37968624D01*
X59926784Y-38036544D01*
X60074354Y-38135147D01*
X60199853Y-38260646D01*
X60298456Y-38408216D01*
X60366376Y-38572188D01*
X60401000Y-38746259D01*
X60401000Y-38923741D01*
X60366376Y-39097812D01*
X60298456Y-39261784D01*
X60199853Y-39409354D01*
X60074354Y-39534853D01*
X59926784Y-39633456D01*
X59762812Y-39701376D01*
X59613512Y-39731073D01*
X59588742Y-39736000D01*
X59411258Y-39736000D01*
X59386488Y-39731073D01*
X59237188Y-39701376D01*
X59073216Y-39633456D01*
X58925646Y-39534853D01*
X58800147Y-39409354D01*
X58701544Y-39261784D01*
X58633624Y-39097812D01*
X58599000Y-38923741D01*
X58599000Y-38746259D01*
X58633624Y-38572188D01*
X58701544Y-38408216D01*
X58800147Y-38260646D01*
X58925646Y-38135147D01*
X59073216Y-38036544D01*
X59237188Y-37968624D01*
X59292638Y-37957595D01*
X59316078Y-37950484D01*
X59337689Y-37938933D01*
X59356631Y-37923387D01*
X59372176Y-37904445D01*
X59383727Y-37882835D01*
X59390840Y-37859386D01*
X59393242Y-37835000D01*
X59390840Y-37810613D01*
X59383727Y-37787165D01*
X59372176Y-37765554D01*
X59356630Y-37746612D01*
X59337688Y-37731067D01*
X59316078Y-37719516D01*
X59292638Y-37712405D01*
X59237188Y-37701376D01*
X59073216Y-37633456D01*
X58925646Y-37534853D01*
X58800147Y-37409354D01*
X58701544Y-37261784D01*
X58633624Y-37097812D01*
X58599000Y-36923741D01*
X58599000Y-36746259D01*
X58633624Y-36572188D01*
X58701544Y-36408216D01*
X58800147Y-36260646D01*
X58925646Y-36135147D01*
X59073216Y-36036544D01*
X59237188Y-35968624D01*
X59386488Y-35938927D01*
X59411258Y-35934000D01*
X59588742Y-35934000D01*
X59613512Y-35938927D01*
G37*
G36*
X52755331Y-32393211D02*
G01*
X53083092Y-32528974D01*
X53378070Y-32726072D01*
X53628928Y-32976930D01*
X53826026Y-33271908D01*
X53961789Y-33599669D01*
X54031000Y-33947616D01*
X54031000Y-34302384D01*
X53961789Y-34650331D01*
X53826026Y-34978092D01*
X53628928Y-35273070D01*
X53378070Y-35523928D01*
X53083092Y-35721026D01*
X52755331Y-35856789D01*
X52407384Y-35926000D01*
X52052616Y-35926000D01*
X51704669Y-35856789D01*
X51376908Y-35721026D01*
X51081930Y-35523928D01*
X50831072Y-35273070D01*
X50633974Y-34978092D01*
X50498211Y-34650331D01*
X50429000Y-34302384D01*
X50429000Y-33947616D01*
X50498211Y-33599669D01*
X50633974Y-33271908D01*
X50831072Y-32976930D01*
X51081930Y-32726072D01*
X51376908Y-32528974D01*
X51704669Y-32393211D01*
X52052616Y-32324000D01*
X52407384Y-32324000D01*
X52755331Y-32393211D01*
G37*
G36*
X64795331Y-32393211D02*
G01*
X65123092Y-32528974D01*
X65418070Y-32726072D01*
X65668928Y-32976930D01*
X65866026Y-33271908D01*
X66001789Y-33599669D01*
X66071000Y-33947616D01*
X66071000Y-34302384D01*
X66001789Y-34650331D01*
X65866026Y-34978092D01*
X65668928Y-35273070D01*
X65418070Y-35523928D01*
X65123092Y-35721026D01*
X64795331Y-35856789D01*
X64447384Y-35926000D01*
X64092616Y-35926000D01*
X63744669Y-35856789D01*
X63416908Y-35721026D01*
X63121930Y-35523928D01*
X62871072Y-35273070D01*
X62673974Y-34978092D01*
X62538211Y-34650331D01*
X62469000Y-34302384D01*
X62469000Y-33947616D01*
X62538211Y-33599669D01*
X62673974Y-33271908D01*
X62871072Y-32976930D01*
X63121930Y-32726072D01*
X63416908Y-32528974D01*
X63744669Y-32393211D01*
X64092616Y-32324000D01*
X64447384Y-32324000D01*
X64795331Y-32393211D01*
G37*
G36*
X38494756Y-33922655D02*
G01*
X38592483Y-33963136D01*
X38641348Y-33983376D01*
X38773273Y-34071525D01*
X38885475Y-34183727D01*
X38973624Y-34315652D01*
X38973624Y-34315653D01*
X39034345Y-34462244D01*
X39065300Y-34617865D01*
X39065300Y-34776535D01*
X39034345Y-34932156D01*
X39015317Y-34978092D01*
X38973624Y-35078748D01*
X38885475Y-35210673D01*
X38773273Y-35322875D01*
X38641348Y-35411024D01*
X38592483Y-35431264D01*
X38494756Y-35471745D01*
X38339135Y-35502700D01*
X38180465Y-35502700D01*
X38024844Y-35471745D01*
X37927117Y-35431264D01*
X37878252Y-35411024D01*
X37746327Y-35322875D01*
X37634125Y-35210673D01*
X37545976Y-35078748D01*
X37504283Y-34978092D01*
X37485255Y-34932156D01*
X37454300Y-34776535D01*
X37454300Y-34617865D01*
X37485255Y-34462244D01*
X37545976Y-34315653D01*
X37545976Y-34315652D01*
X37634125Y-34183727D01*
X37746327Y-34071525D01*
X37878252Y-33983376D01*
X37927117Y-33963136D01*
X38024844Y-33922655D01*
X38180465Y-33891700D01*
X38339135Y-33891700D01*
X38494756Y-33922655D01*
G37*
G36*
X45194756Y-33922655D02*
G01*
X45292483Y-33963136D01*
X45341348Y-33983376D01*
X45473273Y-34071525D01*
X45585475Y-34183727D01*
X45673624Y-34315652D01*
X45673624Y-34315653D01*
X45734345Y-34462244D01*
X45765300Y-34617865D01*
X45765300Y-34776535D01*
X45734345Y-34932156D01*
X45715317Y-34978092D01*
X45673624Y-35078748D01*
X45585475Y-35210673D01*
X45473273Y-35322875D01*
X45341348Y-35411024D01*
X45292483Y-35431264D01*
X45194756Y-35471745D01*
X45039135Y-35502700D01*
X44880465Y-35502700D01*
X44724844Y-35471745D01*
X44627117Y-35431264D01*
X44578252Y-35411024D01*
X44446327Y-35322875D01*
X44334125Y-35210673D01*
X44245976Y-35078748D01*
X44204283Y-34978092D01*
X44185255Y-34932156D01*
X44154300Y-34776535D01*
X44154300Y-34617865D01*
X44185255Y-34462244D01*
X44245976Y-34315653D01*
X44245976Y-34315652D01*
X44334125Y-34183727D01*
X44446327Y-34071525D01*
X44578252Y-33983376D01*
X44627117Y-33963136D01*
X44724844Y-33922655D01*
X44880465Y-33891700D01*
X45039135Y-33891700D01*
X45194756Y-33922655D01*
G37*
G36*
X43144756Y-31432655D02*
G01*
X43242483Y-31473136D01*
X43291348Y-31493376D01*
X43423273Y-31581525D01*
X43535475Y-31693727D01*
X43623624Y-31825652D01*
X43623624Y-31825653D01*
X43684345Y-31972244D01*
X43715300Y-32127865D01*
X43715300Y-32286535D01*
X43684345Y-32442156D01*
X43648383Y-32528974D01*
X43623624Y-32588748D01*
X43535475Y-32720673D01*
X43423273Y-32832875D01*
X43291348Y-32921024D01*
X43242483Y-32941264D01*
X43144756Y-32981745D01*
X42989135Y-33012700D01*
X42830465Y-33012700D01*
X42674844Y-32981745D01*
X42577117Y-32941264D01*
X42528252Y-32921024D01*
X42396327Y-32832875D01*
X42284125Y-32720673D01*
X42195976Y-32588748D01*
X42171217Y-32528974D01*
X42135255Y-32442156D01*
X42104300Y-32286535D01*
X42104300Y-32127865D01*
X42135255Y-31972244D01*
X42195976Y-31825653D01*
X42195976Y-31825652D01*
X42284125Y-31693727D01*
X42396327Y-31581525D01*
X42528252Y-31493376D01*
X42577117Y-31473136D01*
X42674844Y-31432655D01*
X42830465Y-31401700D01*
X42989135Y-31401700D01*
X43144756Y-31432655D01*
G37*
G36*
X40544756Y-31432655D02*
G01*
X40642483Y-31473136D01*
X40691348Y-31493376D01*
X40823273Y-31581525D01*
X40935475Y-31693727D01*
X41023624Y-31825652D01*
X41023624Y-31825653D01*
X41084345Y-31972244D01*
X41115300Y-32127865D01*
X41115300Y-32286535D01*
X41084345Y-32442156D01*
X41048383Y-32528974D01*
X41023624Y-32588748D01*
X40935475Y-32720673D01*
X40823273Y-32832875D01*
X40691348Y-32921024D01*
X40642483Y-32941264D01*
X40544756Y-32981745D01*
X40389135Y-33012700D01*
X40230465Y-33012700D01*
X40074844Y-32981745D01*
X39977117Y-32941264D01*
X39928252Y-32921024D01*
X39796327Y-32832875D01*
X39684125Y-32720673D01*
X39595976Y-32588748D01*
X39571217Y-32528974D01*
X39535255Y-32442156D01*
X39504300Y-32286535D01*
X39504300Y-32127865D01*
X39535255Y-31972244D01*
X39595976Y-31825653D01*
X39595976Y-31825652D01*
X39684125Y-31693727D01*
X39796327Y-31581525D01*
X39928252Y-31493376D01*
X39977117Y-31473136D01*
X40074844Y-31432655D01*
X40230465Y-31401700D01*
X40389135Y-31401700D01*
X40544756Y-31432655D01*
G37*
G36*
X38494756Y-31432655D02*
G01*
X38592483Y-31473136D01*
X38641348Y-31493376D01*
X38773273Y-31581525D01*
X38885475Y-31693727D01*
X38973624Y-31825652D01*
X38973624Y-31825653D01*
X39034345Y-31972244D01*
X39065300Y-32127865D01*
X39065300Y-32286535D01*
X39034345Y-32442156D01*
X38998383Y-32528974D01*
X38973624Y-32588748D01*
X38885475Y-32720673D01*
X38773273Y-32832875D01*
X38641348Y-32921024D01*
X38592483Y-32941264D01*
X38494756Y-32981745D01*
X38339135Y-33012700D01*
X38180465Y-33012700D01*
X38024844Y-32981745D01*
X37927117Y-32941264D01*
X37878252Y-32921024D01*
X37746327Y-32832875D01*
X37634125Y-32720673D01*
X37545976Y-32588748D01*
X37521217Y-32528974D01*
X37485255Y-32442156D01*
X37454300Y-32286535D01*
X37454300Y-32127865D01*
X37485255Y-31972244D01*
X37545976Y-31825653D01*
X37545976Y-31825652D01*
X37634125Y-31693727D01*
X37746327Y-31581525D01*
X37878252Y-31493376D01*
X37927117Y-31473136D01*
X38024844Y-31432655D01*
X38180465Y-31401700D01*
X38339135Y-31401700D01*
X38494756Y-31432655D01*
G37*
G36*
X45194756Y-31432655D02*
G01*
X45292483Y-31473136D01*
X45341348Y-31493376D01*
X45473273Y-31581525D01*
X45585475Y-31693727D01*
X45673624Y-31825652D01*
X45673624Y-31825653D01*
X45734345Y-31972244D01*
X45765300Y-32127865D01*
X45765300Y-32286535D01*
X45734345Y-32442156D01*
X45698383Y-32528974D01*
X45673624Y-32588748D01*
X45585475Y-32720673D01*
X45473273Y-32832875D01*
X45341348Y-32921024D01*
X45292483Y-32941264D01*
X45194756Y-32981745D01*
X45039135Y-33012700D01*
X44880465Y-33012700D01*
X44724844Y-32981745D01*
X44627117Y-32941264D01*
X44578252Y-32921024D01*
X44446327Y-32832875D01*
X44334125Y-32720673D01*
X44245976Y-32588748D01*
X44221217Y-32528974D01*
X44185255Y-32442156D01*
X44154300Y-32286535D01*
X44154300Y-32127865D01*
X44185255Y-31972244D01*
X44245976Y-31825653D01*
X44245976Y-31825652D01*
X44334125Y-31693727D01*
X44446327Y-31581525D01*
X44578252Y-31493376D01*
X44627117Y-31473136D01*
X44724844Y-31432655D01*
X44880465Y-31401700D01*
X45039135Y-31401700D01*
X45194756Y-31432655D01*
G37*
G36*
X48903153Y-27448968D02*
G01*
X49235918Y-27586804D01*
X49535400Y-27786911D01*
X49790089Y-28041600D01*
X49990196Y-28341082D01*
X50128032Y-28673847D01*
X50198300Y-29027107D01*
X50198300Y-29387293D01*
X50128032Y-29740553D01*
X49990196Y-30073318D01*
X49790089Y-30372800D01*
X49535400Y-30627489D01*
X49235918Y-30827596D01*
X48903153Y-30965432D01*
X48549893Y-31035700D01*
X48189707Y-31035700D01*
X47836447Y-30965432D01*
X47503682Y-30827596D01*
X47204200Y-30627489D01*
X46949511Y-30372800D01*
X46749404Y-30073318D01*
X46611568Y-29740553D01*
X46541300Y-29387293D01*
X46541300Y-29027107D01*
X46611568Y-28673847D01*
X46749404Y-28341082D01*
X46949511Y-28041600D01*
X47204200Y-27786911D01*
X47503682Y-27586804D01*
X47836447Y-27448968D01*
X48189707Y-27378700D01*
X48549893Y-27378700D01*
X48903153Y-27448968D01*
G37*
G36*
X35383153Y-27448968D02*
G01*
X35715918Y-27586804D01*
X36015400Y-27786911D01*
X36270089Y-28041600D01*
X36470196Y-28341082D01*
X36608032Y-28673847D01*
X36678300Y-29027107D01*
X36678300Y-29387293D01*
X36608032Y-29740553D01*
X36470196Y-30073318D01*
X36270089Y-30372800D01*
X36015400Y-30627489D01*
X35715918Y-30827596D01*
X35383153Y-30965432D01*
X35029893Y-31035700D01*
X34669707Y-31035700D01*
X34316447Y-30965432D01*
X33983682Y-30827596D01*
X33684200Y-30627489D01*
X33429511Y-30372800D01*
X33229404Y-30073318D01*
X33091568Y-29740553D01*
X33021300Y-29387293D01*
X33021300Y-29027107D01*
X33091568Y-28673847D01*
X33229404Y-28341082D01*
X33429511Y-28041600D01*
X33684200Y-27786911D01*
X33983682Y-27586804D01*
X34316447Y-27448968D01*
X34669707Y-27378700D01*
X35029893Y-27378700D01*
X35383153Y-27448968D01*
G37*
G36*
X42143153Y-26638968D02*
G01*
X42475918Y-26776804D01*
X42775400Y-26976911D01*
X43030089Y-27231600D01*
X43230196Y-27531082D01*
X43368032Y-27863847D01*
X43438300Y-28217107D01*
X43438300Y-28577293D01*
X43368032Y-28930553D01*
X43230196Y-29263318D01*
X43030089Y-29562800D01*
X42775400Y-29817489D01*
X42475918Y-30017596D01*
X42143153Y-30155432D01*
X41789893Y-30225700D01*
X41429707Y-30225700D01*
X41076447Y-30155432D01*
X40743682Y-30017596D01*
X40444200Y-29817489D01*
X40189511Y-29562800D01*
X39989404Y-29263318D01*
X39851568Y-28930553D01*
X39781300Y-28577293D01*
X39781300Y-28217107D01*
X39851568Y-27863847D01*
X39989404Y-27531082D01*
X40189511Y-27231600D01*
X40444200Y-26976911D01*
X40743682Y-26776804D01*
X41076447Y-26638968D01*
X41429707Y-26568700D01*
X41789893Y-26568700D01*
X42143153Y-26638968D01*
G37*
G36*
X96902585Y-26882002D02*
G01*
X97052410Y-26911804D01*
X97334674Y-27028721D01*
X97588705Y-27198459D01*
X97804741Y-27414495D01*
X97974479Y-27668526D01*
X98091396Y-27950790D01*
X98109459Y-28041599D01*
X98150364Y-28247240D01*
X98151000Y-28250440D01*
X98151000Y-28555960D01*
X98091396Y-28855610D01*
X97974479Y-29137874D01*
X97804741Y-29391905D01*
X97588705Y-29607941D01*
X97334674Y-29777679D01*
X97052410Y-29894596D01*
X96902585Y-29924398D01*
X96752761Y-29954200D01*
X96447239Y-29954200D01*
X96297415Y-29924398D01*
X96147590Y-29894596D01*
X95865326Y-29777679D01*
X95611295Y-29607941D01*
X95395259Y-29391905D01*
X95225521Y-29137874D01*
X95108604Y-28855610D01*
X95049000Y-28555960D01*
X95049000Y-28250440D01*
X95049637Y-28247240D01*
X95090541Y-28041599D01*
X95108604Y-27950790D01*
X95225521Y-27668526D01*
X95395259Y-27414495D01*
X95611295Y-27198459D01*
X95865326Y-27028721D01*
X96147590Y-26911804D01*
X96297415Y-26882002D01*
X96447239Y-26852200D01*
X96752761Y-26852200D01*
X96902585Y-26882002D01*
G37*
G36*
X28568848Y-26852200D02*
G01*
X28852410Y-26908604D01*
X29134674Y-27025521D01*
X29388705Y-27195259D01*
X29604741Y-27411295D01*
X29774479Y-27665326D01*
X29891396Y-27947590D01*
X29910096Y-28041600D01*
X29951000Y-28247239D01*
X29951000Y-28552761D01*
X29946120Y-28577293D01*
X29891396Y-28852410D01*
X29774479Y-29134674D01*
X29604741Y-29388705D01*
X29388705Y-29604741D01*
X29134674Y-29774479D01*
X28852410Y-29891396D01*
X28836322Y-29894596D01*
X28552761Y-29951000D01*
X28247239Y-29951000D01*
X27963678Y-29894596D01*
X27947590Y-29891396D01*
X27665326Y-29774479D01*
X27411295Y-29604741D01*
X27195259Y-29388705D01*
X27025521Y-29134674D01*
X26908604Y-28852410D01*
X26853880Y-28577293D01*
X26849000Y-28552761D01*
X26849000Y-28247239D01*
X26889904Y-28041600D01*
X26908604Y-27947590D01*
X27025521Y-27665326D01*
X27195259Y-27411295D01*
X27411295Y-27195259D01*
X27665326Y-27025521D01*
X27947590Y-26908604D01*
X28231152Y-26852200D01*
X28247239Y-26849000D01*
X28552761Y-26849000D01*
X28568848Y-26852200D01*
G37*
G36*
X79760810Y-26723535D02*
G01*
X79817707Y-26734852D01*
X79978494Y-26801452D01*
X79978496Y-26801453D01*
X80123196Y-26898138D01*
X80246262Y-27021204D01*
X80342947Y-27165904D01*
X80409548Y-27326694D01*
X80426377Y-27411296D01*
X80443500Y-27497383D01*
X80443500Y-27671417D01*
X80409548Y-27842107D01*
X80342948Y-28002894D01*
X80342947Y-28002896D01*
X80246262Y-28147596D01*
X80123196Y-28270662D01*
X79978496Y-28367347D01*
X79978495Y-28367348D01*
X79978494Y-28367348D01*
X79817707Y-28433948D01*
X79760810Y-28445265D01*
X79647019Y-28467900D01*
X79472981Y-28467900D01*
X79359190Y-28445265D01*
X79302293Y-28433948D01*
X79141506Y-28367348D01*
X79141505Y-28367348D01*
X79141504Y-28367347D01*
X78996804Y-28270662D01*
X78873738Y-28147596D01*
X78777053Y-28002896D01*
X78777052Y-28002894D01*
X78710452Y-27842107D01*
X78676500Y-27671417D01*
X78676500Y-27497383D01*
X78693624Y-27411296D01*
X78710452Y-27326694D01*
X78777053Y-27165904D01*
X78873738Y-27021204D01*
X78996804Y-26898138D01*
X79141504Y-26801453D01*
X79141506Y-26801452D01*
X79302293Y-26734852D01*
X79359190Y-26723535D01*
X79472981Y-26700900D01*
X79647019Y-26700900D01*
X79760810Y-26723535D01*
G37*
G36*
X77220810Y-26723535D02*
G01*
X77277707Y-26734852D01*
X77438494Y-26801452D01*
X77438496Y-26801453D01*
X77583196Y-26898138D01*
X77706262Y-27021204D01*
X77802947Y-27165904D01*
X77869548Y-27326694D01*
X77886377Y-27411296D01*
X77903500Y-27497383D01*
X77903500Y-27671417D01*
X77869548Y-27842107D01*
X77802948Y-28002894D01*
X77802947Y-28002896D01*
X77706262Y-28147596D01*
X77583196Y-28270662D01*
X77438496Y-28367347D01*
X77438495Y-28367348D01*
X77438494Y-28367348D01*
X77277707Y-28433948D01*
X77220810Y-28445265D01*
X77107019Y-28467900D01*
X76932981Y-28467900D01*
X76819190Y-28445265D01*
X76762293Y-28433948D01*
X76601506Y-28367348D01*
X76601505Y-28367348D01*
X76601504Y-28367347D01*
X76456804Y-28270662D01*
X76333738Y-28147596D01*
X76237053Y-28002896D01*
X76237052Y-28002894D01*
X76170452Y-27842107D01*
X76136500Y-27671417D01*
X76136500Y-27497383D01*
X76153624Y-27411296D01*
X76170452Y-27326694D01*
X76237053Y-27165904D01*
X76333738Y-27021204D01*
X76456804Y-26898138D01*
X76601504Y-26801453D01*
X76601506Y-26801452D01*
X76762293Y-26734852D01*
X76819190Y-26723535D01*
X76932981Y-26700900D01*
X77107019Y-26700900D01*
X77220810Y-26723535D01*
G37*
G36*
X74680810Y-26723535D02*
G01*
X74737707Y-26734852D01*
X74898494Y-26801452D01*
X74898496Y-26801453D01*
X75043196Y-26898138D01*
X75166262Y-27021204D01*
X75262947Y-27165904D01*
X75329548Y-27326694D01*
X75346377Y-27411296D01*
X75363500Y-27497383D01*
X75363500Y-27671417D01*
X75329548Y-27842107D01*
X75262948Y-28002894D01*
X75262947Y-28002896D01*
X75166262Y-28147596D01*
X75043196Y-28270662D01*
X74898496Y-28367347D01*
X74898495Y-28367348D01*
X74898494Y-28367348D01*
X74737707Y-28433948D01*
X74680810Y-28445265D01*
X74567019Y-28467900D01*
X74392981Y-28467900D01*
X74279190Y-28445265D01*
X74222293Y-28433948D01*
X74061506Y-28367348D01*
X74061505Y-28367348D01*
X74061504Y-28367347D01*
X73916804Y-28270662D01*
X73793738Y-28147596D01*
X73697053Y-28002896D01*
X73697052Y-28002894D01*
X73630452Y-27842107D01*
X73596500Y-27671417D01*
X73596500Y-27497383D01*
X73613624Y-27411296D01*
X73630452Y-27326694D01*
X73697053Y-27165904D01*
X73793738Y-27021204D01*
X73916804Y-26898138D01*
X74061504Y-26801453D01*
X74061506Y-26801452D01*
X74222293Y-26734852D01*
X74279190Y-26723535D01*
X74392981Y-26700900D01*
X74567019Y-26700900D01*
X74680810Y-26723535D01*
G37*
G36*
X69600810Y-26723535D02*
G01*
X69657707Y-26734852D01*
X69818494Y-26801452D01*
X69818496Y-26801453D01*
X69963196Y-26898138D01*
X70086262Y-27021204D01*
X70182947Y-27165904D01*
X70249548Y-27326694D01*
X70266377Y-27411296D01*
X70283500Y-27497383D01*
X70283500Y-27671417D01*
X70249548Y-27842107D01*
X70182948Y-28002894D01*
X70182947Y-28002896D01*
X70086262Y-28147596D01*
X69963196Y-28270662D01*
X69818496Y-28367347D01*
X69818495Y-28367348D01*
X69818494Y-28367348D01*
X69657707Y-28433948D01*
X69600810Y-28445265D01*
X69487019Y-28467900D01*
X69312981Y-28467900D01*
X69199190Y-28445265D01*
X69142293Y-28433948D01*
X68981506Y-28367348D01*
X68981505Y-28367348D01*
X68981504Y-28367347D01*
X68836804Y-28270662D01*
X68713738Y-28147596D01*
X68617053Y-28002896D01*
X68617052Y-28002894D01*
X68550452Y-27842107D01*
X68516500Y-27671417D01*
X68516500Y-27497383D01*
X68533624Y-27411296D01*
X68550452Y-27326694D01*
X68617053Y-27165904D01*
X68713738Y-27021204D01*
X68836804Y-26898138D01*
X68981504Y-26801453D01*
X68981506Y-26801452D01*
X69142293Y-26734852D01*
X69199190Y-26723535D01*
X69312981Y-26700900D01*
X69487019Y-26700900D01*
X69600810Y-26723535D01*
G37*
G36*
X72140810Y-26723535D02*
G01*
X72197707Y-26734852D01*
X72358494Y-26801452D01*
X72358496Y-26801453D01*
X72503196Y-26898138D01*
X72626262Y-27021204D01*
X72722947Y-27165904D01*
X72789548Y-27326694D01*
X72806377Y-27411296D01*
X72823500Y-27497383D01*
X72823500Y-27671417D01*
X72789548Y-27842107D01*
X72722948Y-28002894D01*
X72722947Y-28002896D01*
X72626262Y-28147596D01*
X72503196Y-28270662D01*
X72358496Y-28367347D01*
X72358495Y-28367348D01*
X72358494Y-28367348D01*
X72197707Y-28433948D01*
X72140810Y-28445265D01*
X72027019Y-28467900D01*
X71852981Y-28467900D01*
X71739190Y-28445265D01*
X71682293Y-28433948D01*
X71521506Y-28367348D01*
X71521505Y-28367348D01*
X71521504Y-28367347D01*
X71376804Y-28270662D01*
X71253738Y-28147596D01*
X71157053Y-28002896D01*
X71157052Y-28002894D01*
X71090452Y-27842107D01*
X71056500Y-27671417D01*
X71056500Y-27497383D01*
X71073624Y-27411296D01*
X71090452Y-27326694D01*
X71157053Y-27165904D01*
X71253738Y-27021204D01*
X71376804Y-26898138D01*
X71521504Y-26801453D01*
X71521506Y-26801452D01*
X71682293Y-26734852D01*
X71739190Y-26723535D01*
X71852981Y-26700900D01*
X72027019Y-26700900D01*
X72140810Y-26723535D01*
G37*
M02*
